<svg version="1.1" viewBox="0.0 0.0 790.501312335958 444.16272965879267" fill="none" stroke="none" stroke-linecap="square" stroke-miterlimit="10" xmlns:xlink="http://www.w3.org/1999/xlink" xmlns="http://www.w3.org/2000/svg"><clipPath id="p.0"><path d="m0 0l790.50134 0l0 444.16272l-790.50134 0l0 -444.16272z" clip-rule="nonzero"/></clipPath><g clip-path="url(#p.0)"><path fill="#000000" fill-opacity="0.0" d="m0 0l790.50134 0l0 444.16272l-790.50134 0z" fill-rule="evenodd"/><path fill="#cfe2f3" d="m303.38058 135.66676l0 0c-5.7345886 0 -10.383392 -4.6488037 -10.383392 -10.383408l0 -41.532394l0 0c0 -2.7538528 1.0939636 -5.3949127 3.0412292 -7.3421783c1.9472656 -1.9472656 4.588318 -3.0412292 7.342163 -3.0412292l184.17807 0c5.7345886 0 10.383392 4.6488113 10.383392 10.383408l0 41.532394c0 5.734604 -4.6488037 10.383408 -10.383392 10.383408z" fill-rule="evenodd"/><path stroke="#000000" stroke-width="2.0" stroke-linejoin="round" stroke-linecap="butt" d="m303.38058 135.66676l0 0c-5.7345886 0 -10.383392 -4.6488037 -10.383392 -10.383408l0 -41.532394l0 0c0 -2.7538528 1.0939636 -5.3949127 3.0412292 -7.3421783c1.9472656 -1.9472656 4.588318 -3.0412292 7.342163 -3.0412292l184.17807 0c5.7345886 0 10.383392 4.6488113 10.383392 10.383408l0 41.532394c0 5.734604 -4.6488037 10.383408 -10.383392 10.383408z" fill-rule="evenodd"/><path fill="#cfe2f3" d="m282.9642 123.96913l0 -40.05243c0 -0.4441223 0.17642212 -0.87005615 0.49047852 -1.1841049c0.3140564 -0.31404114 0.73999023 -0.4904709 1.1841125 -0.4904709l8.37265 0c2.1362305E-4 0 3.6621094E-4 1.6784668E-4 3.6621094E-4 3.6621094E-4l-3.6621094E-4 43.401207l0 0c0 2.0599365E-4 -1.5258789E-4 3.6621094E-4 -3.6621094E-4 3.6621094E-4l-8.372284 -3.6621094E-4l0 0c-0.9248657 0 -1.6745911 -0.74972534 -1.6745911 -1.6745682z" fill-rule="evenodd"/><path stroke="#000000" stroke-width="2.0" stroke-linejoin="round" stroke-linecap="butt" d="m282.9642 123.96913l0 -40.05243c0 -0.4441223 0.17642212 -0.87005615 0.49047852 -1.1841049c0.3140564 -0.31404114 0.73999023 -0.4904709 1.1841125 -0.4904709l8.37265 0c2.1362305E-4 0 3.6621094E-4 1.6784668E-4 3.6621094E-4 3.6621094E-4l-3.6621094E-4 43.401207l0 0c0 2.0599365E-4 -1.5258789E-4 3.6621094E-4 -3.6621094E-4 3.6621094E-4l-8.372284 -3.6621094E-4l0 0c-0.9248657 0 -1.6745911 -0.74972534 -1.6745911 -1.6745682z" fill-rule="evenodd"/><path fill="#cfe2f3" d="m475.66037 117.83797l0 0c-2.4605408 0 -4.4552 -1.9928741 -4.4552 -4.4512024l0 0c0 -1.1805344 0.46939087 -2.3127136 1.3049011 -3.1474762c0.83551025 -0.8347626 1.9687195 -1.3037262 3.150299 -1.3037262l0 0c2.4605408 0 4.4552 1.9928741 4.4552 4.4512024l0 0c0 2.4583282 -1.9946594 4.4512024 -4.4552 4.4512024z" fill-rule="evenodd"/><path stroke="#000000" stroke-width="1.0" stroke-linejoin="round" stroke-linecap="butt" d="m475.66037 117.83797l0 0c-2.4605408 0 -4.4552 -1.9928741 -4.4552 -4.4512024l0 0c0 -1.1805344 0.46939087 -2.3127136 1.3049011 -3.1474762c0.83551025 -0.8347626 1.9687195 -1.3037262 3.150299 -1.3037262l0 0c2.4605408 0 4.4552 1.9928741 4.4552 4.4512024l0 0c0 2.4583282 -1.9946594 4.4512024 -4.4552 4.4512024z" fill-rule="evenodd"/><path fill="#000000" fill-opacity="0.0" d="m475.66037 115.53557l0 -4.4512024" fill-rule="evenodd"/><path stroke="#000000" stroke-width="1.0" stroke-linejoin="round" stroke-linecap="butt" d="m475.66037 115.53557l0 -4.4512024" fill-rule="evenodd"/><path fill="#cfe2f3" d="m475.66037 100.03477l0 0c-2.4605408 0 -4.4552 -1.9928741 -4.4552 -4.4512024l0 0c0 -1.1805344 0.46939087 -2.3127136 1.3049011 -3.1474762c0.83551025 -0.8347626 1.9687195 -1.3037262 3.150299 -1.3037262l0 0c2.4605408 0 4.4552 1.9928741 4.4552 4.4512024l0 0c0 2.4583282 -1.9946594 4.4512024 -4.4552 4.4512024z" fill-rule="evenodd"/><path stroke="#000000" stroke-width="1.0" stroke-linejoin="round" stroke-linecap="butt" d="m475.66037 100.03477l0 0c-2.4605408 0 -4.4552 -1.9928741 -4.4552 -4.4512024l0 0c0 -1.1805344 0.46939087 -2.3127136 1.3049011 -3.1474762c0.83551025 -0.8347626 1.9687195 -1.3037262 3.150299 -1.3037262l0 0c2.4605408 0 4.4552 1.9928741 4.4552 4.4512024l0 0c0 2.4583282 -1.9946594 4.4512024 -4.4552 4.4512024z" fill-rule="evenodd"/><path fill="#000000" fill-opacity="0.0" d="m475.66037 97.73237l0 -4.4512024" fill-rule="evenodd"/><path stroke="#000000" stroke-width="1.0" stroke-linejoin="round" stroke-linecap="butt" d="m475.66037 97.73237l0 -4.4512024" fill-rule="evenodd"/><path fill="#cfe2f3" d="m466.74997 91.13316l0 0c-2.4605408 0 -4.4552 -1.9928665 -4.4552 -4.4512024l0 0c0 -1.1805267 0.46939087 -2.312706 1.3049011 -3.1474686c0.83551025 -0.8347626 1.9687195 -1.3037262 3.150299 -1.3037262l0 0c2.4605408 0 4.4552 1.9928665 4.4552 4.451195l0 0c0 2.4583359 -1.9946594 4.4512024 -4.4552 4.4512024z" fill-rule="evenodd"/><path stroke="#000000" stroke-width="1.0" stroke-linejoin="round" stroke-linecap="butt" d="m466.74997 91.13316l0 0c-2.4605408 0 -4.4552 -1.9928665 -4.4552 -4.4512024l0 0c0 -1.1805267 0.46939087 -2.312706 1.3049011 -3.1474686c0.83551025 -0.8347626 1.9687195 -1.3037262 3.150299 -1.3037262l0 0c2.4605408 0 4.4552 1.9928665 4.4552 4.451195l0 0c0 2.4583359 -1.9946594 4.4512024 -4.4552 4.4512024z" fill-rule="evenodd"/><path fill="#000000" fill-opacity="0.0" d="m466.74997 88.83077l0 -4.4512024" fill-rule="evenodd"/><path stroke="#000000" stroke-width="1.0" stroke-linejoin="round" stroke-linecap="butt" d="m466.74997 88.83077l0 -4.4512024" fill-rule="evenodd"/><path fill="#cfe2f3" d="m484.57077 126.73956l0 0c-2.4605408 0 -4.4552 -1.9928665 -4.4552 -4.451195l0 0c0 -1.1805344 0.46939087 -2.3127136 1.3049011 -3.1474762c0.83551025 -0.8347626 1.9687195 -1.3037262 3.150299 -1.3037262l0 0c2.4605408 0 4.4552 1.9928665 4.4552 4.4512024l0 0c0 2.4583282 -1.9946594 4.451195 -4.4552 4.451195z" fill-rule="evenodd"/><path stroke="#000000" stroke-width="1.0" stroke-linejoin="round" stroke-linecap="butt" d="m484.57077 126.73956l0 0c-2.4605408 0 -4.4552 -1.9928665 -4.4552 -4.451195l0 0c0 -1.1805344 0.46939087 -2.3127136 1.3049011 -3.1474762c0.83551025 -0.8347626 1.9687195 -1.3037262 3.150299 -1.3037262l0 0c2.4605408 0 4.4552 1.9928665 4.4552 4.4512024l0 0c0 2.4583282 -1.9946594 4.451195 -4.4552 4.451195z" fill-rule="evenodd"/><path fill="#000000" fill-opacity="0.0" d="m484.57077 124.43717l0 -4.4512024" fill-rule="evenodd"/><path stroke="#000000" stroke-width="1.0" stroke-linejoin="round" stroke-linecap="butt" d="m484.57077 124.43717l0 -4.4512024" fill-rule="evenodd"/><path fill="#cfe2f3" d="m484.57077 108.93636l0 0c-2.4605408 0 -4.4552 -1.9928665 -4.4552 -4.451195l0 0c0 -1.1805344 0.46939087 -2.3127136 1.3049011 -3.1474762c0.83551025 -0.8347626 1.9687195 -1.3037262 3.150299 -1.3037262l0 0c2.4605408 0 4.4552 1.9928665 4.4552 4.4512024l0 0c0 2.4583282 -1.9946594 4.451195 -4.4552 4.451195z" fill-rule="evenodd"/><path stroke="#000000" stroke-width="1.0" stroke-linejoin="round" stroke-linecap="butt" d="m484.57077 108.93636l0 0c-2.4605408 0 -4.4552 -1.9928665 -4.4552 -4.451195l0 0c0 -1.1805344 0.46939087 -2.3127136 1.3049011 -3.1474762c0.83551025 -0.8347626 1.9687195 -1.3037262 3.150299 -1.3037262l0 0c2.4605408 0 4.4552 1.9928665 4.4552 4.4512024l0 0c0 2.4583282 -1.9946594 4.451195 -4.4552 4.451195z" fill-rule="evenodd"/><path fill="#000000" fill-opacity="0.0" d="m484.57077 106.63397l0 -4.4512024" fill-rule="evenodd"/><path stroke="#000000" stroke-width="1.0" stroke-linejoin="round" stroke-linecap="butt" d="m484.57077 106.63397l0 -4.4512024" fill-rule="evenodd"/><path fill="#cfe2f3" d="m484.57077 91.13316l0 0c-2.4605408 0 -4.4552 -1.9928665 -4.4552 -4.4512024l0 0c0 -1.1805267 0.46939087 -2.312706 1.3049011 -3.1474686c0.83551025 -0.8347626 1.9687195 -1.3037262 3.150299 -1.3037262l0 0c2.4605408 0 4.4552 1.9928665 4.4552 4.451195l0 0c0 2.4583359 -1.9946594 4.4512024 -4.4552 4.4512024z" fill-rule="evenodd"/><path stroke="#000000" stroke-width="1.0" stroke-linejoin="round" stroke-linecap="butt" d="m484.57077 91.13316l0 0c-2.4605408 0 -4.4552 -1.9928665 -4.4552 -4.4512024l0 0c0 -1.1805267 0.46939087 -2.312706 1.3049011 -3.1474686c0.83551025 -0.8347626 1.9687195 -1.3037262 3.150299 -1.3037262l0 0c2.4605408 0 4.4552 1.9928665 4.4552 4.451195l0 0c0 2.4583359 -1.9946594 4.4512024 -4.4552 4.4512024z" fill-rule="evenodd"/><path fill="#000000" fill-opacity="0.0" d="m484.57077 88.83077l0 -4.4512024" fill-rule="evenodd"/><path stroke="#000000" stroke-width="1.0" stroke-linejoin="round" stroke-linecap="butt" d="m484.57077 88.83077l0 -4.4512024" fill-rule="evenodd"/><path fill="#cfe2f3" d="m466.74997 108.93636l0 0c-2.4605408 0 -4.4552 -1.9928665 -4.4552 -4.451195l0 0c0 -1.1805344 0.46939087 -2.3127136 1.3049011 -3.1474762c0.83551025 -0.8347626 1.9687195 -1.3037262 3.150299 -1.3037262l0 0c2.4605408 0 4.4552 1.9928665 4.4552 4.4512024l0 0c0 2.4583282 -1.9946594 4.451195 -4.4552 4.451195z" fill-rule="evenodd"/><path stroke="#000000" stroke-width="1.0" stroke-linejoin="round" stroke-linecap="butt" d="m466.74997 108.93636l0 0c-2.4605408 0 -4.4552 -1.9928665 -4.4552 -4.451195l0 0c0 -1.1805344 0.46939087 -2.3127136 1.3049011 -3.1474762c0.83551025 -0.8347626 1.9687195 -1.3037262 3.150299 -1.3037262l0 0c2.4605408 0 4.4552 1.9928665 4.4552 4.4512024l0 0c0 2.4583282 -1.9946594 4.451195 -4.4552 4.451195z" fill-rule="evenodd"/><path fill="#000000" fill-opacity="0.0" d="m466.74997 106.63397l0 -4.4512024" fill-rule="evenodd"/><path stroke="#000000" stroke-width="1.0" stroke-linejoin="round" stroke-linecap="butt" d="m466.74997 106.63397l0 -4.4512024" fill-rule="evenodd"/><path fill="#cfe2f3" d="m466.74997 126.73956l0 0c-2.4605408 0 -4.4552 -1.9928665 -4.4552 -4.451195l0 0c0 -1.1805344 0.46939087 -2.3127136 1.3049011 -3.1474762c0.83551025 -0.8347626 1.9687195 -1.3037262 3.150299 -1.3037262l0 0c2.4605408 0 4.4552 1.9928665 4.4552 4.4512024l0 0c0 2.4583282 -1.9946594 4.451195 -4.4552 4.451195z" fill-rule="evenodd"/><path stroke="#000000" stroke-width="1.0" stroke-linejoin="round" stroke-linecap="butt" d="m466.74997 126.73956l0 0c-2.4605408 0 -4.4552 -1.9928665 -4.4552 -4.451195l0 0c0 -1.1805344 0.46939087 -2.3127136 1.3049011 -3.1474762c0.83551025 -0.8347626 1.9687195 -1.3037262 3.150299 -1.3037262l0 0c2.4605408 0 4.4552 1.9928665 4.4552 4.4512024l0 0c0 2.4583282 -1.9946594 4.451195 -4.4552 4.451195z" fill-rule="evenodd"/><path fill="#000000" fill-opacity="0.0" d="m466.74997 124.43717l0 -4.4512024" fill-rule="evenodd"/><path stroke="#000000" stroke-width="1.0" stroke-linejoin="round" stroke-linecap="butt" d="m466.74997 124.43717l0 -4.4512024" fill-rule="evenodd"/><path fill="#cfe2f3" d="m306.3628 126.76517l0 0c-2.4605408 0 -4.4552 -1.992691 -4.4552 -4.4508057l0 0c0 -1.1804199 0.46936035 -2.3125 1.3048706 -3.1471863c0.8355408 -0.8346863 1.9687195 -1.3036118 3.1503296 -1.3036118l0 0c2.4605408 0 4.4552 1.992691 4.4552 4.450798l0 0c0 2.4581146 -1.9946594 4.4508057 -4.4552 4.4508057z" fill-rule="evenodd"/><path stroke="#000000" stroke-width="1.0" stroke-linejoin="round" stroke-linecap="butt" d="m306.3628 126.76517l0 0c-2.4605408 0 -4.4552 -1.992691 -4.4552 -4.4508057l0 0c0 -1.1804199 0.46936035 -2.3125 1.3048706 -3.1471863c0.8355408 -0.8346863 1.9687195 -1.3036118 3.1503296 -1.3036118l0 0c2.4605408 0 4.4552 1.992691 4.4552 4.450798l0 0c0 2.4581146 -1.9946594 4.4508057 -4.4552 4.4508057z" fill-rule="evenodd"/><path fill="#000000" fill-opacity="0.0" d="m306.3628 124.462975l0 -4.450798" fill-rule="evenodd"/><path stroke="#000000" stroke-width="1.0" stroke-linejoin="round" stroke-linecap="butt" d="m306.3628 124.462975l0 -4.450798" fill-rule="evenodd"/><path fill="#000000" fill-opacity="0.0" d="m308.5904 122.31436l-4.4552 0" fill-rule="evenodd"/><path stroke="#000000" stroke-width="1.0" stroke-linejoin="round" stroke-linecap="butt" d="m308.5904 122.31436l-4.4552 0" fill-rule="evenodd"/><path fill="#cfe2f3" d="m306.3628 91.15877l0 0c-2.4605408 0 -4.4552 -1.992691 -4.4552 -4.4508057l0 0c0 -1.1804199 0.46936035 -2.3125 1.3048706 -3.1471863c0.8355408 -0.8346863 1.9687195 -1.3036118 3.1503296 -1.3036118l0 0c2.4605408 0 4.4552 1.992691 4.4552 4.450798l0 0c0 2.4581146 -1.9946594 4.4508057 -4.4552 4.4508057z" fill-rule="evenodd"/><path stroke="#000000" stroke-width="1.0" stroke-linejoin="round" stroke-linecap="butt" d="m306.3628 91.15877l0 0c-2.4605408 0 -4.4552 -1.992691 -4.4552 -4.4508057l0 0c0 -1.1804199 0.46936035 -2.3125 1.3048706 -3.1471863c0.8355408 -0.8346863 1.9687195 -1.3036118 3.1503296 -1.3036118l0 0c2.4605408 0 4.4552 1.992691 4.4552 4.450798l0 0c0 2.4581146 -1.9946594 4.4508057 -4.4552 4.4508057z" fill-rule="evenodd"/><path fill="#000000" fill-opacity="0.0" d="m306.3628 88.856575l0 -4.450798" fill-rule="evenodd"/><path stroke="#000000" stroke-width="1.0" stroke-linejoin="round" stroke-linecap="butt" d="m306.3628 88.856575l0 -4.450798" fill-rule="evenodd"/><path fill="#000000" fill-opacity="0.0" d="m308.5904 86.70796l-4.4552 0" fill-rule="evenodd"/><path stroke="#000000" stroke-width="1.0" stroke-linejoin="round" stroke-linecap="butt" d="m308.5904 86.70796l-4.4552 0" fill-rule="evenodd"/><path fill="#cfe2f3" d="m306.3628 108.96197l0 0c-2.4605408 0 -4.4552 -1.992691 -4.4552 -4.4508057l0 0c0 -1.1804199 0.46936035 -2.3125 1.3048706 -3.1471863c0.8355408 -0.8346863 1.9687195 -1.3036118 3.1503296 -1.3036118l0 0c2.4605408 0 4.4552 1.992691 4.4552 4.450798l0 0c0 2.4581146 -1.9946594 4.4508057 -4.4552 4.4508057z" fill-rule="evenodd"/><path stroke="#000000" stroke-width="1.0" stroke-linejoin="round" stroke-linecap="butt" d="m306.3628 108.96197l0 0c-2.4605408 0 -4.4552 -1.992691 -4.4552 -4.4508057l0 0c0 -1.1804199 0.46936035 -2.3125 1.3048706 -3.1471863c0.8355408 -0.8346863 1.9687195 -1.3036118 3.1503296 -1.3036118l0 0c2.4605408 0 4.4552 1.992691 4.4552 4.450798l0 0c0 2.4581146 -1.9946594 4.4508057 -4.4552 4.4508057z" fill-rule="evenodd"/><path fill="#000000" fill-opacity="0.0" d="m306.3628 106.659775l0 -4.450798" fill-rule="evenodd"/><path stroke="#000000" stroke-width="1.0" stroke-linejoin="round" stroke-linecap="butt" d="m306.3628 106.659775l0 -4.450798" fill-rule="evenodd"/><path fill="#000000" fill-opacity="0.0" d="m308.5904 104.51116l-4.4552 0" fill-rule="evenodd"/><path stroke="#000000" stroke-width="1.0" stroke-linejoin="round" stroke-linecap="butt" d="m308.5904 104.51116l-4.4552 0" fill-rule="evenodd"/><path fill="#cfe2f3" d="m315.2732 117.86356l0 0c-2.4605408 0 -4.4552 -1.992691 -4.4552 -4.450798l0 0c0 -1.1804276 0.46936035 -2.3125076 1.3048706 -3.147194c0.8355408 -0.8346863 1.9687195 -1.3036041 3.1503296 -1.3036041l0 0c2.4605408 0 4.4552 1.992691 4.4552 4.450798l0 0c0 2.458107 -1.9946594 4.450798 -4.4552 4.450798z" fill-rule="evenodd"/><path stroke="#000000" stroke-width="1.0" stroke-linejoin="round" stroke-linecap="butt" d="m315.2732 117.86356l0 0c-2.4605408 0 -4.4552 -1.992691 -4.4552 -4.450798l0 0c0 -1.1804276 0.46936035 -2.3125076 1.3048706 -3.147194c0.8355408 -0.8346863 1.9687195 -1.3036041 3.1503296 -1.3036041l0 0c2.4605408 0 4.4552 1.992691 4.4552 4.450798l0 0c0 2.458107 -1.9946594 4.450798 -4.4552 4.450798z" fill-rule="evenodd"/><path fill="#000000" fill-opacity="0.0" d="m315.2732 115.56138l0 -4.4508057" fill-rule="evenodd"/><path stroke="#000000" stroke-width="1.0" stroke-linejoin="round" stroke-linecap="butt" d="m315.2732 115.56138l0 -4.4508057" fill-rule="evenodd"/><path fill="#000000" fill-opacity="0.0" d="m317.5008 113.412766l-4.4552 0" fill-rule="evenodd"/><path stroke="#000000" stroke-width="1.0" stroke-linejoin="round" stroke-linecap="butt" d="m317.5008 113.412766l-4.4552 0" fill-rule="evenodd"/><path fill="#cfe2f3" d="m315.2732 100.06036l0 0c-2.4605408 0 -4.4552 -1.992691 -4.4552 -4.450798l0 0c0 -1.1804276 0.46936035 -2.3125076 1.3048706 -3.147194c0.8355408 -0.8346863 1.9687195 -1.3036041 3.1503296 -1.3036041l0 0c2.4605408 0 4.4552 1.992691 4.4552 4.450798l0 0c0 2.458107 -1.9946594 4.450798 -4.4552 4.450798z" fill-rule="evenodd"/><path stroke="#000000" stroke-width="1.0" stroke-linejoin="round" stroke-linecap="butt" d="m315.2732 100.06036l0 0c-2.4605408 0 -4.4552 -1.992691 -4.4552 -4.450798l0 0c0 -1.1804276 0.46936035 -2.3125076 1.3048706 -3.147194c0.8355408 -0.8346863 1.9687195 -1.3036041 3.1503296 -1.3036041l0 0c2.4605408 0 4.4552 1.992691 4.4552 4.450798l0 0c0 2.458107 -1.9946594 4.450798 -4.4552 4.450798z" fill-rule="evenodd"/><path fill="#000000" fill-opacity="0.0" d="m315.2732 97.75818l0 -4.4508057" fill-rule="evenodd"/><path stroke="#000000" stroke-width="1.0" stroke-linejoin="round" stroke-linecap="butt" d="m315.2732 97.75818l0 -4.4508057" fill-rule="evenodd"/><path fill="#000000" fill-opacity="0.0" d="m317.5008 95.609566l-4.4552 0" fill-rule="evenodd"/><path stroke="#000000" stroke-width="1.0" stroke-linejoin="round" stroke-linecap="butt" d="m317.5008 95.609566l-4.4552 0" fill-rule="evenodd"/><path fill="#cfe2f3" d="m324.1836 126.76517l0 0c-2.4605408 0 -4.4552 -1.992691 -4.4552 -4.4508057l0 0c0 -1.1804199 0.46936035 -2.3125 1.3048706 -3.1471863c0.8355408 -0.8346863 1.9687195 -1.3036118 3.1503296 -1.3036118l0 0c2.4605408 0 4.4552 1.992691 4.4552 4.450798l0 0c0 2.4581146 -1.9946594 4.4508057 -4.4552 4.4508057z" fill-rule="evenodd"/><path stroke="#000000" stroke-width="1.0" stroke-linejoin="round" stroke-linecap="butt" d="m324.1836 126.76517l0 0c-2.4605408 0 -4.4552 -1.992691 -4.4552 -4.4508057l0 0c0 -1.1804199 0.46936035 -2.3125 1.3048706 -3.1471863c0.8355408 -0.8346863 1.9687195 -1.3036118 3.1503296 -1.3036118l0 0c2.4605408 0 4.4552 1.992691 4.4552 4.450798l0 0c0 2.4581146 -1.9946594 4.4508057 -4.4552 4.4508057z" fill-rule="evenodd"/><path fill="#000000" fill-opacity="0.0" d="m324.1836 124.462975l0 -4.450798" fill-rule="evenodd"/><path stroke="#000000" stroke-width="1.0" stroke-linejoin="round" stroke-linecap="butt" d="m324.1836 124.462975l0 -4.450798" fill-rule="evenodd"/><path fill="#000000" fill-opacity="0.0" d="m326.4112 122.31436l-4.4552 0" fill-rule="evenodd"/><path stroke="#000000" stroke-width="1.0" stroke-linejoin="round" stroke-linecap="butt" d="m326.4112 122.31436l-4.4552 0" fill-rule="evenodd"/><path fill="#cfe2f3" d="m324.1836 108.96197l0 0c-2.4605408 0 -4.4552 -1.992691 -4.4552 -4.4508057l0 0c0 -1.1804199 0.46936035 -2.3125 1.3048706 -3.1471863c0.8355408 -0.8346863 1.9687195 -1.3036118 3.1503296 -1.3036118l0 0c2.4605408 0 4.4552 1.992691 4.4552 4.450798l0 0c0 2.4581146 -1.9946594 4.4508057 -4.4552 4.4508057z" fill-rule="evenodd"/><path stroke="#000000" stroke-width="1.0" stroke-linejoin="round" stroke-linecap="butt" d="m324.1836 108.96197l0 0c-2.4605408 0 -4.4552 -1.992691 -4.4552 -4.4508057l0 0c0 -1.1804199 0.46936035 -2.3125 1.3048706 -3.1471863c0.8355408 -0.8346863 1.9687195 -1.3036118 3.1503296 -1.3036118l0 0c2.4605408 0 4.4552 1.992691 4.4552 4.450798l0 0c0 2.4581146 -1.9946594 4.4508057 -4.4552 4.4508057z" fill-rule="evenodd"/><path fill="#000000" fill-opacity="0.0" d="m324.1836 106.659775l0 -4.450798" fill-rule="evenodd"/><path stroke="#000000" stroke-width="1.0" stroke-linejoin="round" stroke-linecap="butt" d="m324.1836 106.659775l0 -4.450798" fill-rule="evenodd"/><path fill="#000000" fill-opacity="0.0" d="m326.4112 104.51116l-4.4552 0" fill-rule="evenodd"/><path stroke="#000000" stroke-width="1.0" stroke-linejoin="round" stroke-linecap="butt" d="m326.4112 104.51116l-4.4552 0" fill-rule="evenodd"/><path fill="#cfe2f3" d="m324.1836 91.15877l0 0c-2.4605408 0 -4.4552 -1.992691 -4.4552 -4.4508057l0 0c0 -1.1804199 0.46936035 -2.3125 1.3048706 -3.1471863c0.8355408 -0.8346863 1.9687195 -1.3036118 3.1503296 -1.3036118l0 0c2.4605408 0 4.4552 1.992691 4.4552 4.450798l0 0c0 2.4581146 -1.9946594 4.4508057 -4.4552 4.4508057z" fill-rule="evenodd"/><path stroke="#000000" stroke-width="1.0" stroke-linejoin="round" stroke-linecap="butt" d="m324.1836 91.15877l0 0c-2.4605408 0 -4.4552 -1.992691 -4.4552 -4.4508057l0 0c0 -1.1804199 0.46936035 -2.3125 1.3048706 -3.1471863c0.8355408 -0.8346863 1.9687195 -1.3036118 3.1503296 -1.3036118l0 0c2.4605408 0 4.4552 1.992691 4.4552 4.450798l0 0c0 2.4581146 -1.9946594 4.4508057 -4.4552 4.4508057z" fill-rule="evenodd"/><path fill="#000000" fill-opacity="0.0" d="m324.1836 88.856575l0 -4.450798" fill-rule="evenodd"/><path stroke="#000000" stroke-width="1.0" stroke-linejoin="round" stroke-linecap="butt" d="m324.1836 88.856575l0 -4.450798" fill-rule="evenodd"/><path fill="#000000" fill-opacity="0.0" d="m326.4112 86.70796l-4.4552 0" fill-rule="evenodd"/><path stroke="#000000" stroke-width="1.0" stroke-linejoin="round" stroke-linecap="butt" d="m326.4112 86.70796l-4.4552 0" fill-rule="evenodd"/><path fill="#cfe2f3" d="m239.27165 203.09317l302.36218 0l0 142.58267l-302.36218 0z" fill-rule="evenodd"/><path stroke="#000000" stroke-width="2.0" stroke-linejoin="round" stroke-linecap="butt" d="m239.27165 203.09317l302.36218 0l0 142.58267l-302.36218 0z" fill-rule="evenodd"/><path fill="#cfe2f3" d="m277.36615 176.60236l40.629913 0l0 116.50394l-40.629913 0z" fill-rule="evenodd"/><path stroke="#434343" stroke-width="2.0" stroke-linejoin="round" stroke-linecap="butt" d="m277.36615 176.60236l40.629913 0l0 116.50394l-40.629913 0z" fill-rule="evenodd"/><path fill="#cfe2f3" d="m285.08307 188.67018l0 0c0 -2.4605408 1.9927063 -4.4552 4.4508057 -4.4552l0 0c1.1804199 0 2.3125 0.4693756 3.1471863 1.3048859c0.8346863 0.83551025 1.3036194 1.9687195 1.3036194 3.1503143l0 0c0 2.4605255 -1.9926758 4.4552 -4.4508057 4.4552l0 0c-2.4580994 0 -4.4508057 -1.9946747 -4.4508057 -4.4552z" fill-rule="evenodd"/><path stroke="#000000" stroke-width="1.0" stroke-linejoin="round" stroke-linecap="butt" d="m285.08307 188.67018l0 0c0 -2.4605408 1.9927063 -4.4552 4.4508057 -4.4552l0 0c1.1804199 0 2.3125 0.4693756 3.1471863 1.3048859c0.8346863 0.83551025 1.3036194 1.9687195 1.3036194 3.1503143l0 0c0 2.4605255 -1.9926758 4.4552 -4.4508057 4.4552l0 0c-2.4580994 0 -4.4508057 -1.9946747 -4.4508057 -4.4552z" fill-rule="evenodd"/><path fill="#000000" fill-opacity="0.0" d="m287.38528 188.67018l4.450775 0" fill-rule="evenodd"/><path stroke="#000000" stroke-width="1.0" stroke-linejoin="round" stroke-linecap="butt" d="m287.38528 188.67018l4.450775 0" fill-rule="evenodd"/><path fill="#000000" fill-opacity="0.0" d="m289.53387 190.89778l0 -4.4552" fill-rule="evenodd"/><path stroke="#000000" stroke-width="1.0" stroke-linejoin="round" stroke-linecap="butt" d="m289.53387 190.89778l0 -4.4552" fill-rule="evenodd"/><path fill="#cfe2f3" d="m301.08307 188.67018l0 0c0 -2.4605408 1.9927063 -4.4552 4.4508057 -4.4552l0 0c1.1804199 0 2.3125 0.4693756 3.1471863 1.3048859c0.8346863 0.83551025 1.3036194 1.9687195 1.3036194 3.1503143l0 0c0 2.4605255 -1.9926758 4.4552 -4.4508057 4.4552l0 0c-2.4580994 0 -4.4508057 -1.9946747 -4.4508057 -4.4552z" fill-rule="evenodd"/><path stroke="#000000" stroke-width="1.0" stroke-linejoin="round" stroke-linecap="butt" d="m301.08307 188.67018l0 0c0 -2.4605408 1.9927063 -4.4552 4.4508057 -4.4552l0 0c1.1804199 0 2.3125 0.4693756 3.1471863 1.3048859c0.8346863 0.83551025 1.3036194 1.9687195 1.3036194 3.1503143l0 0c0 2.4605255 -1.9926758 4.4552 -4.4508057 4.4552l0 0c-2.4580994 0 -4.4508057 -1.9946747 -4.4508057 -4.4552z" fill-rule="evenodd"/><path fill="#000000" fill-opacity="0.0" d="m303.38528 188.67018l4.450775 0" fill-rule="evenodd"/><path stroke="#000000" stroke-width="1.0" stroke-linejoin="round" stroke-linecap="butt" d="m303.38528 188.67018l4.450775 0" fill-rule="evenodd"/><path fill="#000000" fill-opacity="0.0" d="m305.53387 190.89778l0 -4.4552" fill-rule="evenodd"/><path stroke="#000000" stroke-width="1.0" stroke-linejoin="round" stroke-linecap="butt" d="m305.53387 190.89778l0 -4.4552" fill-rule="evenodd"/><path fill="#cfe2f3" d="m285.08307 204.67018l0 0c0 -2.4605408 1.9927063 -4.4552 4.4508057 -4.4552l0 0c1.1804199 0 2.3125 0.4693756 3.1471863 1.3048859c0.8346863 0.83551025 1.3036194 1.9687195 1.3036194 3.1503143l0 0c0 2.4605255 -1.9926758 4.4552 -4.4508057 4.4552l0 0c-2.4580994 0 -4.4508057 -1.9946747 -4.4508057 -4.4552z" fill-rule="evenodd"/><path stroke="#000000" stroke-width="1.0" stroke-linejoin="round" stroke-linecap="butt" d="m285.08307 204.67018l0 0c0 -2.4605408 1.9927063 -4.4552 4.4508057 -4.4552l0 0c1.1804199 0 2.3125 0.4693756 3.1471863 1.3048859c0.8346863 0.83551025 1.3036194 1.9687195 1.3036194 3.1503143l0 0c0 2.4605255 -1.9926758 4.4552 -4.4508057 4.4552l0 0c-2.4580994 0 -4.4508057 -1.9946747 -4.4508057 -4.4552z" fill-rule="evenodd"/><path fill="#000000" fill-opacity="0.0" d="m287.38528 204.67018l4.450775 0" fill-rule="evenodd"/><path stroke="#000000" stroke-width="1.0" stroke-linejoin="round" stroke-linecap="butt" d="m287.38528 204.67018l4.450775 0" fill-rule="evenodd"/><path fill="#000000" fill-opacity="0.0" d="m289.53387 206.89778l0 -4.4552" fill-rule="evenodd"/><path stroke="#000000" stroke-width="1.0" stroke-linejoin="round" stroke-linecap="butt" d="m289.53387 206.89778l0 -4.4552" fill-rule="evenodd"/><path fill="#cfe2f3" d="m301.08307 204.67018l0 0c0 -2.4605408 1.9927063 -4.4552 4.4508057 -4.4552l0 0c1.1804199 0 2.3125 0.4693756 3.1471863 1.3048859c0.8346863 0.83551025 1.3036194 1.9687195 1.3036194 3.1503143l0 0c0 2.4605255 -1.9926758 4.4552 -4.4508057 4.4552l0 0c-2.4580994 0 -4.4508057 -1.9946747 -4.4508057 -4.4552z" fill-rule="evenodd"/><path stroke="#000000" stroke-width="1.0" stroke-linejoin="round" stroke-linecap="butt" d="m301.08307 204.67018l0 0c0 -2.4605408 1.9927063 -4.4552 4.4508057 -4.4552l0 0c1.1804199 0 2.3125 0.4693756 3.1471863 1.3048859c0.8346863 0.83551025 1.3036194 1.9687195 1.3036194 3.1503143l0 0c0 2.4605255 -1.9926758 4.4552 -4.4508057 4.4552l0 0c-2.4580994 0 -4.4508057 -1.9946747 -4.4508057 -4.4552z" fill-rule="evenodd"/><path fill="#000000" fill-opacity="0.0" d="m303.38528 204.67018l4.450775 0" fill-rule="evenodd"/><path stroke="#000000" stroke-width="1.0" stroke-linejoin="round" stroke-linecap="butt" d="m303.38528 204.67018l4.450775 0" fill-rule="evenodd"/><path fill="#000000" fill-opacity="0.0" d="m305.53387 206.89778l0 -4.4552" fill-rule="evenodd"/><path stroke="#000000" stroke-width="1.0" stroke-linejoin="round" stroke-linecap="butt" d="m305.53387 206.89778l0 -4.4552" fill-rule="evenodd"/><path fill="#cfe2f3" d="m285.08307 220.67018l0 0c0 -2.4605408 1.9927063 -4.4552 4.4508057 -4.4552l0 0c1.1804199 0 2.3125 0.4693756 3.1471863 1.3048859c0.8346863 0.83551025 1.3036194 1.9687195 1.3036194 3.1503143l0 0c0 2.4605255 -1.9926758 4.4552 -4.4508057 4.4552l0 0c-2.4580994 0 -4.4508057 -1.9946747 -4.4508057 -4.4552z" fill-rule="evenodd"/><path stroke="#000000" stroke-width="1.0" stroke-linejoin="round" stroke-linecap="butt" d="m285.08307 220.67018l0 0c0 -2.4605408 1.9927063 -4.4552 4.4508057 -4.4552l0 0c1.1804199 0 2.3125 0.4693756 3.1471863 1.3048859c0.8346863 0.83551025 1.3036194 1.9687195 1.3036194 3.1503143l0 0c0 2.4605255 -1.9926758 4.4552 -4.4508057 4.4552l0 0c-2.4580994 0 -4.4508057 -1.9946747 -4.4508057 -4.4552z" fill-rule="evenodd"/><path fill="#000000" fill-opacity="0.0" d="m287.38528 220.67018l4.450775 0" fill-rule="evenodd"/><path stroke="#000000" stroke-width="1.0" stroke-linejoin="round" stroke-linecap="butt" d="m287.38528 220.67018l4.450775 0" fill-rule="evenodd"/><path fill="#000000" fill-opacity="0.0" d="m289.53387 222.89778l0 -4.4552" fill-rule="evenodd"/><path stroke="#000000" stroke-width="1.0" stroke-linejoin="round" stroke-linecap="butt" d="m289.53387 222.89778l0 -4.4552" fill-rule="evenodd"/><path fill="#cfe2f3" d="m301.08307 220.67018l0 0c0 -2.4605408 1.9927063 -4.4552 4.4508057 -4.4552l0 0c1.1804199 0 2.3125 0.4693756 3.1471863 1.3048859c0.8346863 0.83551025 1.3036194 1.9687195 1.3036194 3.1503143l0 0c0 2.4605255 -1.9926758 4.4552 -4.4508057 4.4552l0 0c-2.4580994 0 -4.4508057 -1.9946747 -4.4508057 -4.4552z" fill-rule="evenodd"/><path stroke="#000000" stroke-width="1.0" stroke-linejoin="round" stroke-linecap="butt" d="m301.08307 220.67018l0 0c0 -2.4605408 1.9927063 -4.4552 4.4508057 -4.4552l0 0c1.1804199 0 2.3125 0.4693756 3.1471863 1.3048859c0.8346863 0.83551025 1.3036194 1.9687195 1.3036194 3.1503143l0 0c0 2.4605255 -1.9926758 4.4552 -4.4508057 4.4552l0 0c-2.4580994 0 -4.4508057 -1.9946747 -4.4508057 -4.4552z" fill-rule="evenodd"/><path fill="#000000" fill-opacity="0.0" d="m303.38528 220.67018l4.450775 0" fill-rule="evenodd"/><path stroke="#000000" stroke-width="1.0" stroke-linejoin="round" stroke-linecap="butt" d="m303.38528 220.67018l4.450775 0" fill-rule="evenodd"/><path fill="#000000" fill-opacity="0.0" d="m305.53387 222.89778l0 -4.4552" fill-rule="evenodd"/><path stroke="#000000" stroke-width="1.0" stroke-linejoin="round" stroke-linecap="butt" d="m305.53387 222.89778l0 -4.4552" fill-rule="evenodd"/><path fill="#cfe2f3" d="m285.08307 236.67018l0 0c0 -2.4605408 1.9927063 -4.4552 4.4508057 -4.4552l0 0c1.1804199 0 2.3125 0.4693756 3.1471863 1.3048859c0.8346863 0.83551025 1.3036194 1.9687195 1.3036194 3.1503143l0 0c0 2.4605255 -1.9926758 4.4552 -4.4508057 4.4552l0 0c-2.4580994 0 -4.4508057 -1.9946747 -4.4508057 -4.4552z" fill-rule="evenodd"/><path stroke="#000000" stroke-width="1.0" stroke-linejoin="round" stroke-linecap="butt" d="m285.08307 236.67018l0 0c0 -2.4605408 1.9927063 -4.4552 4.4508057 -4.4552l0 0c1.1804199 0 2.3125 0.4693756 3.1471863 1.3048859c0.8346863 0.83551025 1.3036194 1.9687195 1.3036194 3.1503143l0 0c0 2.4605255 -1.9926758 4.4552 -4.4508057 4.4552l0 0c-2.4580994 0 -4.4508057 -1.9946747 -4.4508057 -4.4552z" fill-rule="evenodd"/><path fill="#000000" fill-opacity="0.0" d="m287.38528 236.67018l4.450775 0" fill-rule="evenodd"/><path stroke="#000000" stroke-width="1.0" stroke-linejoin="round" stroke-linecap="butt" d="m287.38528 236.67018l4.450775 0" fill-rule="evenodd"/><path fill="#000000" fill-opacity="0.0" d="m289.53387 238.89778l0 -4.4552" fill-rule="evenodd"/><path stroke="#000000" stroke-width="1.0" stroke-linejoin="round" stroke-linecap="butt" d="m289.53387 238.89778l0 -4.4552" fill-rule="evenodd"/><path fill="#cfe2f3" d="m301.08307 236.67018l0 0c0 -2.4605408 1.9927063 -4.4552 4.4508057 -4.4552l0 0c1.1804199 0 2.3125 0.4693756 3.1471863 1.3048859c0.8346863 0.83551025 1.3036194 1.9687195 1.3036194 3.1503143l0 0c0 2.4605255 -1.9926758 4.4552 -4.4508057 4.4552l0 0c-2.4580994 0 -4.4508057 -1.9946747 -4.4508057 -4.4552z" fill-rule="evenodd"/><path stroke="#000000" stroke-width="1.0" stroke-linejoin="round" stroke-linecap="butt" d="m301.08307 236.67018l0 0c0 -2.4605408 1.9927063 -4.4552 4.4508057 -4.4552l0 0c1.1804199 0 2.3125 0.4693756 3.1471863 1.3048859c0.8346863 0.83551025 1.3036194 1.9687195 1.3036194 3.1503143l0 0c0 2.4605255 -1.9926758 4.4552 -4.4508057 4.4552l0 0c-2.4580994 0 -4.4508057 -1.9946747 -4.4508057 -4.4552z" fill-rule="evenodd"/><path fill="#000000" fill-opacity="0.0" d="m303.38528 236.67018l4.450775 0" fill-rule="evenodd"/><path stroke="#000000" stroke-width="1.0" stroke-linejoin="round" stroke-linecap="butt" d="m303.38528 236.67018l4.450775 0" fill-rule="evenodd"/><path fill="#000000" fill-opacity="0.0" d="m305.53387 238.89778l0 -4.4552" fill-rule="evenodd"/><path stroke="#000000" stroke-width="1.0" stroke-linejoin="round" stroke-linecap="butt" d="m305.53387 238.89778l0 -4.4552" fill-rule="evenodd"/><path fill="#cfe2f3" d="m285.08307 252.67018l0 0c0 -2.4605408 1.9927063 -4.4552 4.4508057 -4.4552l0 0c1.1804199 0 2.3125 0.4693756 3.1471863 1.3048859c0.8346863 0.83551025 1.3036194 1.9687195 1.3036194 3.1503143l0 0c0 2.4605255 -1.9926758 4.455185 -4.4508057 4.455185l0 0c-2.4580994 0 -4.4508057 -1.9946594 -4.4508057 -4.455185z" fill-rule="evenodd"/><path stroke="#000000" stroke-width="1.0" stroke-linejoin="round" stroke-linecap="butt" d="m285.08307 252.67018l0 0c0 -2.4605408 1.9927063 -4.4552 4.4508057 -4.4552l0 0c1.1804199 0 2.3125 0.4693756 3.1471863 1.3048859c0.8346863 0.83551025 1.3036194 1.9687195 1.3036194 3.1503143l0 0c0 2.4605255 -1.9926758 4.455185 -4.4508057 4.455185l0 0c-2.4580994 0 -4.4508057 -1.9946594 -4.4508057 -4.455185z" fill-rule="evenodd"/><path fill="#000000" fill-opacity="0.0" d="m287.38528 252.67018l4.450775 0" fill-rule="evenodd"/><path stroke="#000000" stroke-width="1.0" stroke-linejoin="round" stroke-linecap="butt" d="m287.38528 252.67018l4.450775 0" fill-rule="evenodd"/><path fill="#000000" fill-opacity="0.0" d="m289.53387 254.89778l0 -4.4552" fill-rule="evenodd"/><path stroke="#000000" stroke-width="1.0" stroke-linejoin="round" stroke-linecap="butt" d="m289.53387 254.89778l0 -4.4552" fill-rule="evenodd"/><path fill="#cfe2f3" d="m301.08307 252.67018l0 0c0 -2.4605408 1.9927063 -4.4552 4.4508057 -4.4552l0 0c1.1804199 0 2.3125 0.4693756 3.1471863 1.3048859c0.8346863 0.83551025 1.3036194 1.9687195 1.3036194 3.1503143l0 0c0 2.4605255 -1.9926758 4.455185 -4.4508057 4.455185l0 0c-2.4580994 0 -4.4508057 -1.9946594 -4.4508057 -4.455185z" fill-rule="evenodd"/><path stroke="#000000" stroke-width="1.0" stroke-linejoin="round" stroke-linecap="butt" d="m301.08307 252.67018l0 0c0 -2.4605408 1.9927063 -4.4552 4.4508057 -4.4552l0 0c1.1804199 0 2.3125 0.4693756 3.1471863 1.3048859c0.8346863 0.83551025 1.3036194 1.9687195 1.3036194 3.1503143l0 0c0 2.4605255 -1.9926758 4.455185 -4.4508057 4.455185l0 0c-2.4580994 0 -4.4508057 -1.9946594 -4.4508057 -4.455185z" fill-rule="evenodd"/><path fill="#000000" fill-opacity="0.0" d="m303.38528 252.67018l4.450775 0" fill-rule="evenodd"/><path stroke="#000000" stroke-width="1.0" stroke-linejoin="round" stroke-linecap="butt" d="m303.38528 252.67018l4.450775 0" fill-rule="evenodd"/><path fill="#000000" fill-opacity="0.0" d="m305.53387 254.89778l0 -4.4552" fill-rule="evenodd"/><path stroke="#000000" stroke-width="1.0" stroke-linejoin="round" stroke-linecap="butt" d="m305.53387 254.89778l0 -4.4552" fill-rule="evenodd"/><path fill="#cfe2f3" d="m285.08307 268.67017l0 0c0 -2.4605408 1.9927063 -4.4552 4.4508057 -4.4552l0 0c1.1804199 0 2.3125 0.46939087 3.1471863 1.3049011c0.8346863 0.83551025 1.3036194 1.9687195 1.3036194 3.150299l0 0c0 2.4605408 -1.9926758 4.4552 -4.4508057 4.4552l0 0c-2.4580994 0 -4.4508057 -1.9946594 -4.4508057 -4.4552z" fill-rule="evenodd"/><path stroke="#000000" stroke-width="1.0" stroke-linejoin="round" stroke-linecap="butt" d="m285.08307 268.67017l0 0c0 -2.4605408 1.9927063 -4.4552 4.4508057 -4.4552l0 0c1.1804199 0 2.3125 0.46939087 3.1471863 1.3049011c0.8346863 0.83551025 1.3036194 1.9687195 1.3036194 3.150299l0 0c0 2.4605408 -1.9926758 4.4552 -4.4508057 4.4552l0 0c-2.4580994 0 -4.4508057 -1.9946594 -4.4508057 -4.4552z" fill-rule="evenodd"/><path fill="#000000" fill-opacity="0.0" d="m287.38528 268.67017l4.450775 0" fill-rule="evenodd"/><path stroke="#000000" stroke-width="1.0" stroke-linejoin="round" stroke-linecap="butt" d="m287.38528 268.67017l4.450775 0" fill-rule="evenodd"/><path fill="#000000" fill-opacity="0.0" d="m289.53387 270.89777l0 -4.4552" fill-rule="evenodd"/><path stroke="#000000" stroke-width="1.0" stroke-linejoin="round" stroke-linecap="butt" d="m289.53387 270.89777l0 -4.4552" fill-rule="evenodd"/><path fill="#cfe2f3" d="m301.08307 268.67017l0 0c0 -2.4605408 1.9927063 -4.4552 4.4508057 -4.4552l0 0c1.1804199 0 2.3125 0.46939087 3.1471863 1.3049011c0.8346863 0.83551025 1.3036194 1.9687195 1.3036194 3.150299l0 0c0 2.4605408 -1.9926758 4.4552 -4.4508057 4.4552l0 0c-2.4580994 0 -4.4508057 -1.9946594 -4.4508057 -4.4552z" fill-rule="evenodd"/><path stroke="#000000" stroke-width="1.0" stroke-linejoin="round" stroke-linecap="butt" d="m301.08307 268.67017l0 0c0 -2.4605408 1.9927063 -4.4552 4.4508057 -4.4552l0 0c1.1804199 0 2.3125 0.46939087 3.1471863 1.3049011c0.8346863 0.83551025 1.3036194 1.9687195 1.3036194 3.150299l0 0c0 2.4605408 -1.9926758 4.4552 -4.4508057 4.4552l0 0c-2.4580994 0 -4.4508057 -1.9946594 -4.4508057 -4.4552z" fill-rule="evenodd"/><path fill="#000000" fill-opacity="0.0" d="m303.38528 268.67017l4.450775 0" fill-rule="evenodd"/><path stroke="#000000" stroke-width="1.0" stroke-linejoin="round" stroke-linecap="butt" d="m303.38528 268.67017l4.450775 0" fill-rule="evenodd"/><path fill="#000000" fill-opacity="0.0" d="m305.53387 270.89777l0 -4.4552" fill-rule="evenodd"/><path stroke="#000000" stroke-width="1.0" stroke-linejoin="round" stroke-linecap="butt" d="m305.53387 270.89777l0 -4.4552" fill-rule="evenodd"/><path fill="#cfe2f3" d="m285.08307 284.67017l0 0c0 -2.4605408 1.9927063 -4.4552 4.4508057 -4.4552l0 0c1.1804199 0 2.3125 0.46939087 3.1471863 1.3049011c0.8346863 0.83551025 1.3036194 1.9687195 1.3036194 3.150299l0 0c0 2.4605408 -1.9926758 4.4552 -4.4508057 4.4552l0 0c-2.4580994 0 -4.4508057 -1.9946594 -4.4508057 -4.4552z" fill-rule="evenodd"/><path stroke="#000000" stroke-width="1.0" stroke-linejoin="round" stroke-linecap="butt" d="m285.08307 284.67017l0 0c0 -2.4605408 1.9927063 -4.4552 4.4508057 -4.4552l0 0c1.1804199 0 2.3125 0.46939087 3.1471863 1.3049011c0.8346863 0.83551025 1.3036194 1.9687195 1.3036194 3.150299l0 0c0 2.4605408 -1.9926758 4.4552 -4.4508057 4.4552l0 0c-2.4580994 0 -4.4508057 -1.9946594 -4.4508057 -4.4552z" fill-rule="evenodd"/><path fill="#000000" fill-opacity="0.0" d="m287.38528 284.67017l4.450775 0" fill-rule="evenodd"/><path stroke="#000000" stroke-width="1.0" stroke-linejoin="round" stroke-linecap="butt" d="m287.38528 284.67017l4.450775 0" fill-rule="evenodd"/><path fill="#000000" fill-opacity="0.0" d="m289.53387 286.89777l0 -4.4552" fill-rule="evenodd"/><path stroke="#000000" stroke-width="1.0" stroke-linejoin="round" stroke-linecap="butt" d="m289.53387 286.89777l0 -4.4552" fill-rule="evenodd"/><path fill="#cfe2f3" d="m301.08307 284.67017l0 0c0 -2.4605408 1.9927063 -4.4552 4.4508057 -4.4552l0 0c1.1804199 0 2.3125 0.46939087 3.1471863 1.3049011c0.8346863 0.83551025 1.3036194 1.9687195 1.3036194 3.150299l0 0c0 2.4605408 -1.9926758 4.4552 -4.4508057 4.4552l0 0c-2.4580994 0 -4.4508057 -1.9946594 -4.4508057 -4.4552z" fill-rule="evenodd"/><path stroke="#000000" stroke-width="1.0" stroke-linejoin="round" stroke-linecap="butt" d="m301.08307 284.67017l0 0c0 -2.4605408 1.9927063 -4.4552 4.4508057 -4.4552l0 0c1.1804199 0 2.3125 0.46939087 3.1471863 1.3049011c0.8346863 0.83551025 1.3036194 1.9687195 1.3036194 3.150299l0 0c0 2.4605408 -1.9926758 4.4552 -4.4508057 4.4552l0 0c-2.4580994 0 -4.4508057 -1.9946594 -4.4508057 -4.4552z" fill-rule="evenodd"/><path fill="#000000" fill-opacity="0.0" d="m303.38528 284.67017l4.450775 0" fill-rule="evenodd"/><path stroke="#000000" stroke-width="1.0" stroke-linejoin="round" stroke-linecap="butt" d="m303.38528 284.67017l4.450775 0" fill-rule="evenodd"/><path fill="#000000" fill-opacity="0.0" d="m305.53387 286.89777l0 -4.4552" fill-rule="evenodd"/><path stroke="#000000" stroke-width="1.0" stroke-linejoin="round" stroke-linecap="butt" d="m305.53387 286.89777l0 -4.4552" fill-rule="evenodd"/><path fill="#cfe2f3" d="m461.36615 176.60236l40.629913 0l0 116.50394l-40.629913 0z" fill-rule="evenodd"/><path stroke="#434343" stroke-width="2.0" stroke-linejoin="round" stroke-linecap="butt" d="m461.36615 176.60236l40.629913 0l0 116.50394l-40.629913 0z" fill-rule="evenodd"/><path fill="#cfe2f3" d="m469.7373 189.20508l0 0c0 -2.4605408 1.9928894 -4.4552 4.4512024 -4.4552l0 0c1.180542 0 2.3127136 0.46939087 3.1474915 1.3049011c0.8347473 0.83551025 1.3037109 1.9687042 1.3037109 3.150299l0 0c0 2.4605408 -1.9928589 4.4552 -4.4512024 4.4552l0 0c-2.458313 0 -4.4512024 -1.9946594 -4.4512024 -4.4552z" fill-rule="evenodd"/><path stroke="#000000" stroke-width="1.0" stroke-linejoin="round" stroke-linecap="butt" d="m469.7373 189.20508l0 0c0 -2.4605408 1.9928894 -4.4552 4.4512024 -4.4552l0 0c1.180542 0 2.3127136 0.46939087 3.1474915 1.3049011c0.8347473 0.83551025 1.3037109 1.9687042 1.3037109 3.150299l0 0c0 2.4605408 -1.9928589 4.4552 -4.4512024 4.4552l0 0c-2.458313 0 -4.4512024 -1.9946594 -4.4512024 -4.4552z" fill-rule="evenodd"/><path fill="#000000" fill-opacity="0.0" d="m472.0397 189.20508l4.4512024 0" fill-rule="evenodd"/><path stroke="#000000" stroke-width="1.0" stroke-linejoin="round" stroke-linecap="butt" d="m472.0397 189.20508l4.4512024 0" fill-rule="evenodd"/><path fill="#cfe2f3" d="m485.7373 189.20508l0 0c0 -2.4605408 1.9928894 -4.4552 4.4512024 -4.4552l0 0c1.180542 0 2.3127136 0.46939087 3.1474915 1.3049011c0.8347473 0.83551025 1.3037109 1.9687042 1.3037109 3.150299l0 0c0 2.4605408 -1.9928589 4.4552 -4.4512024 4.4552l0 0c-2.458313 0 -4.4512024 -1.9946594 -4.4512024 -4.4552z" fill-rule="evenodd"/><path stroke="#000000" stroke-width="1.0" stroke-linejoin="round" stroke-linecap="butt" d="m485.7373 189.20508l0 0c0 -2.4605408 1.9928894 -4.4552 4.4512024 -4.4552l0 0c1.180542 0 2.3127136 0.46939087 3.1474915 1.3049011c0.8347473 0.83551025 1.3037109 1.9687042 1.3037109 3.150299l0 0c0 2.4605408 -1.9928589 4.4552 -4.4512024 4.4552l0 0c-2.458313 0 -4.4512024 -1.9946594 -4.4512024 -4.4552z" fill-rule="evenodd"/><path fill="#000000" fill-opacity="0.0" d="m488.0397 189.20508l4.4512024 0" fill-rule="evenodd"/><path stroke="#000000" stroke-width="1.0" stroke-linejoin="round" stroke-linecap="butt" d="m488.0397 189.20508l4.4512024 0" fill-rule="evenodd"/><path fill="#cfe2f3" d="m469.7373 205.20508l0 0c0 -2.4605408 1.9928894 -4.4552 4.4512024 -4.4552l0 0c1.180542 0 2.3127136 0.46939087 3.1474915 1.3049011c0.8347473 0.83551025 1.3037109 1.9687042 1.3037109 3.150299l0 0c0 2.4605408 -1.9928589 4.4552 -4.4512024 4.4552l0 0c-2.458313 0 -4.4512024 -1.9946594 -4.4512024 -4.4552z" fill-rule="evenodd"/><path stroke="#000000" stroke-width="1.0" stroke-linejoin="round" stroke-linecap="butt" d="m469.7373 205.20508l0 0c0 -2.4605408 1.9928894 -4.4552 4.4512024 -4.4552l0 0c1.180542 0 2.3127136 0.46939087 3.1474915 1.3049011c0.8347473 0.83551025 1.3037109 1.9687042 1.3037109 3.150299l0 0c0 2.4605408 -1.9928589 4.4552 -4.4512024 4.4552l0 0c-2.458313 0 -4.4512024 -1.9946594 -4.4512024 -4.4552z" fill-rule="evenodd"/><path fill="#000000" fill-opacity="0.0" d="m472.0397 205.20508l4.4512024 0" fill-rule="evenodd"/><path stroke="#000000" stroke-width="1.0" stroke-linejoin="round" stroke-linecap="butt" d="m472.0397 205.20508l4.4512024 0" fill-rule="evenodd"/><path fill="#cfe2f3" d="m485.7373 205.20508l0 0c0 -2.4605408 1.9928894 -4.4552 4.4512024 -4.4552l0 0c1.180542 0 2.3127136 0.46939087 3.1474915 1.3049011c0.8347473 0.83551025 1.3037109 1.9687042 1.3037109 3.150299l0 0c0 2.4605408 -1.9928589 4.4552 -4.4512024 4.4552l0 0c-2.458313 0 -4.4512024 -1.9946594 -4.4512024 -4.4552z" fill-rule="evenodd"/><path stroke="#000000" stroke-width="1.0" stroke-linejoin="round" stroke-linecap="butt" d="m485.7373 205.20508l0 0c0 -2.4605408 1.9928894 -4.4552 4.4512024 -4.4552l0 0c1.180542 0 2.3127136 0.46939087 3.1474915 1.3049011c0.8347473 0.83551025 1.3037109 1.9687042 1.3037109 3.150299l0 0c0 2.4605408 -1.9928589 4.4552 -4.4512024 4.4552l0 0c-2.458313 0 -4.4512024 -1.9946594 -4.4512024 -4.4552z" fill-rule="evenodd"/><path fill="#000000" fill-opacity="0.0" d="m488.0397 205.20508l4.4512024 0" fill-rule="evenodd"/><path stroke="#000000" stroke-width="1.0" stroke-linejoin="round" stroke-linecap="butt" d="m488.0397 205.20508l4.4512024 0" fill-rule="evenodd"/><path fill="#cfe2f3" d="m469.7373 221.20508l0 0c0 -2.4605408 1.9928894 -4.4552 4.4512024 -4.4552l0 0c1.180542 0 2.3127136 0.46939087 3.1474915 1.3049011c0.8347473 0.83551025 1.3037109 1.9687042 1.3037109 3.150299l0 0c0 2.4605408 -1.9928589 4.4552 -4.4512024 4.4552l0 0c-2.458313 0 -4.4512024 -1.9946594 -4.4512024 -4.4552z" fill-rule="evenodd"/><path stroke="#000000" stroke-width="1.0" stroke-linejoin="round" stroke-linecap="butt" d="m469.7373 221.20508l0 0c0 -2.4605408 1.9928894 -4.4552 4.4512024 -4.4552l0 0c1.180542 0 2.3127136 0.46939087 3.1474915 1.3049011c0.8347473 0.83551025 1.3037109 1.9687042 1.3037109 3.150299l0 0c0 2.4605408 -1.9928589 4.4552 -4.4512024 4.4552l0 0c-2.458313 0 -4.4512024 -1.9946594 -4.4512024 -4.4552z" fill-rule="evenodd"/><path fill="#000000" fill-opacity="0.0" d="m472.0397 221.20508l4.4512024 0" fill-rule="evenodd"/><path stroke="#000000" stroke-width="1.0" stroke-linejoin="round" stroke-linecap="butt" d="m472.0397 221.20508l4.4512024 0" fill-rule="evenodd"/><path fill="#cfe2f3" d="m485.7373 221.20508l0 0c0 -2.4605408 1.9928894 -4.4552 4.4512024 -4.4552l0 0c1.180542 0 2.3127136 0.46939087 3.1474915 1.3049011c0.8347473 0.83551025 1.3037109 1.9687042 1.3037109 3.150299l0 0c0 2.4605408 -1.9928589 4.4552 -4.4512024 4.4552l0 0c-2.458313 0 -4.4512024 -1.9946594 -4.4512024 -4.4552z" fill-rule="evenodd"/><path stroke="#000000" stroke-width="1.0" stroke-linejoin="round" stroke-linecap="butt" d="m485.7373 221.20508l0 0c0 -2.4605408 1.9928894 -4.4552 4.4512024 -4.4552l0 0c1.180542 0 2.3127136 0.46939087 3.1474915 1.3049011c0.8347473 0.83551025 1.3037109 1.9687042 1.3037109 3.150299l0 0c0 2.4605408 -1.9928589 4.4552 -4.4512024 4.4552l0 0c-2.458313 0 -4.4512024 -1.9946594 -4.4512024 -4.4552z" fill-rule="evenodd"/><path fill="#000000" fill-opacity="0.0" d="m488.0397 221.20508l4.4512024 0" fill-rule="evenodd"/><path stroke="#000000" stroke-width="1.0" stroke-linejoin="round" stroke-linecap="butt" d="m488.0397 221.20508l4.4512024 0" fill-rule="evenodd"/><path fill="#cfe2f3" d="m469.7373 237.20508l0 0c0 -2.4605408 1.9928894 -4.4552 4.4512024 -4.4552l0 0c1.180542 0 2.3127136 0.46939087 3.1474915 1.3049011c0.8347473 0.83551025 1.3037109 1.9687042 1.3037109 3.150299l0 0c0 2.4605408 -1.9928589 4.4552 -4.4512024 4.4552l0 0c-2.458313 0 -4.4512024 -1.9946594 -4.4512024 -4.4552z" fill-rule="evenodd"/><path stroke="#000000" stroke-width="1.0" stroke-linejoin="round" stroke-linecap="butt" d="m469.7373 237.20508l0 0c0 -2.4605408 1.9928894 -4.4552 4.4512024 -4.4552l0 0c1.180542 0 2.3127136 0.46939087 3.1474915 1.3049011c0.8347473 0.83551025 1.3037109 1.9687042 1.3037109 3.150299l0 0c0 2.4605408 -1.9928589 4.4552 -4.4512024 4.4552l0 0c-2.458313 0 -4.4512024 -1.9946594 -4.4512024 -4.4552z" fill-rule="evenodd"/><path fill="#000000" fill-opacity="0.0" d="m472.0397 237.20508l4.4512024 0" fill-rule="evenodd"/><path stroke="#000000" stroke-width="1.0" stroke-linejoin="round" stroke-linecap="butt" d="m472.0397 237.20508l4.4512024 0" fill-rule="evenodd"/><path fill="#cfe2f3" d="m485.7373 237.20508l0 0c0 -2.4605408 1.9928894 -4.4552 4.4512024 -4.4552l0 0c1.180542 0 2.3127136 0.46939087 3.1474915 1.3049011c0.8347473 0.83551025 1.3037109 1.9687042 1.3037109 3.150299l0 0c0 2.4605408 -1.9928589 4.4552 -4.4512024 4.4552l0 0c-2.458313 0 -4.4512024 -1.9946594 -4.4512024 -4.4552z" fill-rule="evenodd"/><path stroke="#000000" stroke-width="1.0" stroke-linejoin="round" stroke-linecap="butt" d="m485.7373 237.20508l0 0c0 -2.4605408 1.9928894 -4.4552 4.4512024 -4.4552l0 0c1.180542 0 2.3127136 0.46939087 3.1474915 1.3049011c0.8347473 0.83551025 1.3037109 1.9687042 1.3037109 3.150299l0 0c0 2.4605408 -1.9928589 4.4552 -4.4512024 4.4552l0 0c-2.458313 0 -4.4512024 -1.9946594 -4.4512024 -4.4552z" fill-rule="evenodd"/><path fill="#000000" fill-opacity="0.0" d="m488.0397 237.20508l4.4512024 0" fill-rule="evenodd"/><path stroke="#000000" stroke-width="1.0" stroke-linejoin="round" stroke-linecap="butt" d="m488.0397 237.20508l4.4512024 0" fill-rule="evenodd"/><path fill="#cfe2f3" d="m469.7373 253.20508l0 0c0 -2.4605408 1.9928894 -4.4552 4.4512024 -4.4552l0 0c1.180542 0 2.3127136 0.46939087 3.1474915 1.3049011c0.8347473 0.83551025 1.3037109 1.9687042 1.3037109 3.150299l0 0c0 2.4605408 -1.9928589 4.4552 -4.4512024 4.4552l0 0c-2.458313 0 -4.4512024 -1.9946594 -4.4512024 -4.4552z" fill-rule="evenodd"/><path stroke="#000000" stroke-width="1.0" stroke-linejoin="round" stroke-linecap="butt" d="m469.7373 253.20508l0 0c0 -2.4605408 1.9928894 -4.4552 4.4512024 -4.4552l0 0c1.180542 0 2.3127136 0.46939087 3.1474915 1.3049011c0.8347473 0.83551025 1.3037109 1.9687042 1.3037109 3.150299l0 0c0 2.4605408 -1.9928589 4.4552 -4.4512024 4.4552l0 0c-2.458313 0 -4.4512024 -1.9946594 -4.4512024 -4.4552z" fill-rule="evenodd"/><path fill="#000000" fill-opacity="0.0" d="m472.0397 253.20508l4.4512024 0" fill-rule="evenodd"/><path stroke="#000000" stroke-width="1.0" stroke-linejoin="round" stroke-linecap="butt" d="m472.0397 253.20508l4.4512024 0" fill-rule="evenodd"/><path fill="#cfe2f3" d="m485.7373 253.20508l0 0c0 -2.4605408 1.9928894 -4.4552 4.4512024 -4.4552l0 0c1.180542 0 2.3127136 0.46939087 3.1474915 1.3049011c0.8347473 0.83551025 1.3037109 1.9687042 1.3037109 3.150299l0 0c0 2.4605408 -1.9928589 4.4552 -4.4512024 4.4552l0 0c-2.458313 0 -4.4512024 -1.9946594 -4.4512024 -4.4552z" fill-rule="evenodd"/><path stroke="#000000" stroke-width="1.0" stroke-linejoin="round" stroke-linecap="butt" d="m485.7373 253.20508l0 0c0 -2.4605408 1.9928894 -4.4552 4.4512024 -4.4552l0 0c1.180542 0 2.3127136 0.46939087 3.1474915 1.3049011c0.8347473 0.83551025 1.3037109 1.9687042 1.3037109 3.150299l0 0c0 2.4605408 -1.9928589 4.4552 -4.4512024 4.4552l0 0c-2.458313 0 -4.4512024 -1.9946594 -4.4512024 -4.4552z" fill-rule="evenodd"/><path fill="#000000" fill-opacity="0.0" d="m488.0397 253.20508l4.4512024 0" fill-rule="evenodd"/><path stroke="#000000" stroke-width="1.0" stroke-linejoin="round" stroke-linecap="butt" d="m488.0397 253.20508l4.4512024 0" fill-rule="evenodd"/><path fill="#cfe2f3" d="m469.7373 269.20508l0 0c0 -2.4605408 1.9928894 -4.4552 4.4512024 -4.4552l0 0c1.180542 0 2.3127136 0.46939087 3.1474915 1.3049011c0.8347473 0.83551025 1.3037109 1.9687195 1.3037109 3.150299l0 0c0 2.4605408 -1.9928589 4.4552 -4.4512024 4.4552l0 0c-2.458313 0 -4.4512024 -1.9946594 -4.4512024 -4.4552z" fill-rule="evenodd"/><path stroke="#000000" stroke-width="1.0" stroke-linejoin="round" stroke-linecap="butt" d="m469.7373 269.20508l0 0c0 -2.4605408 1.9928894 -4.4552 4.4512024 -4.4552l0 0c1.180542 0 2.3127136 0.46939087 3.1474915 1.3049011c0.8347473 0.83551025 1.3037109 1.9687195 1.3037109 3.150299l0 0c0 2.4605408 -1.9928589 4.4552 -4.4512024 4.4552l0 0c-2.458313 0 -4.4512024 -1.9946594 -4.4512024 -4.4552z" fill-rule="evenodd"/><path fill="#000000" fill-opacity="0.0" d="m472.0397 269.20508l4.4512024 0" fill-rule="evenodd"/><path stroke="#000000" stroke-width="1.0" stroke-linejoin="round" stroke-linecap="butt" d="m472.0397 269.20508l4.4512024 0" fill-rule="evenodd"/><path fill="#cfe2f3" d="m485.7373 269.20508l0 0c0 -2.4605408 1.9928894 -4.4552 4.4512024 -4.4552l0 0c1.180542 0 2.3127136 0.46939087 3.1474915 1.3049011c0.8347473 0.83551025 1.3037109 1.9687195 1.3037109 3.150299l0 0c0 2.4605408 -1.9928589 4.4552 -4.4512024 4.4552l0 0c-2.458313 0 -4.4512024 -1.9946594 -4.4512024 -4.4552z" fill-rule="evenodd"/><path stroke="#000000" stroke-width="1.0" stroke-linejoin="round" stroke-linecap="butt" d="m485.7373 269.20508l0 0c0 -2.4605408 1.9928894 -4.4552 4.4512024 -4.4552l0 0c1.180542 0 2.3127136 0.46939087 3.1474915 1.3049011c0.8347473 0.83551025 1.3037109 1.9687195 1.3037109 3.150299l0 0c0 2.4605408 -1.9928589 4.4552 -4.4512024 4.4552l0 0c-2.458313 0 -4.4512024 -1.9946594 -4.4512024 -4.4552z" fill-rule="evenodd"/><path fill="#000000" fill-opacity="0.0" d="m488.0397 269.20508l4.4512024 0" fill-rule="evenodd"/><path stroke="#000000" stroke-width="1.0" stroke-linejoin="round" stroke-linecap="butt" d="m488.0397 269.20508l4.4512024 0" fill-rule="evenodd"/><path fill="#cfe2f3" d="m469.7373 285.20508l0 0c0 -2.4605408 1.9928894 -4.4552 4.4512024 -4.4552l0 0c1.180542 0 2.3127136 0.46939087 3.1474915 1.3049011c0.8347473 0.83551025 1.3037109 1.9687195 1.3037109 3.150299l0 0c0 2.4605408 -1.9928589 4.4552 -4.4512024 4.4552l0 0c-2.458313 0 -4.4512024 -1.9946594 -4.4512024 -4.4552z" fill-rule="evenodd"/><path stroke="#000000" stroke-width="1.0" stroke-linejoin="round" stroke-linecap="butt" d="m469.7373 285.20508l0 0c0 -2.4605408 1.9928894 -4.4552 4.4512024 -4.4552l0 0c1.180542 0 2.3127136 0.46939087 3.1474915 1.3049011c0.8347473 0.83551025 1.3037109 1.9687195 1.3037109 3.150299l0 0c0 2.4605408 -1.9928589 4.4552 -4.4512024 4.4552l0 0c-2.458313 0 -4.4512024 -1.9946594 -4.4512024 -4.4552z" fill-rule="evenodd"/><path fill="#000000" fill-opacity="0.0" d="m472.0397 285.20508l4.4512024 0" fill-rule="evenodd"/><path stroke="#000000" stroke-width="1.0" stroke-linejoin="round" stroke-linecap="butt" d="m472.0397 285.20508l4.4512024 0" fill-rule="evenodd"/><path fill="#cfe2f3" d="m485.7373 285.20508l0 0c0 -2.4605408 1.9928894 -4.4552 4.4512024 -4.4552l0 0c1.180542 0 2.3127136 0.46939087 3.1474915 1.3049011c0.8347473 0.83551025 1.3037109 1.9687195 1.3037109 3.150299l0 0c0 2.4605408 -1.9928589 4.4552 -4.4512024 4.4552l0 0c-2.458313 0 -4.4512024 -1.9946594 -4.4512024 -4.4552z" fill-rule="evenodd"/><path stroke="#000000" stroke-width="1.0" stroke-linejoin="round" stroke-linecap="butt" d="m485.7373 285.20508l0 0c0 -2.4605408 1.9928894 -4.4552 4.4512024 -4.4552l0 0c1.180542 0 2.3127136 0.46939087 3.1474915 1.3049011c0.8347473 0.83551025 1.3037109 1.9687195 1.3037109 3.150299l0 0c0 2.4605408 -1.9928589 4.4552 -4.4512024 4.4552l0 0c-2.458313 0 -4.4512024 -1.9946594 -4.4512024 -4.4552z" fill-rule="evenodd"/><path fill="#000000" fill-opacity="0.0" d="m488.0397 285.20508l4.4512024 0" fill-rule="evenodd"/><path stroke="#000000" stroke-width="1.0" stroke-linejoin="round" stroke-linecap="butt" d="m488.0397 285.20508l4.4512024 0" fill-rule="evenodd"/><path fill="#000000" fill-opacity="0.0" d="m497.94205 104.51716l106.96066 18.992126" fill-rule="evenodd"/><path stroke="#434343" stroke-width="1.0" stroke-linejoin="round" stroke-linecap="butt" d="m497.94205 104.51716l106.96066 18.992126" fill-rule="evenodd"/><path fill="#000000" fill-opacity="0.0" d="m481.6811 176.60236l125.00787 -52.220467" fill-rule="evenodd"/><path stroke="#434343" stroke-width="1.0" stroke-linejoin="round" stroke-linecap="butt" d="m481.6811 176.60236l125.00787 -52.220467" fill-rule="evenodd"/><path fill="#000000" fill-opacity="0.0" d="m614.6102 104.51837l157.7638 0l0 35.74803l-157.7638 0z" fill-rule="evenodd"/><path fill="#000000" d="m637.7929 128.2524l-1.515625 0l-6.25 -9.593758l-0.0625 0q0.125 1.6875 0.125 3.09375l0 6.5000076l-1.21875 0l0 -11.421883l1.5 0l6.21875 9.546875l0.0625 0q-0.015625 -0.21875 -0.078125 -1.359375q-0.046875 -1.140625 -0.03125 -1.640625l0 -6.546875l1.25 0l0 11.421883zm6.5625 0.15625q-1.90625 0 -3.0 -1.1562576q-1.09375 -1.15625 -1.09375 -3.21875q0 -2.0625 1.015625 -3.28125q1.015625 -1.21875 2.734375 -1.21875q1.609375 0 2.546875 1.0625q0.9375 1.046875 0.9375 2.78125l0 0.828125l-5.890625 0q0.03125 1.5 0.75 2.28125q0.734375 0.78125 2.046875 0.78125q1.375 0 2.734375 -0.578125l0 1.15625q-0.6875 0.29688263 -1.3125 0.42188263q-0.609375 0.140625 -1.46875 0.140625zm-0.359375 -7.7968826q-1.03125 0 -1.640625 0.671875q-0.609375 0.671875 -0.71875 1.859375l4.46875 0q0 -1.21875 -0.546875 -1.875q-0.546875 -0.65625 -1.5625 -0.65625zm12.7265625 -0.921875l0 0.8125l-1.59375 0.1875q0.21875 0.28125 0.390625 0.71875q0.171875 0.4375 0.171875 1.0q0 1.25 -0.859375 2.0q-0.859375 0.75 -2.359375 0.75q-0.375 0 -0.71875 -0.0625q-0.828125 0.4375 -0.828125 1.109375q0 0.34375 0.28125 0.515625q0.296875 0.171875 1.0 0.171875l1.515625 0q1.390625 0 2.140625 0.59375q0.75 0.5781326 0.75 1.7031326q0 1.421875 -1.140625 2.15625q-1.140625 0.75 -3.328125 0.75q-1.6875 0 -2.59375 -0.625q-0.90625 -0.625 -0.90625 -1.765625q0 -0.78125 0.5 -1.359375q0.5 -0.5625076 1.40625 -0.7656326q-0.328125 -0.15625 -0.5625 -0.46875q-0.21875 -0.3125 -0.21875 -0.71875q0 -0.46875 0.25 -0.8125q0.25 -0.359375 0.796875 -0.6875q-0.671875 -0.28125 -1.09375 -0.9375q-0.40625 -0.65625 -0.40625 -1.5q0 -1.40625 0.84375 -2.15625q0.84375 -0.765625 2.390625 -0.765625q0.671875 0 1.203125 0.15625l2.96875 0zm-6.828125 10.000008q0 0.703125 0.578125 1.0625q0.59375 0.359375 1.6875 0.359375q1.625 0 2.40625 -0.5q0.796875 -0.484375 0.796875 -1.3125q0 -0.703125 -0.4375 -0.984375q-0.421875 -0.265625 -1.609375 -0.265625l-1.5625 0q-0.875 0 -1.375 0.421875q-0.484375 0.4375 -0.484375 1.21875zm0.703125 -7.2656326q0 0.90625 0.5 1.375q0.515625 0.453125 1.421875 0.453125q1.890625 0 1.890625 -1.84375q0 -1.9375 -1.921875 -1.9375q-0.90625 0 -1.40625 0.5q-0.484375 0.484375 -0.484375 1.453125zm13.140625 5.8281326l-0.25 -1.2187576l-0.0625 0q-0.640625 0.796875 -1.28125 1.0937576q-0.640625 0.28125 -1.59375 0.28125q-1.265625 0 -2.0 -0.6562576q-0.71875 -0.65625 -0.71875 -1.875q0 -2.59375 4.15625 -2.71875l1.453125 -0.046875l0 -0.53125q0 -1.0 -0.4375 -1.484375q-0.4375 -0.484375 -1.390625 -0.484375q-1.0625 0 -2.421875 0.65625l-0.390625 -0.984375q0.625 -0.34375 1.375 -0.53125q0.765625 -0.203125 1.515625 -0.203125q1.53125 0 2.265625 0.6875q0.75 0.671875 0.75 2.171875l0 5.8437576l-0.96875 0zm-2.921875 -0.9218826q1.203125 0 1.890625 -0.65625q0.703125 -0.671875 0.703125 -1.859375l0 -0.78125l-1.296875 0.0625q-1.546875 0.046875 -2.234375 0.484375q-0.6875 0.421875 -0.6875 1.3125q0 0.703125 0.421875 1.078125q0.4375 0.359375 1.203125 0.359375zm9.3203125 0q0.34375 0 0.65625 -0.046875q0.328125 -0.046875 0.515625 -0.109375l0 1.0000076q-0.203125 0.109375 -0.625 0.171875q-0.40625 0.0625 -0.734375 0.0625q-2.484375 0 -2.484375 -2.6250076l0 -5.09375l-1.21875 0l0 -0.625l1.21875 -0.53125l0.546875 -1.828125l0.75 0l0 1.984375l2.484375 0l0 1.0l-2.484375 0l0 5.046875q0 0.765625 0.359375 1.1875q0.375 0.40625 1.015625 0.40625zm4.1796875 0.9218826l-1.296875 0l0 -8.562508l1.296875 0l0 8.562508zm-1.40625 -10.890633q0 -0.4375 0.21875 -0.640625q0.21875 -0.21875 0.546875 -0.21875q0.3125 0 0.53125 0.21875q0.234375 0.203125 0.234375 0.640625q0 0.4375 -0.234375 0.65625q-0.21875 0.21875 -0.53125 0.21875q-0.328125 0 -0.546875 -0.21875q-0.21875 -0.21875 -0.21875 -0.65625zm6.03125 10.890633l-3.25 -8.562508l1.390625 0l1.84375 5.078125q0.625 1.78125 0.734375 2.3125l0.0625 0q0.09375 -0.421875 0.546875 -1.71875q0.453125 -1.296875 2.046875 -5.671875l1.390625 0l-3.25 8.562508l-1.515625 0zm9.765625 0.15625q-1.90625 0 -3.0 -1.1562576q-1.09375 -1.15625 -1.09375 -3.21875q0 -2.0625 1.015625 -3.28125q1.015625 -1.21875 2.734375 -1.21875q1.609375 0 2.546875 1.0625q0.9375 1.046875 0.9375 2.78125l0 0.828125l-5.890625 0q0.03125 1.5 0.75 2.28125q0.734375 0.78125 2.046875 0.78125q1.375 0 2.734375 -0.578125l0 1.15625q-0.6875 0.29688263 -1.3125 0.42188263q-0.609375 0.140625 -1.46875 0.140625zm-0.359375 -7.7968826q-1.03125 0 -1.640625 0.671875q-0.609375 0.671875 -0.71875 1.859375l4.46875 0q0 -1.21875 -0.546875 -1.875q-0.546875 -0.65625 -1.5625 -0.65625zm12.6328125 6.71875q0.34375 0 0.65625 -0.046875q0.328125 -0.046875 0.515625 -0.109375l0 1.0000076q-0.203125 0.109375 -0.625 0.171875q-0.40625 0.0625 -0.734375 0.0625q-2.484375 0 -2.484375 -2.6250076l0 -5.09375l-1.21875 0l0 -0.625l1.21875 -0.53125l0.546875 -1.828125l0.75 0l0 1.984375l2.484375 0l0 1.0l-2.484375 0l0 5.046875q0 0.765625 0.359375 1.1875q0.375 0.40625 1.015625 0.40625zm6.5078125 1.0781326q-1.90625 0 -3.0 -1.1562576q-1.09375 -1.15625 -1.09375 -3.21875q0 -2.0625 1.015625 -3.28125q1.015625 -1.21875 2.734375 -1.21875q1.609375 0 2.546875 1.0625q0.9375 1.046875 0.9375 2.78125l0 0.828125l-5.890625 0q0.03125 1.5 0.75 2.28125q0.734375 0.78125 2.046875 0.78125q1.375 0 2.734375 -0.578125l0 1.15625q-0.6875 0.29688263 -1.3125 0.42188263q-0.609375 0.140625 -1.46875 0.140625zm-0.359375 -7.7968826q-1.03125 0 -1.640625 0.671875q-0.609375 0.671875 -0.71875 1.859375l4.46875 0q0 -1.21875 -0.546875 -1.875q-0.546875 -0.65625 -1.5625 -0.65625zm9.6171875 -1.078125q0.578125 0 1.03125 0.09375l-0.1875 1.203125q-0.53125 -0.125 -0.9375 -0.125q-1.03125 0 -1.78125 0.84375q-0.734375 0.84375 -0.734375 2.109375l0 4.5937576l-1.296875 0l0 -8.562508l1.078125 0l0.140625 1.578125l0.0625 0q0.484375 -0.828125 1.15625 -1.28125q0.671875 -0.453125 1.46875 -0.453125zm13.546875 8.718758l0 -5.5781326q0 -1.015625 -0.4375 -1.53125q-0.4375 -0.515625 -1.359375 -0.515625q-1.21875 0 -1.796875 0.703125q-0.578125 0.6875 -0.578125 2.140625l0 4.7812576l-1.296875 0l0 -5.5781326q0 -1.015625 -0.4375 -1.53125q-0.4375 -0.515625 -1.359375 -0.515625q-1.21875 0 -1.796875 0.734375q-0.5625 0.734375 -0.5625 2.390625l0 4.5000076l-1.296875 0l0 -8.562508l1.0625 0l0.203125 1.171875l0.0625 0q0.375 -0.625 1.03125 -0.96875q0.671875 -0.359375 1.5 -0.359375q2.015625 0 2.625 1.453125l0.0625 0q0.390625 -0.671875 1.109375 -1.0625q0.734375 -0.390625 1.65625 -0.390625q1.453125 0 2.171875 0.75q0.734375 0.734375 0.734375 2.375l0 5.5937576l-1.296875 0zm5.2578125 0l-1.296875 0l0 -8.562508l1.296875 0l0 8.562508zm-1.40625 -10.890633q0 -0.4375 0.21875 -0.640625q0.21875 -0.21875 0.546875 -0.21875q0.3125 0 0.53125 0.21875q0.234375 0.203125 0.234375 0.640625q0 0.4375 -0.234375 0.65625q-0.21875 0.21875 -0.53125 0.21875q-0.328125 0 -0.546875 -0.21875q-0.21875 -0.21875 -0.21875 -0.65625zm10.015625 10.890633l0 -5.5468826q0 -1.046875 -0.484375 -1.5625q-0.46875 -0.515625 -1.484375 -0.515625q-1.34375 0 -1.96875 0.734375q-0.625 0.71875 -0.625 2.390625l0 4.5000076l-1.296875 0l0 -8.562508l1.0625 0l0.203125 1.171875l0.0625 0q0.40625 -0.640625 1.125 -0.984375q0.71875 -0.34375 1.59375 -0.34375q1.546875 0 2.328125 0.75q0.78125 0.734375 0.78125 2.375l0 5.5937576l-1.296875 0zm9.2265625 0l-0.25 -1.2187576l-0.0625 0q-0.640625 0.796875 -1.28125 1.0937576q-0.640625 0.28125 -1.59375 0.28125q-1.265625 0 -2.0 -0.6562576q-0.71875 -0.65625 -0.71875 -1.875q0 -2.59375 4.15625 -2.71875l1.453125 -0.046875l0 -0.53125q0 -1.0 -0.4375 -1.484375q-0.4375 -0.484375 -1.390625 -0.484375q-1.0625 0 -2.421875 0.65625l-0.390625 -0.984375q0.625 -0.34375 1.375 -0.53125q0.765625 -0.203125 1.515625 -0.203125q1.53125 0 2.265625 0.6875q0.75 0.671875 0.75 2.171875l0 5.8437576l-0.96875 0zm-2.921875 -0.9218826q1.203125 0 1.890625 -0.65625q0.703125 -0.671875 0.703125 -1.859375l0 -0.78125l-1.296875 0.0625q-1.546875 0.046875 -2.234375 0.484375q-0.6875 0.421875 -0.6875 1.3125q0 0.703125 0.421875 1.078125q0.4375 0.359375 1.203125 0.359375zm7.8515625 0.9218826l-1.296875 0l0 -12.156258l1.296875 0l0 12.156258z" fill-rule="nonzero"/><path fill="#000000" fill-opacity="0.0" d="m18.127296 96.14042l157.7638 0l0 35.74804l-157.7638 0z" fill-rule="evenodd"/><path fill="#000000" d="m43.48575 111.780685q0 1.734375 -1.1875 2.671875q-1.171875 0.921875 -3.375 0.921875l-1.34375 0l0 4.5l-1.328125 0l0 -11.421875l2.953125 0q4.28125 0 4.28125 3.328125zm-5.90625 2.453125l1.1875 0q1.765625 0 2.546875 -0.5625q0.796875 -0.578125 0.796875 -1.828125q0 -1.140625 -0.75 -1.6875q-0.734375 -0.5625 -2.296875 -0.5625l-1.484375 0l0 4.640625zm15.4921875 1.34375q0 2.09375 -1.0625 3.28125q-1.046875 1.171875 -2.90625 1.171875q-1.140625 0 -2.03125 -0.53125q-0.890625 -0.546875 -1.375 -1.546875q-0.484375 -1.015625 -0.484375 -2.375q0 -2.09375 1.046875 -3.25q1.046875 -1.171875 2.90625 -1.171875q1.796875 0 2.84375 1.203125q1.0625 1.1875 1.0625 3.21875zm-6.515625 0q0 1.640625 0.65625 2.5q0.65625 0.859375 1.921875 0.859375q1.28125 0 1.9375 -0.84375q0.65625 -0.859375 0.65625 -2.515625q0 -1.625 -0.65625 -2.46875q-0.65625 -0.859375 -1.953125 -0.859375q-1.265625 0 -1.921875 0.84375q-0.640625 0.828125 -0.640625 2.484375zm14.3203125 1.953125q0 1.203125 -0.890625 1.859375q-0.890625 0.640625 -2.5 0.640625q-1.703125 0 -2.65625 -0.546875l0 -1.203125q0.609375 0.3125 1.3125 0.5q0.71875 0.171875 1.375 0.171875q1.015625 0 1.5625 -0.3125q0.546875 -0.328125 0.546875 -1.0q0 -0.5 -0.4375 -0.84375q-0.4375 -0.359375 -1.6875 -0.84375q-1.203125 -0.453125 -1.703125 -0.78125q-0.5 -0.328125 -0.75 -0.75q-0.25 -0.421875 -0.25 -1.015625q0 -1.046875 0.84375 -1.640625q0.859375 -0.609375 2.34375 -0.609375q1.390625 0 2.703125 0.5625l-0.453125 1.046875q-1.296875 -0.53125 -2.34375 -0.53125q-0.921875 0 -1.390625 0.296875q-0.46875 0.28125 -0.46875 0.796875q0 0.34375 0.171875 0.59375q0.1875 0.234375 0.578125 0.453125q0.390625 0.21875 1.5 0.625q1.515625 0.5625 2.046875 1.125q0.546875 0.5625 0.546875 1.40625zm3.3984375 2.34375l-1.296875 0l0 -8.5625l1.296875 0l0 8.5625zm-1.40625 -10.890625q0 -0.4375 0.21875 -0.640625q0.21875 -0.21875 0.546875 -0.21875q0.3125 0 0.53125 0.21875q0.234375 0.203125 0.234375 0.640625q0 0.4375 -0.234375 0.65625q-0.21875 0.21875 -0.53125 0.21875q-0.328125 0 -0.546875 -0.21875q-0.21875 -0.21875 -0.21875 -0.65625zm6.921875 9.96875q0.34375 0 0.65625 -0.046875q0.328125 -0.046875 0.515625 -0.109375l0 1.0q-0.203125 0.109375 -0.625 0.171875q-0.40625 0.0625 -0.734375 0.0625q-2.484375 0 -2.484375 -2.625l0 -5.09375l-1.21875 0l0 -0.625l1.21875 -0.53125l0.546875 -1.828125l0.75 0l0 1.984375l2.484375 0l0 1.0l-2.484375 0l0 5.046875q0 0.765625 0.359375 1.1875q0.375 0.40625 1.015625 0.40625zm4.1796875 0.921875l-1.296875 0l0 -8.5625l1.296875 0l0 8.5625zm-1.40625 -10.890625q0 -0.4375 0.21875 -0.640625q0.21875 -0.21875 0.546875 -0.21875q0.3125 0 0.53125 0.21875q0.234375 0.203125 0.234375 0.640625q0 0.4375 -0.234375 0.65625q-0.21875 0.21875 -0.53125 0.21875q-0.328125 0 -0.546875 -0.21875q-0.21875 -0.21875 -0.21875 -0.65625zm6.03125 10.890625l-3.25 -8.5625l1.390625 0l1.84375 5.078125q0.625 1.78125 0.734375 2.3125l0.0625 0q0.09375 -0.421875 0.546875 -1.71875q0.453125 -1.296875 2.046875 -5.671875l1.390625 0l-3.25 8.5625l-1.515625 0zm9.765625 0.15625q-1.90625 0 -3.0 -1.15625q-1.09375 -1.15625 -1.09375 -3.21875q0 -2.0625 1.015625 -3.28125q1.015625 -1.21875 2.734375 -1.21875q1.609375 0 2.546875 1.0625q0.9375 1.046875 0.9375 2.78125l0 0.828125l-5.890625 0q0.03125 1.5 0.75 2.28125q0.734375 0.78125 2.046875 0.78125q1.375 0 2.734375 -0.578125l0 1.15625q-0.6875 0.296875 -1.3125 0.421875q-0.609375 0.140625 -1.46875 0.140625zm-0.359375 -7.796875q-1.03125 0 -1.640625 0.671875q-0.609375 0.671875 -0.71875 1.859375l4.46875 0q0 -1.21875 -0.546875 -1.875q-0.546875 -0.65625 -1.5625 -0.65625zm12.6328125 6.71875q0.34375 0 0.65625 -0.046875q0.328125 -0.046875 0.515625 -0.109375l0 1.0q-0.203125 0.109375 -0.625 0.171875q-0.40625 0.0625 -0.734375 0.0625q-2.484375 0 -2.484375 -2.625l0 -5.09375l-1.21875 0l0 -0.625l1.21875 -0.53125l0.546875 -1.828125l0.75 0l0 1.984375l2.484375 0l0 1.0l-2.484375 0l0 5.046875q0 0.765625 0.359375 1.1875q0.375 0.40625 1.015625 0.40625zm6.5078125 1.078125q-1.90625 0 -3.0 -1.15625q-1.09375 -1.15625 -1.09375 -3.21875q0 -2.0625 1.015625 -3.28125q1.015625 -1.21875 2.734375 -1.21875q1.609375 0 2.546875 1.0625q0.9375 1.046875 0.9375 2.78125l0 0.828125l-5.890625 0q0.03125 1.5 0.75 2.28125q0.734375 0.78125 2.046875 0.78125q1.375 0 2.734375 -0.578125l0 1.15625q-0.6875 0.296875 -1.3125 0.421875q-0.609375 0.140625 -1.46875 0.140625zm-0.359375 -7.796875q-1.03125 0 -1.640625 0.671875q-0.609375 0.671875 -0.71875 1.859375l4.46875 0q0 -1.21875 -0.546875 -1.875q-0.546875 -0.65625 -1.5625 -0.65625zm9.6171875 -1.078125q0.578125 0 1.03125 0.09375l-0.1875 1.203125q-0.53125 -0.125 -0.9375 -0.125q-1.03125 0 -1.78125 0.84375q-0.734375 0.84375 -0.734375 2.109375l0 4.59375l-1.296875 0l0 -8.5625l1.078125 0l0.140625 1.578125l0.0625 0q0.484375 -0.828125 1.15625 -1.28125q0.671875 -0.453125 1.46875 -0.453125zm13.546875 8.71875l0 -5.578125q0 -1.015625 -0.4375 -1.53125q-0.4375 -0.515625 -1.359375 -0.515625q-1.21875 0 -1.796875 0.703125q-0.578125 0.6875 -0.578125 2.140625l0 4.78125l-1.296875 0l0 -5.578125q0 -1.015625 -0.4375 -1.53125q-0.4375 -0.515625 -1.359375 -0.515625q-1.21875 0 -1.796875 0.734375q-0.5625 0.734375 -0.5625 2.390625l0 4.5l-1.296875 0l0 -8.5625l1.0625 0l0.203125 1.171875l0.0625 0q0.375 -0.625 1.03125 -0.96875q0.671875 -0.359375 1.5 -0.359375q2.015625 0 2.625 1.453125l0.0625 0q0.390625 -0.671875 1.109375 -1.0625q0.734375 -0.390625 1.65625 -0.390625q1.453125 0 2.171875 0.75q0.734375 0.734375 0.734375 2.375l0 5.59375l-1.296875 0zm5.2578125 0l-1.296875 0l0 -8.5625l1.296875 0l0 8.5625zm-1.40625 -10.890625q0 -0.4375 0.21875 -0.640625q0.21875 -0.21875 0.546875 -0.21875q0.3125 0 0.53125 0.21875q0.234375 0.203125 0.234375 0.640625q0 0.4375 -0.234375 0.65625q-0.21875 0.21875 -0.53125 0.21875q-0.328125 0 -0.546875 -0.21875q-0.21875 -0.21875 -0.21875 -0.65625zm10.015625 10.890625l0 -5.546875q0 -1.046875 -0.484375 -1.5625q-0.46875 -0.515625 -1.484375 -0.515625q-1.34375 0 -1.96875 0.734375q-0.625 0.71875 -0.625 2.390625l0 4.5l-1.296875 0l0 -8.5625l1.0625 0l0.203125 1.171875l0.0625 0q0.40625 -0.640625 1.125 -0.984375q0.71875 -0.34375 1.59375 -0.34375q1.546875 0 2.328125 0.75q0.78125 0.734375 0.78125 2.375l0 5.59375l-1.296875 0zm9.226578 0l-0.25 -1.21875l-0.0625 0q-0.640625 0.796875 -1.28125 1.09375q-0.640625 0.28125 -1.59375 0.28125q-1.265625 0 -2.0 -0.65625q-0.71875 -0.65625 -0.71875 -1.875q0 -2.59375 4.15625 -2.71875l1.453125 -0.046875l0 -0.53125q0 -1.0 -0.4375 -1.484375q-0.4375 -0.484375 -1.390625 -0.484375q-1.0625 0 -2.421875 0.65625l-0.390625 -0.984375q0.625 -0.34375 1.375 -0.53125q0.765625 -0.203125 1.515625 -0.203125q1.53125 0 2.265625 0.6875q0.75 0.671875 0.75 2.171875l0 5.84375l-0.96875 0zm-2.921875 -0.921875q1.203125 0 1.890625 -0.65625q0.703125 -0.671875 0.703125 -1.859375l0 -0.78125l-1.296875 0.0625q-1.546875 0.046875 -2.234375 0.484375q-0.6875 0.421875 -0.6875 1.3125q0 0.703125 0.421875 1.078125q0.4375 0.359375 1.203125 0.359375zm7.8515625 0.921875l-1.296875 0l0 -12.15625l1.296875 0l0 12.15625z" fill-rule="nonzero"/><path fill="#000000" fill-opacity="0.0" d="m282.9642 103.94292l-101.07086 9.480316" fill-rule="evenodd"/><path stroke="#434343" stroke-width="1.0" stroke-linejoin="round" stroke-linecap="butt" d="m282.9642 103.94292l-101.07086 9.480316" fill-rule="evenodd"/><path fill="#000000" fill-opacity="0.0" d="m297.6811 176.60236l-114.89763 -63.1811" fill-rule="evenodd"/><path stroke="#434343" stroke-width="1.0" stroke-linejoin="round" stroke-linecap="butt" d="m297.6811 176.60236l-114.89763 -63.1811" fill-rule="evenodd"/><path fill="#000000" fill-opacity="0.0" d="m253.28477 15.678477l254.70866 0l0 35.74803l-254.70866 0z" fill-rule="evenodd"/><path fill="#000000" d="m267.92816 27.99062l3.21875 0q2.28125 0 3.296875 0.6875q1.015625 0.671875 1.015625 2.140625q0 1.015625 -0.578125 1.671875q-0.5625 0.65625 -1.640625 0.859375l0 0.078125q2.59375 0.4375 2.59375 2.734375q0 1.53125 -1.03125 2.390625q-1.03125 0.859375 -2.890625 0.859375l-3.984375 0l0 -11.421875zm1.328125 4.890625l2.1875 0q1.40625 0 2.015625 -0.4375q0.625 -0.453125 0.625 -1.5q0 -0.953125 -0.6875 -1.375q-0.6875 -0.4375 -2.1875 -0.4375l-1.953125 0l0 3.75zm0 1.125l0 4.265625l2.375 0q1.390625 0 2.078125 -0.53125q0.703125 -0.53125 0.703125 -1.671875q0 -1.0625 -0.71875 -1.5625q-0.703125 -0.5 -2.171875 -0.5l-2.265625 0zm14.1015625 5.40625l-0.25 -1.21875l-0.0625 0q-0.640625 0.796875 -1.28125 1.09375q-0.640625 0.28125 -1.59375 0.28125q-1.265625 0 -2.0 -0.65625q-0.71875 -0.65625 -0.71875 -1.875q0 -2.59375 4.15625 -2.71875l1.453125 -0.046875l0 -0.53125q0 -1.0 -0.4375 -1.484375q-0.4375 -0.484375 -1.390625 -0.484375q-1.0625 0 -2.421875 0.65625l-0.390625 -0.984375q0.625 -0.34375 1.375 -0.53125q0.765625 -0.203125 1.515625 -0.203125q1.53125 0 2.265625 0.6875q0.75 0.671875 0.75 2.171875l0 5.84375l-0.96875 0zm-2.921875 -0.921875q1.203125 0 1.890625 -0.65625q0.703125 -0.671875 0.703125 -1.859375l0 -0.78125l-1.296875 0.0625q-1.546875 0.046875 -2.234375 0.484375q-0.6875 0.421875 -0.6875 1.3125q0 0.703125 0.421875 1.078125q0.4375 0.359375 1.203125 0.359375zm9.3203125 0q0.34375 0 0.65625 -0.046875q0.328125 -0.046875 0.515625 -0.109375l0 1.0q-0.203125 0.109375 -0.625 0.171875q-0.40625 0.0625 -0.734375 0.0625q-2.484375 0 -2.484375 -2.625l0 -5.09375l-1.21875 0l0 -0.625l1.21875 -0.53125l0.546875 -1.828125l0.75 0l0 1.984375l2.484375 0l0 1.0l-2.484375 0l0 5.046875q0 0.765625 0.359375 1.1875q0.375 0.40625 1.015625 0.40625zm5.6484375 0q0.34375 0 0.65625 -0.046875q0.328125 -0.046875 0.515625 -0.109375l0 1.0q-0.203125 0.109375 -0.625 0.171875q-0.40625 0.0625 -0.734375 0.0625q-2.484375 0 -2.484375 -2.625l0 -5.09375l-1.21875 0l0 -0.625l1.21875 -0.53125l0.546875 -1.828125l0.75 0l0 1.984375l2.484375 0l0 1.0l-2.484375 0l0 5.046875q0 0.765625 0.359375 1.1875q0.375 0.40625 1.015625 0.40625zm6.5078125 1.078125q-1.90625 0 -3.0 -1.15625q-1.09375 -1.15625 -1.09375 -3.21875q0 -2.0625 1.015625 -3.28125q1.015625 -1.21875 2.734375 -1.21875q1.609375 0 2.546875 1.0625q0.9375 1.046875 0.9375 2.78125l0 0.828125l-5.890625 0q0.03125 1.5 0.75 2.28125q0.734375 0.78125 2.046875 0.78125q1.375 0 2.734375 -0.578125l0 1.15625q-0.6875 0.296875 -1.3125 0.421875q-0.609375 0.140625 -1.46875 0.140625zm-0.359375 -7.796875q-1.03125 0 -1.640625 0.671875q-0.609375 0.671875 -0.71875 1.859375l4.46875 0q0 -1.21875 -0.546875 -1.875q-0.546875 -0.65625 -1.5625 -0.65625zm9.6171875 -1.078125q0.578125 0 1.03125 0.09375l-0.1875 1.203125q-0.53125 -0.125 -0.9375 -0.125q-1.03125 0 -1.78125 0.84375q-0.734375 0.84375 -0.734375 2.109375l0 4.59375l-1.296875 0l0 -8.5625l1.078125 0l0.140625 1.578125l0.0625 0q0.484375 -0.828125 1.15625 -1.28125q0.671875 -0.453125 1.46875 -0.453125zm3.921875 8.71875l-1.296875 0l0 -8.5625l1.296875 0l0 8.5625zm-1.40625 -10.890625q0 -0.4375 0.21875 -0.640625q0.21875 -0.21875 0.546875 -0.21875q0.3125 0 0.53125 0.21875q0.234375 0.203125 0.234375 0.640625q0 0.4375 -0.234375 0.65625q-0.21875 0.21875 -0.53125 0.21875q-0.328125 0 -0.546875 -0.21875q-0.21875 -0.21875 -0.21875 -0.65625zm7.78125 11.046875q-1.90625 0 -3.0 -1.15625q-1.09375 -1.15625 -1.09375 -3.21875q0 -2.0625 1.015625 -3.28125q1.015625 -1.21875 2.734375 -1.21875q1.609375 0 2.546875 1.0625q0.9375 1.046875 0.9375 2.78125l0 0.828125l-5.890625 0q0.03125 1.5 0.75 2.28125q0.734375 0.78125 2.046875 0.78125q1.375 0 2.734375 -0.578125l0 1.15625q-0.6875 0.296875 -1.3125 0.421875q-0.609375 0.140625 -1.46875 0.140625zm-0.359375 -7.796875q-1.03125 0 -1.640625 0.671875q-0.609375 0.671875 -0.71875 1.859375l4.46875 0q0 -1.21875 -0.546875 -1.875q-0.546875 -0.65625 -1.5625 -0.65625zm11.2421875 5.296875q0 1.203125 -0.890625 1.859375q-0.890625 0.640625 -2.5 0.640625q-1.703125 0 -2.65625 -0.546875l0 -1.203125q0.609375 0.3125 1.3125 0.5q0.71875 0.171875 1.375 0.171875q1.015625 0 1.5625 -0.3125q0.546875 -0.328125 0.546875 -1.0q0 -0.5 -0.4375 -0.84375q-0.4375 -0.359375 -1.6875 -0.84375q-1.203125 -0.453125 -1.703125 -0.78125q-0.5 -0.328125 -0.75 -0.75q-0.25 -0.421875 -0.25 -1.015625q0 -1.046875 0.84375 -1.640625q0.859375 -0.609375 2.34375 -0.609375q1.390625 0 2.703125 0.5625l-0.453125 1.046875q-1.296875 -0.53125 -2.34375 -0.53125q-0.921875 0 -1.390625 0.296875q-0.46875 0.28125 -0.46875 0.796875q0 0.34375 0.171875 0.59375q0.1875 0.234375 0.578125 0.453125q0.390625 0.21875 1.5 0.625q1.515625 0.5625 2.046875 1.125q0.546875 0.5625 0.546875 1.40625zm13.2578125 2.34375l-1.578125 -5.03125q-0.140625 -0.453125 -0.546875 -2.09375l-0.0625 0q-0.3125 1.375 -0.546875 2.109375l-1.625 5.015625l-1.5 0l-2.328125 -8.5625l1.359375 0q0.828125 3.21875 1.25 4.90625q0.4375 1.6875 0.5 2.28125l0.0625 0q0.09375 -0.453125 0.28125 -1.15625q0.1875 -0.703125 0.328125 -1.125l1.578125 -4.90625l1.40625 0l1.53125 4.90625q0.4375 1.34375 0.59375 2.265625l0.0625 0q0.03125 -0.28125 0.15625 -0.859375q0.140625 -0.59375 1.640625 -6.3125l1.34375 0l-2.375 8.5625l-1.53125 0zm6.7421875 0l-1.296875 0l0 -8.5625l1.296875 0l0 8.5625zm-1.40625 -10.890625q0 -0.4375 0.21875 -0.640625q0.21875 -0.21875 0.546875 -0.21875q0.3125 0 0.53125 0.21875q0.234375 0.203125 0.234375 0.640625q0 0.4375 -0.234375 0.65625q-0.21875 0.21875 -0.53125 0.21875q-0.328125 0 -0.546875 -0.21875q-0.21875 -0.21875 -0.21875 -0.65625zm6.921875 9.96875q0.34375 0 0.65625 -0.046875q0.328125 -0.046875 0.515625 -0.109375l0 1.0q-0.203125 0.109375 -0.625 0.171875q-0.40625 0.0625 -0.734375 0.0625q-2.484375 0 -2.484375 -2.625l0 -5.09375l-1.21875 0l0 -0.625l1.21875 -0.53125l0.546875 -1.828125l0.75 0l0 1.984375l2.484375 0l0 1.0l-2.484375 0l0 5.046875q0 0.765625 0.359375 1.1875q0.375 0.40625 1.015625 0.40625zm8.7421875 0.921875l0 -5.546875q0 -1.046875 -0.484375 -1.5625q-0.46875 -0.515625 -1.484375 -0.515625q-1.34375 0 -1.96875 0.734375q-0.625 0.734375 -0.625 2.40625l0 4.484375l-1.296875 0l0 -12.15625l1.296875 0l0 3.671875q0 0.671875 -0.0625 1.109375l0.078125 0q0.390625 -0.625 1.09375 -0.96875q0.703125 -0.359375 1.609375 -0.359375q1.578125 0 2.359375 0.75q0.78125 0.734375 0.78125 2.359375l0 5.59375l-1.296875 0zm13.9453125 -1.15625l-0.0625 0q-0.90625 1.3125 -2.6875 1.3125q-1.6875 0 -2.625 -1.140625q-0.921875 -1.15625 -0.921875 -3.28125q0 -2.109375 0.9375 -3.28125q0.9375 -1.171875 2.609375 -1.171875q1.734375 0 2.671875 1.265625l0.09375 0l-0.046875 -0.625l-0.03125 -0.59375l0 -3.484375l1.2969055 0l0 12.15625l-1.0625305 0l-0.171875 -1.15625zm-2.59375 0.21875q1.328125 0 1.921875 -0.71875q0.609375 -0.71875 0.609375 -2.328125l0 -0.28125q0 -1.8125 -0.609375 -2.59375q-0.609375 -0.78125 -1.9375 -0.78125q-1.140625 0 -1.75 0.890625q-0.59375 0.890625 -0.59375 2.5q0 1.640625 0.59375 2.484375q0.609375 0.828125 1.765625 0.828125zm7.867218 0.9375l-1.296875 0l0 -8.5625l1.296875 0l0 8.5625zm-1.40625 -10.890625q0 -0.4375 0.21875 -0.640625q0.21875 -0.21875 0.546875 -0.21875q0.3125 0 0.53125 0.21875q0.234375 0.203125 0.234375 0.640625q0 0.4375 -0.234375 0.65625q-0.21875 0.21875 -0.53125 0.21875q-0.328125 0 -0.546875 -0.21875q-0.21875 -0.21875 -0.21875 -0.65625zm13.015625 3.328125l-2.171875 0l0 7.5625l-1.296875 0l0 -7.5625l-1.53125 0l0 -0.578125l1.53125 -0.46875l0 -0.484375q0 -3.15625 2.75 -3.15625q0.6875 0 1.59375 0.28125l-0.328125 1.03125q-0.75 -0.234375 -1.28125 -0.234375q-0.734375 0 -1.09375 0.484375q-0.34375 0.484375 -0.34375 1.5625l0 0.5625l2.171875 0l0 1.0zm-5.0 0l-2.171875 0l0 7.5625l-1.296875 0l0 -7.5625l-1.53125 0l0 -0.578125l1.53125 -0.46875l0 -0.484375q0 -3.15625 2.75 -3.15625q0.6875 0 1.59375 0.28125l-0.328125 1.03125q-0.75 -0.234375 -1.28125 -0.234375q-0.734375 0 -1.09375 0.484375q-0.34375 0.484375 -0.34375 1.5625l0 0.5625l2.171875 0l0 1.0zm10.6171875 7.71875q-1.90625 0 -3.0 -1.15625q-1.09375 -1.15625 -1.09375 -3.21875q0 -2.0625 1.015625 -3.28125q1.015625 -1.21875 2.734375 -1.21875q1.609375 0 2.546875 1.0625q0.9375 1.046875 0.9375 2.78125l0 0.828125l-5.890625 0q0.03125 1.5 0.75 2.28125q0.734375 0.78125 2.046875 0.78125q1.375 0 2.734375 -0.578125l0 1.15625q-0.6875 0.296875 -1.3125 0.421875q-0.609375 0.140625 -1.46875 0.140625zm-0.359375 -7.796875q-1.03125 0 -1.640625 0.671875q-0.609375 0.671875 -0.71875 1.859375l4.46875 0q0 -1.21875 -0.546875 -1.875q-0.546875 -0.65625 -1.5625 -0.65625zm9.6171875 -1.078125q0.578125 0 1.03125 0.09375l-0.1875 1.203125q-0.53125 -0.125 -0.9375 -0.125q-1.03125 0 -1.78125 0.84375q-0.734375 0.84375 -0.734375 2.109375l0 4.59375l-1.296875 0l0 -8.5625l1.078125 0l0.140625 1.578125l0.0625 0q0.484375 -0.828125 1.15625 -1.28125q0.671875 -0.453125 1.46875 -0.453125zm6.25 8.875q-1.90625 0 -3.0 -1.15625q-1.09375 -1.15625 -1.09375 -3.21875q0 -2.0625 1.015625 -3.28125q1.015625 -1.21875 2.734375 -1.21875q1.609375 0 2.546875 1.0625q0.9375 1.046875 0.9375 2.78125l0 0.828125l-5.890625 0q0.03125 1.5 0.75 2.28125q0.734375 0.78125 2.046875 0.78125q1.375 0 2.734375 -0.578125l0 1.15625q-0.6875 0.296875 -1.3125 0.421875q-0.609375 0.140625 -1.46875 0.140625zm-0.359375 -7.796875q-1.03125 0 -1.640625 0.671875q-0.609375 0.671875 -0.71875 1.859375l4.46875 0q0 -1.21875 -0.546875 -1.875q-0.546875 -0.65625 -1.5625 -0.65625zm11.5703125 7.640625l0 -5.546875q0 -1.046875 -0.484375 -1.5625q-0.46875 -0.515625 -1.484375 -0.515625q-1.34375 0 -1.96875 0.734375q-0.625 0.71875 -0.625 2.390625l0 4.5l-1.296875 0l0 -8.5625l1.0625 0l0.203125 1.171875l0.0625 0q0.40625 -0.640625 1.125 -0.984375q0.71875 -0.34375 1.59375 -0.34375q1.546875 0 2.328125 0.75q0.78125 0.734375 0.78125 2.375l0 5.59375l-1.296875 0zm6.7265625 -0.921875q0.34375 0 0.65625 -0.046875q0.328125 -0.046875 0.515625 -0.109375l0 1.0q-0.203125 0.109375 -0.625 0.171875q-0.40625 0.0625 -0.734375 0.0625q-2.484375 0 -2.484375 -2.625l0 -5.09375l-1.21875 0l0 -0.625l1.21875 -0.53125l0.546875 -1.828125l0.75 0l0 1.984375l2.484375 0l0 1.0l-2.484375 0l0 5.046875q0 0.765625 0.359375 1.1875q0.375 0.40625 1.015625 0.40625zm12.5703125 -1.421875q0 1.203125 -0.890625 1.859375q-0.890625 0.640625 -2.5 0.640625q-1.703125 0 -2.65625 -0.546875l0 -1.203125q0.609375 0.3125 1.3125 0.5q0.71875 0.171875 1.375 0.171875q1.015625 0 1.5625 -0.3125q0.546875 -0.328125 0.546875 -1.0q0 -0.5 -0.4375 -0.84375q-0.4375 -0.359375 -1.6875 -0.84375q-1.203125 -0.453125 -1.703125 -0.78125q-0.5 -0.328125 -0.75 -0.75q-0.25 -0.421875 -0.25 -1.015625q0 -1.046875 0.84375 -1.640625q0.859375 -0.609375 2.34375 -0.609375q1.390625 0 2.703125 0.5625l-0.453125 1.046875q-1.296875 -0.53125 -2.34375 -0.53125q-0.921875 0 -1.390625 0.296875q-0.46875 0.28125 -0.46875 0.796875q0 0.34375 0.171875 0.59375q0.1875 0.234375 0.578125 0.453125q0.390625 0.21875 1.5 0.625q1.515625 0.5625 2.046875 1.125q0.546875 0.5625 0.546875 1.40625zm7.9609375 2.34375l0 -5.546875q0 -1.046875 -0.484375 -1.5625q-0.46875 -0.515625 -1.484375 -0.515625q-1.34375 0 -1.96875 0.734375q-0.625 0.734375 -0.625 2.40625l0 4.484375l-1.296875 0l0 -12.15625l1.296875 0l0 3.671875q0 0.671875 -0.0625 1.109375l0.078125 0q0.390625 -0.625 1.09375 -0.96875q0.703125 -0.359375 1.609375 -0.359375q1.578125 0 2.359375 0.75q0.78125 0.734375 0.78125 2.359375l0 5.59375l-1.296875 0zm9.2265625 0l-0.25 -1.21875l-0.0625 0q-0.640625 0.796875 -1.28125 1.09375q-0.640625 0.28125 -1.59375 0.28125q-1.265625 0 -2.0 -0.65625q-0.71875 -0.65625 -0.71875 -1.875q0 -2.59375 4.15625 -2.71875l1.453125 -0.046875l0 -0.53125q0 -1.0 -0.4375 -1.484375q-0.4375 -0.484375 -1.390625 -0.484375q-1.0625 0 -2.421875 0.65625l-0.390625 -0.984375q0.625 -0.34375 1.375 -0.53125q0.765625 -0.203125 1.515625 -0.203125q1.53125 0 2.265625 0.6875q0.75 0.671875 0.75 2.171875l0 5.84375l-0.96875 0zm-2.921875 -0.921875q1.203125 0 1.890625 -0.65625q0.703125 -0.671875 0.703125 -1.859375l0 -0.78125l-1.296875 0.0625q-1.546875 0.046875 -2.234375 0.484375q-0.6875 0.421875 -0.6875 1.3125q0 0.703125 0.421875 1.078125q0.4375 0.359375 1.203125 0.359375zm10.5390625 1.078125q-0.828125 0 -1.53125 -0.3125q-0.6875 -0.3125 -1.15625 -0.953125l-0.09375 0q0.09375 0.75 0.09375 1.4375l0 3.515625l-1.296875 0l0 -12.40625l1.0625 0l0.171875 1.171875l0.0625 0q0.5 -0.703125 1.15625 -1.015625q0.671875 -0.3125 1.53125 -0.3125q1.703125 0 2.625 1.171875q0.9375 1.15625 0.9375 3.25q0 2.109375 -0.953125 3.28125q-0.9375 1.171875 -2.609375 1.171875zm-0.1875 -7.78125q-1.3125 0 -1.90625 0.734375q-0.578125 0.71875 -0.59375 2.3125l0 0.28125q0 1.8125 0.59375 2.59375q0.609375 0.765625 1.9375 0.765625q1.109375 0 1.734375 -0.890625q0.640625 -0.90625 0.640625 -2.484375q0 -1.59375 -0.640625 -2.453125q-0.625 -0.859375 -1.765625 -0.859375zm9.6328125 7.78125q-1.90625 0 -3.0 -1.15625q-1.09375 -1.15625 -1.09375 -3.21875q0 -2.0625 1.015625 -3.28125q1.015625 -1.21875 2.734375 -1.21875q1.609375 0 2.546875 1.0625q0.9375 1.046875 0.9375 2.78125l0 0.828125l-5.890625 0q0.03125 1.5 0.75 2.28125q0.734375 0.78125 2.046875 0.78125q1.375 0 2.734375 -0.578125l0 1.15625q-0.6875 0.296875 -1.3125 0.421875q-0.609375 0.140625 -1.46875 0.140625zm-0.359375 -7.796875q-1.03125 0 -1.640625 0.671875q-0.609375 0.671875 -0.71875 1.859375l4.46875 0q0 -1.21875 -0.546875 -1.875q-0.546875 -0.65625 -1.5625 -0.65625zm11.2421875 5.296875q0 1.203125 -0.890625 1.859375q-0.890625 0.640625 -2.5 0.640625q-1.703125 0 -2.65625 -0.546875l0 -1.203125q0.609375 0.3125 1.3125 0.5q0.71875 0.171875 1.375 0.171875q1.015625 0 1.5625 -0.3125q0.546875 -0.328125 0.546875 -1.0q0 -0.5 -0.4375 -0.84375q-0.4375 -0.359375 -1.6875 -0.84375q-1.203125 -0.453125 -1.703125 -0.78125q-0.5 -0.328125 -0.75 -0.75q-0.25 -0.421875 -0.25 -1.015625q0 -1.046875 0.84375 -1.640625q0.859375 -0.609375 2.34375 -0.609375q1.390625 0 2.703125 0.5625l-0.453125 1.046875q-1.296875 -0.53125 -2.34375 -0.53125q-0.921875 0 -1.390625 0.296875q-0.46875 0.28125 -0.46875 0.796875q0 0.34375 0.171875 0.59375q0.1875 0.234375 0.578125 0.453125q0.390625 0.21875 1.5 0.625q1.515625 0.5625 2.046875 1.125q0.546875 0.5625 0.546875 1.40625z" fill-rule="nonzero"/><path fill="#000000" fill-opacity="0.0" d="m360.79922 104.615486l20.283447 281.13385" fill-rule="evenodd"/><path stroke="#434343" stroke-width="1.0" stroke-linejoin="round" stroke-linecap="butt" d="m360.79922 104.615486l20.283447 281.13385" fill-rule="evenodd"/><path fill="#000000" fill-opacity="0.0" d="m418.08267 265.88846l-36.125977 120.724396" fill-rule="evenodd"/><path stroke="#434343" stroke-width="1.0" stroke-linejoin="round" stroke-linecap="butt" d="m418.08267 265.88846l-36.125977 120.724396" fill-rule="evenodd"/><path fill="#000000" fill-opacity="0.0" d="m253.28477 392.7362l254.70866 0l0 35.748047l-254.70866 0z" fill-rule="evenodd"/><path fill="#000000" d="m274.91644 416.47025l-6.359375 0l0 -11.421875l6.359375 0l0 1.171875l-5.03125 0l0 3.6875l4.734375 0l0 1.171875l-4.734375 0l0 4.203125l5.03125 0l0 1.1875zm8.1953125 0l0 -5.546875q0 -1.046875 -0.484375 -1.5625q-0.46875 -0.515625 -1.484375 -0.515625q-1.34375 0 -1.96875 0.734375q-0.625 0.71875 -0.625 2.390625l0 4.5l-1.296875 0l0 -8.5625l1.0625 0l0.203125 1.171875l0.0625 0q0.40625 -0.640625 1.125 -0.984375q0.71875 -0.34375 1.59375 -0.34375q1.546875 0 2.328125 0.75q0.78125 0.734375 0.78125 2.375l0 5.59375l-1.296875 0zm7.3828125 0.15625q-1.859375 0 -2.875 -1.140625q-1.015625 -1.15625 -1.015625 -3.25q0 -2.140625 1.03125 -3.3125q1.03125 -1.171875 2.953125 -1.171875q0.609375 0 1.21875 0.140625q0.625 0.125 0.984375 0.296875l-0.40625 1.109375q-0.421875 -0.171875 -0.9375 -0.28125q-0.5 -0.125 -0.890625 -0.125q-2.609375 0 -2.609375 3.328125q0 1.578125 0.625 2.421875q0.640625 0.84375 1.890625 0.84375q1.078125 0 2.203125 -0.453125l0 1.140625q-0.859375 0.453125 -2.171875 0.453125zm5.4921875 -0.15625l-1.296875 0l0 -12.15625l1.296875 0l0 12.15625zm10.140625 -4.296875q0 2.09375 -1.0625 3.28125q-1.046875 1.171875 -2.90625 1.171875q-1.140625 0 -2.03125 -0.53125q-0.890625 -0.546875 -1.375 -1.546875q-0.484375 -1.015625 -0.484375 -2.375q0 -2.09375 1.046875 -3.25q1.046875 -1.171875 2.90625 -1.171875q1.796875 0 2.84375 1.203125q1.0625 1.1875 1.0625 3.21875zm-6.515625 0q0 1.640625 0.65625 2.5q0.65625 0.859375 1.921875 0.859375q1.28125 0 1.9375 -0.84375q0.65625 -0.859375 0.65625 -2.515625q0 -1.625 -0.65625 -2.46875q-0.65625 -0.859375 -1.953125 -0.859375q-1.265625 0 -1.921875 0.84375q-0.640625 0.828125 -0.640625 2.484375zm14.3203125 1.953125q0 1.203125 -0.890625 1.859375q-0.890625 0.640625 -2.5 0.640625q-1.703125 0 -2.65625 -0.546875l0 -1.203125q0.609375 0.3125 1.3125 0.5q0.71875 0.171875 1.375 0.171875q1.015625 0 1.5625 -0.3125q0.546875 -0.328125 0.546875 -1.0q0 -0.5 -0.4375 -0.84375q-0.4375 -0.359375 -1.6875 -0.84375q-1.203125 -0.453125 -1.703125 -0.78125q-0.5 -0.328125 -0.75 -0.75q-0.25 -0.421875 -0.25 -1.015625q0 -1.046875 0.84375 -1.640625q0.859375 -0.609375 2.34375 -0.609375q1.390625 0 2.703125 0.5625l-0.453125 1.046875q-1.296875 -0.53125 -2.34375 -0.53125q-0.921875 0 -1.390625 0.296875q-0.46875 0.28125 -0.46875 0.796875q0 0.34375 0.171875 0.59375q0.1875 0.234375 0.578125 0.453125q0.390625 0.21875 1.5 0.625q1.515625 0.5625 2.046875 1.125q0.546875 0.5625 0.546875 1.40625zm3.3203125 -6.21875l0 5.546875q0 1.046875 0.46875 1.5625q0.484375 0.515625 1.5 0.515625q1.34375 0 1.96875 -0.734375q0.625 -0.734375 0.625 -2.390625l0 -4.5l1.296875 0l0 8.5625l-1.078125 0l-0.1875 -1.15625l-0.0625 0q-0.40625 0.640625 -1.109375 0.984375q-0.703125 0.328125 -1.609375 0.328125q-1.5625 0 -2.34375 -0.734375q-0.78125 -0.75 -0.78125 -2.390625l0 -5.59375l1.3125 0zm12.5078125 -0.15625q0.578125 0 1.03125 0.09375l-0.1875 1.203125q-0.53125 -0.125 -0.9375 -0.125q-1.03125 0 -1.78125 0.84375q-0.734375 0.84375 -0.734375 2.109375l0 4.59375l-1.296875 0l0 -8.5625l1.078125 0l0.140625 1.578125l0.0625 0q0.484375 -0.828125 1.15625 -1.28125q0.671875 -0.453125 1.46875 -0.453125zm6.25 8.875q-1.90625 0 -3.0 -1.15625q-1.09375 -1.15625 -1.09375 -3.21875q0 -2.0625 1.015625 -3.28125q1.015625 -1.21875 2.734375 -1.21875q1.609375 0 2.546875 1.0625q0.9375 1.046875 0.9375 2.78125l0 0.828125l-5.890625 0q0.03125 1.5 0.75 2.28125q0.734375 0.78125 2.046875 0.78125q1.375 0 2.734375 -0.578125l0 1.15625q-0.6875 0.296875 -1.3125 0.421875q-0.609375 0.140625 -1.46875 0.140625zm-0.359375 -7.796875q-1.03125 0 -1.640625 0.671875q-0.609375 0.671875 -0.71875 1.859375l4.46875 0q0 -1.21875 -0.546875 -1.875q-0.546875 -0.65625 -1.5625 -0.65625zm13.7265625 0.078125l-2.171875 0l0 7.5625l-1.296875 0l0 -7.5625l-1.53125 0l0 -0.578125l1.53125 -0.46875l0 -0.484375q0 -3.15625 2.75 -3.15625q0.6875 0 1.59375 0.28125l-0.328125 1.03125q-0.75 -0.234375 -1.28125 -0.234375q-0.734375 0 -1.09375 0.484375q-0.34375 0.484375 -0.34375 1.5625l0 0.5625l2.171875 0l0 1.0zm2.4375 7.5625l-1.296875 0l0 -8.5625l1.296875 0l0 8.5625zm-1.40625 -10.890625q0 -0.4375 0.21875 -0.640625q0.21875 -0.21875 0.546875 -0.21875q0.3125 0 0.53125 0.21875q0.234375 0.203125 0.234375 0.640625q0 0.4375 -0.234375 0.65625q-0.21875 0.21875 -0.53125 0.21875q-0.328125 0 -0.546875 -0.21875q-0.21875 -0.21875 -0.21875 -0.65625zm5.875 10.890625l-1.296875 0l0 -12.15625l1.296875 0l0 12.15625zm4.046875 0l-1.296875 0l0 -12.15625l1.296875 0l0 12.15625zm6.375 0.15625q-1.90625 0 -3.0 -1.15625q-1.09375 -1.15625 -1.09375 -3.21875q0 -2.0625 1.015625 -3.28125q1.015625 -1.21875 2.734375 -1.21875q1.609375 0 2.546875 1.0625q0.9375 1.046875 0.9375 2.78125l0 0.828125l-5.890625 0q0.03125 1.5 0.75 2.28125q0.734375 0.78125 2.046875 0.78125q1.375 0 2.734375 -0.578125l0 1.15625q-0.6875 0.296875 -1.3125 0.421875q-0.609375 0.140625 -1.46875 0.140625zm-0.359375 -7.796875q-1.03125 0 -1.640625 0.671875q-0.609375 0.671875 -0.71875 1.859375l4.46875 0q0 -1.21875 -0.546875 -1.875q-0.546875 -0.65625 -1.5625 -0.65625zm11.5390625 6.484375l-0.0625 0q-0.90625 1.3125 -2.6875 1.3125q-1.6875 0 -2.625 -1.140625q-0.921875 -1.15625 -0.921875 -3.28125q0 -2.109375 0.9375 -3.28125q0.9375 -1.171875 2.609375 -1.171875q1.734375 0 2.671875 1.265625l0.09375 0l-0.046875 -0.625l-0.03125 -0.59375l0 -3.484375l1.296875 0l0 12.15625l-1.0625 0l-0.171875 -1.15625zm-2.59375 0.21875q1.328125 0 1.921875 -0.71875q0.609375 -0.71875 0.609375 -2.328125l0 -0.28125q0 -1.8125 -0.609375 -2.59375q-0.609375 -0.78125 -1.9375 -0.78125q-1.140625 0 -1.75 0.890625q-0.59375 0.890625 -0.59375 2.5q0 1.640625 0.59375 2.484375q0.609375 0.828125 1.765625 0.828125zm17.726593 0.9375l-1.578125 -5.03125q-0.140625 -0.453125 -0.546875 -2.09375l-0.0625 0q-0.3125 1.375 -0.546875 2.109375l-1.625 5.015625l-1.5 0l-2.328125 -8.5625l1.359375 0q0.828125 3.21875 1.25 4.90625q0.4375 1.6875 0.5 2.28125l0.0625 0q0.09375 -0.453125 0.28125 -1.15625q0.1875 -0.703125 0.328125 -1.125l1.578125 -4.90625l1.40625 0l1.53125 4.90625q0.4375 1.34375 0.59375 2.265625l0.0625 0q0.03125 -0.28125 0.15625 -0.859375q0.140625 -0.59375 1.640625 -6.3125l1.34375 0l-2.375 8.5625l-1.53125 0zm6.7421875 0l-1.296875 0l0 -8.5625l1.296875 0l0 8.5625zm-1.40625 -10.890625q0 -0.4375 0.21875 -0.640625q0.21875 -0.21875 0.546875 -0.21875q0.3125 0 0.53125 0.21875q0.234375 0.203125 0.234375 0.640625q0 0.4375 -0.234375 0.65625q-0.21875 0.21875 -0.53125 0.21875q-0.328125 0 -0.546875 -0.21875q-0.21875 -0.21875 -0.21875 -0.65625zm6.921875 9.96875q0.34375 0 0.65625 -0.046875q0.328125 -0.046875 0.515625 -0.109375l0 1.0q-0.203125 0.109375 -0.625 0.171875q-0.40625 0.0625 -0.734375 0.0625q-2.484375 0 -2.484375 -2.625l0 -5.09375l-1.21875 0l0 -0.625l1.21875 -0.53125l0.546875 -1.828125l0.75 0l0 1.984375l2.484375 0l0 1.0l-2.484375 0l0 5.046875q0 0.765625 0.359375 1.1875q0.375 0.40625 1.015625 0.40625zm8.7421875 0.921875l0 -5.546875q0 -1.046875 -0.484375 -1.5625q-0.46875 -0.515625 -1.484375 -0.515625q-1.34375 0 -1.96875 0.734375q-0.625 0.734375 -0.625 2.40625l0 4.484375l-1.296875 0l0 -12.15625l1.296875 0l0 3.671875q0 0.671875 -0.0625 1.109375l0.078125 0q0.390625 -0.625 1.09375 -0.96875q0.703125 -0.359375 1.609375 -0.359375q1.578125 0 2.359375 0.75q0.78125 0.734375 0.78125 2.359375l0 5.59375l-1.296875 0zm11.5390625 0.15625q-1.859375 0 -2.875 -1.140625q-1.015625 -1.15625 -1.015625 -3.25q0 -2.140625 1.03125 -3.3125q1.03125 -1.171875 2.953125 -1.171875q0.609375 0 1.21875 0.140625q0.625 0.125 0.984375 0.296875l-0.40625 1.109375q-0.421875 -0.171875 -0.9375 -0.28125q-0.5 -0.125 -0.890625 -0.125q-2.609375 0 -2.609375 3.328125q0 1.578125 0.625 2.421875q0.640625 0.84375 1.890625 0.84375q1.078125 0 2.203125 -0.453125l0 1.140625q-0.859375 0.453125 -2.171875 0.453125zm10.0546875 -0.15625l0 -5.546875q0 -1.046875 -0.484375 -1.5625q-0.46875 -0.515625 -1.484375 -0.515625q-1.34375 0 -1.96875 0.734375q-0.625 0.734375 -0.625 2.40625l0 4.484375l-1.296875 0l0 -12.15625l1.296875 0l0 3.671875q0 0.671875 -0.0625 1.109375l0.078125 0q0.390625 -0.625 1.09375 -0.96875q0.703125 -0.359375 1.609375 -0.359375q1.578125 0 2.359375 0.75q0.78125 0.734375 0.78125 2.359375l0 5.59375l-1.296875 0zm7.5859375 0.15625q-1.90625 0 -3.0 -1.15625q-1.09375 -1.15625 -1.09375 -3.21875q0 -2.0625 1.015625 -3.28125q1.015625 -1.21875 2.734375 -1.21875q1.609375 0 2.546875 1.0625q0.9375 1.046875 0.9375 2.78125l0 0.828125l-5.890625 0q0.03125 1.5 0.75 2.28125q0.734375 0.78125 2.046875 0.78125q1.375 0 2.734375 -0.578125l0 1.15625q-0.6875 0.296875 -1.3125 0.421875q-0.609375 0.140625 -1.46875 0.140625zm-0.359375 -7.796875q-1.03125 0 -1.640625 0.671875q-0.609375 0.671875 -0.71875 1.859375l4.46875 0q0 -1.21875 -0.546875 -1.875q-0.546875 -0.65625 -1.5625 -0.65625zm16.632812 7.640625l0 -5.578125q0 -1.015625 -0.4375 -1.53125q-0.4375 -0.515625 -1.359375 -0.515625q-1.21875 0 -1.796875 0.703125q-0.578125 0.6875 -0.578125 2.140625l0 4.78125l-1.296875 0l0 -5.578125q0 -1.015625 -0.4375 -1.53125q-0.4375 -0.515625 -1.359375 -0.515625q-1.21875 0 -1.796875 0.734375q-0.5625 0.734375 -0.5625 2.390625l0 4.5l-1.296875 0l0 -8.5625l1.0625 0l0.203125 1.171875l0.0625 0q0.375 -0.625 1.03125 -0.96875q0.671875 -0.359375 1.5 -0.359375q2.015625 0 2.625 1.453125l0.0625 0q0.390625 -0.671875 1.109375 -1.0625q0.734375 -0.390625 1.65625 -0.390625q1.453125 0 2.171875 0.75q0.734375 0.734375 0.734375 2.375l0 5.59375l-1.296875 0zm5.2578125 0l-1.296875 0l0 -8.5625l1.296875 0l0 8.5625zm-1.40625 -10.890625q0 -0.4375 0.21875 -0.640625q0.21875 -0.21875 0.546875 -0.21875q0.3125 0 0.53125 0.21875q0.234375 0.203125 0.234375 0.640625q0 0.4375 -0.234375 0.65625q-0.21875 0.21875 -0.53125 0.21875q-0.328125 0 -0.546875 -0.21875q-0.21875 -0.21875 -0.21875 -0.65625zm7.578125 11.046875q-1.859375 0 -2.875 -1.140625q-1.015625 -1.15625 -1.015625 -3.25q0 -2.140625 1.03125 -3.3125q1.03125 -1.171875 2.953125 -1.171875q0.609375 0 1.21875 0.140625q0.625 0.125 0.984375 0.296875l-0.40625 1.109375q-0.421875 -0.171875 -0.9375 -0.28125q-0.5 -0.125 -0.890625 -0.125q-2.609375 0 -2.609375 3.328125q0 1.578125 0.625 2.421875q0.640625 0.84375 1.890625 0.84375q1.078125 0 2.203125 -0.453125l0 1.140625q-0.859375 0.453125 -2.171875 0.453125zm9.4609375 -0.15625l-0.25 -1.21875l-0.0625 0q-0.640625 0.796875 -1.28125 1.09375q-0.640625 0.28125 -1.59375 0.28125q-1.265625 0 -2.0 -0.65625q-0.71875 -0.65625 -0.71875 -1.875q0 -2.59375 4.15625 -2.71875l1.453125 -0.046875l0 -0.53125q0 -1.0 -0.4375 -1.484375q-0.4375 -0.484375 -1.390625 -0.484375q-1.0625 0 -2.421875 0.65625l-0.390625 -0.984375q0.625 -0.34375 1.375 -0.53125q0.765625 -0.203125 1.515625 -0.203125q1.53125 0 2.265625 0.6875q0.75 0.671875 0.75 2.171875l0 5.84375l-0.96875 0zm-2.921875 -0.921875q1.203125 0 1.890625 -0.65625q0.703125 -0.671875 0.703125 -1.859375l0 -0.78125l-1.296875 0.0625q-1.546875 0.046875 -2.234375 0.484375q-0.6875 0.421875 -0.6875 1.3125q0 0.703125 0.421875 1.078125q0.4375 0.359375 1.203125 0.359375zm7.8515625 0.921875l-1.296875 0l0 -12.15625l1.296875 0l0 12.15625zm8.28125 -2.34375q0 1.203125 -0.890625 1.859375q-0.890625 0.640625 -2.5 0.640625q-1.703125 0 -2.65625 -0.546875l0 -1.203125q0.609375 0.3125 1.3125 0.5q0.71875 0.171875 1.375 0.171875q1.015625 0 1.5625 -0.3125q0.546875 -0.328125 0.546875 -1.0q0 -0.5 -0.4375 -0.84375q-0.4375 -0.359375 -1.6875 -0.84375q-1.203125 -0.453125 -1.703125 -0.78125q-0.5 -0.328125 -0.75 -0.75q-0.25 -0.421875 -0.25 -1.015625q0 -1.046875 0.84375 -1.640625q0.859375 -0.609375 2.34375 -0.609375q1.390625 0 2.703125 0.5625l-0.453125 1.046875q-1.296875 -0.53125 -2.34375 -0.53125q-0.921875 0 -1.390625 0.296875q-0.46875 0.28125 -0.46875 0.796875q0 0.34375 0.171875 0.59375q0.1875 0.234375 0.578125 0.453125q0.390625 0.21875 1.5 0.625q1.515625 0.5625 2.046875 1.125q0.546875 0.5625 0.546875 1.40625z" fill-rule="nonzero"/></g></svg>