<svg version="1.1" viewBox="0.0 0.0 803.0 230.0" fill="none" stroke="none" stroke-linecap="square" stroke-miterlimit="10" xmlns:xlink="http://www.w3.org/1999/xlink" xmlns="http://www.w3.org/2000/svg"><clipPath id="p.0"><path d="m0 0l803.0 0l0 230.0l-803.0 0l0 -230.0z" clip-rule="nonzero"/></clipPath><g clip-path="url(#p.0)"><path fill="#000000" fill-opacity="0.0" d="m0 0l803.0 0l0 230.0l-803.0 0z" fill-rule="evenodd"/><defs><linearGradient id="p.1" gradientUnits="userSpaceOnUse" gradientTransform="matrix(0.0 10.742687868761301 -10.742687868761301 0.0 0.0 0.0)" spreadMethod="pad" x1="16.076328715223884" y1="-59.80236259359525" x2="5.3336408467339025" y2="-59.802438944130955"><stop offset="0.0" stop-color="#b87333"/><stop offset="1.0" stop-color="#fad25c"/></linearGradient></defs><path fill="url(#p.1)" d="m628.01294 57.297638l0 0c-7.966858 0 -14.425232 25.833527 -14.425232 57.70079c0 31.867264 6.458374 57.70079 14.425232 57.70079l-490.07877 0c-7.966812 0 -14.425201 -25.833527 -14.425201 -57.70079c0 -31.867264 6.4583893 -57.70079 14.425201 -57.70079z" fill-rule="evenodd"/><defs><linearGradient id="p.2" gradientUnits="userSpaceOnUse" gradientTransform="matrix(0.0 10.742687868761301 -10.742687868761301 0.0 0.0 0.0)" spreadMethod="pad" x1="16.076328715223884" y1="-59.80236259359525" x2="5.3336408467339025" y2="-59.802438944130955"><stop offset="0.0" stop-color="#b87333"/><stop offset="1.0" stop-color="#fad25c"/></linearGradient></defs><path fill="url(#p.2)" d="m628.01294 57.297638l0 0c7.966797 0 14.425171 25.833527 14.425171 57.70079c0 31.867264 -6.458374 57.70079 -14.425171 57.70079l0 0c-7.966858 0 -14.425232 -25.833527 -14.425232 -57.70079c0 -31.867264 6.458374 -57.70079 14.425232 -57.70079z" fill-rule="evenodd"/><path fill="#000000" fill-opacity="0.0" d="m628.01294 172.69922l0 0c-7.966858 0 -14.425232 -25.833527 -14.425232 -57.70079c0 -31.867264 6.458374 -57.70079 14.425232 -57.70079l0 0c7.966797 0 14.425171 25.833527 14.425171 57.70079c0 31.867264 -6.458374 57.70079 -14.425171 57.70079l-490.07877 0c-7.966812 0 -14.425201 -25.833527 -14.425201 -57.70079c0 -31.867264 6.4583893 -57.70079 14.425201 -57.70079l490.07877 0" fill-rule="evenodd"/><path fill="#ffffff" fill-opacity="0.4" d="m628.01294 57.297638l0 0c7.966797 0 14.425171 25.833527 14.425171 57.70079c0 31.867264 -6.458374 57.70079 -14.425171 57.70079l0 0c-7.966858 0 -14.425232 -25.833527 -14.425232 -57.70079c0 -31.867264 6.458374 -57.70079 14.425232 -57.70079z" fill-rule="evenodd"/><path fill="#000000" fill-opacity="0.0" d="m159.34808 138.01637l0 0c-14.020203 -3.7572784 -22.396362 -17.98545 -18.708664 -31.779526l0 0c1.7708893 -6.6241455 6.1438293 -12.260231 12.156815 -15.668373c6.01297 -3.4081345 13.173447 -4.309166 19.906174 -2.5048523l0 0c14.020218 3.7572708 22.396362 17.98545 18.708664 31.779526l0 0c-3.6876984 13.794075 -18.042786 21.930504 -32.06299 18.173225z" fill-rule="evenodd"/><path stroke="#666666" stroke-width="1.0" stroke-linejoin="round" stroke-linecap="butt" d="m159.34808 138.01637l0 0c-14.020203 -3.7572784 -22.396362 -17.98545 -18.708664 -31.779526l0 0c1.7708893 -6.6241455 6.1438293 -12.260231 12.156815 -15.668373c6.01297 -3.4081345 13.173447 -4.309166 19.906174 -2.5048523l0 0c14.020218 3.7572708 22.396362 17.98545 18.708664 31.779526l0 0c-3.6876984 13.794075 -18.042786 21.930504 -32.06299 18.173225z" fill-rule="evenodd"/><defs><radialGradient id="p.3" gradientUnits="userSpaceOnUse" gradientTransform="matrix(1.062357621444942 -3.954015532253838 3.954015532253838 1.062357621444942 0.0 0.0)" spreadMethod="pad" cx="-16.144218329058713" cy="46.330464478948954" fx="-16.144218329058713" fy="46.330464478948954" r="3.9540154933929443"><stop offset="0.0" stop-color="#ffffff"/><stop offset="1.0" stop-color="#b3b3b3"/></radialGradient></defs><path fill="url(#p.3)" d="m163.09557 124.01464l0 0c-6.1577606 -1.652504 -9.831146 -7.8993683 -8.204727 -13.952751l0 0c0.7810364 -2.9069443 2.7047577 -5.3795853 5.347992 -6.8739624c2.643219 -1.4943848 5.7894287 -1.8881073 8.7464905 -1.0945435l0 0c6.1577606 1.652504 9.831146 7.8993683 8.204727 13.952751l0 0c-1.6264191 6.0533905 -7.936737 9.62101 -14.094482 7.968506z" fill-rule="evenodd"/><path fill="#000000" fill-opacity="0.0" d="m233.6345 89.9927l0 0c12.567749 -7.253624 28.7137 -2.8117294 36.063004 9.921265l0 0c3.5292358 6.1145935 4.5164795 13.362495 2.7444763 20.149246c-1.7720032 6.786751 -6.1580505 12.556419 -12.193298 16.039726l0 0c-12.567749 7.2536316 -28.7137 2.811737 -36.063004 -9.921257l0 0c-7.349289 -12.732994 -3.1189117 -28.935349 9.448822 -36.18898z" fill-rule="evenodd"/><path stroke="#666666" stroke-width="1.0" stroke-linejoin="round" stroke-linecap="butt" d="m233.6345 89.9927l0 0c12.567749 -7.253624 28.7137 -2.8117294 36.063004 9.921265l0 0c3.5292358 6.1145935 4.5164795 13.362495 2.7444763 20.149246c-1.7720032 6.786751 -6.1580505 12.556419 -12.193298 16.039726l0 0c-12.567749 7.2536316 -28.7137 2.811737 -36.063004 -9.921257l0 0c-7.349289 -12.732994 -3.1189117 -28.935349 9.448822 -36.18898z" fill-rule="evenodd"/><defs><radialGradient id="p.4" gradientUnits="userSpaceOnUse" gradientTransform="matrix(2.1762396222196805 3.7717576199350904 -3.7717576199350904 2.1762396222196805 0.0 0.0)" spreadMethod="pad" cx="50.82948108270711" cy="-36.14580389925583" fx="50.82948108270711" fy="-36.14580389925583" r="3.7717576026916504"><stop offset="0.0" stop-color="#ffffff"/><stop offset="1.0" stop-color="#b3b3b3"/></radialGradient></defs><path fill="url(#p.4)" d="m241.10782 102.928566l0 0c5.51416 -3.1919403 12.600037 -1.2459717 15.826782 4.3464584l0 0c1.54953 2.6855774 1.9836731 5.8700714 1.2069702 8.852936c-0.7767334 2.9828644 -2.700714 5.5197525 -5.348709 7.052574l0 0c-5.514145 3.191948 -12.600037 1.2459717 -15.826767 -4.3464584l0 0c-3.2267456 -5.5924225 -1.3724213 -12.713562 4.1417236 -15.90551z" fill-rule="evenodd"/><defs><radialGradient id="p.5" gradientUnits="userSpaceOnUse" gradientTransform="matrix(1.34493980645423 2.317874985281239 -2.317874985281239 1.34493980645423 0.0 0.0)" spreadMethod="pad" cx="88.46064285385602" cy="-66.39347002837188" fx="88.46064285385602" fy="-66.39347002837188" r="2.3178749084472656"><stop offset="0.0" stop-color="#db0000"/><stop offset="1.0" stop-color="#540303"/></radialGradient></defs><path fill="url(#p.5)" d="m270.64554 111.91872l0 0c2.0873718 -1.2002411 4.773651 -0.4599228 6.0 1.6535492l0 0c0.5888977 1.0149231 0.75549316 2.2172394 0.46310425 3.3424606c-0.29238892 1.1252136 -1.0197754 2.0811615 -2.0221558 2.6575394l0 0c-2.0873718 1.2002411 -4.7736816 0.4599228 -6.0 -1.6535492l0 0c-1.2263489 -2.1134644 -0.5283203 -4.799759 1.5590515 -6.0z" fill-rule="evenodd"/><path fill="#000000" fill-opacity="0.0" d="m351.6331 99.72824l0 0c7.2536316 12.567741 2.811737 28.7137 -9.921265 36.06299l0 0c-6.1145935 3.5292664 -13.362488 4.5164795 -20.149231 2.7444916c-6.786743 -1.7720032 -12.556427 -6.158066 -16.039734 -12.193306l0 0c-7.2536316 -12.567734 -2.811737 -28.713692 9.921265 -36.06299l0 0c12.732971 -7.349304 28.935333 -3.1189194 36.188965 9.448814z" fill-rule="evenodd"/><path stroke="#666666" stroke-width="1.0" stroke-linejoin="round" stroke-linecap="butt" d="m351.6331 99.72824l0 0c7.2536316 12.567741 2.811737 28.7137 -9.921265 36.06299l0 0c-6.1145935 3.5292664 -13.362488 4.5164795 -20.149231 2.7444916c-6.786743 -1.7720032 -12.556427 -6.158066 -16.039734 -12.193306l0 0c-7.2536316 -12.567734 -2.811737 -28.713692 9.921265 -36.06299l0 0c12.732971 -7.349304 28.935333 -3.1189194 36.188965 9.448814z" fill-rule="evenodd"/><defs><radialGradient id="p.6" gradientUnits="userSpaceOnUse" gradientTransform="matrix(-3.7717576199350904 2.176239622219681 -2.176239622219681 -3.7717576199350904 0.0 0.0)" spreadMethod="pad" cx="-52.38218969024198" cy="-60.19481873817884" fx="-52.38218969024198" fy="-60.19481873817884" r="3.7717576026916504"><stop offset="0.0" stop-color="#ffffff"/><stop offset="1.0" stop-color="#b3b3b3"/></radialGradient></defs><path fill="url(#p.6)" d="m338.69727 107.20155l0 0c3.191925 5.514145 1.2459717 12.600037 -4.346466 15.826767l0 0c-2.6855774 1.54953 -5.8700867 1.983696 -8.852936 1.2069702c-2.9828491 -0.77672577 -5.519745 -2.700714 -7.052582 -5.3487015l0 0c-3.191925 -5.5141525 -1.2459717 -12.600037 4.346466 -15.826775l0 0c5.5924377 -3.2267303 12.713562 -1.3724136 15.905518 4.141739z" fill-rule="evenodd"/><defs><radialGradient id="p.7" gradientUnits="userSpaceOnUse" gradientTransform="matrix(-2.3178749853686447 1.344939806102243 -1.344939806102243 -2.3178749853686447 0.0 0.0)" spreadMethod="pad" cx="-79.15682215848629" cy="-105.88186406975525" fx="-79.15682215848629" fy="-105.88186406975525" r="2.3178749084472656"><stop offset="0.0" stop-color="#db0000"/><stop offset="1.0" stop-color="#540303"/></radialGradient></defs><path fill="url(#p.7)" d="m329.70712 136.73929l0 0c1.2002563 2.0873718 0.45993042 4.7736664 -1.6535339 6.0l0 0c-1.0149231 0.58891296 -2.2172546 0.75549316 -3.3424683 0.4631195c-1.1252136 -0.29238892 -2.0811768 -1.0197754 -2.6575317 -2.022171l0 0c-1.2002563 -2.0873718 -0.45993042 -4.7736664 1.6535339 -6.0l0 0c2.1134644 -1.2263336 4.799774 -0.5283203 6.0 1.5590515z" fill-rule="evenodd"/><path fill="#000000" fill-opacity="0.0" d="m387.20377 99.73242l0 0c7.2536316 -12.567741 23.455994 -16.798119 36.188965 -9.448822l0 0c6.1145935 3.5292587 10.595032 9.311462 12.455627 16.074585c1.8605957 6.7631226 0.9489441 13.953171 -2.5343628 19.98841l0 0c-7.2536316 12.567741 -23.455994 16.798119 -36.188965 9.448814l0 0c-12.733002 -7.349304 -17.174896 -23.495247 -9.921265 -36.06299z" fill-rule="evenodd"/><path stroke="#666666" stroke-width="1.0" stroke-linejoin="round" stroke-linecap="butt" d="m387.20377 99.73242l0 0c7.2536316 -12.567741 23.455994 -16.798119 36.188965 -9.448822l0 0c6.1145935 3.5292587 10.595032 9.311462 12.455627 16.074585c1.8605957 6.7631226 0.9489441 13.953171 -2.5343628 19.98841l0 0c-7.2536316 12.567741 -23.455994 16.798119 -36.188965 9.448814l0 0c-12.733002 -7.349304 -17.174896 -23.495247 -9.921265 -36.06299z" fill-rule="evenodd"/><defs><radialGradient id="p.8" gradientUnits="userSpaceOnUse" gradientTransform="matrix(3.771757619935091 2.1762396222196805 -2.1762396222196805 3.771757619935091 0.0 0.0)" spreadMethod="pad" cx="94.5722053502982" cy="-24.600611954253836" fx="94.5722053502982" fy="-24.600611954253836" r="3.7717576026916504"><stop offset="0.0" stop-color="#ffffff"/><stop offset="1.0" stop-color="#b3b3b3"/></radialGradient></defs><path fill="url(#p.8)" d="m400.1143 107.18172l0 0c3.191925 -5.5141525 10.31308 -7.368469 15.905487 -4.1417313l0 0c2.685608 1.54953 4.652252 4.087509 5.4673767 7.055603c0.8151245 2.9680939 0.41192627 6.1231766 -1.1209106 8.771164l0 0c-3.191925 5.5141525 -10.31308 7.368469 -15.905518 4.1417313l0 0c-5.592407 -3.2267303 -7.538391 -10.312622 -4.3464355 -15.826767z" fill-rule="evenodd"/><defs><radialGradient id="p.9" gradientUnits="userSpaceOnUse" gradientTransform="matrix(2.317875104752285 1.344939876179642 -1.344939876179642 2.317875104752285 0.0 0.0)" spreadMethod="pad" cx="159.2801600747267" cy="-48.2260917228728" fx="159.2801600747267" fy="-48.2260917228728" r="2.3178751468658447"><stop offset="0.0" stop-color="#db0000"/><stop offset="1.0" stop-color="#540303"/></radialGradient></defs><path fill="url(#p.9)" d="m430.22595 100.21971l0 0c1.2002258 -2.0873795 3.8865051 -2.7853928 6.0 -1.5590591l0 0c1.0149231 0.58890533 1.7593079 1.5518951 2.069397 2.6771088c0.3100891 1.1252213 0.16052246 2.3205032 -0.41586304 3.3228912l0 0c-1.2002563 2.0873795 -3.8865356 2.7853928 -6.0 1.5590591l0 0c-2.1134644 -1.2263336 -2.8537903 -3.9126282 -1.6535339 -6.0z" fill-rule="evenodd"/><path fill="#000000" fill-opacity="0.0" d="m517.60126 119.92986l0 0c-3.7572632 14.02021 -18.309784 22.304695 -32.503937 18.50393l0 0c-6.816284 -1.82518 -12.636627 -6.250183 -16.180603 -12.301559c-3.5440063 -6.0513687 -4.5213623 -13.233406 -2.717041 -19.966148l0 0c3.7572632 -14.020203 18.309784 -22.304703 32.503937 -18.503937l0 0c14.194153 3.8007584 22.654907 18.247513 18.897644 32.267715z" fill-rule="evenodd"/><path stroke="#666666" stroke-width="1.0" stroke-linejoin="round" stroke-linecap="butt" d="m517.60126 119.92986l0 0c-3.7572632 14.02021 -18.309784 22.304695 -32.503937 18.50393l0 0c-6.816284 -1.82518 -12.636627 -6.250183 -16.180603 -12.301559c-3.5440063 -6.0513687 -4.5213623 -13.233406 -2.717041 -19.966148l0 0c3.7572632 -14.020203 18.309784 -22.304703 32.503937 -18.503937l0 0c14.194153 3.8007584 22.654907 18.247513 18.897644 32.267715z" fill-rule="evenodd"/><defs><radialGradient id="p.10" gradientUnits="userSpaceOnUse" gradientTransform="matrix(-3.982167906567272 -1.0678439081075097 1.0678439081075097 -3.982167906567272 0.0 0.0)" spreadMethod="pad" cx="-122.34421518342742" cy="4.418553116332271" fx="-122.34421518342742" fy="4.418553116332271" r="3.982167959213257"><stop offset="0.0" stop-color="#ffffff"/><stop offset="1.0" stop-color="#b3b3b3"/></radialGradient></defs><path fill="url(#p.10)" d="m503.18912 116.07272l0 0c-1.6524963 6.1577606 -8.040375 9.795891 -14.2677 8.125984l0 0c-2.9904785 -0.8019104 -5.5432434 -2.7456665 -7.0966797 -5.4036636c-1.5534668 -2.6579971 -1.9803467 -5.8125 -1.1867981 -8.769562l0 0c1.6524963 -6.1577606 8.040375 -9.795883 14.267731 -8.125984l0 0c6.2273254 1.669899 9.935944 8.015472 8.283447 14.173225z" fill-rule="evenodd"/><defs><radialGradient id="p.11" gradientUnits="userSpaceOnUse" gradientTransform="matrix(-2.4522561329129315 -0.6581422704639741 0.6581422704639741 -2.4522561329129315 0.0 0.0)" spreadMethod="pad" cx="-192.62188106670467" cy="-1.0896034857888715" fx="-192.62188106670467" fy="-1.0896034857888715" r="2.452256202697754"><stop offset="0.0" stop-color="#db0000"/><stop offset="1.0" stop-color="#540303"/></radialGradient></defs><path fill="url(#p.11)" d="m475.92453 130.5942l0 0c-0.6261902 2.330902 -3.0516357 3.70578 -5.417328 3.0708618l0 0c-1.1360168 -0.30488586 -2.106079 -1.0419464 -2.6967468 -2.0490417c-0.5906677 -1.0070801 -0.75357056 -2.2016907 -0.45285034 -3.3210297l0 0c0.6262207 -2.330902 3.0516357 -3.70578 5.417328 -3.0708694l0 0c2.3656921 0.6349106 3.7758179 3.039177 3.1495972 5.370079z" fill-rule="evenodd"/><path fill="#000000" fill-opacity="0.0" d="m547.83563 106.353874l0 0c3.7572632 -14.020203 17.985474 -22.396362 31.779541 -18.708664l0 0c6.6241455 1.7708969 12.260193 6.1438293 15.668335 12.156807c3.408142 6.0129776 4.309204 13.173447 2.5048828 19.906189l0 0c-3.7572632 14.020203 -17.985474 22.396362 -31.779541 18.708664l0 0c-13.794067 -3.6876984 -21.930481 -18.042793 -18.173218 -32.062996z" fill-rule="evenodd"/><path stroke="#666666" stroke-width="1.0" stroke-linejoin="round" stroke-linecap="butt" d="m547.83563 106.353874l0 0c3.7572632 -14.020203 17.985474 -22.396362 31.779541 -18.708664l0 0c6.6241455 1.7708969 12.260193 6.1438293 15.668335 12.156807c3.408142 6.0129776 4.309204 13.173447 2.5048828 19.906189l0 0c-3.7572632 14.020203 -17.985474 22.396362 -31.779541 18.708664l0 0c-13.794067 -3.6876984 -21.930481 -18.042793 -18.173218 -32.062996z" fill-rule="evenodd"/><defs><radialGradient id="p.12" gradientUnits="userSpaceOnUse" gradientTransform="matrix(3.954015532226008 1.0623576216595818 -1.0623576216595818 3.954015532226008 0.0 0.0)" spreadMethod="pad" cx="142.2760750295713" cy="-9.63608092123691" fx="142.2760750295713" fy="-9.63608092123691" r="3.9540154933929443"><stop offset="0.0" stop-color="#ffffff"/><stop offset="1.0" stop-color="#b3b3b3"/></radialGradient></defs><path fill="url(#p.12)" d="m561.83813 110.101974l0 0c1.6525269 -6.157753 7.899353 -9.831139 13.952759 -8.20472l0 0c2.9069214 0.78102875 5.3795776 2.7047577 6.8739624 5.3479843c1.4943848 2.6432343 1.8881226 5.789444 1.0945435 8.746498l0 0c-1.6525269 6.1577606 -7.899353 9.831139 -13.952759 8.204727l0 0c-6.053406 -1.6264114 -9.620972 -7.9367294 -7.968506 -14.09449z" fill-rule="evenodd"/><defs><radialGradient id="p.13" gradientUnits="userSpaceOnUse" gradientTransform="matrix(2.4339394936171357 0.6545822124713315 -0.6545822124713315 2.4339394936171357 0.0 0.0)" spreadMethod="pad" cx="237.01394817277327" cy="-24.08089638996021" fx="237.01394817277327" fy="-24.08089638996021" r="2.4339394569396973"><stop offset="0.0" stop-color="#db0000"/><stop offset="1.0" stop-color="#540303"/></radialGradient></defs><path fill="url(#p.13)" d="m588.48303 95.41556l0 0c0.6262207 -2.330902 2.9952393 -3.7198792 5.291382 -3.1023636l0 0c1.1026001 0.29654694 2.0406494 1.0255966 2.607666 2.0267715c0.5670166 1.0011826 0.7166748 2.1924744 0.4159546 3.3118134l0 0c-0.6262207 2.330902 -2.9952393 3.7198792 -5.291382 3.1023636l0 0c-2.2960815 -0.61751556 -3.6497803 -3.0076828 -3.0236206 -5.338585z" fill-rule="evenodd"/><defs><radialGradient id="p.14" gradientUnits="userSpaceOnUse" gradientTransform="matrix(2.4793103284844076 0.0 0.0 2.4793103284844076 0.0 0.0)" spreadMethod="pad" cx="113.79030076943305" cy="61.85874312420615" fx="113.79030076943305" fy="61.85874312420615" r="2.4793102741241455"><stop offset="0.0" stop-color="#db0000"/><stop offset="1.0" stop-color="#540303"/></radialGradient></defs><path fill="url(#p.14)" d="m277.80652 153.36702l0 0c0 -2.4178772 1.9318542 -4.377945 4.3149414 -4.377945l0 0c1.1444092 0 2.2419434 0.46124268 3.0511475 1.2822723c0.8092041 0.8210144 1.2638245 1.9345703 1.2638245 3.0956726l0 0c0 2.4178772 -1.9318848 4.37796 -4.314972 4.37796l0 0c-2.3830872 0 -4.3149414 -1.960083 -4.3149414 -4.37796z" fill-rule="evenodd"/><defs><radialGradient id="p.15" gradientUnits="userSpaceOnUse" gradientTransform="matrix(2.4793103284844076 0.0 0.0 2.4793103284844076 0.0 0.0)" spreadMethod="pad" cx="149.40380828135858" cy="48.161221187810064" fx="149.40380828135858" fy="48.161221187810064" r="2.4793102741241455"><stop offset="0.0" stop-color="#db0000"/><stop offset="1.0" stop-color="#540303"/></radialGradient></defs><path fill="url(#p.15)" d="m366.10345 119.40662l0 0c0 -2.4178772 1.9318542 -4.3779526 4.3149414 -4.3779526l0 0c1.1444092 0 2.2419434 0.46124268 3.0511475 1.2822723c0.8092041 0.82102203 1.2638245 1.9345703 1.2638245 3.0956802l0 0c0 2.4178772 -1.9318848 4.3779526 -4.314972 4.3779526l0 0c-2.3830872 0 -4.3149414 -1.9600754 -4.3149414 -4.3779526z" fill-rule="evenodd"/><defs><radialGradient id="p.16" gradientUnits="userSpaceOnUse" gradientTransform="matrix(2.4793103284844076 0.0 0.0 2.4793103284844076 0.0 0.0)" spreadMethod="pad" cx="119.26930200654698" cy="34.463699357276965" fx="119.26930200654698" fy="34.463699357276965" r="2.4793102741241455"><stop offset="0.0" stop-color="#db0000"/><stop offset="1.0" stop-color="#540303"/></radialGradient></defs><path fill="url(#p.16)" d="m291.39066 85.446205l0 0c0 -2.4178772 1.9318848 -4.3779526 4.314972 -4.3779526l0 0c1.1443787 0 2.2419128 0.4612503 3.051117 1.2822723c0.8092041 0.82102966 1.2638245 1.934578 1.2638245 3.0956802l0 0c0 2.4178772 -1.9318848 4.3779526 -4.3149414 4.3779526l0 0c-2.3830872 0 -4.314972 -1.9600754 -4.314972 -4.3779526z" fill-rule="evenodd"/><defs><radialGradient id="p.17" gradientUnits="userSpaceOnUse" gradientTransform="matrix(2.4793103284844076 0.0 0.0 2.4793103284844076 0.0 0.0)" spreadMethod="pad" cx="242.11900512598893" cy="28.984690603891128" fx="242.11900512598893" fy="28.984690603891128" r="2.4793102741241455"><stop offset="0.0" stop-color="#db0000"/><stop offset="1.0" stop-color="#540303"/></radialGradient></defs><path fill="url(#p.17)" d="m595.9732 71.862045l0 0c0 -2.4178772 1.9318848 -4.3779526 4.3149414 -4.3779526l0 0c1.1444092 0 2.2419434 0.46124268 3.0511475 1.2822723c0.8092041 0.82102203 1.263794 1.9345703 1.263794 3.0956802l0 0c0 2.4178772 -1.9318237 4.3779526 -4.3149414 4.3779526l0 0c-2.3830566 0 -4.3149414 -1.9600754 -4.3149414 -4.3779526z" fill-rule="evenodd"/><defs><radialGradient id="p.18" gradientUnits="userSpaceOnUse" gradientTransform="matrix(2.4793103284844076 0.0 0.0 2.4793103284844076 0.0 0.0)" spreadMethod="pad" cx="214.72399957559725" cy="45.42171696991162" fx="214.72399957559725" fy="45.42171696991162" r="2.4793102741241455"><stop offset="0.0" stop-color="#db0000"/><stop offset="1.0" stop-color="#540303"/></radialGradient></defs><path fill="url(#p.18)" d="m528.0525 112.61453l0 0c0 -2.4178772 1.9318237 -4.3779526 4.3149414 -4.3779526l0 0c1.1444092 0 2.2419434 0.4612503 3.0511475 1.2822723c0.8092041 0.82102203 1.263794 1.934578 1.263794 3.0956802l0 0c0 2.4178772 -1.9318848 4.3779526 -4.3149414 4.3779526l0 0c-2.3831177 0 -4.3149414 -1.9600754 -4.3149414 -4.3779526z" fill-rule="evenodd"/><defs><radialGradient id="p.19" gradientUnits="userSpaceOnUse" gradientTransform="matrix(2.4793103284844076 0.0 0.0 2.4793103284844076 0.0 0.0)" spreadMethod="pad" cx="179.1104921695347" cy="61.85874312420615" fx="179.1104921695347" fy="61.85874312420615" r="2.4793102741241455"><stop offset="0.0" stop-color="#db0000"/><stop offset="1.0" stop-color="#540303"/></radialGradient></defs><path fill="url(#p.19)" d="m439.75552 153.36702l0 0c0 -2.4178772 1.9318848 -4.377945 4.314972 -4.377945l0 0c1.1444092 0 2.2419128 0.46124268 3.0511475 1.2822723c0.8092041 0.8210144 1.2638245 1.9345703 1.2638245 3.0956726l0 0c0 2.4178772 -1.9318848 4.37796 -4.314972 4.37796l0 0c-2.3830872 0 -4.314972 -1.960083 -4.314972 -4.37796z" fill-rule="evenodd"/><defs><radialGradient id="p.20" gradientUnits="userSpaceOnUse" gradientTransform="matrix(2.4793103284844076 0.0 0.0 2.4793103284844076 0.0 0.0)" spreadMethod="pad" cx="75.009470675767" cy="59.11923890630771" fx="75.009470675767" fy="59.11923890630771" r="2.4793102741241455"><stop offset="0.0" stop-color="#db0000"/><stop offset="1.0" stop-color="#540303"/></radialGradient></defs><path fill="url(#p.20)" d="m181.6568 146.57494l0 0c0 -2.4178772 1.9318695 -4.377945 4.3149567 -4.377945l0 0c1.1443939 0 2.241928 0.46124268 3.0511322 1.2822723c0.80921936 0.8210144 1.2638245 1.9345703 1.2638245 3.0956726l0 0c0 2.4178772 -1.9318695 4.37796 -4.3149567 4.37796l0 0c-2.3830872 0 -4.3149567 -1.960083 -4.3149567 -4.37796z" fill-rule="evenodd"/><path fill="#000000" fill-opacity="0.0" d="m132.36995 91.50149l30.532211 -5.1673203l24.624298 -15.504036" fill-rule="evenodd"/><path stroke="#434343" stroke-width="1.0" stroke-linejoin="round" stroke-linecap="butt" stroke-dasharray="1.0,3.0" d="m132.36995 91.50149l30.532211 -5.1673203l24.624298 -15.504036" fill-rule="evenodd"/><defs><radialGradient id="p.21" gradientUnits="userSpaceOnUse" gradientTransform="matrix(2.4793103284844076 0.0 0.0 2.4793103284844076 0.0 0.0)" spreadMethod="pad" cx="222.94250121954215" cy="59.11923890630771" fx="222.94250121954215" fy="59.11923890630771" r="2.4793102741241455"><stop offset="0.0" stop-color="#db0000"/><stop offset="1.0" stop-color="#540303"/></radialGradient></defs><path fill="url(#p.21)" d="m548.4287 146.57494l0 0c0 -2.4178772 1.9318237 -4.377945 4.3149414 -4.377945l0 0c1.1444092 0 2.2419434 0.46124268 3.0511475 1.2822723c0.8092041 0.8210144 1.263794 1.9345703 1.263794 3.0956726l0 0c0 2.4178772 -1.9318848 4.37796 -4.3149414 4.37796l0 0c-2.3831177 0 -4.3149414 -1.960083 -4.3149414 -4.37796z" fill-rule="evenodd"/><defs><radialGradient id="p.22" gradientUnits="userSpaceOnUse" gradientTransform="matrix(2.4793103284844076 0.0 0.0 2.4793103284844076 0.0 0.0)" spreadMethod="pad" cx="206.50549782578935" cy="31.724195033515535" fx="206.50549782578935" fy="31.724195033515535" r="2.4793102741241455"><stop offset="0.0" stop-color="#db0000"/><stop offset="1.0" stop-color="#540303"/></radialGradient></defs><path fill="url(#p.22)" d="m507.67624 78.65412l0 0c0 -2.4178772 1.9318848 -4.3779526 4.314972 -4.3779526l0 0c1.1444092 0 2.2419434 0.4612503 3.0511475 1.2822723c0.8092041 0.82102966 1.263794 1.934578 1.263794 3.0956802l0 0c0 2.4178772 -1.9318237 4.3779526 -4.3149414 4.3779526l0 0c-2.3830872 0 -4.314972 -1.9600754 -4.314972 -4.3779526z" fill-rule="evenodd"/><defs><radialGradient id="p.23" gradientUnits="userSpaceOnUse" gradientTransform="matrix(0.654582212471331 -2.433939493617136 2.433939493617136 0.654582212471331 0.0 0.0)" spreadMethod="pad" cx="-21.243072374107605" cy="60.650307201090804" fx="-21.243072374107605" fy="60.650307201090804" r="2.4339394569396973"><stop offset="0.0" stop-color="#db0000"/><stop offset="1.0" stop-color="#540303"/></radialGradient></defs><path fill="url(#p.23)" d="m132.59573 95.56245l0 0c-2.330902 -0.6262131 -3.7198792 -2.995224 -3.1023712 -5.291336l0 0c0.29655457 -1.1026382 1.0256042 -2.0406494 2.0267792 -2.607689c1.0011749 -0.5670395 2.1924744 -0.7166519 3.3118134 -0.41593933l0 0c2.330902 0.6262131 3.7198792 2.9952316 3.102356 5.2913437l0 0c-0.61750793 2.296112 -3.0076752 3.6498337 -5.3385773 3.0236206z" fill-rule="evenodd"/><defs><radialGradient id="p.24" gradientUnits="userSpaceOnUse" gradientTransform="matrix(2.4793103284844076 0.0 0.0 2.4793103284844076 0.0 0.0)" spreadMethod="pad" cx="77.19823997094727" cy="28.34261932101638" fx="77.19823997094727" fy="28.34261932101638" r="2.4793102741241455"><stop offset="0.0" stop-color="#db0000"/><stop offset="1.0" stop-color="#540303"/></radialGradient></defs><path fill="url(#p.24)" d="m187.08344 70.27015l0 0c0 -2.4178772 1.9318695 -4.3779526 4.3149567 -4.3779526l0 0c1.1443939 0 2.241928 0.4612503 3.0511475 1.2822723c0.8092041 0.82102203 1.2638092 1.934578 1.2638092 3.0956802l0 0c0 2.4178772 -1.9318695 4.3779526 -4.3149567 4.3779526l0 0c-2.3830872 0 -4.3149567 -1.9600754 -4.3149567 -4.3779526z" fill-rule="evenodd"/><defs><radialGradient id="p.25" gradientUnits="userSpaceOnUse" gradientTransform="matrix(0.654582212471331 -2.433939493617136 2.433939493617136 0.654582212471331 0.0 0.0)" spreadMethod="pad" cx="-36.066714597759535" cy="50.68413193463159" fx="-36.066714597759535" fy="50.68413193463159" r="2.4339394569396973"><stop offset="0.0" stop-color="#db0000"/><stop offset="1.0" stop-color="#540303"/></radialGradient></defs><path fill="url(#p.25)" d="m98.63537 125.118614l0 0c-2.330902 -0.6262131 -3.7198792 -2.995224 -3.1023636 -5.2913437l0 0c0.29654694 -1.1026306 1.0255966 -2.0406418 2.0267715 -2.6076813c1.0011826 -0.5670395 2.1924744 -0.7166519 3.3118134 -0.41593933l0 0c2.330902 0.6262131 3.7198792 2.995224 3.1023636 5.2913437l0 0c-0.61751556 2.296112 -3.0076828 3.6498337 -5.338585 3.0236206z" fill-rule="evenodd"/><defs><radialGradient id="p.26" gradientUnits="userSpaceOnUse" gradientTransform="matrix(0.654582212471331 -2.433939493617136 2.433939493617136 0.654582212471331 0.0 0.0)" spreadMethod="pad" cx="-42.474011688299385" cy="57.98844120221909" fx="-42.474011688299385" fy="57.98844120221909" r="2.4339394569396973"><stop offset="0.0" stop-color="#db0000"/><stop offset="1.0" stop-color="#540303"/></radialGradient></defs><path fill="url(#p.26)" d="m112.21951 145.49486l0 0c-2.330902 -0.6262207 -3.7198792 -2.995224 -3.1023636 -5.291336l0 0c0.29654694 -1.1026306 1.0255966 -2.0406494 2.0267715 -2.6076813c1.0011826 -0.5670471 2.1924744 -0.71665955 3.3118134 -0.41593933l0 0c2.330902 0.62620544 3.7198792 2.995224 3.1023636 5.291336l0 0c-0.61751556 2.296112 -3.0076828 3.649826 -5.338585 3.0236206z" fill-rule="evenodd"/><defs><radialGradient id="p.27" gradientUnits="userSpaceOnUse" gradientTransform="matrix(0.654582212471331 -2.433939493617136 2.433939493617136 0.654582212471331 0.0 0.0)" spreadMethod="pad" cx="-49.77832540312518" cy="51.58115684620805" fx="-49.77832540312518" fy="51.58115684620805" r="2.4339394569396973"><stop offset="0.0" stop-color="#db0000"/><stop offset="1.0" stop-color="#540303"/></radialGradient></defs><path fill="url(#p.27)" d="m91.8433 159.07903l0 0c-2.330902 -0.6262207 -3.7198792 -2.995224 -3.1023636 -5.291336l0 0c0.2965393 -1.1026459 1.025589 -2.0406494 2.0267715 -2.6076965c1.0011749 -0.56703186 2.1924744 -0.7166443 3.3118134 -0.41593933l0 0c2.330902 0.6262207 3.7198715 2.9952393 3.102356 5.2913513l0 0c-0.61750793 2.296112 -3.0076752 3.649826 -5.3385773 3.0236206z" fill-rule="evenodd"/><defs><radialGradient id="p.28" gradientUnits="userSpaceOnUse" gradientTransform="matrix(0.6545822125584919 -2.4339394936058243 2.4339394936058243 0.6545822125584919 0.0 0.0)" spreadMethod="pad" cx="-16.450535821888018" cy="50.98970337348866" fx="-16.450535821888018" fy="50.98970337348866" r="2.4339394569396973"><stop offset="0.0" stop-color="#db0000"/><stop offset="1.0" stop-color="#540303"/></radialGradient></defs><path fill="url(#p.28)" d="m112.21951 77.57404l0 0c-2.330902 -0.6262131 -3.7198792 -2.995224 -3.1023636 -5.291336l0 0c0.29654694 -1.1026382 1.0255966 -2.0406494 2.0267715 -2.607689c1.0011826 -0.5670395 2.1924744 -0.7166519 3.3118134 -0.41593933l0 0c2.330902 0.6262131 3.7198792 2.9952316 3.1023636 5.2913437l0 0c-0.61751556 2.296112 -3.0076828 3.6498337 -5.338585 3.0236206z" fill-rule="evenodd"/><defs><radialGradient id="p.29" gradientUnits="userSpaceOnUse" gradientTransform="matrix(0.6545822121472391 -2.4339394936591954 2.4339394936591954 0.6545822121472391 0.0 0.0)" spreadMethod="pad" cx="-24.45472236716781" cy="41.980074998251666" fx="-24.45472236716781" fy="41.980074998251666" r="2.4339394569396973"><stop offset="0.0" stop-color="#db0000"/><stop offset="1.0" stop-color="#540303"/></radialGradient></defs><path fill="url(#p.29)" d="m85.05122 91.1582l0 0c-2.330902 -0.6262131 -3.7198715 -2.995224 -3.1023636 -5.291336l0 0c0.29654694 -1.1026306 1.0255966 -2.0406418 2.0267715 -2.6076813c1.0011826 -0.5670395 2.1924744 -0.71665955 3.3118134 -0.41593933l0 0c2.330902 0.6262131 3.7198792 2.995224 3.1023636 5.291336l0 0c-0.61751556 2.296112 -3.0076828 3.6498337 -5.338585 3.0236206z" fill-rule="evenodd"/><defs><radialGradient id="p.30" gradientUnits="userSpaceOnUse" gradientTransform="matrix(0.6545822125584919 -2.4339394936058243 2.4339394936058243 0.6545822125584919 0.0 0.0)" spreadMethod="pad" cx="-15.947806727356971" cy="42.48279765525852" fx="-15.947806727356971" fy="42.48279765525852" r="2.4339394569396973"><stop offset="0.0" stop-color="#db0000"/><stop offset="1.0" stop-color="#540303"/></radialGradient></defs><path fill="url(#p.30)" d="m91.8433 70.78196l0 0c-2.330902 -0.6262131 -3.7198792 -2.995224 -3.1023636 -5.291336l0 0c0.2965393 -1.1026306 1.025589 -2.0406456 2.0267715 -2.607685c1.0011749 -0.5670395 2.1924744 -0.71665573 3.3118134 -0.41593933l0 0c2.330902 0.6262131 3.7198715 2.9952278 3.102356 5.29134l0 0c-0.61750793 2.296112 -3.0076752 3.6498337 -5.3385773 3.0236206z" fill-rule="evenodd"/><defs><radialGradient id="p.31" gradientUnits="userSpaceOnUse" gradientTransform="matrix(0.6545822121472391 -2.4339394936591954 2.4339394936591954 0.6545822121472391 0.0 0.0)" spreadMethod="pad" cx="-36.263858203834275" cy="39.574882269443286" fx="-36.263858203834275" fy="39.574882269443286" r="2.4339394569396973"><stop offset="0.0" stop-color="#db0000"/><stop offset="1.0" stop-color="#540303"/></radialGradient></defs><path fill="url(#p.31)" d="m71.46708 118.32653l0 0c-2.330902 -0.6262131 -3.7198715 -2.995224 -3.102356 -5.291336l0 0c0.2965393 -1.1026306 1.025589 -2.0406494 2.0267715 -2.607689c1.0011749 -0.56703186 2.1924667 -0.7166519 3.3118057 -0.4159317l0 0c2.330902 0.62620544 3.7198792 2.995224 3.1023636 5.291336l0 0c-0.61751556 2.296112 -3.0076828 3.6498337 -5.338585 3.0236206z" fill-rule="evenodd"/><defs><radialGradient id="p.32" gradientUnits="userSpaceOnUse" gradientTransform="matrix(0.654582211174968 -2.4339394937853727 2.4339394937853727 0.654582211174968 0.0 0.0)" spreadMethod="pad" cx="33.83186438696618" cy="269.0838739153567" fx="33.83186438696618" fy="269.0838739153567" r="2.4339394569396973"><stop offset="0.0" stop-color="#db0000"/><stop offset="1.0" stop-color="#540303"/></radialGradient></defs><path fill="url(#p.32)" d="m675.9615 97.95029l0 0c-2.3308716 -0.6262131 -3.7198486 -2.995224 -3.102356 -5.291336l0 0c0.29656982 -1.1026382 1.0255737 -2.0406494 2.0267944 -2.607689c1.0011597 -0.5670395 2.1924438 -0.7166519 3.3117676 -0.41593933l0 0c2.3309326 0.6262131 3.7199097 2.9952316 3.102356 5.2913437l0 0c-0.6174927 2.296112 -3.0076294 3.6498337 -5.338562 3.0236206z" fill-rule="evenodd"/><defs><radialGradient id="p.33" gradientUnits="userSpaceOnUse" gradientTransform="matrix(0.654582211174968 -2.4339394937853727 2.4339394937853727 0.654582211174968 0.0 0.0)" spreadMethod="pad" cx="22.722601244515275" cy="269.2810251253703" fx="22.722601244515275" fy="269.2810251253703" r="2.4339394569396973"><stop offset="0.0" stop-color="#db0000"/><stop offset="1.0" stop-color="#540303"/></radialGradient></defs><path fill="url(#p.33)" d="m669.16943 125.118614l0 0c-2.3309326 -0.6262131 -3.7199097 -2.995224 -3.102356 -5.2913437l0 0c0.2965088 -1.1026306 1.0255737 -2.0406418 2.0267334 -2.6076813c1.0012207 -0.5670395 2.192505 -0.7166519 3.3118286 -0.41593933l0 0c2.3309326 0.6262131 3.7199097 2.995224 3.102356 5.2913437l0 0c-0.6174927 2.296112 -3.0076904 3.6498337 -5.338562 3.0236206z" fill-rule="evenodd"/><defs><radialGradient id="p.34" gradientUnits="userSpaceOnUse" gradientTransform="matrix(0.654582211174968 -2.4339394937853727 2.4339394937853727 0.654582211174968 0.0 0.0)" spreadMethod="pad" cx="16.315304122732606" cy="276.5853342896063" fx="16.315304122732606" fy="276.5853342896063" r="2.4339394569396973"><stop offset="0.0" stop-color="#db0000"/><stop offset="1.0" stop-color="#540303"/></radialGradient></defs><path fill="url(#p.34)" d="m682.75354 145.49486l0 0c-2.3308716 -0.6262207 -3.7198486 -2.995224 -3.102356 -5.291336l0 0c0.29656982 -1.1026306 1.0256348 -2.0406494 2.0267944 -2.6076813c1.0011597 -0.5670471 2.1924438 -0.71665955 3.3118286 -0.41593933l0 0c2.3308716 0.62620544 3.7198486 2.995224 3.102356 5.291336l0 0c-0.6175537 2.296112 -3.0076904 3.649826 -5.338623 3.0236206z" fill-rule="evenodd"/><defs><radialGradient id="p.35" gradientUnits="userSpaceOnUse" gradientTransform="matrix(0.654582211174968 -2.4339394937853727 2.4339394937853727 0.654582211174968 0.0 0.0)" spreadMethod="pad" cx="9.010990410695456" cy="270.1780499293978" fx="9.010990410695456" fy="270.1780499293978" r="2.4339394569396973"><stop offset="0.0" stop-color="#db0000"/><stop offset="1.0" stop-color="#540303"/></radialGradient></defs><path fill="url(#p.35)" d="m662.3774 159.07903l0 0c-2.3309326 -0.6262207 -3.7199097 -2.995224 -3.102417 -5.291336l0 0c0.29656982 -1.1026459 1.0256348 -2.0406494 2.0267944 -2.6076965c1.0011597 -0.56703186 2.1924438 -0.7166443 3.3118286 -0.41593933l0 0c2.3308716 0.6262207 3.7198486 2.9952393 3.102356 5.2913513l0 0c-0.6175537 2.296112 -3.0076904 3.649826 -5.338562 3.0236206z" fill-rule="evenodd"/><defs><radialGradient id="p.36" gradientUnits="userSpaceOnUse" gradientTransform="matrix(0.6545822112621268 -2.4339394937740617 2.4339394937740617 0.6545822112621268 0.0 0.0)" spreadMethod="pad" cx="42.33878000182174" cy="269.5865964707213" fx="42.33878000182174" fy="269.5865964707213" r="2.4339394569396973"><stop offset="0.0" stop-color="#db0000"/><stop offset="1.0" stop-color="#540303"/></radialGradient></defs><path fill="url(#p.36)" d="m682.75354 77.57404l0 0c-2.3308716 -0.6262131 -3.7198486 -2.995224 -3.102356 -5.291336l0 0c0.29656982 -1.1026382 1.0256348 -2.0406494 2.0267944 -2.607689c1.0011597 -0.5670395 2.1924438 -0.7166519 3.3118286 -0.41593933l0 0c2.3308716 0.6262131 3.7198486 2.9952316 3.102356 5.2913437l0 0c-0.6175537 2.296112 -3.0076904 3.6498337 -5.338623 3.0236206z" fill-rule="evenodd"/><defs><radialGradient id="p.37" gradientUnits="userSpaceOnUse" gradientTransform="matrix(0.654582211174968 -2.4339394937853727 2.4339394937853727 0.654582211174968 0.0 0.0)" spreadMethod="pad" cx="34.33459348620113" cy="260.5769681967748" fx="34.33459348620113" fy="260.5769681967748" r="2.4339394569396973"><stop offset="0.0" stop-color="#db0000"/><stop offset="1.0" stop-color="#540303"/></radialGradient></defs><path fill="url(#p.37)" d="m655.58527 91.1582l0 0c-2.3308716 -0.6262131 -3.7198486 -2.995224 -3.102356 -5.291336l0 0c0.29656982 -1.1026306 1.0255737 -2.0406418 2.0267944 -2.6076813c1.0011597 -0.5670395 2.1924438 -0.71665955 3.3117676 -0.41593933l0 0c2.3309326 0.6262131 3.7199097 2.995224 3.102417 5.291336l0 0c-0.6175537 2.296112 -3.0076904 3.6498337 -5.338623 3.0236206z" fill-rule="evenodd"/><defs><radialGradient id="p.38" gradientUnits="userSpaceOnUse" gradientTransform="matrix(0.6545822112621268 -2.4339394937740617 2.4339394937740617 0.6545822112621268 0.0 0.0)" spreadMethod="pad" cx="42.84150910076036" cy="261.0796907521615" fx="42.84150910076036" fy="261.0796907521615" r="2.4339394569396973"><stop offset="0.0" stop-color="#db0000"/><stop offset="1.0" stop-color="#540303"/></radialGradient></defs><path fill="url(#p.38)" d="m662.3774 70.78196l0 0c-2.3309326 -0.6262131 -3.7199097 -2.995224 -3.102417 -5.291336l0 0c0.29656982 -1.1026306 1.0256348 -2.0406456 2.0267944 -2.607685c1.0011597 -0.5670395 2.1924438 -0.71665573 3.3118286 -0.41593933l0 0c2.3308716 0.6262131 3.7198486 2.9952278 3.102356 5.29134l0 0c-0.6175537 2.296112 -3.0076904 3.6498337 -5.338562 3.0236206z" fill-rule="evenodd"/><defs><radialGradient id="p.39" gradientUnits="userSpaceOnUse" gradientTransform="matrix(0.654582211174968 -2.4339394937853727 2.4339394937853727 0.654582211174968 0.0 0.0)" spreadMethod="pad" cx="19.923109985526114" cy="258.8716491578658" fx="19.923109985526114" fy="258.8716491578658" r="2.4339394569396973"><stop offset="0.0" stop-color="#db0000"/><stop offset="1.0" stop-color="#540303"/></radialGradient></defs><path fill="url(#p.39)" d="m642.00116 125.118614l0 0c-2.3309326 -0.6262131 -3.7199097 -2.995224 -3.102417 -5.2913437l0 0c0.29656982 -1.1026306 1.0256348 -2.0406418 2.0267944 -2.6076813c1.0011597 -0.5670395 2.192505 -0.7166519 3.3118286 -0.41593933l0 0c2.3308716 0.6262131 3.7198486 2.995224 3.102356 5.2913437l0 0c-0.6174927 2.296112 -3.0076904 3.6498337 -5.338562 3.0236206z" fill-rule="evenodd"/><defs><linearGradient id="p.40" gradientUnits="userSpaceOnUse" gradientTransform="matrix(5.971286565943512 0.0 0.0 5.971286565943512 0.0 0.0)" spreadMethod="pad" x1="37.20894701324116" y1="16.309997802345944" x2="41.43133875043064" y2="12.08771509386568"><stop offset="0.0" stop-color="#d4e5f5"/><stop offset="1.0" stop-color="#70a4d5"/></linearGradient></defs><path fill="url(#p.40)" d="m202.28029 69.52553l34.503937 0l0 -2.6535416l5.307083 5.307083l-5.307083 5.3070908l0 -2.6535492l-34.503937 0z" fill-rule="evenodd"/><defs><linearGradient id="p.41" gradientUnits="userSpaceOnUse" gradientTransform="matrix(5.971286869462985 0.0 0.0 5.971286869462985 0.0 0.0)" spreadMethod="pad" x1="51.995860897483915" y1="29.9594772364615" x2="56.21825242004996" y2="25.7371938841054"><stop offset="0.0" stop-color="#d4e5f5"/><stop offset="1.0" stop-color="#70a4d5"/></linearGradient></defs><path fill="url(#p.41)" d="m290.5772 151.0305l34.503937 0l0 -2.653534l5.3070984 5.307083l-5.3070984 5.307083l0 -2.6535492l-34.503937 0z" fill-rule="evenodd"/><defs><linearGradient id="p.42" gradientUnits="userSpaceOnUse" gradientTransform="matrix(5.971287476533575 0.0 0.0 5.971287476533575 0.0 0.0)" spreadMethod="pad" x1="79.29477902253468" y1="29.95947419063301" x2="83.5171735498061" y2="25.737192984522387"><stop offset="0.0" stop-color="#d4e5f5"/><stop offset="1.0" stop-color="#70a4d5"/></linearGradient></defs><path fill="url(#p.42)" d="m453.58694 151.0305l34.503937 0l0 -2.653534l5.3070984 5.307083l-5.3070984 5.307083l0 -2.6535492l-34.503937 0z" fill-rule="evenodd"/><defs><linearGradient id="p.43" gradientUnits="userSpaceOnUse" gradientTransform="matrix(5.9712889941300915 0.0 0.0 5.9712889941300915 0.0 0.0)" spreadMethod="pad" x1="105.45622649947289" y1="16.309991169989374" x2="109.6786199536274" y2="12.087706744499744"><stop offset="0.0" stop-color="#d4e5f5"/><stop offset="1.0" stop-color="#70a4d5"/></linearGradient></defs><path fill="url(#p.43)" d="m609.8046 69.52553l34.503906 0l0 -2.6535416l5.307068 5.307083l-5.307068 5.3070908l0 -2.6535492l-34.503906 0z" fill-rule="evenodd"/><defs><linearGradient id="p.44" gradientUnits="userSpaceOnUse" gradientTransform="matrix(5.971286565935736 0.0 0.0 5.971286565935736 0.0 0.0)" spreadMethod="pad" x1="7.650033722171847" y1="19.670123544536125" x2="11.872424600873055" y2="15.44783997755659"><stop offset="0.0" stop-color="#d4e5f5"/><stop offset="1.0" stop-color="#70a4d5"/></linearGradient></defs><path fill="url(#p.44)" d="m25.775543 89.5898l34.503937 0l0 -2.6535416l5.307083 5.307083l-5.307083 5.3070908l0 -2.6535416l-34.503937 0z" fill-rule="evenodd"/><defs><linearGradient id="p.45" gradientUnits="userSpaceOnUse" gradientTransform="matrix(5.971286565935736 0.0 0.0 5.971286565935736 0.0 0.0)" spreadMethod="pad" x1="7.650034580665621" y1="21.94503760969338" x2="11.872425459366829" y2="17.722754042713845"><stop offset="0.0" stop-color="#d4e5f5"/><stop offset="1.0" stop-color="#70a4d5"/></linearGradient></defs><path fill="url(#p.45)" d="m25.775543 103.173965l34.503937 0l0 -2.6535492l5.307083 5.3070908l-5.307083 5.307083l0 -2.6535416l-34.503937 0z" fill-rule="evenodd"/><defs><linearGradient id="p.46" gradientUnits="userSpaceOnUse" gradientTransform="matrix(5.971285655369385 0.0 0.0 5.971285655369385 0.0 0.0)" spreadMethod="pad" x1="7.6500357472258" y1="24.219953651183538" x2="11.872426411309025" y2="19.997671157332253"><stop offset="0.0" stop-color="#d4e5f5"/><stop offset="1.0" stop-color="#70a4d5"/></linearGradient></defs><path fill="url(#p.46)" d="m25.775543 116.758125l34.503937 0l0 -2.6535416l5.307083 5.307083l-5.307083 5.3070908l0 -2.6535492l-34.503937 0z" fill-rule="evenodd"/><defs><linearGradient id="p.47" gradientUnits="userSpaceOnUse" gradientTransform="matrix(5.971286565935736 0.0 0.0 5.971286565935736 0.0 0.0)" spreadMethod="pad" x1="7.650034580665621" y1="26.494865740007885" x2="11.872425459366829" y2="22.27258217302835"><stop offset="0.0" stop-color="#d4e5f5"/><stop offset="1.0" stop-color="#70a4d5"/></linearGradient></defs><path fill="url(#p.47)" d="m25.775543 130.34229l34.503937 0l0 -2.6535416l5.307083 5.3070908l-5.307083 5.307083l0 -2.6535492l-34.503937 0z" fill-rule="evenodd"/><defs><linearGradient id="p.48" gradientUnits="userSpaceOnUse" gradientTransform="matrix(5.971285048314779 0.0 0.0 5.971285048314779 0.0 0.0)" spreadMethod="pad" x1="120.25815426557111" y1="19.670128543760153" x2="124.48054364192433" y2="15.447845620661898"><stop offset="0.0" stop-color="#d4e5f5"/><stop offset="1.0" stop-color="#70a4d5"/></linearGradient></defs><path fill="url(#p.48)" d="m698.1907 89.5898l34.503967 0l0 -2.6535416l5.307068 5.307083l-5.307068 5.3070908l0 -2.6535416l-34.503967 0z" fill-rule="evenodd"/><defs><linearGradient id="p.49" gradientUnits="userSpaceOnUse" gradientTransform="matrix(5.971291725867003 0.0 0.0 5.971291725867003 0.0 0.0)" spreadMethod="pad" x1="120.25800604787494" y1="21.945018646478896" x2="124.48040443831997" y2="17.722735294100108"><stop offset="0.0" stop-color="#d4e5f5"/><stop offset="1.0" stop-color="#70a4d5"/></linearGradient></defs><path fill="url(#p.49)" d="m698.1907 103.173965l34.503967 0l0 -2.6535492l5.307068 5.3070908l-5.307068 5.307083l0 -2.6535416l-34.503967 0z" fill-rule="evenodd"/><defs><linearGradient id="p.50" gradientUnits="userSpaceOnUse" gradientTransform="matrix(5.971285048314779 0.0 0.0 5.971285048314779 0.0 0.0)" spreadMethod="pad" x1="120.25815426557111" y1="24.219959547415836" x2="124.48054364192433" y2="19.997676624317577"><stop offset="0.0" stop-color="#d4e5f5"/><stop offset="1.0" stop-color="#70a4d5"/></linearGradient></defs><path fill="url(#p.50)" d="m698.1907 116.758125l34.503967 0l0 -2.6535416l5.307068 5.307083l-5.307068 5.3070908l0 -2.6535492l-34.503967 0z" fill-rule="evenodd"/><defs><linearGradient id="p.51" gradientUnits="userSpaceOnUse" gradientTransform="matrix(5.971285048314779 0.0 0.0 5.971285048314779 0.0 0.0)" spreadMethod="pad" x1="120.25815426557111" y1="26.494870756773718" x2="124.48054364192433" y2="22.27258783367546"><stop offset="0.0" stop-color="#d4e5f5"/><stop offset="1.0" stop-color="#70a4d5"/></linearGradient></defs><path fill="url(#p.51)" d="m698.1907 130.34229l34.503967 0l0 -2.6535416l5.307068 5.3070908l-5.307068 5.307083l0 -2.6535492l-34.503967 0z" fill-rule="evenodd"/><path fill="#000000" fill-opacity="0.0" d="m412.4003 197.82175l0.9133606 -73.60629" fill-rule="evenodd"/><path stroke="#434343" stroke-width="1.0" stroke-linejoin="round" stroke-linecap="butt" d="m412.4003 197.82175l0.83895874 -67.606766" fill-rule="evenodd"/><path fill="#434343" stroke="#434343" stroke-width="1.0" stroke-linecap="butt" d="m414.89084 130.23549l-1.5952759 -4.5582504l-1.7079163 4.51725z" fill-rule="evenodd"/><path fill="#000000" fill-opacity="0.0" d="m453.79767 33.868523l0 35.02362" fill-rule="evenodd"/><path stroke="#434343" stroke-width="1.0" stroke-linejoin="round" stroke-linecap="butt" d="m453.79767 33.868523l0 29.023624" fill-rule="evenodd"/><path fill="#434343" stroke="#434343" stroke-width="1.0" stroke-linecap="butt" d="m452.14594 62.892147l1.6517334 4.5380974l1.6517334 -4.5380974z" fill-rule="evenodd"/><path fill="#000000" fill-opacity="0.0" d="m190.92325 27.872389l0 35.02362" fill-rule="evenodd"/><path stroke="#434343" stroke-width="1.0" stroke-linejoin="round" stroke-linecap="butt" d="m190.92325 27.872389l0 29.023623" fill-rule="evenodd"/><path fill="#434343" stroke="#434343" stroke-width="1.0" stroke-linecap="butt" d="m189.27151 56.89601l1.6517334 4.5380974l1.6517334 -4.5380974z" fill-rule="evenodd"/><path fill="#000000" fill-opacity="0.0" d="m-0.56698847 179.52565l161.13385 0l0 31.653534l-161.13385 0z" fill-rule="evenodd"/><path fill="#000000" d="m24.300726 201.21242l-1.515625 0l-6.25 -9.59375l-0.0625 0q0.125 1.6875 0.125 3.09375l0 6.5l-1.21875 0l0 -11.421875l1.5 0l6.21875 9.546875l0.0625 0q-0.015625 -0.21875 -0.078125 -1.359375q-0.046875 -1.140625 -0.03125 -1.640625l0 -6.546875l1.25 0l0 11.421875zm6.5625 0.15625q-1.90625 0 -3.0 -1.15625q-1.09375 -1.15625 -1.09375 -3.21875q0 -2.0625 1.015625 -3.28125q1.015625 -1.21875 2.734375 -1.21875q1.6093731 0 2.546873 1.0625q0.9375 1.046875 0.9375 2.78125l0 0.828125l-5.890623 0q0.03125 1.5 0.75 2.28125q0.734375 0.78125 2.046875 0.78125q1.3749981 0 2.734373 -0.578125l0 1.15625q-0.6875 0.296875 -1.3125 0.421875q-0.6093731 0.140625 -1.4687481 0.140625zm-0.359375 -7.796875q-1.03125 0 -1.640625 0.671875q-0.609375 0.671875 -0.71875 1.859375l4.468748 0q0 -1.21875 -0.546875 -1.875q-0.5468731 -0.65625 -1.5624981 -0.65625zm12.726561 -0.921875l0 0.8125l-1.59375 0.1875q0.21875 0.28125 0.390625 0.71875q0.171875 0.4375 0.171875 1.0q0 1.25 -0.859375 2.0q-0.859375 0.75 -2.359375 0.75q-0.375 0 -0.71875 -0.0625q-0.828125 0.4375 -0.828125 1.109375q0 0.34375 0.28125 0.515625q0.296875 0.171875 1.0 0.171875l1.515625 0q1.390625 0 2.140625 0.59375q0.75 0.578125 0.75 1.703125q0 1.421875 -1.140625 2.15625q-1.140625 0.75 -3.328125 0.75q-1.6875 0 -2.59375 -0.625q-0.90625 -0.625 -0.90625 -1.765625q0 -0.78125 0.5 -1.359375q0.5 -0.5625 1.40625 -0.765625q-0.328125 -0.15625 -0.5625 -0.46875q-0.21875 -0.3125 -0.21875 -0.71875q0 -0.46875 0.25 -0.8125q0.25 -0.359375 0.796875 -0.6875q-0.671875 -0.28125 -1.09375 -0.9375q-0.40625 -0.65625 -0.40625 -1.5q0 -1.40625 0.84375 -2.15625q0.84375 -0.765625 2.390625 -0.765625q0.671875 0 1.203125 0.15625l2.96875 0zm-6.828125 10.0q0 0.703125 0.578125 1.0625q0.59375 0.359375 1.6875 0.359375q1.625 0 2.40625 -0.5q0.796875 -0.484375 0.796875 -1.3125q0 -0.703125 -0.4375 -0.984375q-0.421875 -0.265625 -1.609375 -0.265625l-1.5625 0q-0.875 0 -1.375 0.421875q-0.484375 0.4375 -0.484375 1.21875zm0.703125 -7.265625q0 0.90625 0.5 1.375q0.515625 0.453125 1.421875 0.453125q1.890625 0 1.890625 -1.84375q0 -1.9375 -1.921875 -1.9375q-0.90625 0 -1.40625 0.5q-0.484375 0.484375 -0.484375 1.453125zm13.140625 5.828125l-0.25 -1.21875l-0.0625 0q-0.640625 0.796875 -1.28125 1.09375q-0.640625 0.28125 -1.59375 0.28125q-1.265625 0 -2.0 -0.65625q-0.71875 -0.65625 -0.71875 -1.875q0 -2.59375 4.15625 -2.71875l1.453125 -0.046875l0 -0.53125q0 -1.0 -0.4375 -1.484375q-0.4375 -0.484375 -1.390625 -0.484375q-1.0625 0 -2.421875 0.65625l-0.390625 -0.984375q0.625 -0.34375 1.375 -0.53125q0.765625 -0.203125 1.515625 -0.203125q1.53125 0 2.265625 0.6875q0.75 0.671875 0.75 2.171875l0 5.84375l-0.96875 0zm-2.921875 -0.921875q1.203125 0 1.890625 -0.65625q0.703125 -0.671875 0.703125 -1.859375l0 -0.78125l-1.296875 0.0625q-1.546875 0.046875 -2.234375 0.484375q-0.6875 0.421875 -0.6875 1.3125q0 0.703125 0.421875 1.078125q0.4375 0.359375 1.203125 0.359375zm9.3203125 0q0.34375 0 0.65625 -0.046875q0.328125 -0.046875 0.515625 -0.109375l0 1.0q-0.203125 0.109375 -0.625 0.171875q-0.40625 0.0625 -0.734375 0.0625q-2.484375 0 -2.484375 -2.625l0 -5.09375l-1.21875 0l0 -0.625l1.21875 -0.53125l0.546875 -1.828125l0.75 0l0 1.984375l2.484375 0l0 1.0l-2.484375 0l0 5.046875q0 0.765625 0.359375 1.1875q0.375 0.40625 1.015625 0.40625zm4.1796875 0.921875l-1.296875 0l0 -8.5625l1.296875 0l0 8.5625zm-1.40625 -10.890625q0 -0.4375 0.21875 -0.640625q0.21875 -0.21875 0.546875 -0.21875q0.3125 0 0.53125 0.21875q0.234375 0.203125 0.234375 0.640625q0 0.4375 -0.234375 0.65625q-0.21875 0.21875 -0.53125 0.21875q-0.328125 0 -0.546875 -0.21875q-0.21875 -0.21875 -0.21875 -0.65625zm6.031254 10.890625l-3.2500038 -8.5625l1.390625 0l1.8437538 5.078125q0.625 1.78125 0.734375 2.3125l0.0625 0q0.09375 -0.421875 0.546875 -1.71875q0.453125 -1.296875 2.046875 -5.671875l1.390625 0l-3.25 8.5625l-1.515625 0zm9.765625 0.15625q-1.90625 0 -3.0 -1.15625q-1.09375 -1.15625 -1.09375 -3.21875q0 -2.0625 1.015625 -3.28125q1.015625 -1.21875 2.734375 -1.21875q1.609375 0 2.546875 1.0625q0.9375 1.046875 0.9375 2.78125l0 0.828125l-5.890625 0q0.03125 1.5 0.75 2.28125q0.734375 0.78125 2.046875 0.78125q1.375 0 2.734375 -0.578125l0 1.15625q-0.6875 0.296875 -1.3125 0.421875q-0.609375 0.140625 -1.46875 0.140625zm-0.359375 -7.796875q-1.03125 0 -1.640625 0.671875q-0.609375 0.671875 -0.71875 1.859375l4.46875 0q0 -1.21875 -0.546875 -1.875q-0.546875 -0.65625 -1.5625 -0.65625zm12.6328125 6.71875q0.34375 0 0.65625 -0.046875q0.328125 -0.046875 0.515625 -0.109375l0 1.0q-0.203125 0.109375 -0.625 0.171875q-0.40625 0.0625 -0.734375 0.0625q-2.484375 0 -2.484375 -2.625l0 -5.09375l-1.21875 0l0 -0.625l1.21875 -0.53125l0.546875 -1.828125l0.75 0l0 1.984375l2.484375 0l0 1.0l-2.484375 0l0 5.046875q0 0.765625 0.359375 1.1875q0.375 0.40625 1.015625 0.40625zm6.5078125 1.078125q-1.90625 0 -3.0 -1.15625q-1.09375 -1.15625 -1.09375 -3.21875q0 -2.0625 1.015625 -3.28125q1.015625 -1.21875 2.734375 -1.21875q1.609375 0 2.546875 1.0625q0.9375 1.046875 0.9375 2.78125l0 0.828125l-5.890625 0q0.03125 1.5 0.75 2.28125q0.734375 0.78125 2.046875 0.78125q1.375 0 2.734375 -0.578125l0 1.15625q-0.6875 0.296875 -1.3125 0.421875q-0.609375 0.140625 -1.46875 0.140625zm-0.359375 -7.796875q-1.03125 0 -1.640625 0.671875q-0.609375 0.671875 -0.71875 1.859375l4.46875 0q0 -1.21875 -0.546875 -1.875q-0.546875 -0.65625 -1.5625 -0.65625zm9.6171875 -1.078125q0.578125 0 1.03125 0.09375l-0.1875 1.203125q-0.53125 -0.125 -0.9375 -0.125q-1.03125 0 -1.78125 0.84375q-0.734375 0.84375 -0.734375 2.109375l0 4.59375l-1.296875 0l0 -8.5625l1.078125 0l0.140625 1.578125l0.0625 0q0.484375 -0.828125 1.15625 -1.28125q0.671875 -0.453125 1.46875 -0.453125zm13.546875 8.71875l0 -5.578125q0 -1.015625 -0.4375 -1.53125q-0.4375 -0.515625 -1.359375 -0.515625q-1.21875 0 -1.796875 0.703125q-0.578125 0.6875 -0.578125 2.140625l0 4.78125l-1.296875 0l0 -5.578125q0 -1.015625 -0.4375 -1.53125q-0.4375 -0.515625 -1.359375 -0.515625q-1.21875 0 -1.796875 0.734375q-0.5625 0.734375 -0.5625 2.390625l0 4.5l-1.296875 0l0 -8.5625l1.0625 0l0.203125 1.171875l0.0625 0q0.375 -0.625 1.03125 -0.96875q0.671875 -0.359375 1.5 -0.359375q2.015625 0 2.625 1.453125l0.0625 0q0.390625 -0.671875 1.109375 -1.0625q0.734375 -0.390625 1.65625 -0.390625q1.453125 0 2.171875 0.75q0.734375 0.734375 0.734375 2.375l0 5.59375l-1.296875 0zm5.2578125 0l-1.296875 0l0 -8.5625l1.296875 0l0 8.5625zm-1.40625 -10.890625q0 -0.4375 0.21875 -0.640625q0.21875 -0.21875 0.546875 -0.21875q0.3125 0 0.53125 0.21875q0.234375 0.203125 0.234375 0.640625q0 0.4375 -0.234375 0.65625q-0.21875 0.21875 -0.53125 0.21875q-0.328125 0 -0.546875 -0.21875q-0.21875 -0.21875 -0.21875 -0.65625zm10.015617 10.890625l0 -5.546875q0 -1.046875 -0.484375 -1.5625q-0.46875 -0.515625 -1.484375 -0.515625q-1.3437424 0 -1.9687424 0.734375q-0.625 0.71875 -0.625 2.390625l0 4.5l-1.296875 0l0 -8.5625l1.0625 0l0.203125 1.171875l0.0625 0q0.40625 -0.640625 1.125 -0.984375q0.7187424 -0.34375 1.5937424 -0.34375q1.546875 0 2.328125 0.75q0.78125 0.734375 0.78125 2.375l0 5.59375l-1.296875 0zm9.2265625 0l-0.25 -1.21875l-0.0625 0q-0.640625 0.796875 -1.28125 1.09375q-0.640625 0.28125 -1.59375 0.28125q-1.265625 0 -2.0 -0.65625q-0.71875 -0.65625 -0.71875 -1.875q0 -2.59375 4.15625 -2.71875l1.453125 -0.046875l0 -0.53125q0 -1.0 -0.4375 -1.484375q-0.4375 -0.484375 -1.390625 -0.484375q-1.0625 0 -2.421875 0.65625l-0.390625 -0.984375q0.625 -0.34375 1.375 -0.53125q0.765625 -0.203125 1.515625 -0.203125q1.53125 0 2.265625 0.6875q0.75 0.671875 0.75 2.171875l0 5.84375l-0.96875 0zm-2.921875 -0.921875q1.203125 0 1.890625 -0.65625q0.703125 -0.671875 0.703125 -1.859375l0 -0.78125l-1.296875 0.0625q-1.546875 0.046875 -2.234375 0.484375q-0.6875 0.421875 -0.6875 1.3125q0 0.703125 0.421875 1.078125q0.4375 0.359375 1.203125 0.359375zm7.8515625 0.921875l-1.296875 0l0 -12.15625l1.296875 0l0 12.15625z" fill-rule="nonzero"/><path fill="#000000" fill-opacity="0.0" d="m653.61426 179.52565l149.95276 0l0 31.653534l-149.95276 0z" fill-rule="evenodd"/><path fill="#000000" d="m675.0672 193.11867q0 1.734375 -1.1875 2.671875q-1.171875 0.921875 -3.375 0.921875l-1.34375 0l0 4.5l-1.328125 0l0 -11.421875l2.953125 0q4.28125 0 4.28125 3.328125zm-5.90625 2.453125l1.1875 0q1.765625 0 2.546875 -0.5625q0.796875 -0.578125 0.796875 -1.828125q0 -1.140625 -0.75 -1.6875q-0.734375 -0.5625 -2.296875 -0.5625l-1.484375 0l0 4.640625zm15.4921875 1.34375q0 2.09375 -1.0625 3.28125q-1.046875 1.171875 -2.90625 1.171875q-1.140625 0 -2.03125 -0.53125q-0.890625 -0.546875 -1.375 -1.546875q-0.484375 -1.015625 -0.484375 -2.375q0 -2.09375 1.046875 -3.25q1.046875 -1.171875 2.90625 -1.171875q1.796875 0 2.84375 1.203125q1.0625 1.1875 1.0625 3.21875zm-6.515625 0q0 1.640625 0.65625 2.5q0.65625 0.859375 1.921875 0.859375q1.28125 0 1.9375 -0.84375q0.65625 -0.859375 0.65625 -2.515625q0 -1.625 -0.65625 -2.46875q-0.65625 -0.859375 -1.953125 -0.859375q-1.265625 0 -1.921875 0.84375q-0.640625 0.828125 -0.640625 2.484375zm14.3203125 1.953125q0 1.203125 -0.890625 1.859375q-0.890625 0.640625 -2.5 0.640625q-1.703125 0 -2.65625 -0.546875l0 -1.203125q0.609375 0.3125 1.3125 0.5q0.71875 0.171875 1.375 0.171875q1.015625 0 1.5625 -0.3125q0.546875 -0.328125 0.546875 -1.0q0 -0.5 -0.4375 -0.84375q-0.4375 -0.359375 -1.6875 -0.84375q-1.203125 -0.453125 -1.703125 -0.78125q-0.5 -0.328125 -0.75 -0.75q-0.25 -0.421875 -0.25 -1.015625q0 -1.046875 0.84375 -1.640625q0.859375 -0.609375 2.34375 -0.609375q1.390625 0 2.703125 0.5625l-0.453125 1.046875q-1.296875 -0.53125 -2.34375 -0.53125q-0.921875 0 -1.390625 0.296875q-0.46875 0.28125 -0.46875 0.796875q0 0.34375 0.171875 0.59375q0.1875 0.234375 0.578125 0.453125q0.390625 0.21875 1.5 0.625q1.515625 0.5625 2.046875 1.125q0.546875 0.5625 0.546875 1.40625zm3.3984375 2.34375l-1.296875 0l0 -8.5625l1.296875 0l0 8.5625zm-1.40625 -10.890625q0 -0.4375 0.21875 -0.640625q0.21875 -0.21875 0.546875 -0.21875q0.3125 0 0.53125 0.21875q0.234375 0.203125 0.234375 0.640625q0 0.4375 -0.234375 0.65625q-0.21875 0.21875 -0.53125 0.21875q-0.328125 0 -0.546875 -0.21875q-0.21875 -0.21875 -0.21875 -0.65625zm6.921875 9.96875q0.34375 0 0.65625 -0.046875q0.328125 -0.046875 0.515625 -0.109375l0 1.0q-0.203125 0.109375 -0.625 0.171875q-0.40625 0.0625 -0.734375 0.0625q-2.484375 0 -2.484375 -2.625l0 -5.09375l-1.21875 0l0 -0.625l1.21875 -0.53125l0.546875 -1.828125l0.75 0l0 1.984375l2.484375 0l0 1.0l-2.484375 0l0 5.046875q0 0.765625 0.359375 1.1875q0.375 0.40625 1.015625 0.40625zm4.1796875 0.921875l-1.296875 0l0 -8.5625l1.296875 0l0 8.5625zm-1.40625 -10.890625q0 -0.4375 0.21875 -0.640625q0.21875 -0.21875 0.546875 -0.21875q0.3125 0 0.53125 0.21875q0.234375 0.203125 0.234375 0.640625q0 0.4375 -0.234375 0.65625q-0.21875 0.21875 -0.53125 0.21875q-0.328125 0 -0.546875 -0.21875q-0.21875 -0.21875 -0.21875 -0.65625zm6.03125 10.890625l-3.25 -8.5625l1.390625 0l1.84375 5.078125q0.625 1.78125 0.734375 2.3125l0.0625 0q0.09375 -0.421875 0.546875 -1.71875q0.453125 -1.296875 2.046875 -5.671875l1.390625 0l-3.25 8.5625l-1.515625 0zm9.765625 0.15625q-1.90625 0 -3.0 -1.15625q-1.09375 -1.15625 -1.09375 -3.21875q0 -2.0625 1.015625 -3.28125q1.015625 -1.21875 2.734375 -1.21875q1.609375 0 2.546875 1.0625q0.9375 1.046875 0.9375 2.78125l0 0.828125l-5.890625 0q0.03125 1.5 0.75 2.28125q0.734375 0.78125 2.046875 0.78125q1.375 0 2.734375 -0.578125l0 1.15625q-0.6875 0.296875 -1.3125 0.421875q-0.609375 0.140625 -1.46875 0.140625zm-0.359375 -7.796875q-1.03125 0 -1.640625 0.671875q-0.609375 0.671875 -0.71875 1.859375l4.46875 0q0 -1.21875 -0.546875 -1.875q-0.546875 -0.65625 -1.5625 -0.65625zm12.6328125 6.71875q0.34375 0 0.65625 -0.046875q0.328125 -0.046875 0.515625 -0.109375l0 1.0q-0.203125 0.109375 -0.625 0.171875q-0.40625 0.0625 -0.734375 0.0625q-2.484375 0 -2.484375 -2.625l0 -5.09375l-1.21875 0l0 -0.625l1.21875 -0.53125l0.546875 -1.828125l0.75 0l0 1.984375l2.484375 0l0 1.0l-2.484375 0l0 5.046875q0 0.765625 0.359375 1.1875q0.375 0.40625 1.015625 0.40625zm6.5078125 1.078125q-1.90625 0 -3.0 -1.15625q-1.09375 -1.15625 -1.09375 -3.21875q0 -2.0625 1.015625 -3.28125q1.015625 -1.21875 2.734375 -1.21875q1.609375 0 2.546875 1.0625q0.9375 1.046875 0.9375 2.78125l0 0.828125l-5.890625 0q0.03125 1.5 0.75 2.28125q0.734375 0.78125 2.046875 0.78125q1.375 0 2.734375 -0.578125l0 1.15625q-0.6875 0.296875 -1.3125 0.421875q-0.609375 0.140625 -1.46875 0.140625zm-0.359375 -7.796875q-1.03125 0 -1.640625 0.671875q-0.609375 0.671875 -0.71875 1.859375l4.46875 0q0 -1.21875 -0.546875 -1.875q-0.546875 -0.65625 -1.5625 -0.65625zm9.6171875 -1.078125q0.578125 0 1.03125 0.09375l-0.1875 1.203125q-0.53125 -0.125 -0.9375 -0.125q-1.03125 0 -1.78125 0.84375q-0.734375 0.84375 -0.734375 2.109375l0 4.59375l-1.296875 0l0 -8.5625l1.078125 0l0.140625 1.578125l0.0625 0q0.484375 -0.828125 1.15625 -1.28125q0.671875 -0.453125 1.46875 -0.453125zm13.546875 8.71875l0 -5.578125q0 -1.015625 -0.4375 -1.53125q-0.4375 -0.515625 -1.359375 -0.515625q-1.21875 0 -1.796875 0.703125q-0.578125 0.6875 -0.578125 2.140625l0 4.78125l-1.296875 0l0 -5.578125q0 -1.015625 -0.4375 -1.53125q-0.4375 -0.515625 -1.359375 -0.515625q-1.21875 0 -1.796875 0.734375q-0.5625 0.734375 -0.5625 2.390625l0 4.5l-1.296875 0l0 -8.5625l1.0625 0l0.203125 1.171875l0.0625 0q0.375 -0.625 1.03125 -0.96875q0.671875 -0.359375 1.5 -0.359375q2.015625 0 2.625 1.453125l0.0625 0q0.390625 -0.671875 1.109375 -1.0625q0.734375 -0.390625 1.65625 -0.390625q1.453125 0 2.171875 0.75q0.734375 0.734375 0.734375 2.375l0 5.59375l-1.296875 0zm5.2578125 0l-1.296875 0l0 -8.5625l1.296875 0l0 8.5625zm-1.40625 -10.890625q0 -0.4375 0.21875 -0.640625q0.21875 -0.21875 0.546875 -0.21875q0.3125 0 0.53125 0.21875q0.234375 0.203125 0.234375 0.640625q0 0.4375 -0.234375 0.65625q-0.21875 0.21875 -0.53125 0.21875q-0.328125 0 -0.546875 -0.21875q-0.21875 -0.21875 -0.21875 -0.65625zm10.015625 10.890625l0 -5.546875q0 -1.046875 -0.484375 -1.5625q-0.46875 -0.515625 -1.484375 -0.515625q-1.34375 0 -1.96875 0.734375q-0.625 0.71875 -0.625 2.390625l0 4.5l-1.296875 0l0 -8.5625l1.0625 0l0.203125 1.171875l0.0625 0q0.40625 -0.640625 1.125 -0.984375q0.71875 -0.34375 1.59375 -0.34375q1.546875 0 2.328125 0.75q0.78125 0.734375 0.78125 2.375l0 5.59375l-1.296875 0zm9.2265625 0l-0.25 -1.21875l-0.0625 0q-0.640625 0.796875 -1.28125 1.09375q-0.640625 0.28125 -1.59375 0.28125q-1.265625 0 -2.0 -0.65625q-0.71875 -0.65625 -0.71875 -1.875q0 -2.59375 4.15625 -2.71875l1.453125 -0.046875l0 -0.53125q0 -1.0 -0.4375 -1.484375q-0.4375 -0.484375 -1.390625 -0.484375q-1.0625 0 -2.421875 0.65625l-0.390625 -0.984375q0.625 -0.34375 1.375 -0.53125q0.765625 -0.203125 1.515625 -0.203125q1.53125 0 2.265625 0.6875q0.75 0.671875 0.75 2.171875l0 5.84375l-0.96875 0zm-2.921875 -0.921875q1.203125 0 1.890625 -0.65625q0.703125 -0.671875 0.703125 -1.859375l0 -0.78125l-1.296875 0.0625q-1.546875 0.046875 -2.234375 0.484375q-0.6875 0.421875 -0.6875 1.3125q0 0.703125 0.421875 1.078125q0.4375 0.359375 1.203125 0.359375zm7.8515625 0.921875l-1.296875 0l0 -12.15625l1.296875 0l0 12.15625z" fill-rule="nonzero"/><path fill="#000000" fill-opacity="0.0" d="m348.39575 198.28012l128.94489 0l0 31.65355l-128.94489 0z" fill-rule="evenodd"/><path fill="#000000" d="m370.27444 209.56065q-1.890625 0 -2.984375 1.265625q-1.078125 1.25 -1.078125 3.421875q0 2.25 1.046875 3.46875q1.046875 1.21875 3.0 1.21875q1.1875 0 2.71875 -0.421875l0 1.15625q-1.1875 0.453125 -2.921875 0.453125q-2.53125 0 -3.90625 -1.53125q-1.359375 -1.53125 -1.359375 -4.359375q0 -1.765625 0.65625 -3.09375q0.65625 -1.328125 1.90625 -2.046875q1.25 -0.71875 2.9375 -0.71875q1.796875 0 3.140625 0.65625l-0.5625 1.140625q-1.296875 -0.609375 -2.59375 -0.609375zm12.390625 6.109375q0 2.09375 -1.0625 3.28125q-1.046875 1.171875 -2.90625 1.171875q-1.140625 0 -2.03125 -0.53125q-0.890625 -0.546875 -1.375 -1.546875q-0.484375 -1.015625 -0.484375 -2.375q0 -2.09375 1.046875 -3.25q1.046875 -1.171875 2.90625 -1.171875q1.796875 0 2.84375 1.203125q1.0625 1.1875 1.0625 3.21875zm-6.515625 0q0 1.640625 0.65625 2.5q0.65625 0.859375 1.921875 0.859375q1.28125 0 1.9375 -0.84375q0.65625 -0.859375 0.65625 -2.515625q0 -1.625 -0.65625 -2.46875q-0.65625 -0.859375 -1.953125 -0.859375q-1.265625 0 -1.921875 0.84375q-0.640625 0.828125 -0.640625 2.484375zm12.7734375 4.453125q-0.828125 0 -1.53125 -0.3125q-0.6875 -0.3125 -1.15625 -0.953125l-0.09375 0q0.09375 0.75 0.09375 1.4375l0 3.515625l-1.296875 0l0 -12.40625l1.0625 0l0.171875 1.171875l0.0625 0q0.5 -0.703125 1.15625 -1.015625q0.671875 -0.3125 1.53125 -0.3125q1.703125 0 2.625 1.171875q0.9375 1.15625 0.9375 3.25q0 2.109375 -0.953125 3.28125q-0.9375 1.171875 -2.609375 1.171875zm-0.1875 -7.78125q-1.3125 0 -1.90625 0.734375q-0.578125 0.71875 -0.59375 2.3125l0 0.28125q0 1.8125 0.59375 2.59375q0.609375 0.765625 1.9375 0.765625q1.109375 0 1.734375 -0.890625q0.640625 -0.90625 0.640625 -2.484375q0 -1.59375 -0.640625 -2.453125q-0.625 -0.859375 -1.765625 -0.859375zm9.9921875 7.78125q-0.828125 0 -1.53125 -0.3125q-0.6875 -0.3125 -1.15625 -0.953125l-0.09375 0q0.09375 0.75 0.09375 1.4375l0 3.515625l-1.296875 0l0 -12.40625l1.0625 0l0.171875 1.171875l0.0625 0q0.5 -0.703125 1.15625 -1.015625q0.671875 -0.3125 1.53125 -0.3125q1.703125 0 2.625 1.171875q0.9375 1.15625 0.9375 3.25q0 2.109375 -0.953125 3.28125q-0.9375 1.171875 -2.609375 1.171875zm-0.1875 -7.78125q-1.3125 0 -1.90625 0.734375q-0.578125 0.71875 -0.59375 2.3125l0 0.28125q0 1.8125 0.59375 2.59375q0.609375 0.765625 1.9375 0.765625q1.109375 0 1.734375 -0.890625q0.640625 -0.90625 0.640625 -2.484375q0 -1.59375 -0.640625 -2.453125q-0.625 -0.859375 -1.765625 -0.859375zm9.6328125 7.78125q-1.90625 0 -3.0 -1.15625q-1.09375 -1.15625 -1.09375 -3.21875q0 -2.0625 1.015625 -3.28125q1.015625 -1.21875 2.734375 -1.21875q1.609375 0 2.546875 1.0625q0.9375 1.046875 0.9375 2.78125l0 0.828125l-5.890625 0q0.03125 1.5 0.75 2.28125q0.734375 0.78125 2.046875 0.78125q1.375 0 2.734375 -0.578125l0 1.15625q-0.6875 0.296875 -1.3125 0.421875q-0.609375 0.140625 -1.46875 0.140625zm-0.359375 -7.796875q-1.03125 0 -1.640625 0.671875q-0.609375 0.671875 -0.71875 1.859375l4.46875 0q0 -1.21875 -0.546875 -1.875q-0.546875 -0.65625 -1.5625 -0.65625zm9.6171875 -1.078125q0.578125 0 1.03125 0.09375l-0.1875 1.203125q-0.53125 -0.125 -0.9375 -0.125q-1.03125 0 -1.78125 0.84375q-0.734375 0.84375 -0.734375 2.109375l0 4.59375l-1.296875 0l0 -8.5625l1.078125 0l0.140625 1.578125l0.0625 0q0.484375 -0.828125 1.15625 -1.28125q0.671875 -0.453125 1.46875 -0.453125zm12.046875 8.71875l-0.25 -1.21875l-0.0625 0q-0.640625 0.796875 -1.28125 1.09375q-0.640625 0.28125 -1.59375 0.28125q-1.265625 0 -2.0 -0.65625q-0.71875 -0.65625 -0.71875 -1.875q0 -2.59375 4.15625 -2.71875l1.453125 -0.046875l0 -0.53125q0 -1.0 -0.4375 -1.484375q-0.4375 -0.484375 -1.390625 -0.484375q-1.0625 0 -2.421875 0.65625l-0.390625 -0.984375q0.625 -0.34375 1.375 -0.53125q0.765625 -0.203125 1.515625 -0.203125q1.53125 0 2.265625 0.6875q0.75 0.671875 0.75 2.171875l0 5.84375l-0.96875 0zm-2.921875 -0.921875q1.203125 0 1.890625 -0.65625q0.703125 -0.671875 0.703125 -1.859375l0 -0.78125l-1.296875 0.0625q-1.546875 0.046875 -2.234375 0.484375q-0.6875 0.421875 -0.6875 1.3125q0 0.703125 0.421875 1.078125q0.4375 0.359375 1.203125 0.359375zm9.3203125 0q0.34375 0 0.65625 -0.046875q0.328125 -0.046875 0.515625 -0.109375l0 1.0q-0.203125 0.109375 -0.625 0.171875q-0.40625 0.0625 -0.734375 0.0625q-2.484375 0 -2.484375 -2.625l0 -5.09375l-1.21875 0l0 -0.625l1.21875 -0.53125l0.546875 -1.828125l0.75 0l0 1.984375l2.484375 0l0 1.0l-2.484375 0l0 5.046875q0 0.765625 0.359375 1.1875q0.375 0.40625 1.015625 0.40625zm10.2734375 -3.375q0 2.09375 -1.0625 3.28125q-1.046875 1.171875 -2.90625 1.171875q-1.140625 0 -2.03125 -0.53125q-0.890625 -0.546875 -1.375 -1.546875q-0.484375 -1.015625 -0.484375 -2.375q0 -2.09375 1.046875 -3.25q1.046875 -1.171875 2.90625 -1.171875q1.796875 0 2.84375 1.203125q1.0625 1.1875 1.0625 3.21875zm-6.515625 0q0 1.640625 0.65625 2.5q0.65625 0.859375 1.921875 0.859375q1.28125 0 1.9375 -0.84375q0.65625 -0.859375 0.65625 -2.515625q0 -1.625 -0.65625 -2.46875q-0.65625 -0.859375 -1.953125 -0.859375q-1.265625 0 -1.921875 0.84375q-0.640625 0.828125 -0.640625 2.484375zm19.710938 4.296875l0 -5.578125q0 -1.015625 -0.4375 -1.53125q-0.4375 -0.515625 -1.359375 -0.515625q-1.21875 0 -1.796875 0.703125q-0.578125 0.6875 -0.578125 2.140625l0 4.78125l-1.296875 0l0 -5.578125q0 -1.015625 -0.4375 -1.53125q-0.4375 -0.515625 -1.359375 -0.515625q-1.21875 0 -1.796875 0.734375q-0.5625 0.734375 -0.5625 2.390625l0 4.5l-1.296875 0l0 -8.5625l1.0625 0l0.203125 1.171875l0.0625 0q0.375 -0.625 1.03125 -0.96875q0.671875 -0.359375 1.5 -0.359375q2.015625 0 2.625 1.453125l0.0625 0q0.390625 -0.671875 1.109375 -1.0625q0.734375 -0.390625 1.65625 -0.390625q1.453125 0 2.171875 0.75q0.734375 0.734375 0.734375 2.375l0 5.59375l-1.296875 0z" fill-rule="nonzero"/><path fill="#000000" fill-opacity="0.0" d="m394.3559 0.06633019l128.94489 0l0 31.653543l-128.94489 0z" fill-rule="evenodd"/><path fill="#000000" d="m419.78146 11.346851q-1.890625 0 -2.984375 1.265625q-1.078125 1.25 -1.078125 3.421875q0 2.25 1.046875 3.46875q1.046875 1.21875 3.0 1.21875q1.1875 0 2.71875 -0.421875l0 1.15625q-1.1875 0.453125 -2.921875 0.453125q-2.53125 0 -3.90625 -1.53125q-1.359375 -1.53125 -1.359375 -4.359375q0 -1.765625 0.65625 -3.09375q0.65625 -1.328125 1.90625 -2.046875q1.25 -0.71875 2.9375 -0.71875q1.796875 0 3.140625 0.65625l-0.5625 1.140625q-1.296875 -0.609375 -2.59375 -0.609375zm12.390625 6.109375q0 2.09375 -1.0625 3.28125q-1.046875 1.171875 -2.90625 1.171875q-1.140625 0 -2.03125 -0.53125q-0.890625 -0.546875 -1.375 -1.546875q-0.484375 -1.015625 -0.484375 -2.375q0 -2.09375 1.046875 -3.25q1.046875 -1.171875 2.90625 -1.171875q1.796875 0 2.84375 1.203125q1.0625 1.1875 1.0625 3.21875zm-6.515625 0q0 1.640625 0.65625 2.5q0.65625 0.859375 1.921875 0.859375q1.28125 0 1.9375 -0.84375q0.65625 -0.859375 0.65625 -2.515625q0 -1.625 -0.65625 -2.46875q-0.65625 -0.859375 -1.953125 -0.859375q-1.265625 0 -1.921875 0.84375q-0.640625 0.828125 -0.640625 2.484375zm12.7734375 4.453125q-0.828125 0 -1.53125 -0.3125q-0.6875 -0.3125 -1.15625 -0.953125l-0.09375 0q0.09375 0.75 0.09375 1.4375l0 3.515625l-1.296875 0l0 -12.40625l1.0625 0l0.171875 1.171875l0.0625 0q0.5 -0.703125 1.15625 -1.015625q0.671875 -0.3125 1.53125 -0.3125q1.703125 0 2.625 1.171875q0.9375 1.15625 0.9375 3.25q0 2.109375 -0.953125 3.28125q-0.9375 1.171875 -2.609375 1.171875zm-0.1875 -7.78125q-1.3125 0 -1.90625 0.734375q-0.578125 0.71875 -0.59375 2.3125l0 0.28125q0 1.8125 0.59375 2.59375q0.609375 0.765625 1.9375 0.765625q1.109375 0 1.734375 -0.890625q0.640625 -0.90625 0.640625 -2.484375q0 -1.59375 -0.640625 -2.453125q-0.625 -0.859375 -1.765625 -0.859375zm9.9921875 7.78125q-0.828125 0 -1.53125 -0.3125q-0.6875 -0.3125 -1.15625 -0.953125l-0.09375 0q0.09375 0.75 0.09375 1.4375l0 3.515625l-1.296875 0l0 -12.40625l1.0625 0l0.171875 1.171875l0.0625 0q0.5 -0.703125 1.15625 -1.015625q0.671875 -0.3125 1.53125 -0.3125q1.703125 0 2.625 1.171875q0.9375 1.15625 0.9375 3.25q0 2.109375 -0.953125 3.28125q-0.9375 1.171875 -2.609375 1.171875zm-0.1875 -7.78125q-1.3125 0 -1.90625 0.734375q-0.578125 0.71875 -0.59375 2.3125l0 0.28125q0 1.8125 0.59375 2.59375q0.609375 0.765625 1.9375 0.765625q1.109375 0 1.734375 -0.890625q0.640625 -0.90625 0.640625 -2.484375q0 -1.59375 -0.640625 -2.453125q-0.625 -0.859375 -1.765625 -0.859375zm9.6328125 7.78125q-1.90625 0 -3.0 -1.15625q-1.09375 -1.15625 -1.09375 -3.21875q0 -2.0625 1.015625 -3.28125q1.015625 -1.21875 2.734375 -1.21875q1.609375 0 2.546875 1.0625q0.9375 1.046875 0.9375 2.78125l0 0.828125l-5.890625 0q0.03125 1.5 0.75 2.28125q0.734375 0.78125 2.046875 0.78125q1.375 0 2.734375 -0.578125l0 1.15625q-0.6875 0.296875 -1.3125 0.421875q-0.609375 0.140625 -1.46875 0.140625zm-0.359375 -7.796875q-1.03125 0 -1.640625 0.671875q-0.609375 0.671875 -0.71875 1.859375l4.46875 0q0 -1.21875 -0.546875 -1.875q-0.546875 -0.65625 -1.5625 -0.65625zm9.6171875 -1.078125q0.578125 0 1.03125 0.09375l-0.1875 1.203125q-0.53125 -0.125 -0.9375 -0.125q-1.03125 0 -1.78125 0.84375q-0.734375 0.84375 -0.734375 2.109375l0 4.59375l-1.296875 0l0 -8.5625l1.078125 0l0.140625 1.578125l0.0625 0q0.484375 -0.828125 1.15625 -1.28125q0.671875 -0.453125 1.46875 -0.453125zm13.78125 8.71875l-1.578125 -5.03125q-0.140625 -0.453125 -0.546875 -2.09375l-0.0625 0q-0.3125 1.375 -0.546875 2.109375l-1.625 5.015625l-1.5 0l-2.328125 -8.5625l1.359375 0q0.828125 3.21875 1.25 4.90625q0.4375 1.6875 0.5 2.28125l0.0625 0q0.09375 -0.453125 0.28125 -1.15625q0.1875 -0.703125 0.328125 -1.125l1.578125 -4.90625l1.40625 0l1.53125 4.90625q0.4375 1.34375 0.59375 2.265625l0.0625 0q0.03125 -0.28125 0.15625 -0.859375q0.140625 -0.59375 1.640625 -6.3125l1.34375 0l-2.375 8.5625l-1.53125 0zm6.7421875 0l-1.296875 0l0 -8.5625l1.296875 0l0 8.5625zm-1.40625 -10.890625q0 -0.4375 0.21875 -0.640625q0.21875 -0.21875 0.546875 -0.21875q0.3125 0 0.53125 0.21875q0.234375 0.203125 0.234375 0.640625q0 0.4375 -0.234375 0.65625q-0.21875 0.21875 -0.53125 0.21875q-0.328125 0 -0.546875 -0.21875q-0.21875 -0.21875 -0.21875 -0.65625zm8.0625 2.171875q0.578125 0 1.03125 0.09375l-0.1875 1.203125q-0.53125 -0.125 -0.9375 -0.125q-1.03125 0 -1.78125 0.84375q-0.734375 0.84375 -0.734375 2.109375l0 4.59375l-1.296875 0l0 -8.5625l1.078125 0l0.140625 1.578125l0.0625 0q0.484375 -0.828125 1.15625 -1.28125q0.671875 -0.453125 1.46875 -0.453125zm6.25 8.875q-1.90625 0 -3.0 -1.15625q-1.09375 -1.15625 -1.09375 -3.21875q0 -2.0625 1.015625 -3.28125q1.015625 -1.21875 2.734375 -1.21875q1.609375 0 2.546875 1.0625q0.9375 1.046875 0.9375 2.78125l0 0.828125l-5.890625 0q0.03125 1.5 0.75 2.28125q0.734375 0.78125 2.046875 0.78125q1.375 0 2.734375 -0.578125l0 1.15625q-0.6875 0.296875 -1.3125 0.421875q-0.609375 0.140625 -1.46875 0.140625zm-0.359375 -7.796875q-1.03125 0 -1.640625 0.671875q-0.609375 0.671875 -0.71875 1.859375l4.46875 0q0 -1.21875 -0.546875 -1.875q-0.546875 -0.65625 -1.5625 -0.65625z" fill-rule="nonzero"/><path fill="#000000" fill-opacity="0.0" d="m126.45119 0.06633019l156.56694 0l0 31.653543l-156.56694 0z" fill-rule="evenodd"/><path fill="#000000" d="m152.96902 21.753101l-6.359375 0l0 -11.421875l6.359375 0l0 1.171875l-5.03125 0l0 3.6875l4.734375 0l0 1.171875l-4.734375 0l0 4.203125l5.03125 0l0 1.1875zm1.3046875 3.84375q-0.75 0 -1.21875 -0.1875l0 -1.0625q0.546875 0.15625 1.078125 0.15625q0.609375 0 0.890625 -0.328125q0.28125 -0.328125 0.28125 -1.015625l0 -9.96875l1.296875 0l0 9.875q0 2.53125 -2.328125 2.53125zm0.921875 -14.734375q0 -0.4375 0.21875 -0.640625q0.21875 -0.21875 0.546875 -0.21875q0.3125 0 0.53125 0.21875q0.234375 0.203125 0.234375 0.640625q0 0.4375 -0.234375 0.65625q-0.21875 0.21875 -0.53125 0.21875q-0.328125 0 -0.546875 -0.21875q-0.21875 -0.21875 -0.21875 -0.65625zm7.78125 11.046875q-1.90625 0 -3.0 -1.15625q-1.09375 -1.15625 -1.09375 -3.21875q0 -2.0625 1.015625 -3.28125q1.015625 -1.21875 2.734375 -1.21875q1.609375 0 2.546875 1.0625q0.9375 1.046875 0.9375 2.78125l0 0.828125l-5.890625 0q0.03125 1.5 0.75 2.28125q0.734375 0.78125 2.046875 0.78125q1.375 0 2.734375 -0.578125l0 1.15625q-0.6875 0.296875 -1.3125 0.421875q-0.609375 0.140625 -1.46875 0.140625zm-0.359375 -7.796875q-1.03125 0 -1.640625 0.671875q-0.609375 0.671875 -0.71875 1.859375l4.46875 0q0 -1.21875 -0.546875 -1.875q-0.546875 -0.65625 -1.5625 -0.65625zm9.1328125 7.796875q-1.859375 0 -2.875 -1.140625q-1.015625 -1.15625 -1.015625 -3.25q0 -2.140625 1.03125 -3.3125q1.03125 -1.171875 2.953125 -1.171875q0.609375 0 1.21875 0.140625q0.625 0.125 0.984375 0.296875l-0.40625 1.109375q-0.421875 -0.171875 -0.9375 -0.28125q-0.5 -0.125 -0.890625 -0.125q-2.609375 0 -2.609375 3.328125q0 1.578125 0.625 2.421875q0.640625 0.84375 1.890625 0.84375q1.078125 0 2.203125 -0.453125l0 1.140625q-0.859375 0.453125 -2.171875 0.453125zm6.9609375 -1.078125q0.34375 0 0.65625 -0.046875q0.328125 -0.046875 0.515625 -0.109375l0 1.0q-0.203125 0.109375 -0.625 0.171875q-0.40625 0.0625 -0.734375 0.0625q-2.484375 0 -2.484375 -2.625l0 -5.09375l-1.21875 0l0 -0.625l1.21875 -0.53125l0.546875 -1.828125l0.75 0l0 1.984375l2.484375 0l0 1.0l-2.484375 0l0 5.046875q0 0.765625 0.359375 1.1875q0.375 0.40625 1.015625 0.40625zm6.5078125 1.078125q-1.90625 0 -3.0 -1.15625q-1.09375 -1.15625 -1.09375 -3.21875q0 -2.0625 1.015625 -3.28125q1.015625 -1.21875 2.734375 -1.21875q1.609375 0 2.546875 1.0625q0.9375 1.046875 0.9375 2.78125l0 0.828125l-5.890625 0q0.03125 1.5 0.75 2.28125q0.734375 0.78125 2.046875 0.78125q1.375 0 2.734375 -0.578125l0 1.15625q-0.6875 0.296875 -1.3125 0.421875q-0.609375 0.140625 -1.46875 0.140625zm-0.359375 -7.796875q-1.03125 0 -1.640625 0.671875q-0.609375 0.671875 -0.71875 1.859375l4.46875 0q0 -1.21875 -0.546875 -1.875q-0.546875 -0.65625 -1.5625 -0.65625zm11.5390625 6.484375l-0.0625 0q-0.90625 1.3125 -2.6875 1.3125q-1.6875 0 -2.625 -1.140625q-0.921875 -1.15625 -0.921875 -3.28125q0 -2.109375 0.9375 -3.28125q0.9375 -1.171875 2.609375 -1.171875q1.734375 0 2.671875 1.265625l0.09375 0l-0.046875 -0.625l-0.03125 -0.59375l0 -3.484375l1.296875 0l0 12.15625l-1.0625 0l-0.171875 -1.15625zm-2.59375 0.21875q1.328125 0 1.921875 -0.71875q0.609375 -0.71875 0.609375 -2.328125l0 -0.28125q0 -1.8125 -0.609375 -2.59375q-0.609375 -0.78125 -1.9375 -0.78125q-1.140625 0 -1.75 0.890625q-0.59375 0.890625 -0.59375 2.5q0 1.640625 0.59375 2.484375q0.609375 0.828125 1.765625 0.828125zm14.3515625 1.09375q-1.90625 0 -3.0 -1.15625q-1.09375 -1.15625 -1.09375 -3.21875q0 -2.0625 1.015625 -3.28125q1.015625 -1.21875 2.734375 -1.21875q1.609375 0 2.546875 1.0625q0.9375 1.046875 0.9375 2.78125l0 0.828125l-5.890625 0q0.03125 1.5 0.75 2.28125q0.734375 0.78125 2.046875 0.78125q1.375 0 2.734375 -0.578125l0 1.15625q-0.6875 0.296875 -1.3125 0.421875q-0.609375 0.140625 -1.46875 0.140625zm-0.359375 -7.796875q-1.03125 0 -1.640625 0.671875q-0.609375 0.671875 -0.71875 1.859375l4.46875 0q0 -1.21875 -0.546875 -1.875q-0.546875 -0.65625 -1.5625 -0.65625zm7.0078125 7.640625l-1.296875 0l0 -12.15625l1.296875 0l0 12.15625zm6.375 0.15625q-1.90625 0 -3.0 -1.15625q-1.09375 -1.15625 -1.09375 -3.21875q0 -2.0625 1.015625 -3.28125q1.015625 -1.21875 2.734375 -1.21875q1.609375 0 2.546875 1.0625q0.9375 1.046875 0.9375 2.78125l0 0.828125l-5.890625 0q0.03125 1.5 0.75 2.28125q0.734375 0.78125 2.046875 0.78125q1.375 0 2.734375 -0.578125l0 1.15625q-0.6875 0.296875 -1.3125 0.421875q-0.609375 0.140625 -1.46875 0.140625zm-0.359375 -7.796875q-1.03125 0 -1.640625 0.671875q-0.609375 0.671875 -0.71875 1.859375l4.46875 0q0 -1.21875 -0.546875 -1.875q-0.546875 -0.65625 -1.5625 -0.65625zm9.1328125 7.796875q-1.859375 0 -2.875 -1.140625q-1.015625 -1.15625 -1.015625 -3.25q0 -2.140625 1.03125 -3.3125q1.03125 -1.171875 2.953125 -1.171875q0.609375 0 1.21875 0.140625q0.625 0.125 0.984375 0.296875l-0.40625 1.109375q-0.421875 -0.171875 -0.9375 -0.28125q-0.5 -0.125 -0.890625 -0.125q-2.609375 0 -2.609375 3.328125q0 1.578125 0.625 2.421875q0.640625 0.84375 1.890625 0.84375q1.078125 0 2.203125 -0.453125l0 1.140625q-0.859375 0.453125 -2.171875 0.453125zm6.9609375 -1.078125q0.34375 0 0.65625 -0.046875q0.328125 -0.046875 0.515625 -0.109375l0 1.0q-0.203125 0.109375 -0.625 0.171875q-0.40625 0.0625 -0.734375 0.0625q-2.484375 0 -2.484375 -2.625l0 -5.09375l-1.21875 0l0 -0.625l1.21875 -0.53125l0.546875 -1.828125l0.75 0l0 1.984375l2.484375 0l0 1.0l-2.484375 0l0 5.046875q0 0.765625 0.359375 1.1875q0.375 0.40625 1.015625 0.40625zm6.7890625 -7.796875q0.578125 0 1.03125 0.09375l-0.1875 1.203125q-0.53125 -0.125 -0.9375 -0.125q-1.03125 0 -1.78125 0.84375q-0.734375 0.84375 -0.734375 2.109375l0 4.59375l-1.296875 0l0 -8.5625l1.078125 0l0.140625 1.578125l0.0625 0q0.484375 -0.828125 1.15625 -1.28125q0.671875 -0.453125 1.46875 -0.453125zm10.015625 4.421875q0 2.09375 -1.0625 3.28125q-1.046875 1.171875 -2.90625 1.171875q-1.140625 0 -2.03125 -0.53125q-0.890625 -0.546875 -1.375 -1.546875q-0.484375 -1.015625 -0.484375 -2.375q0 -2.09375 1.046875 -3.25q1.046875 -1.171875 2.90625 -1.171875q1.796875 0 2.84375 1.203125q1.0625 1.1875 1.0625 3.21875zm-6.515625 0q0 1.640625 0.65625 2.5q0.65625 0.859375 1.921875 0.859375q1.28125 0 1.9375 -0.84375q0.65625 -0.859375 0.65625 -2.515625q0 -1.625 -0.65625 -2.46875q-0.65625 -0.859375 -1.953125 -0.859375q-1.265625 0 -1.921875 0.84375q-0.640625 0.828125 -0.640625 2.484375zm14.6484375 4.296875l0 -5.546875q0 -1.046875 -0.484375 -1.5625q-0.46875 -0.515625 -1.484375 -0.515625q-1.34375 0 -1.96875 0.734375q-0.625 0.71875 -0.625 2.390625l0 4.5l-1.296875 0l0 -8.5625l1.0625 0l0.203125 1.171875l0.0625 0q0.40625 -0.640625 1.125 -0.984375q0.71875 -0.34375 1.59375 -0.34375q1.546875 0 2.328125 0.75q0.78125 0.734375 0.78125 2.375l0 5.59375l-1.296875 0z" fill-rule="nonzero"/></g></svg>