<svg version="1.1" viewBox="0.0 0.0 725.6404199475065 352.501312335958" fill="none" stroke="none" stroke-linecap="square" stroke-miterlimit="10" xmlns:xlink="http://www.w3.org/1999/xlink" xmlns="http://www.w3.org/2000/svg"><clipPath id="p.0"><path d="m0 0l725.64044 0l0 352.5013l-725.64044 0l0 -352.5013z" clip-rule="nonzero"/></clipPath><g clip-path="url(#p.0)"><path fill="#000000" fill-opacity="0.0" d="m0 0l725.64044 0l0 352.5013l-725.64044 0z" fill-rule="evenodd"/><path fill="#000000" fill-opacity="0.0" d="m225.70341 246.51575c14.531494 -13.906387 52.18898 -67.03194 87.18898 -83.438324c35.0 -16.406387 102.3425 -12.5 122.811005 -15.0" fill-rule="evenodd"/><path stroke="#000000" stroke-width="2.0" stroke-linejoin="round" stroke-linecap="butt" d="m225.70341 246.51575c14.531494 -13.906387 52.18898 -67.03194 87.18898 -83.438324c35.0 -16.406387 102.3425 -12.5 122.811005 -15.0" fill-rule="evenodd"/><path fill="#000000" fill-opacity="0.0" d="m188.20473 245.57611c15.156158 14.062561 43.905945 85.9379 90.937 84.375336c47.031067 -1.562561 124.21829 -76.87576 191.24936 -93.750656c67.03104 -16.874893 181.87442 7.8136444 210.93698 -7.4986877c29.062561 -15.312332 -30.468018 -70.312775 -36.561646 -84.375336" fill-rule="evenodd"/><path stroke="#000000" stroke-width="2.0" stroke-linejoin="round" stroke-linecap="butt" d="m188.20473 245.57611c15.156158 14.062561 43.905945 85.9379 90.937 84.375336c47.031067 -1.562561 124.21829 -76.87576 191.24936 -93.750656c67.03104 -16.874893 181.87442 7.8136444 210.93698 -7.4986877c29.062561 -15.312332 -30.468018 -70.312775 -36.561646 -84.375336" fill-rule="evenodd"/><path fill="#434343" d="m182.58005 222.14043l11.244095 0l0 28.125977l-11.244095 0z" fill-rule="evenodd"/><defs><radialGradient id="p.1" gradientUnits="userSpaceOnUse" gradientTransform="matrix(7.376050558543617 0.0 0.0 -7.376050558543617 0.0 0.0)" spreadMethod="pad" cx="27.738920002515716" cy="-22.287116187146026" fx="27.738920002515716" fy="-22.287116187146026" r="7.3760504722595215"><stop offset="0.0" stop-color="#fff6db"/><stop offset="1.0" stop-color="#fad25c"/></radialGradient></defs><path fill="url(#p.1)" d="m156.95013 138.13893l13.125977 52.503937l69.05513 0l13.125977 -52.503937z" fill-rule="evenodd"/><defs><radialGradient id="p.2" gradientUnits="userSpaceOnUse" gradientTransform="matrix(9.872094056465999 0.0 0.0 9.872094056465999 0.0 0.0)" spreadMethod="pad" cx="20.725458385059817" cy="9.254991008968428" fx="20.725458385059817" fy="9.254991008968428" r="9.87209415435791"><stop offset="0.0" stop-color="#fff6db"/><stop offset="1.0" stop-color="#fad25c"/></radialGradient></defs><path fill="url(#p.2)" d="m135.69029 91.36614l0 0c0 -38.059814 30.853577 -68.91339 68.913376 -68.91339l0 0c18.276978 0 35.80536 7.260498 48.729126 20.184265c12.923767 12.923767 20.184265 30.452152 20.184265 48.729122l0 0c0 38.059807 -30.853577 68.91338 -68.91339 68.91338l0 0c-38.0598 0 -68.913376 -30.853577 -68.913376 -68.91338z" fill-rule="evenodd"/><path fill="#000000" fill-opacity="0.0" d="m170.39206 104.95407l15.937012 86.23622" fill-rule="evenodd"/><path stroke="#ffffff" stroke-width="2.0" stroke-linejoin="round" stroke-linecap="butt" d="m170.39206 104.95407l15.937012 86.23622" fill-rule="evenodd"/><path fill="#000000" fill-opacity="0.0" d="m221.20456 191.19029l15.937012 -86.23622" fill-rule="evenodd"/><path stroke="#ffffff" stroke-width="2.0" stroke-linejoin="round" stroke-linecap="butt" d="m221.20456 191.19029l15.937012 -86.23622" fill-rule="evenodd"/><path fill="#000000" fill-opacity="0.0" d="m170.37796 105.421585c5.5467987 -3.3202057 22.148285 -19.960625 33.280838 -19.921257c11.132538 0.039367676 27.928696 16.797897 33.514435 20.157478" fill-rule="evenodd"/><path stroke="#ff9900" stroke-width="2.0" stroke-linejoin="round" stroke-linecap="butt" d="m170.37796 105.421585c5.5467987 -3.3202057 22.148285 -19.960625 33.280838 -19.921257c11.132538 0.039367676 27.928696 16.797897 33.514435 20.157478" fill-rule="evenodd"/><path fill="#cccccc" d="m176.80089 189.70424l54.68181 0l0 0c7.163452 0 12.970596 4.51297 12.970596 10.079987c0 5.567032 -5.807144 10.080002 -12.970596 10.080002l-54.68181 0l0 0c-7.163452 0 -12.970596 -4.51297 -12.970596 -10.080002c0 -5.5670166 5.807144 -10.079987 12.970596 -10.079987z" fill-rule="evenodd"/><path stroke="#ffffff" stroke-width="1.0" stroke-linejoin="round" stroke-linecap="butt" d="m176.80089 189.70424l54.68181 0l0 0c7.163452 0 12.970596 4.51297 12.970596 10.079987c0 5.567032 -5.807144 10.080002 -12.970596 10.080002l-54.68181 0l0 0c-7.163452 0 -12.970596 -4.51297 -12.970596 -10.080002c0 -5.5670166 5.807144 -10.079987 12.970596 -10.079987z" fill-rule="evenodd"/><path fill="#434343" d="m219.76755 222.14043l11.244095 0l0 28.125977l-11.244095 0z" fill-rule="evenodd"/><path fill="#cccccc" d="m176.80089 209.45505l54.68181 0l0 0c7.163452 0 12.970596 4.51297 12.970596 10.080002c0 5.567032 -5.807144 10.080002 -12.970596 10.080002l-54.68181 0l0 0c-7.163452 0 -12.970596 -4.51297 -12.970596 -10.080002c0 -5.567032 5.807144 -10.080002 12.970596 -10.080002z" fill-rule="evenodd"/><path stroke="#ffffff" stroke-width="1.0" stroke-linejoin="round" stroke-linecap="butt" d="m176.80089 209.45505l54.68181 0l0 0c7.163452 0 12.970596 4.51297 12.970596 10.080002c0 5.567032 -5.807144 10.080002 -12.970596 10.080002l-54.68181 0l0 0c-7.163452 0 -12.970596 -4.51297 -12.970596 -10.080002c0 -5.567032 5.807144 -10.080002 12.970596 -10.080002z" fill-rule="evenodd"/><path fill="#cfe2f3" d="m452.21 179.22713l0 0c-5.734619 0 -10.383423 -4.6488037 -10.383423 -10.383408l0 -41.532387l0 0c0 -2.7538528 1.0939636 -5.3949127 3.0412292 -7.342186c1.9472656 -1.9472656 4.5883484 -3.0412292 7.3421936 -3.0412292l184.17807 0c5.734558 0 10.383423 4.6488113 10.383423 10.383415l0 41.532387c0 5.734604 -4.6488647 10.383408 -10.383423 10.383408z" fill-rule="evenodd"/><path stroke="#000000" stroke-width="2.0" stroke-linejoin="round" stroke-linecap="butt" d="m452.21 179.22713l0 0c-5.734619 0 -10.383423 -4.6488037 -10.383423 -10.383408l0 -41.532387l0 0c0 -2.7538528 1.0939636 -5.3949127 3.0412292 -7.342186c1.9472656 -1.9472656 4.5883484 -3.0412292 7.3421936 -3.0412292l184.17807 0c5.734558 0 10.383423 4.6488113 10.383423 10.383415l0 41.532387c0 5.734604 -4.6488647 10.383408 -10.383423 10.383408z" fill-rule="evenodd"/><path fill="#cfe2f3" d="m431.7936 167.5295l0 -40.05242c0 -0.44412994 0.17642212 -0.8700638 0.49047852 -1.1841049c0.31402588 -0.31404114 0.7399597 -0.4904709 1.184082 -0.4904709l8.372681 0c2.1362305E-4 0 3.6621094E-4 1.6021729E-4 3.6621094E-4 3.5858154E-4l-3.6621094E-4 43.401215l0 0c0 1.9836426E-4 -1.5258789E-4 3.6621094E-4 -3.6621094E-4 3.6621094E-4l-8.372314 -3.6621094E-4l0 0c-0.9248352 0 -1.6745605 -0.74972534 -1.6745605 -1.6745758z" fill-rule="evenodd"/><path stroke="#000000" stroke-width="2.0" stroke-linejoin="round" stroke-linecap="butt" d="m431.7936 167.5295l0 -40.05242c0 -0.44412994 0.17642212 -0.8700638 0.49047852 -1.1841049c0.31402588 -0.31404114 0.7399597 -0.4904709 1.184082 -0.4904709l8.372681 0c2.1362305E-4 0 3.6621094E-4 1.6021729E-4 3.6621094E-4 3.5858154E-4l-3.6621094E-4 43.401215l0 0c0 1.9836426E-4 -1.5258789E-4 3.6621094E-4 -3.6621094E-4 3.6621094E-4l-8.372314 -3.6621094E-4l0 0c-0.9248352 0 -1.6745605 -0.74972534 -1.6745605 -1.6745758z" fill-rule="evenodd"/><path fill="#000000" fill-opacity="0.0" d="m504.19937 179.22713l0 -62.29921" fill-rule="evenodd"/><path stroke="#000000" stroke-width="2.0" stroke-linejoin="round" stroke-linecap="butt" d="m504.19937 179.22713l0 -62.29921" fill-rule="evenodd"/><path fill="#ffffff" d="m452.5575 144.20288l7.0272827 0l0 -7.0272675l6.6152344 0l0 7.0272675l7.0272827 0l0 6.6152344l-7.0272827 0l0 7.0272827l-6.6152344 0l0 -7.0272827l-7.0272827 0z" fill-rule="evenodd"/><path stroke="#ffffff" stroke-width="1.0" stroke-linejoin="round" stroke-linecap="butt" d="m452.5575 144.20288l7.0272827 0l0 -7.0272675l6.6152344 0l0 7.0272675l7.0272827 0l0 6.6152344l-7.0272827 0l0 7.0272827l-6.6152344 0l0 -7.0272827l-7.0272827 0z" fill-rule="evenodd"/><path fill="#ffffff" d="m614.74646 144.20288l20.6698 0l0 6.6152344l-20.6698 0z" fill-rule="evenodd"/><path stroke="#ffffff" stroke-width="1.0" stroke-linejoin="round" stroke-linecap="butt" d="m614.74646 144.20288l20.6698 0l0 6.6152344l-20.6698 0z" fill-rule="evenodd"/><path fill="#000000" fill-opacity="0.0" d="m86.95801 72.64567l106.866135 14.047249" fill-rule="evenodd"/><path stroke="#666666" stroke-width="1.0" stroke-linejoin="round" stroke-linecap="butt" d="m86.95801 72.64567l100.91733 13.265289" fill-rule="evenodd"/><path fill="#666666" stroke="#666666" stroke-width="1.0" stroke-linecap="butt" d="m187.66005 87.5486l4.7146606 -1.0462112l-4.284134 -2.2290726z" fill-rule="evenodd"/><path fill="#000000" fill-opacity="0.0" d="m36.32021 40.519684l99.37009 0l0 32.125984l-99.37009 0z" fill-rule="evenodd"/><path fill="#000000" d="m56.622437 64.879684l-1.328125 0l0 -11.421875l6.359375 0l0 1.171875l-5.03125 0l0 4.1875l4.734375 0l0 1.171875l-4.734375 0l0 4.890625zm8.0234375 0l-1.296875 0l0 -8.5625l1.296875 0l0 8.5625zm-1.40625 -10.890625q0 -0.4375 0.21875 -0.640625q0.21875 -0.21875 0.546875 -0.21875q0.3125 0 0.53125 0.21875q0.234375 0.203125 0.234375 0.640625q0 0.4375 -0.234375 0.65625q-0.21875 0.21875 -0.53125 0.21875q-0.328125 0 -0.546875 -0.21875q-0.21875 -0.21875 -0.21875 -0.65625zm5.453125 10.890625l-1.296875 0l0 -12.15625l1.296875 0l0 12.15625zm8.015625 0l-0.25 -1.21875l-0.0625 0q-0.640625 0.796875 -1.28125 1.09375q-0.640625 0.28125 -1.59375 0.28125q-1.265625 0 -2.0 -0.65625q-0.71875 -0.65625 -0.71875 -1.875q0 -2.59375 4.15625 -2.71875l1.453125 -0.046875l0 -0.53125q0 -1.0 -0.4375 -1.484375q-0.4375 -0.484375 -1.390625 -0.484375q-1.0625 0 -2.421875 0.65625l-0.390625 -0.984375q0.625 -0.34375 1.375 -0.53125q0.765625 -0.203125 1.515625 -0.203125q1.53125 0 2.265625 0.6875q0.75 0.671875 0.75 2.171875l0 5.84375l-0.96875 0zm-2.921875 -0.921875q1.203125 0 1.890625 -0.65625q0.703125 -0.671875 0.703125 -1.859375l0 -0.78125l-1.296875 0.0625q-1.546875 0.046875 -2.234375 0.484375q-0.6875 0.421875 -0.6875 1.3125q0 0.703125 0.421875 1.078125q0.4375 0.359375 1.203125 0.359375zm17.476562 0.921875l0 -5.578125q0 -1.015625 -0.4375 -1.53125q-0.4375 -0.515625 -1.359375 -0.515625q-1.21875 0 -1.796875 0.703125q-0.578125 0.6875 -0.578125 2.140625l0 4.78125l-1.296875 0l0 -5.578125q0 -1.015625 -0.4375 -1.53125q-0.4375 -0.515625 -1.359375 -0.515625q-1.21875 0 -1.796875 0.734375q-0.5625 0.734375 -0.5625 2.390625l0 4.5l-1.296875 0l0 -8.5625l1.0625 0l0.203125 1.171875l0.0625 0q0.375 -0.625 1.03125 -0.96875q0.671875 -0.359375 1.5 -0.359375q2.015625 0 2.625 1.453125l0.0625 0q0.390625 -0.671875 1.109375 -1.0625q0.734375 -0.390625 1.65625 -0.390625q1.453125 0 2.171875 0.75q0.734375 0.734375 0.734375 2.375l0 5.59375l-1.296875 0zm7.5859375 0.15625q-1.90625 0 -3.0 -1.15625q-1.09375 -1.15625 -1.09375 -3.21875q0 -2.0625 1.015625 -3.28125q1.015625 -1.21875 2.734375 -1.21875q1.609375 0 2.5468826 1.0625q0.9375 1.046875 0.9375 2.78125l0 0.828125l-5.8906326 0q0.03125 1.5 0.75 2.28125q0.734375 0.78125 2.046875 0.78125q1.375 0 2.7343826 -0.578125l0 1.15625q-0.6875 0.296875 -1.3125076 0.421875q-0.609375 0.140625 -1.46875 0.140625zm-0.359375 -7.796875q-1.03125 0 -1.640625 0.671875q-0.609375 0.671875 -0.71875 1.859375l4.4687576 0q0 -1.21875 -0.5468826 -1.875q-0.546875 -0.65625 -1.5625 -0.65625zm11.57032 7.640625l0 -5.546875q0 -1.046875 -0.484375 -1.5625q-0.46875 -0.515625 -1.484375 -0.515625q-1.34375 0 -1.96875 0.734375q-0.625 0.71875 -0.625 2.390625l0 4.5l-1.296875 0l0 -8.5625l1.0625 0l0.203125 1.171875l0.0625 0q0.40625 -0.640625 1.125 -0.984375q0.71875 -0.34375 1.59375 -0.34375q1.546875 0 2.328125 0.75q0.78125 0.734375 0.78125 2.375l0 5.59375l-1.296875 0zm6.7265625 -0.921875q0.34375 0 0.65625 -0.046875q0.328125 -0.046875 0.515625 -0.109375l0 1.0q-0.203125 0.109375 -0.625 0.171875q-0.40625 0.0625 -0.734375 0.0625q-2.484375 0 -2.484375 -2.625l0 -5.09375l-1.21875 0l0 -0.625l1.21875 -0.53125l0.546875 -1.828125l0.75 0l0 1.984375l2.484375 0l0 1.0l-2.484375 0l0 5.046875q0 0.765625 0.359375 1.1875q0.375 0.40625 1.015625 0.40625z" fill-rule="nonzero"/><path fill="#000000" fill-opacity="0.0" d="m323.44897 71.249344l-101.25983 -18.740158" fill-rule="evenodd"/><path stroke="#666666" stroke-width="1.0" stroke-linejoin="round" stroke-linecap="butt" d="m323.44897 71.249344l-95.360016 -17.648277" fill-rule="evenodd"/><path fill="#666666" stroke="#666666" stroke-width="1.0" stroke-linecap="butt" d="m228.38954 51.976913l-4.762909 0.7983093l4.161743 2.4499931z" fill-rule="evenodd"/><path fill="#000000" fill-opacity="0.0" d="m292.51196 63.6063l275.33862 0l0 32.125984l-275.33862 0z" fill-rule="evenodd"/><path fill="#000000" d="m308.1057 81.981926l3.890625 0l0 5.546875q-0.90625 0.296875 -1.84375 0.4375q-0.9375 0.15625 -2.171875 0.15625q-2.59375 0 -4.046875 -1.546875q-1.4375 -1.546875 -1.4375 -4.328125q0 -1.78125 0.703125 -3.109375q0.71875 -1.34375 2.0625 -2.046875q1.34375 -0.71875 3.15625 -0.71875q1.828125 0 3.40625 0.671875l-0.515625 1.171875q-1.546875 -0.65625 -2.984375 -0.65625q-2.078125 0 -3.25 1.25q-1.171875 1.234375 -1.171875 3.4375q0 2.3125 1.125 3.515625q1.125 1.1875 3.3125 1.1875q1.1875 0 2.328125 -0.265625l0 -3.515625l-2.5625 0l0 -1.1875zm7.7265625 5.984375l-1.296875 0l0 -12.15625l1.296875 0l0 12.15625zm8.015625 0l-0.25 -1.21875l-0.0625 0q-0.640625 0.796875 -1.28125 1.09375q-0.640625 0.28125 -1.59375 0.28125q-1.265625 0 -2.0 -0.65625q-0.71875 -0.65625 -0.71875 -1.875q0 -2.59375 4.15625 -2.71875l1.453125 -0.046875l0 -0.53125q0 -1.0 -0.4375 -1.484375q-0.4375 -0.484375 -1.390625 -0.484375q-1.0625 0 -2.421875 0.65625l-0.390625 -0.984375q0.625 -0.34375 1.375 -0.53125q0.765625 -0.203125 1.515625 -0.203125q1.53125 0 2.265625 0.6875q0.75 0.671875 0.75 2.171875l0 5.84375l-0.96875 0zm-2.921875 -0.921875q1.203125 0 1.890625 -0.65625q0.703125 -0.671875 0.703125 -1.859375l0 -0.78125l-1.296875 0.0625q-1.546875 0.046875 -2.234375 0.484375q-0.6875 0.421875 -0.6875 1.3125q0 0.703125 0.421875 1.078125q0.4375 0.359375 1.203125 0.359375zm12.0859375 -1.421875q0 1.203125 -0.890625 1.859375q-0.890625 0.640625 -2.5 0.640625q-1.703125 0 -2.65625 -0.546875l0 -1.203125q0.609375 0.3125 1.3125 0.5q0.71875 0.171875 1.375 0.171875q1.015625 0 1.5625 -0.3125q0.546875 -0.328125 0.546875 -1.0q0 -0.5 -0.4375 -0.84375q-0.4375 -0.359375 -1.6875 -0.84375q-1.203125 -0.453125 -1.703125 -0.78125q-0.5 -0.328125 -0.75 -0.75q-0.25 -0.421875 -0.25 -1.015625q0 -1.046875 0.84375 -1.640625q0.859375 -0.609375 2.34375 -0.609375q1.390625 0 2.703125 0.5625l-0.453125 1.046875q-1.296875 -0.53125 -2.34375 -0.53125q-0.921875 0 -1.390625 0.296875q-0.46875 0.28125 -0.46875 0.796875q0 0.34375 0.171875 0.59375q0.1875 0.234375 0.578125 0.453125q0.390625 0.21875 1.5 0.625q1.515625 0.5625 2.046875 1.125q0.546875 0.5625 0.546875 1.40625zm7.6328125 0q0 1.203125 -0.890625 1.859375q-0.890625 0.640625 -2.5 0.640625q-1.703125 0 -2.65625 -0.546875l0 -1.203125q0.609375 0.3125 1.3125 0.5q0.71875 0.171875 1.375 0.171875q1.015625 0 1.5625 -0.3125q0.546875 -0.328125 0.546875 -1.0q0 -0.5 -0.4375 -0.84375q-0.4375 -0.359375 -1.6875 -0.84375q-1.203125 -0.453125 -1.703125 -0.78125q-0.5 -0.328125 -0.75 -0.75q-0.25 -0.421875 -0.25 -1.015625q0 -1.046875 0.84375 -1.640625q0.859375 -0.609375 2.34375 -0.609375q1.390625 0 2.703125 0.5625l-0.453125 1.046875q-1.296875 -0.53125 -2.34375 -0.53125q-0.921875 0 -1.390625 0.296875q-0.46875 0.28125 -0.46875 0.796875q0 0.34375 0.171875 0.59375q0.1875 0.234375 0.578125 0.453125q0.390625 0.21875 1.5 0.625q1.515625 0.5625 2.046875 1.125q0.546875 0.5625 0.546875 1.40625zm13.2734375 -6.21875l0 0.8125l-1.59375 0.1875q0.21875 0.28125 0.390625 0.71875q0.171875 0.4375 0.171875 1.0q0 1.25 -0.859375 2.0q-0.859375 0.75 -2.359375 0.75q-0.375 0 -0.71875 -0.0625q-0.828125 0.4375 -0.828125 1.109375q0 0.34375 0.28125 0.515625q0.296875 0.171875 1.0 0.171875l1.515625 0q1.390625 0 2.140625 0.59375q0.75 0.578125 0.75 1.703125q0 1.421875 -1.140625 2.15625q-1.140625 0.75 -3.328125 0.75q-1.6875 0 -2.59375 -0.625q-0.90625 -0.625 -0.90625 -1.765625q0 -0.78125 0.5 -1.359375q0.5 -0.5625 1.40625 -0.765625q-0.328125 -0.15625 -0.5625 -0.46875q-0.21875 -0.3125 -0.21875 -0.71875q0 -0.46875 0.25 -0.8125q0.25 -0.359375 0.796875 -0.6875q-0.671875 -0.28125 -1.09375 -0.9375q-0.40625 -0.65625 -0.40625 -1.5q0 -1.40625 0.84375 -2.15625q0.84375 -0.765625 2.390625 -0.765625q0.671875 0 1.203125 0.15625l2.96875 0zm-6.828125 10.0q0 0.703125 0.578125 1.0625q0.59375 0.359375 1.6875 0.359375q1.625 0 2.40625 -0.5q0.796875 -0.484375 0.796875 -1.3125q0 -0.703125 -0.4375 -0.984375q-0.421875 -0.265625 -1.609375 -0.265625l-1.5625 0q-0.875 0 -1.375 0.421875q-0.484375 0.4375 -0.484375 1.21875zm0.703125 -7.265625q0 0.90625 0.5 1.375q0.515625 0.453125 1.421875 0.453125q1.890625 0 1.890625 -1.84375q0 -1.9375 -1.921875 -1.9375q-0.90625 0 -1.40625 0.5q-0.484375 0.484375 -0.484375 1.453125zm9.171875 5.828125l-1.296875 0l0 -12.15625l1.296875 0l0 12.15625zm10.140625 -4.296875q0 2.09375 -1.0625 3.28125q-1.046875 1.171875 -2.90625 1.171875q-1.140625 0 -2.03125 -0.53125q-0.890625 -0.546875 -1.375 -1.546875q-0.484375 -1.015625 -0.484375 -2.375q0 -2.09375 1.046875 -3.25q1.046875 -1.171875 2.90625 -1.171875q1.796875 0 2.84375 1.203125q1.0625 1.1875 1.0625 3.21875zm-6.515625 0q0 1.640625 0.65625 2.5q0.65625 0.859375 1.921875 0.859375q1.28125 0 1.9375 -0.84375q0.65625 -0.859375 0.65625 -2.515625q0 -1.625 -0.65625 -2.46875q-0.65625 -0.859375 -1.953125 -0.859375q-1.265625 0 -1.921875 0.84375q-0.640625 0.828125 -0.640625 2.484375zm12.7734375 -4.40625q1.6875 0 2.625 1.15625q0.9375 1.140625 0.9375 3.25q0 2.109375 -0.953125 3.28125q-0.9375 1.171875 -2.609375 1.171875q-0.828125 0 -1.53125 -0.3125q-0.6875 -0.3125 -1.15625 -0.953125l-0.09375 0l-0.265625 1.109375l-0.9375 0l0 -12.15625l1.296875 0l0 2.953125q0 0.984375 -0.0625 1.78125l0.0625 0q0.90625 -1.28125 2.6875 -1.28125zm-0.1875 1.078125q-1.328125 0 -1.921875 0.765625q-0.578125 0.765625 -0.578125 2.5625q0 1.8125 0.59375 2.59375q0.609375 0.765625 1.9375 0.765625q1.203125 0 1.78125 -0.859375q0.59375 -0.875 0.59375 -2.515625q0 -1.671875 -0.59375 -2.484375q-0.578125 -0.828125 -1.8125 -0.828125zm9.6328125 7.78125q-1.90625 0 -3.0 -1.15625q-1.09375 -1.15625 -1.09375 -3.21875q0 -2.0625 1.015625 -3.28125q1.015625 -1.21875 2.734375 -1.21875q1.609375 0 2.546875 1.0625q0.9375 1.046875 0.9375 2.78125l0 0.828125l-5.890625 0q0.03125 1.5 0.75 2.28125q0.734375 0.78125 2.046875 0.78125q1.375 0 2.734375 -0.578125l0 1.15625q-0.6875 0.296875 -1.3125 0.421875q-0.609375 0.140625 -1.46875 0.140625zm-0.359375 -7.796875q-1.03125 0 -1.640625 0.671875q-0.609375 0.671875 -0.71875 1.859375l4.46875 0q0 -1.21875 -0.546875 -1.875q-0.546875 -0.65625 -1.5625 -0.65625zm13.7265625 0.078125l-2.171875 0l0 7.5625l-1.296875 0l0 -7.5625l-1.53125 0l0 -0.578125l1.53125 -0.46875l0 -0.484375q0 -3.15625 2.75 -3.15625q0.6875 0 1.59375 0.28125l-0.328125 1.03125q-0.75 -0.234375 -1.28125 -0.234375q-0.734375 0 -1.09375 0.484375q-0.34375 0.484375 -0.34375 1.5625l0 0.5625l2.171875 0l0 1.0zm2.4375 7.5625l-1.296875 0l0 -8.5625l1.296875 0l0 8.5625zm-1.40625 -10.890625q0 -0.4375 0.21875 -0.640625q0.21875 -0.21875 0.546875 -0.21875q0.3125 0 0.53125 0.21875q0.234375 0.203125 0.234375 0.640625q0 0.4375 -0.234375 0.65625q-0.21875 0.21875 -0.53125 0.21875q-0.328125 0 -0.546875 -0.21875q-0.21875 -0.21875 -0.21875 -0.65625zm5.875 10.890625l-1.296875 0l0 -12.15625l1.296875 0l0 12.15625zm4.046875 0l-1.296875 0l0 -12.15625l1.296875 0l0 12.15625zm6.375 0.15625q-1.90625 0 -3.0 -1.15625q-1.09375 -1.15625 -1.09375 -3.21875q0 -2.0625 1.015625 -3.28125q1.015625 -1.21875 2.734375 -1.21875q1.609375 0 2.546875 1.0625q0.9375 1.046875 0.9375 2.78125l0 0.828125l-5.890625 0q0.03125 1.5 0.75 2.28125q0.734375 0.78125 2.046875 0.78125q1.375 0 2.734375 -0.578125l0 1.15625q-0.6875 0.296875 -1.3125 0.421875q-0.609375 0.140625 -1.46875 0.140625zm-0.359375 -7.796875q-1.03125 0 -1.640625 0.671875q-0.609375 0.671875 -0.71875 1.859375l4.46875 0q0 -1.21875 -0.546875 -1.875q-0.546875 -0.65625 -1.5625 -0.65625zm11.5390625 6.484375l-0.0625 0q-0.90625 1.3125 -2.6875 1.3125q-1.6875 0 -2.625 -1.140625q-0.921875 -1.15625 -0.921875 -3.28125q0 -2.109375 0.9375 -3.28125q0.9375 -1.171875 2.609375 -1.171875q1.734375 0 2.671875 1.265625l0.09375 0l-0.046875 -0.625l-0.03125 -0.59375l0 -3.484375l1.296875 0l0 12.15625l-1.0625 0l-0.171875 -1.15625zm-2.59375 0.21875q1.328125 0 1.921875 -0.71875q0.609375 -0.71875 0.609375 -2.328125l0 -0.28125q0 -1.8125 -0.609375 -2.59375q-0.609375 -0.78125 -1.9375 -0.78125q-1.140625 0 -1.75 0.890625q-0.59375 0.890625 -0.59375 2.5q0 1.640625 0.59375 2.484375q0.609375 0.828125 1.765625 0.828125zm17.726562 0.9375l-1.578125 -5.03125q-0.140625 -0.453125 -0.546875 -2.09375l-0.0625 0q-0.3125 1.375 -0.546875 2.109375l-1.625 5.015625l-1.5 0l-2.328125 -8.5625l1.359375 0q0.828125 3.21875 1.25 4.90625q0.4375 1.6875 0.5 2.28125l0.0625 0q0.09375 -0.453125 0.28125 -1.15625q0.1875 -0.703125 0.328125 -1.125l1.578125 -4.90625l1.40625 0l1.53125 4.90625q0.4375 1.34375 0.59375 2.265625l0.0625 0q0.03125 -0.28125 0.15625 -0.859375q0.140625 -0.59375 1.640625 -6.3125l1.34375 0l-2.375 8.5625l-1.53125 0zm6.7421875 0l-1.296875 0l0 -8.5625l1.296875 0l0 8.5625zm-1.40625 -10.890625q0 -0.4375 0.21875 -0.640625q0.21875 -0.21875 0.546875 -0.21875q0.3125 0 0.53125 0.21875q0.234375 0.203125 0.234375 0.640625q0 0.4375 -0.234375 0.65625q-0.21875 0.21875 -0.53125 0.21875q-0.328125 0 -0.546875 -0.21875q-0.21875 -0.21875 -0.21875 -0.65625zm6.921875 9.96875q0.34375 0 0.65625 -0.046875q0.328125 -0.046875 0.515625 -0.109375l0 1.0q-0.203125 0.109375 -0.625 0.171875q-0.40625 0.0625 -0.734375 0.0625q-2.484375 0 -2.484375 -2.625l0 -5.09375l-1.21875 0l0 -0.625l1.21875 -0.53125l0.546875 -1.828125l0.75 0l0 1.984375l2.484375 0l0 1.0l-2.484375 0l0 5.046875q0 0.765625 0.359375 1.1875q0.375 0.40625 1.015625 0.40625zm8.7421875 0.921875l0 -5.546875q0 -1.046875 -0.484375 -1.5625q-0.46875 -0.515625 -1.484375 -0.515625q-1.34375 0 -1.96875 0.734375q-0.625 0.734375 -0.625 2.40625l0 4.484375l-1.296875 0l0 -12.15625l1.296875 0l0 3.671875q0 0.671875 -0.0625 1.109375l0.078125 0q0.390625 -0.625 1.09375 -0.96875q0.703125 -0.359375 1.609375 -0.359375q1.578125 0 2.359375 0.75q0.78125 0.734375 0.78125 2.359375l0 5.59375l-1.296875 0zm9.4140625 0l-1.296875 0l0 -8.5625l1.296875 0l0 8.5625zm-1.40625 -10.890625q0 -0.4375 0.21875 -0.640625q0.21875 -0.21875 0.546875 -0.21875q0.3125 0 0.53125 0.21875q0.234375 0.203125 0.234375 0.640625q0 0.4375 -0.234375 0.65625q-0.21875 0.21875 -0.53125 0.21875q-0.328125 0 -0.546875 -0.21875q-0.21875 -0.21875 -0.21875 -0.65625zm10.015625 10.890625l0 -5.546875q0 -1.046875 -0.484375 -1.5625q-0.46875 -0.515625 -1.484375 -0.515625q-1.34375 0 -1.96875 0.734375q-0.625 0.71875 -0.625 2.390625l0 4.5l-1.296875 0l0 -8.5625l1.0625 0l0.203125 1.171875l0.0625 0q0.40625 -0.640625 1.125 -0.984375q0.71875 -0.34375 1.59375 -0.34375q1.546875 0 2.328125 0.75q0.78125 0.734375 0.78125 2.375l0 5.59375l-1.296875 0zm7.5859375 0.15625q-1.90625 0 -3.0 -1.15625q-1.09375 -1.15625 -1.09375 -3.21875q0 -2.0625 1.015625 -3.28125q1.015625 -1.21875 2.734375 -1.21875q1.609375 0 2.546875 1.0625q0.9375 1.046875 0.9375 2.78125l0 0.828125l-5.890625 0q0.03125 1.5 0.75 2.28125q0.734375 0.78125 2.046875 0.78125q1.375 0 2.734375 -0.578125l0 1.15625q-0.6875 0.296875 -1.3125 0.421875q-0.609375 0.140625 -1.46875 0.140625zm-0.359375 -7.796875q-1.03125 0 -1.640625 0.671875q-0.609375 0.671875 -0.71875 1.859375l4.46875 0q0 -1.21875 -0.546875 -1.875q-0.546875 -0.65625 -1.5625 -0.65625zm9.6171875 -1.078125q0.578125 0 1.03125 0.09375l-0.1875 1.203125q-0.53125 -0.125 -0.9375 -0.125q-1.03125 0 -1.78125 0.84375q-0.734375 0.84375 -0.734375 2.109375l0 4.59375l-1.296875 0l0 -8.5625l1.078125 0l0.140625 1.578125l0.0625 0q0.484375 -0.828125 1.15625 -1.28125q0.671875 -0.453125 1.46875 -0.453125zm5.390625 7.796875q0.34375 0 0.65625 -0.046875q0.328125 -0.046875 0.515625 -0.109375l0 1.0q-0.203125 0.109375 -0.625 0.171875q-0.40625 0.0625 -0.734375 0.0625q-2.484375 0 -2.484375 -2.625l0 -5.09375l-1.21875 0l0 -0.625l1.21875 -0.53125l0.546875 -1.828125l0.75 0l0 1.984375l2.484375 0l0 1.0l-2.484375 0l0 5.046875q0 0.765625 0.359375 1.1875q0.375 0.40625 1.015625 0.40625zm14.0546875 -7.640625l0 0.8125l-1.59375 0.1875q0.21875 0.28125 0.390625 0.71875q0.171875 0.4375 0.171875 1.0q0 1.25 -0.859375 2.0q-0.859375 0.75 -2.359375 0.75q-0.375 0 -0.71875 -0.0625q-0.828125 0.4375 -0.828125 1.109375q0 0.34375 0.28125 0.515625q0.296875 0.171875 1.0 0.171875l1.515625 0q1.390625 0 2.140625 0.59375q0.75 0.578125 0.75 1.703125q0 1.421875 -1.140625 2.15625q-1.140625 0.75 -3.328125 0.75q-1.6875 0 -2.59375 -0.625q-0.90625 -0.625 -0.90625 -1.765625q0 -0.78125 0.5 -1.359375q0.5 -0.5625 1.40625 -0.765625q-0.328125 -0.15625 -0.5625 -0.46875q-0.21875 -0.3125 -0.21875 -0.71875q0 -0.46875 0.25 -0.8125q0.25 -0.359375 0.796875 -0.6875q-0.671875 -0.28125 -1.09375 -0.9375q-0.40625 -0.65625 -0.40625 -1.5q0 -1.40625 0.84375 -2.15625q0.84375 -0.765625 2.390625 -0.765625q0.671875 0 1.203125 0.15625l2.96875 0zm-6.828125 10.0q0 0.703125 0.578125 1.0625q0.59375 0.359375 1.6875 0.359375q1.625 0 2.40625 -0.5q0.796875 -0.484375 0.796875 -1.3125q0 -0.703125 -0.4375 -0.984375q-0.421875 -0.265625 -1.609375 -0.265625l-1.5625 0q-0.875 0 -1.375 0.421875q-0.484375 0.4375 -0.484375 1.21875zm0.703125 -7.265625q0 0.90625 0.5 1.375q0.515625 0.453125 1.421875 0.453125q1.890625 0 1.890625 -1.84375q0 -1.9375 -1.921875 -1.9375q-0.90625 0 -1.40625 0.5q-0.484375 0.484375 -0.484375 1.453125zm13.140625 5.828125l-0.25 -1.21875l-0.0625 0q-0.640625 0.796875 -1.28125 1.09375q-0.640625 0.28125 -1.59375 0.28125q-1.265625 0 -2.0 -0.65625q-0.71875 -0.65625 -0.71875 -1.875q0 -2.59375 4.15625 -2.71875l1.453125 -0.046875l0 -0.53125q0 -1.0 -0.4375 -1.484375q-0.4375 -0.484375 -1.390625 -0.484375q-1.0625 0 -2.421875 0.65625l-0.390625 -0.984375q0.625 -0.34375 1.375 -0.53125q0.765625 -0.203125 1.515625 -0.203125q1.53125 0 2.265625 0.6875q0.75 0.671875 0.75 2.171875l0 5.84375l-0.96875 0zm-2.921875 -0.921875q1.203125 0 1.890625 -0.65625q0.703125 -0.671875 0.703125 -1.859375l0 -0.78125l-1.296875 0.0625q-1.546875 0.046875 -2.234375 0.484375q-0.6875 0.421875 -0.6875 1.3125q0 0.703125 0.421875 1.078125q0.4375 0.359375 1.203125 0.359375zm12.0859375 -1.421875q0 1.203125 -0.890625 1.859375q-0.890625 0.640625 -2.5 0.640625q-1.703125 0 -2.65625 -0.546875l0 -1.203125q0.609375 0.3125 1.3125 0.5q0.71875 0.171875 1.375 0.171875q1.015625 0 1.5625 -0.3125q0.546875 -0.328125 0.546875 -1.0q0 -0.5 -0.4375 -0.84375q-0.4375 -0.359375 -1.6875 -0.84375q-1.203125 -0.453125 -1.703125 -0.78125q-0.5 -0.328125 -0.75 -0.75q-0.25 -0.421875 -0.25 -1.015625q0 -1.046875 0.84375 -1.640625q0.859375 -0.609375 2.34375 -0.609375q1.390625 0 2.703125 0.5625l-0.453125 1.046875q-1.296875 -0.53125 -2.34375 -0.53125q-0.921875 0 -1.390625 0.296875q-0.46875 0.28125 -0.46875 0.796875q0 0.34375 0.171875 0.59375q0.1875 0.234375 0.578125 0.453125q0.390625 0.21875 1.5 0.625q1.515625 0.5625 2.046875 1.125q0.546875 0.5625 0.546875 1.40625z" fill-rule="nonzero"/></g></svg>