<svg version="1.1" viewBox="0.0 0.0 818.0 295.0" fill="none" stroke="none" stroke-linecap="square" stroke-miterlimit="10" xmlns:xlink="http://www.w3.org/1999/xlink" xmlns="http://www.w3.org/2000/svg"><clipPath id="p.0"><path d="m0 0l818.0 0l0 295.0l-818.0 0l0 -295.0z" clip-rule="nonzero"/></clipPath><g clip-path="url(#p.0)"><path fill="#000000" fill-opacity="0.0" d="m0 0l818.0 0l0 295.0l-818.0 0z" fill-rule="evenodd"/><path fill="#cfe2f3" d="m31.994751 247.35915l224.0 0l-120.0 -216.0z" fill-rule="evenodd"/><path stroke="#000000" stroke-width="1.0" stroke-linejoin="round" stroke-linecap="butt" d="m31.994751 247.35915l224.0 0l-120.0 -216.0z" fill-rule="evenodd"/><path fill="#ffffff" d="m89.05854 127.29439l31.727997 -16.560005l16.838402 47.73121l15.307205 -40.286407l40.286392 15.307205l-57.8208 -103.0464z" fill-rule="evenodd"/><path stroke="#000000" stroke-width="1.0" stroke-linejoin="round" stroke-linecap="butt" d="m89.05854 127.29439l31.727997 -16.560005l16.838402 47.73121l15.307205 -40.286407l40.286392 15.307205l-57.8208 -103.0464z" fill-rule="evenodd"/><defs><radialGradient id="p.1" gradientUnits="userSpaceOnUse" gradientTransform="matrix(4.1195342153465315 0.0 0.0 4.1195342153465315 0.0 0.0)" spreadMethod="pad" cx="39.80905172367233" cy="10.525254983917819" fx="39.80905172367233" fy="10.525254983917819" r="4.119534015655518"><stop offset="0.0" stop-color="#1077d2"/><stop offset="1.0" stop-color="#093153"/></radialGradient></defs><path fill="url(#p.1)" d="m151.99475 43.35915l0 0c0 -6.6274185 5.372589 -12.000002 12.0 -12.000002l0 0c3.182602 0 6.234848 1.2642803 8.485275 3.514719c2.2504425 2.2504349 3.5147247 5.302685 3.5147247 8.485283l0 0c0 6.6274147 -5.372589 12.0 -12.0 12.0l0 0c-6.627411 0 -12.0 -5.3725853 -12.0 -12.0z" fill-rule="evenodd"/><path stroke="#000000" stroke-width="1.0" stroke-linejoin="round" stroke-linecap="butt" d="m151.99475 43.35915l0 0c0 -6.6274185 5.372589 -12.000002 12.0 -12.000002l0 0c3.182602 0 6.234848 1.2642803 8.485275 3.514719c2.2504425 2.2504349 3.5147247 5.302685 3.5147247 8.485283l0 0c0 6.6274147 -5.372589 12.0 -12.0 12.0l0 0c-6.627411 0 -12.0 -5.3725853 -12.0 -12.0z" fill-rule="evenodd"/><path fill="#cfe2f3" d="m178.7979 54.902454l25.996063 45.032543l5.1968536 -3.0078735l-4.3897705 16.416275l-16.397629 -4.384781l5.1968384 -3.0078735l-25.996048 -45.032543l8.198822 2.1923904z" fill-rule="evenodd"/><path stroke="#000000" stroke-width="1.0" stroke-linejoin="round" stroke-linecap="butt" d="m178.7979 54.902454l25.996063 45.032543l5.1968536 -3.0078735l-4.3897705 16.416275l-16.397629 -4.384781l5.1968384 -3.0078735l-25.996048 -45.032543l8.198822 2.1923904z" fill-rule="evenodd"/><defs><radialGradient id="p.2" gradientUnits="userSpaceOnUse" gradientTransform="matrix(4.1195342153465315 0.0 0.0 4.1195342153465315 0.0 0.0)" spreadMethod="pad" cx="66.99659141754489" cy="57.13246588769936" fx="66.99659141754489" fy="57.13246588769936" r="4.119534015655518"><stop offset="0.0" stop-color="#1077d2"/><stop offset="1.0" stop-color="#093153"/></radialGradient></defs><path fill="url(#p.2)" d="m263.99475 235.35915l0 0c0 -6.627411 5.372589 -12.0 12.0 -12.0l0 0c3.1825867 0 6.234833 1.2642822 8.485291 3.5147247c2.2504272 2.2504272 3.5147095 5.3026733 3.5147095 8.485275l0 0c0 6.627426 -5.372589 12.0 -12.0 12.0l0 0c-6.627411 0 -12.0 -5.372574 -12.0 -12.0z" fill-rule="evenodd"/><path stroke="#000000" stroke-width="1.0" stroke-linejoin="round" stroke-linecap="butt" d="m263.99475 235.35915l0 0c0 -6.627411 5.372589 -12.0 12.0 -12.0l0 0c3.1825867 0 6.234833 1.2642822 8.485291 3.5147247c2.2504272 2.2504272 3.5147095 5.3026733 3.5147095 8.485275l0 0c0 6.627426 -5.372589 12.0 -12.0 12.0l0 0c-6.627411 0 -12.0 -5.372574 -12.0 -12.0z" fill-rule="evenodd"/><path fill="#000000" fill-opacity="0.0" d="m322.9987 15.641732l127.74802 0l0 31.716537l-127.74802 0z" fill-rule="evenodd"/><path fill="#000000" d="m344.5485 37.36l-1.328125 0l0 -5.375l-6.015625 0l0 5.375l-1.328125 0l0 -11.421875l1.328125 0l0 4.859375l6.015625 0l0 -4.859375l1.328125 0l0 11.421875zm4.2265625 0l-1.296875 0l0 -8.5625l1.296875 0l0 8.5625zm-1.40625 -10.890625q0 -0.4375 0.21875 -0.640625q0.21875 -0.21875 0.546875 -0.21875q0.3125 0 0.53125 0.21875q0.234375 0.203125 0.234375 0.640625q0 0.4375 -0.234375 0.65625q-0.21875 0.21875 -0.53125 0.21875q-0.328125 0 -0.546875 -0.21875q-0.21875 -0.21875 -0.21875 -0.65625zm11.171875 2.328125l0 0.8125l-1.59375 0.1875q0.21875 0.28125 0.390625 0.71875q0.171875 0.4375 0.171875 1.0q0 1.25 -0.859375 2.0q-0.859375 0.75 -2.359375 0.75q-0.375 0 -0.71875 -0.0625q-0.828125 0.4375 -0.828125 1.109375q0 0.34375 0.28125 0.515625q0.296875 0.171875 1.0 0.171875l1.515625 0q1.390625 0 2.140625 0.59375q0.75 0.578125 0.75 1.703125q0 1.421875 -1.140625 2.15625q-1.140625 0.75 -3.328125 0.75q-1.6875 0 -2.59375 -0.625q-0.90625 -0.625 -0.90625 -1.765625q0 -0.78125 0.5 -1.359375q0.5 -0.5625 1.40625 -0.765625q-0.328125 -0.15625 -0.5625 -0.46875q-0.21875 -0.3125 -0.21875 -0.71875q0 -0.46875 0.25 -0.8125q0.25 -0.359375 0.796875 -0.6875q-0.671875 -0.28125 -1.09375 -0.9375q-0.40625 -0.65625 -0.40625 -1.5q0 -1.40625 0.84375 -2.15625q0.84375 -0.765625 2.390625 -0.765625q0.671875 0 1.203125 0.15625l2.96875 0zm-6.828125 10.0q0 0.703125 0.578125 1.0625q0.59375 0.359375 1.6875 0.359375q1.625 0 2.40625 -0.5q0.796875 -0.484375 0.796875 -1.3125q0 -0.703125 -0.4375 -0.984375q-0.421875 -0.265625 -1.609375 -0.265625l-1.5625 0q-0.875 0 -1.375 0.421875q-0.484375 0.4375 -0.484375 1.21875zm0.703125 -7.265625q0 0.90625 0.5 1.375q0.515625 0.453125 1.421875 0.453125q1.890625 0 1.890625 -1.84375q0 -1.9375 -1.921875 -1.9375q-0.90625 0 -1.40625 0.5q-0.484375 0.484375 -0.484375 1.453125zm13.734375 5.828125l0 -5.546875q0 -1.046875 -0.484375 -1.5625q-0.46875 -0.515625 -1.484375 -0.515625q-1.34375 0 -1.96875 0.734375q-0.625 0.734375 -0.625 2.40625l0 4.484375l-1.296875 0l0 -12.15625l1.296875 0l0 3.671875q0 0.671875 -0.0625 1.109375l0.078125 0q0.390625 -0.625 1.09375 -0.96875q0.703125 -0.359375 1.609375 -0.359375q1.578125 0 2.359375 0.75q0.78125 0.734375 0.78125 2.359375l0 5.59375l-1.296875 0zm12.1015625 0.15625q-0.828125 0 -1.53125 -0.3125q-0.6875 -0.3125 -1.15625 -0.953125l-0.09375 0q0.09375 0.75 0.09375 1.4375l0 3.515625l-1.296875 0l0 -12.40625l1.0625 0l0.171875 1.171875l0.0625 0q0.5 -0.703125 1.15625 -1.015625q0.671875 -0.3125 1.53125 -0.3125q1.703125 0 2.625 1.171875q0.9375 1.15625 0.9375 3.25q0 2.109375 -0.953125 3.28125q-0.9375 1.171875 -2.609375 1.171875zm-0.1875 -7.78125q-1.3125 0 -1.90625 0.734375q-0.578125 0.71875 -0.59375 2.3125l0 0.28125q0 1.8125 0.59375 2.59375q0.609375 0.765625 1.9375 0.765625q1.109375 0 1.734375 -0.890625q0.640625 -0.90625 0.640625 -2.484375q0 -1.59375 -0.640625 -2.453125q-0.625 -0.859375 -1.765625 -0.859375zm13.3984375 3.328125q0 2.09375 -1.0625 3.28125q-1.046875 1.171875 -2.90625 1.171875q-1.140625 0 -2.03125 -0.53125q-0.890625 -0.546875 -1.375 -1.546875q-0.484375 -1.015625 -0.484375 -2.375q0 -2.09375 1.046875 -3.25q1.046875 -1.171875 2.90625 -1.171875q1.796875 0 2.84375 1.203125q1.0625 1.1875 1.0625 3.21875zm-6.515625 0q0 1.640625 0.65625 2.5q0.65625 0.859375 1.921875 0.859375q1.28125 0 1.9375 -0.84375q0.65625 -0.859375 0.65625 -2.515625q0 -1.625 -0.65625 -2.46875q-0.65625 -0.859375 -1.953125 -0.859375q-1.265625 0 -1.921875 0.84375q-0.640625 0.828125 -0.640625 2.484375zm11.5546875 3.375q0.34375 0 0.65625 -0.046875q0.328125 -0.046875 0.515625 -0.109375l0 1.0q-0.203125 0.109375 -0.625 0.171875q-0.40625 0.0625 -0.734375 0.0625q-2.484375 0 -2.484375 -2.625l0 -5.09375l-1.21875 0l0 -0.625l1.21875 -0.53125l0.546875 -1.828125l0.75 0l0 1.984375l2.484375 0l0 1.0l-2.484375 0l0 5.046875q0 0.765625 0.359375 1.1875q0.375 0.40625 1.015625 0.40625zm6.5078125 1.078125q-1.90625 0 -3.0 -1.15625q-1.09375 -1.15625 -1.09375 -3.21875q0 -2.0625 1.015625 -3.28125q1.015625 -1.21875 2.734375 -1.21875q1.609375 0 2.546875 1.0625q0.9375 1.046875 0.9375 2.78125l0 0.828125l-5.890625 0q0.03125 1.5 0.75 2.28125q0.734375 0.78125 2.046875 0.78125q1.375 0 2.734375 -0.578125l0 1.15625q-0.6875 0.296875 -1.3125 0.421875q-0.609375 0.140625 -1.46875 0.140625zm-0.359375 -7.796875q-1.03125 0 -1.640625 0.671875q-0.609375 0.671875 -0.71875 1.859375l4.46875 0q0 -1.21875 -0.546875 -1.875q-0.546875 -0.65625 -1.5625 -0.65625zm11.5703125 7.640625l0 -5.546875q0 -1.046875 -0.484375 -1.5625q-0.46875 -0.515625 -1.484375 -0.515625q-1.34375 0 -1.96875 0.734375q-0.625 0.71875 -0.625 2.390625l0 4.5l-1.296875 0l0 -8.5625l1.0625 0l0.203125 1.171875l0.0625 0q0.40625 -0.640625 1.125 -0.984375q0.71875 -0.34375 1.59375 -0.34375q1.546875 0 2.328125 0.75q0.78125 0.734375 0.78125 2.375l0 5.59375l-1.296875 0zm6.7265625 -0.921875q0.34375 0 0.65625 -0.046875q0.328125 -0.046875 0.515625 -0.109375l0 1.0q-0.203125 0.109375 -0.625 0.171875q-0.40625 0.0625 -0.734375 0.0625q-2.484375 0 -2.484375 -2.625l0 -5.09375l-1.21875 0l0 -0.625l1.21875 -0.53125l0.546875 -1.828125l0.75 0l0 1.984375l2.484375 0l0 1.0l-2.484375 0l0 5.046875q0 0.765625 0.359375 1.1875q0.375 0.40625 1.015625 0.40625zm4.1796875 0.921875l-1.296875 0l0 -8.5625l1.296875 0l0 8.5625zm-1.40625 -10.890625q0 -0.4375 0.21875 -0.640625q0.21875 -0.21875 0.546875 -0.21875q0.3125 0 0.53125 0.21875q0.234375 0.203125 0.234375 0.640625q0 0.4375 -0.234375 0.65625q-0.21875 0.21875 -0.53125 0.21875q-0.328125 0 -0.546875 -0.21875q-0.21875 -0.21875 -0.21875 -0.65625zm9.421875 10.890625l-0.25 -1.21875l-0.0625 0q-0.640625 0.796875 -1.28125 1.09375q-0.640625 0.28125 -1.59375 0.28125q-1.265625 0 -2.0 -0.65625q-0.71875 -0.65625 -0.71875 -1.875q0 -2.59375 4.15625 -2.71875l1.453125 -0.046875l0 -0.53125q0 -1.0 -0.4375 -1.484375q-0.4375 -0.484375 -1.390625 -0.484375q-1.0625 0 -2.421875 0.65625l-0.390625 -0.984375q0.625 -0.34375 1.375 -0.53125q0.765625 -0.203125 1.515625 -0.203125q1.53125 0 2.265625 0.6875q0.75 0.671875 0.75 2.171875l0 5.84375l-0.96875 0zm-2.921875 -0.921875q1.203125 0 1.890625 -0.65625q0.703125 -0.671875 0.703125 -1.859375l0 -0.78125l-1.296875 0.0625q-1.546875 0.046875 -2.234375 0.484375q-0.6875 0.421875 -0.6875 1.3125q0 0.703125 0.421875 1.078125q0.4375 0.359375 1.203125 0.359375zm7.8515625 0.921875l-1.296875 0l0 -12.15625l1.296875 0l0 12.15625z" fill-rule="nonzero"/><path fill="#cfe2f3" d="m528.99475 247.35915l224.0 0l-120.0 -216.0z" fill-rule="evenodd"/><path stroke="#000000" stroke-width="1.0" stroke-linejoin="round" stroke-linecap="butt" d="m528.99475 247.35915l224.0 0l-120.0 -216.0z" fill-rule="evenodd"/><path fill="#ffffff" d="m586.05853 127.29439l31.728027 -16.560005l16.838379 47.73121l15.30719 -40.286407l40.286438 15.307205l-57.8208 -103.0464z" fill-rule="evenodd"/><path stroke="#000000" stroke-width="1.0" stroke-linejoin="round" stroke-linecap="butt" d="m586.05853 127.29439l31.728027 -16.560005l16.838379 47.73121l15.30719 -40.286407l40.286438 15.307205l-57.8208 -103.0464z" fill-rule="evenodd"/><path fill="#cfe2f3" d="m657.01056 221.8768l0 0c0 4.1438293 -3.359253 7.5030518 -7.5030518 7.5030518l-30.011353 0l0 0c-1.9899292 0 -3.8983154 -0.7904968 -5.30542 -2.197586c-1.4071045 -1.4071045 -2.1976318 -3.3155365 -2.1976318 -5.3054657l0 -133.06657c0 -4.1438217 3.359253 -7.5030518 7.5030518 -7.5030518l30.011353 0c4.143799 0 7.5030518 3.35923 7.5030518 7.5030518z" fill-rule="evenodd"/><path stroke="#000000" stroke-width="1.0" stroke-linejoin="round" stroke-linecap="butt" d="m657.01056 221.8768l0 0c0 4.1438293 -3.359253 7.5030518 -7.5030518 7.5030518l-30.011353 0l0 0c-1.9899292 0 -3.8983154 -0.7904968 -5.30542 -2.197586c-1.4071045 -1.4071045 -2.1976318 -3.3155365 -2.1976318 -5.3054657l0 -133.06657c0 -4.1438217 3.359253 -7.5030518 7.5030518 -7.5030518l30.011353 0c4.143799 0 7.5030518 3.35923 7.5030518 7.5030518z" fill-rule="evenodd"/><path fill="#cfe2f3" d="m648.558 236.62868l-28.9422 0c-0.32086182 0 -0.6286011 -0.12747192 -0.8555298 -0.35437012c-0.22686768 -0.2268982 -0.35437012 -0.53463745 -0.35437012 -0.8555145l0 -6.0492554c0 -1.373291E-4 1.2207031E-4 -2.593994E-4 2.4414062E-4 -2.593994E-4l31.361755 2.593994E-4l0 0c1.2207031E-4 0 2.4414062E-4 1.2207031E-4 2.4414062E-4 2.593994E-4l-2.4414062E-4 6.048996l0 0c0 0.66819763 -0.541687 1.2098846 -1.2098999 1.2098846z" fill-rule="evenodd"/><path stroke="#000000" stroke-width="1.0" stroke-linejoin="round" stroke-linecap="butt" d="m648.558 236.62868l-28.9422 0c-0.32086182 0 -0.6286011 -0.12747192 -0.8555298 -0.35437012c-0.22686768 -0.2268982 -0.35437012 -0.53463745 -0.35437012 -0.8555145l0 -6.0492554c0 -1.373291E-4 1.2207031E-4 -2.593994E-4 2.4414062E-4 -2.593994E-4l31.361755 2.593994E-4l0 0c1.2207031E-4 0 2.4414062E-4 1.2207031E-4 2.4414062E-4 2.593994E-4l-2.4414062E-4 6.048996l0 0c0 0.66819763 -0.541687 1.2098846 -1.2098999 1.2098846z" fill-rule="evenodd"/><path fill="#cfe2f3" d="m644.12744 97.40569l0 0c0 1.7777405 -1.4400635 3.2188797 -3.2164307 3.2188797l0 0c-0.85302734 0 -1.6711426 -0.3391266 -2.274353 -0.9427872c-0.60321045 -0.6036606 -0.94207764 -1.4223938 -0.94207764 -2.2760925l0 0c0 -1.7777405 1.4400635 -3.2188797 3.2164307 -3.2188797l0 0c1.7763672 0 3.2164307 1.4411392 3.2164307 3.2188797z" fill-rule="evenodd"/><path stroke="#000000" stroke-width="1.0" stroke-linejoin="round" stroke-linecap="butt" d="m644.12744 97.40569l0 0c0 1.7777405 -1.4400635 3.2188797 -3.2164307 3.2188797l0 0c-0.85302734 0 -1.6711426 -0.3391266 -2.274353 -0.9427872c-0.60321045 -0.6036606 -0.94207764 -1.4223938 -0.94207764 -2.2760925l0 0c0 -1.7777405 1.4400635 -3.2188797 3.2164307 -3.2188797l0 0c1.7763672 0 3.2164307 1.4411392 3.2164307 3.2188797z" fill-rule="evenodd"/><path fill="#000000" fill-opacity="0.0" d="m642.46375 97.40569l-3.2164307 0" fill-rule="evenodd"/><path stroke="#000000" stroke-width="1.0" stroke-linejoin="round" stroke-linecap="butt" d="m642.46375 97.40569l-3.2164307 0" fill-rule="evenodd"/><path fill="#cfe2f3" d="m631.2629 97.40569l0 0c0 1.7777405 -1.4400635 3.2188797 -3.2164307 3.2188797l0 0c-0.8530884 0 -1.6712036 -0.3391266 -2.274414 -0.9427872c-0.6031494 -0.6036606 -0.94207764 -1.4223938 -0.94207764 -2.2760925l0 0c0 -1.7777405 1.4400635 -3.2188797 3.2164917 -3.2188797l0 0c1.7763672 0 3.2164307 1.4411392 3.2164307 3.2188797z" fill-rule="evenodd"/><path stroke="#000000" stroke-width="1.0" stroke-linejoin="round" stroke-linecap="butt" d="m631.2629 97.40569l0 0c0 1.7777405 -1.4400635 3.2188797 -3.2164307 3.2188797l0 0c-0.8530884 0 -1.6712036 -0.3391266 -2.274414 -0.9427872c-0.6031494 -0.6036606 -0.94207764 -1.4223938 -0.94207764 -2.2760925l0 0c0 -1.7777405 1.4400635 -3.2188797 3.2164917 -3.2188797l0 0c1.7763672 0 3.2164307 1.4411392 3.2164307 3.2188797z" fill-rule="evenodd"/><path fill="#000000" fill-opacity="0.0" d="m629.5991 97.40569l-3.2164307 0" fill-rule="evenodd"/><path stroke="#000000" stroke-width="1.0" stroke-linejoin="round" stroke-linecap="butt" d="m629.5991 97.40569l-3.2164307 0" fill-rule="evenodd"/><path fill="#cfe2f3" d="m624.83057 103.84345l0 0c0 1.7777405 -1.4400635 3.2188873 -3.2164307 3.2188873l0 0c-0.8530884 0 -1.6712036 -0.33913422 -2.274353 -0.9427872c-0.60321045 -0.6036606 -0.94207764 -1.4223938 -0.94207764 -2.2761002l0 0c0 -1.7777328 1.4400024 -3.2188797 3.2164307 -3.2188797l0 0c1.7763672 0 3.2164307 1.4411469 3.2164307 3.2188797z" fill-rule="evenodd"/><path stroke="#000000" stroke-width="1.0" stroke-linejoin="round" stroke-linecap="butt" d="m624.83057 103.84345l0 0c0 1.7777405 -1.4400635 3.2188873 -3.2164307 3.2188873l0 0c-0.8530884 0 -1.6712036 -0.33913422 -2.274353 -0.9427872c-0.60321045 -0.6036606 -0.94207764 -1.4223938 -0.94207764 -2.2761002l0 0c0 -1.7777328 1.4400024 -3.2188797 3.2164307 -3.2188797l0 0c1.7763672 0 3.2164307 1.4411469 3.2164307 3.2188797z" fill-rule="evenodd"/><path fill="#000000" fill-opacity="0.0" d="m623.1669 103.84345l-3.2164307 0" fill-rule="evenodd"/><path stroke="#000000" stroke-width="1.0" stroke-linejoin="round" stroke-linecap="butt" d="m623.1669 103.84345l-3.2164307 0" fill-rule="evenodd"/><path fill="#cfe2f3" d="m650.55975 90.967926l0 0c0 1.7777405 -1.4400635 3.2188873 -3.2164307 3.2188873l0 0c-0.8530884 0 -1.6712036 -0.33913422 -2.274353 -0.9427948c-0.60321045 -0.60365295 -0.94207764 -1.4223862 -0.94207764 -2.2760925l0 0c0 -1.7777405 1.4400024 -3.2188797 3.2164307 -3.2188797l0 0c1.7763672 0 3.2164307 1.4411392 3.2164307 3.2188797z" fill-rule="evenodd"/><path stroke="#000000" stroke-width="1.0" stroke-linejoin="round" stroke-linecap="butt" d="m650.55975 90.967926l0 0c0 1.7777405 -1.4400635 3.2188873 -3.2164307 3.2188873l0 0c-0.8530884 0 -1.6712036 -0.33913422 -2.274353 -0.9427948c-0.60321045 -0.60365295 -0.94207764 -1.4223862 -0.94207764 -2.2760925l0 0c0 -1.7777405 1.4400024 -3.2188797 3.2164307 -3.2188797l0 0c1.7763672 0 3.2164307 1.4411392 3.2164307 3.2188797z" fill-rule="evenodd"/><path fill="#000000" fill-opacity="0.0" d="m648.89606 90.967926l-3.2164917 0" fill-rule="evenodd"/><path stroke="#000000" stroke-width="1.0" stroke-linejoin="round" stroke-linecap="butt" d="m648.89606 90.967926l-3.2164917 0" fill-rule="evenodd"/><path fill="#cfe2f3" d="m637.6951 90.967926l0 0c0 1.7777405 -1.4400024 3.2188873 -3.2164307 3.2188873l0 0c-0.85302734 0 -1.6711426 -0.33913422 -2.274353 -0.9427948c-0.60321045 -0.60365295 -0.94207764 -1.4223862 -0.94207764 -2.2760925l0 0c0 -1.7777405 1.4400635 -3.2188797 3.2164307 -3.2188797l0 0c1.7764282 0 3.2164307 1.4411392 3.2164307 3.2188797z" fill-rule="evenodd"/><path stroke="#000000" stroke-width="1.0" stroke-linejoin="round" stroke-linecap="butt" d="m637.6951 90.967926l0 0c0 1.7777405 -1.4400024 3.2188873 -3.2164307 3.2188873l0 0c-0.85302734 0 -1.6711426 -0.33913422 -2.274353 -0.9427948c-0.60321045 -0.60365295 -0.94207764 -1.4223862 -0.94207764 -2.2760925l0 0c0 -1.7777405 1.4400635 -3.2188797 3.2164307 -3.2188797l0 0c1.7764282 0 3.2164307 1.4411392 3.2164307 3.2188797z" fill-rule="evenodd"/><path fill="#000000" fill-opacity="0.0" d="m636.03143 90.967926l-3.2164307 0" fill-rule="evenodd"/><path stroke="#000000" stroke-width="1.0" stroke-linejoin="round" stroke-linecap="butt" d="m636.03143 90.967926l-3.2164307 0" fill-rule="evenodd"/><path fill="#cfe2f3" d="m624.83057 90.967926l0 0c0 1.7777405 -1.4400635 3.2188873 -3.2164307 3.2188873l0 0c-0.8530884 0 -1.6712036 -0.33913422 -2.274353 -0.9427948c-0.60321045 -0.60365295 -0.94207764 -1.4223862 -0.94207764 -2.2760925l0 0c0 -1.7777405 1.4400024 -3.2188797 3.2164307 -3.2188797l0 0c1.7763672 0 3.2164307 1.4411392 3.2164307 3.2188797z" fill-rule="evenodd"/><path stroke="#000000" stroke-width="1.0" stroke-linejoin="round" stroke-linecap="butt" d="m624.83057 90.967926l0 0c0 1.7777405 -1.4400635 3.2188873 -3.2164307 3.2188873l0 0c-0.8530884 0 -1.6712036 -0.33913422 -2.274353 -0.9427948c-0.60321045 -0.60365295 -0.94207764 -1.4223862 -0.94207764 -2.2760925l0 0c0 -1.7777405 1.4400024 -3.2188797 3.2164307 -3.2188797l0 0c1.7763672 0 3.2164307 1.4411392 3.2164307 3.2188797z" fill-rule="evenodd"/><path fill="#000000" fill-opacity="0.0" d="m623.1669 90.967926l-3.2164307 0" fill-rule="evenodd"/><path stroke="#000000" stroke-width="1.0" stroke-linejoin="round" stroke-linecap="butt" d="m623.1669 90.967926l-3.2164307 0" fill-rule="evenodd"/><path fill="#cfe2f3" d="m637.6951 103.84345l0 0c0 1.7777405 -1.4400024 3.2188873 -3.2164307 3.2188873l0 0c-0.85302734 0 -1.6711426 -0.33913422 -2.274353 -0.9427872c-0.60321045 -0.6036606 -0.94207764 -1.4223938 -0.94207764 -2.2761002l0 0c0 -1.7777328 1.4400635 -3.2188797 3.2164307 -3.2188797l0 0c1.7764282 0 3.2164307 1.4411469 3.2164307 3.2188797z" fill-rule="evenodd"/><path stroke="#000000" stroke-width="1.0" stroke-linejoin="round" stroke-linecap="butt" d="m637.6951 103.84345l0 0c0 1.7777405 -1.4400024 3.2188873 -3.2164307 3.2188873l0 0c-0.85302734 0 -1.6711426 -0.33913422 -2.274353 -0.9427872c-0.60321045 -0.6036606 -0.94207764 -1.4223938 -0.94207764 -2.2761002l0 0c0 -1.7777328 1.4400635 -3.2188797 3.2164307 -3.2188797l0 0c1.7764282 0 3.2164307 1.4411469 3.2164307 3.2188797z" fill-rule="evenodd"/><path fill="#000000" fill-opacity="0.0" d="m636.03143 103.84345l-3.2164307 0" fill-rule="evenodd"/><path stroke="#000000" stroke-width="1.0" stroke-linejoin="round" stroke-linecap="butt" d="m636.03143 103.84345l-3.2164307 0" fill-rule="evenodd"/><path fill="#cfe2f3" d="m650.55975 103.84345l0 0c0 1.7777405 -1.4400635 3.2188873 -3.2164307 3.2188873l0 0c-0.8530884 0 -1.6712036 -0.33913422 -2.274353 -0.9427872c-0.60321045 -0.6036606 -0.94207764 -1.4223938 -0.94207764 -2.2761002l0 0c0 -1.7777328 1.4400024 -3.2188797 3.2164307 -3.2188797l0 0c1.7763672 0 3.2164307 1.4411469 3.2164307 3.2188797z" fill-rule="evenodd"/><path stroke="#000000" stroke-width="1.0" stroke-linejoin="round" stroke-linecap="butt" d="m650.55975 103.84345l0 0c0 1.7777405 -1.4400635 3.2188873 -3.2164307 3.2188873l0 0c-0.8530884 0 -1.6712036 -0.33913422 -2.274353 -0.9427872c-0.60321045 -0.6036606 -0.94207764 -1.4223938 -0.94207764 -2.2761002l0 0c0 -1.7777328 1.4400024 -3.2188797 3.2164307 -3.2188797l0 0c1.7763672 0 3.2164307 1.4411469 3.2164307 3.2188797z" fill-rule="evenodd"/><path fill="#000000" fill-opacity="0.0" d="m648.89606 103.84345l-3.2164917 0" fill-rule="evenodd"/><path stroke="#000000" stroke-width="1.0" stroke-linejoin="round" stroke-linecap="butt" d="m648.89606 103.84345l-3.2164917 0" fill-rule="evenodd"/><path fill="#cfe2f3" d="m650.57825 219.7232l0 0c0 1.7777405 -1.4399414 3.2188873 -3.2161255 3.2188873l0 0c-0.85302734 0 -1.6710205 -0.3391266 -2.27417 -0.9427948c-0.6031494 -0.60365295 -0.9420166 -1.4223938 -0.9420166 -2.2760925l0 0c0 -1.7777405 1.4399414 -3.218872 3.2161865 -3.218872l0 0c1.7761841 0 3.2161255 1.4411316 3.2161255 3.218872z" fill-rule="evenodd"/><path stroke="#000000" stroke-width="1.0" stroke-linejoin="round" stroke-linecap="butt" d="m650.57825 219.7232l0 0c0 1.7777405 -1.4399414 3.2188873 -3.2161255 3.2188873l0 0c-0.85302734 0 -1.6710205 -0.3391266 -2.27417 -0.9427948c-0.6031494 -0.60365295 -0.9420166 -1.4223938 -0.9420166 -2.2760925l0 0c0 -1.7777405 1.4399414 -3.218872 3.2161865 -3.218872l0 0c1.7761841 0 3.2161255 1.4411316 3.2161255 3.218872z" fill-rule="evenodd"/><path fill="#000000" fill-opacity="0.0" d="m648.9147 219.7232l-3.2161255 0" fill-rule="evenodd"/><path stroke="#000000" stroke-width="1.0" stroke-linejoin="round" stroke-linecap="butt" d="m648.9147 219.7232l-3.2161255 0" fill-rule="evenodd"/><path fill="#000000" fill-opacity="0.0" d="m647.3621 218.11377l0 3.218872" fill-rule="evenodd"/><path stroke="#000000" stroke-width="1.0" stroke-linejoin="round" stroke-linecap="butt" d="m647.3621 218.11377l0 3.218872" fill-rule="evenodd"/><path fill="#cfe2f3" d="m624.84906 219.7232l0 0c0 1.7777405 -1.4399414 3.2188873 -3.2161255 3.2188873l0 0c-0.85302734 0 -1.6710205 -0.3391266 -2.27417 -0.9427948c-0.6031494 -0.60365295 -0.9420166 -1.4223938 -0.9420166 -2.2760925l0 0c0 -1.7777405 1.4399414 -3.218872 3.2161865 -3.218872l0 0c1.7761841 0 3.2161255 1.4411316 3.2161255 3.218872z" fill-rule="evenodd"/><path stroke="#000000" stroke-width="1.0" stroke-linejoin="round" stroke-linecap="butt" d="m624.84906 219.7232l0 0c0 1.7777405 -1.4399414 3.2188873 -3.2161255 3.2188873l0 0c-0.85302734 0 -1.6710205 -0.3391266 -2.27417 -0.9427948c-0.6031494 -0.60365295 -0.9420166 -1.4223938 -0.9420166 -2.2760925l0 0c0 -1.7777405 1.4399414 -3.218872 3.2161865 -3.218872l0 0c1.7761841 0 3.2161255 1.4411316 3.2161255 3.218872z" fill-rule="evenodd"/><path fill="#000000" fill-opacity="0.0" d="m623.1855 219.7232l-3.2161255 0" fill-rule="evenodd"/><path stroke="#000000" stroke-width="1.0" stroke-linejoin="round" stroke-linecap="butt" d="m623.1855 219.7232l-3.2161255 0" fill-rule="evenodd"/><path fill="#000000" fill-opacity="0.0" d="m621.63293 218.11377l0 3.218872" fill-rule="evenodd"/><path stroke="#000000" stroke-width="1.0" stroke-linejoin="round" stroke-linecap="butt" d="m621.63293 218.11377l0 3.218872" fill-rule="evenodd"/><path fill="#cfe2f3" d="m637.7136 219.7232l0 0c0 1.7777405 -1.4398804 3.2188873 -3.2161255 3.2188873l0 0c-0.8529663 0 -1.6710205 -0.3391266 -2.27417 -0.9427948c-0.6031494 -0.60365295 -0.94195557 -1.4223938 -0.94195557 -2.2760925l0 0c0 -1.7777405 1.4398804 -3.218872 3.2161255 -3.218872l0 0c1.7762451 0 3.2161255 1.4411316 3.2161255 3.218872z" fill-rule="evenodd"/><path stroke="#000000" stroke-width="1.0" stroke-linejoin="round" stroke-linecap="butt" d="m637.7136 219.7232l0 0c0 1.7777405 -1.4398804 3.2188873 -3.2161255 3.2188873l0 0c-0.8529663 0 -1.6710205 -0.3391266 -2.27417 -0.9427948c-0.6031494 -0.60365295 -0.94195557 -1.4223938 -0.94195557 -2.2760925l0 0c0 -1.7777405 1.4398804 -3.218872 3.2161255 -3.218872l0 0c1.7762451 0 3.2161255 1.4411316 3.2161255 3.218872z" fill-rule="evenodd"/><path fill="#000000" fill-opacity="0.0" d="m636.0501 219.7232l-3.2161865 0" fill-rule="evenodd"/><path stroke="#000000" stroke-width="1.0" stroke-linejoin="round" stroke-linecap="butt" d="m636.0501 219.7232l-3.2161865 0" fill-rule="evenodd"/><path fill="#000000" fill-opacity="0.0" d="m634.4975 218.11377l0 3.218872" fill-rule="evenodd"/><path stroke="#000000" stroke-width="1.0" stroke-linejoin="round" stroke-linecap="butt" d="m634.4975 218.11377l0 3.218872" fill-rule="evenodd"/><path fill="#cfe2f3" d="m644.14594 213.28545l0 0c0 1.7777405 -1.4398804 3.2188873 -3.2161255 3.2188873l0 0c-0.8529663 0 -1.6710205 -0.33914185 -2.27417 -0.9427948c-0.6031494 -0.60365295 -0.9420166 -1.4223938 -0.9420166 -2.2760925l0 0c0 -1.7777405 1.4399414 -3.2188873 3.2161865 -3.2188873l0 0c1.7762451 0 3.2161255 1.4411469 3.2161255 3.2188873z" fill-rule="evenodd"/><path stroke="#000000" stroke-width="1.0" stroke-linejoin="round" stroke-linecap="butt" d="m644.14594 213.28545l0 0c0 1.7777405 -1.4398804 3.2188873 -3.2161255 3.2188873l0 0c-0.8529663 0 -1.6710205 -0.33914185 -2.27417 -0.9427948c-0.6031494 -0.60365295 -0.9420166 -1.4223938 -0.9420166 -2.2760925l0 0c0 -1.7777405 1.4399414 -3.2188873 3.2161865 -3.2188873l0 0c1.7762451 0 3.2161255 1.4411469 3.2161255 3.2188873z" fill-rule="evenodd"/><path fill="#000000" fill-opacity="0.0" d="m642.48236 213.28545l-3.2161255 0" fill-rule="evenodd"/><path stroke="#000000" stroke-width="1.0" stroke-linejoin="round" stroke-linecap="butt" d="m642.48236 213.28545l-3.2161255 0" fill-rule="evenodd"/><path fill="#000000" fill-opacity="0.0" d="m640.9298 211.67601l0 3.218872" fill-rule="evenodd"/><path stroke="#000000" stroke-width="1.0" stroke-linejoin="round" stroke-linecap="butt" d="m640.9298 211.67601l0 3.218872" fill-rule="evenodd"/><path fill="#cfe2f3" d="m631.2814 213.28545l0 0c0 1.7777405 -1.4399414 3.2188873 -3.2161865 3.2188873l0 0c-0.8529663 0 -1.6710205 -0.33914185 -2.27417 -0.9427948c-0.6030884 -0.60365295 -0.94195557 -1.4223938 -0.94195557 -2.2760925l0 0c0 -1.7777405 1.4399414 -3.2188873 3.2161255 -3.2188873l0 0c1.7762451 0 3.2161865 1.4411469 3.2161865 3.2188873z" fill-rule="evenodd"/><path stroke="#000000" stroke-width="1.0" stroke-linejoin="round" stroke-linecap="butt" d="m631.2814 213.28545l0 0c0 1.7777405 -1.4399414 3.2188873 -3.2161865 3.2188873l0 0c-0.8529663 0 -1.6710205 -0.33914185 -2.27417 -0.9427948c-0.6030884 -0.60365295 -0.94195557 -1.4223938 -0.94195557 -2.2760925l0 0c0 -1.7777405 1.4399414 -3.2188873 3.2161255 -3.2188873l0 0c1.7762451 0 3.2161865 1.4411469 3.2161865 3.2188873z" fill-rule="evenodd"/><path fill="#000000" fill-opacity="0.0" d="m629.6178 213.28545l-3.2161255 0" fill-rule="evenodd"/><path stroke="#000000" stroke-width="1.0" stroke-linejoin="round" stroke-linecap="butt" d="m629.6178 213.28545l-3.2161255 0" fill-rule="evenodd"/><path fill="#000000" fill-opacity="0.0" d="m628.0652 211.67601l0 3.218872" fill-rule="evenodd"/><path stroke="#000000" stroke-width="1.0" stroke-linejoin="round" stroke-linecap="butt" d="m628.0652 211.67601l0 3.218872" fill-rule="evenodd"/><path fill="#cfe2f3" d="m650.57825 206.84769l0 0c0 1.7777252 -1.4399414 3.218872 -3.2161255 3.218872l0 0c-0.85302734 0 -1.6710205 -0.3391266 -2.27417 -0.94277954c-0.6031494 -0.6036682 -0.9420166 -1.4223938 -0.9420166 -2.2760925l0 0c0 -1.7777405 1.4399414 -3.2188873 3.2161865 -3.2188873l0 0c1.7761841 0 3.2161255 1.4411469 3.2161255 3.2188873z" fill-rule="evenodd"/><path stroke="#000000" stroke-width="1.0" stroke-linejoin="round" stroke-linecap="butt" d="m650.57825 206.84769l0 0c0 1.7777252 -1.4399414 3.218872 -3.2161255 3.218872l0 0c-0.85302734 0 -1.6710205 -0.3391266 -2.27417 -0.94277954c-0.6031494 -0.6036682 -0.9420166 -1.4223938 -0.9420166 -2.2760925l0 0c0 -1.7777405 1.4399414 -3.2188873 3.2161865 -3.2188873l0 0c1.7761841 0 3.2161255 1.4411469 3.2161255 3.2188873z" fill-rule="evenodd"/><path fill="#000000" fill-opacity="0.0" d="m648.9147 206.84769l-3.2161255 0" fill-rule="evenodd"/><path stroke="#000000" stroke-width="1.0" stroke-linejoin="round" stroke-linecap="butt" d="m648.9147 206.84769l-3.2161255 0" fill-rule="evenodd"/><path fill="#000000" fill-opacity="0.0" d="m647.3621 205.23824l0 3.2188873" fill-rule="evenodd"/><path stroke="#000000" stroke-width="1.0" stroke-linejoin="round" stroke-linecap="butt" d="m647.3621 205.23824l0 3.2188873" fill-rule="evenodd"/><path fill="#cfe2f3" d="m637.7136 206.84769l0 0c0 1.7777252 -1.4398804 3.218872 -3.2161255 3.218872l0 0c-0.8529663 0 -1.6710205 -0.3391266 -2.27417 -0.94277954c-0.6031494 -0.6036682 -0.94195557 -1.4223938 -0.94195557 -2.2760925l0 0c0 -1.7777405 1.4398804 -3.2188873 3.2161255 -3.2188873l0 0c1.7762451 0 3.2161255 1.4411469 3.2161255 3.2188873z" fill-rule="evenodd"/><path stroke="#000000" stroke-width="1.0" stroke-linejoin="round" stroke-linecap="butt" d="m637.7136 206.84769l0 0c0 1.7777252 -1.4398804 3.218872 -3.2161255 3.218872l0 0c-0.8529663 0 -1.6710205 -0.3391266 -2.27417 -0.94277954c-0.6031494 -0.6036682 -0.94195557 -1.4223938 -0.94195557 -2.2760925l0 0c0 -1.7777405 1.4398804 -3.2188873 3.2161255 -3.2188873l0 0c1.7762451 0 3.2161255 1.4411469 3.2161255 3.2188873z" fill-rule="evenodd"/><path fill="#000000" fill-opacity="0.0" d="m636.0501 206.84769l-3.2161865 0" fill-rule="evenodd"/><path stroke="#000000" stroke-width="1.0" stroke-linejoin="round" stroke-linecap="butt" d="m636.0501 206.84769l-3.2161865 0" fill-rule="evenodd"/><path fill="#000000" fill-opacity="0.0" d="m634.4975 205.23824l0 3.2188873" fill-rule="evenodd"/><path stroke="#000000" stroke-width="1.0" stroke-linejoin="round" stroke-linecap="butt" d="m634.4975 205.23824l0 3.2188873" fill-rule="evenodd"/><path fill="#cfe2f3" d="m624.84906 206.84769l0 0c0 1.7777252 -1.4399414 3.218872 -3.2161255 3.218872l0 0c-0.85302734 0 -1.6710205 -0.3391266 -2.27417 -0.94277954c-0.6031494 -0.6036682 -0.9420166 -1.4223938 -0.9420166 -2.2760925l0 0c0 -1.7777405 1.4399414 -3.2188873 3.2161865 -3.2188873l0 0c1.7761841 0 3.2161255 1.4411469 3.2161255 3.2188873z" fill-rule="evenodd"/><path stroke="#000000" stroke-width="1.0" stroke-linejoin="round" stroke-linecap="butt" d="m624.84906 206.84769l0 0c0 1.7777252 -1.4399414 3.218872 -3.2161255 3.218872l0 0c-0.85302734 0 -1.6710205 -0.3391266 -2.27417 -0.94277954c-0.6031494 -0.6036682 -0.9420166 -1.4223938 -0.9420166 -2.2760925l0 0c0 -1.7777405 1.4399414 -3.2188873 3.2161865 -3.2188873l0 0c1.7761841 0 3.2161255 1.4411469 3.2161255 3.2188873z" fill-rule="evenodd"/><path fill="#000000" fill-opacity="0.0" d="m623.1855 206.84769l-3.2161255 0" fill-rule="evenodd"/><path stroke="#000000" stroke-width="1.0" stroke-linejoin="round" stroke-linecap="butt" d="m623.1855 206.84769l-3.2161255 0" fill-rule="evenodd"/><path fill="#000000" fill-opacity="0.0" d="m621.63293 205.23824l0 3.2188873" fill-rule="evenodd"/><path stroke="#000000" stroke-width="1.0" stroke-linejoin="round" stroke-linecap="butt" d="m621.63293 205.23824l0 3.2188873" fill-rule="evenodd"/><path fill="#000000" fill-opacity="0.0" d="m620.98615 195.68475l0 -78.48512l24.830078 0l0 78.48512z" fill-rule="evenodd"/><path fill="#000000" d="m627.8393 181.93047l0 -3.21875q0 -2.28125 0.6875 -3.296875q0.671875 -1.015625 2.140625 -1.015625q1.015625 0 1.671875 0.578125q0.65625 0.5625 0.859375 1.640625l0.078125 0q0.4375 -2.59375 2.734375 -2.59375q1.53125 0 2.390625 1.03125q0.859375 1.03125 0.859375 2.890625l0 3.984375l-11.421875 0zm4.890625 -1.328125l0 -2.1875q0 -1.40625 -0.4375 -2.015625q-0.453125 -0.625 -1.5 -0.625q-0.953125 0 -1.375 0.6875q-0.4375 0.6875 -0.4375 2.1875l0 1.953125l3.75 0zm1.125 0l4.265625 0l0 -2.375q0 -1.390625 -0.53125 -2.078125q-0.53125 -0.703125 -1.671875 -0.703125q-1.0625 0 -1.5625 0.71875q-0.5 0.703125 -0.5 2.171875l0 2.265625zm5.40625 -14.1015625l-1.21875 0.25l0 0.0625q0.796875 0.640625 1.09375 1.28125q0.28125 0.640625 0.28125 1.59375q0 1.265625 -0.65625 2.0q-0.65625 0.71875 -1.875 0.71875q-2.59375 0 -2.71875 -4.15625l-0.046875 -1.453125l-0.53125 0q-1.0 0 -1.484375 0.4375q-0.484375 0.4375 -0.484375 1.390625q0 1.0625 0.65625 2.421875l-0.984375 0.390625q-0.34375 -0.625 -0.53125 -1.375q-0.203125 -0.765625 -0.203125 -1.515625q0 -1.53125 0.6875 -2.265625q0.671875 -0.75 2.171875 -0.75l5.84375 0l0 0.96875zm-0.921875 2.921875q0 -1.203125 -0.65625 -1.890625q-0.671875 -0.703125 -1.859375 -0.703125l-0.78125 0l0.0625 1.296875q0.046875 1.546875 0.484375 2.234375q0.421875 0.6875 1.3125 0.6875q0.703125 0 1.078125 -0.421875q0.359375 -0.4375 0.359375 -1.203125zm0 -9.3203125q0 -0.34375 -0.046875 -0.65625q-0.046875 -0.328125 -0.109375 -0.515625l1.0 0q0.109375 0.203125 0.171875 0.625q0.0625 0.40625 0.0625 0.734375q0 2.484375 -2.625 2.484375l-5.09375 0l0 1.21875l-0.625 0l-0.53125 -1.21875l-1.828125 -0.546875l0 -0.75l1.984375 0l0 -2.484375l1.0 0l0 2.484375l5.046875 0q0.765625 0 1.1875 -0.359375q0.40625 -0.375 0.40625 -1.015625zm0 -5.6484375q0 -0.34375 -0.046875 -0.65625q-0.046875 -0.328125 -0.109375 -0.515625l1.0 0q0.109375 0.203125 0.171875 0.625q0.0625 0.40625 0.0625 0.734375q0 2.484375 -2.625 2.484375l-5.09375 0l0 1.21875l-0.625 0l-0.53125 -1.21875l-1.828125 -0.546875l0 -0.75l1.984375 0l0 -2.484375l1.0 0l0 2.484375l5.046875 0q0.765625 0 1.1875 -0.359375q0.40625 -0.375 0.40625 -1.015625zm1.078125 -6.5078125q0 1.90625 -1.15625 3.0q-1.15625 1.09375 -3.21875 1.09375q-2.0625 0 -3.28125 -1.015625q-1.21875 -1.015625 -1.21875 -2.734375q0 -1.609375 1.0625 -2.546875q1.046875 -0.9375 2.78125 -0.9375l0.828125 0l0 5.890625q1.5 -0.03125 2.28125 -0.75q0.78125 -0.734375 0.78125 -2.046875q0 -1.375 -0.578125 -2.734375l1.15625 0q0.296875 0.6875 0.421875 1.3125q0.140625 0.609375 0.140625 1.46875zm-7.796875 0.359375q0 1.03125 0.671875 1.640625q0.671875 0.609375 1.859375 0.71875l0 -4.46875q-1.21875 0 -1.875 0.546875q-0.65625 0.546875 -0.65625 1.5625zm-1.078125 -9.6171875q0 -0.578125 0.09375 -1.03125l1.203125 0.1875q-0.125 0.53125 -0.125 0.9375q0 1.03125 0.84375 1.78125q0.84375 0.734375 2.109375 0.734375l4.59375 0l0 1.296875l-8.5625 0l0 -1.078125l1.578125 -0.140625l0 -0.0625q-0.828125 -0.484375 -1.28125 -1.15625q-0.453125 -0.671875 -0.453125 -1.46875zm0.15625 -1.265625l0 -1.390625l4.875 -1.875q1.671875 -0.625 2.421875 -0.765625l0 -0.0625q-0.40625 -0.109375 -1.359375 -0.421875q-0.96875 -0.328125 -5.9375 -2.125l0 -1.390625l9.75 3.671875q1.453125 0.546875 2.046875 1.28125q0.609375 0.734375 0.609375 1.796875q0 0.59375 -0.125 1.171875l-1.046875 0q0.09375 -0.4375 0.09375 -0.96875q0 -1.328125 -1.5 -1.90625l-1.21875 -0.46875l-8.609375 3.453125z" fill-rule="nonzero"/><path fill="#000000" fill-opacity="0.0" d="m633.99475 81.4354l0 -37.501312l26.750671 0l125.25983 216.95801l-150.76117 0l0 -23.957993" fill-rule="evenodd"/><path stroke="#000000" stroke-width="1.0" stroke-linejoin="round" stroke-linecap="butt" d="m633.99475 81.4354l0 -37.501312l26.750671 0l125.25983 216.95801l-150.76117 0l0 -23.957993" fill-rule="evenodd"/><defs><radialGradient id="p.3" gradientUnits="userSpaceOnUse" gradientTransform="matrix(4.1195342153465315 0.0 0.0 4.1195342153465315 0.0 0.0)" spreadMethod="pad" cx="160.211013225108" cy="10.525254983917819" fx="160.211013225108" fy="10.525254983917819" r="4.119534015655518"><stop offset="0.0" stop-color="#1077d2"/><stop offset="1.0" stop-color="#093153"/></radialGradient></defs><path fill="url(#p.3)" d="m647.99475 43.35915l0 0c0 -6.6274185 5.3725586 -12.000002 12.0 -12.000002l0 0c3.1826172 0 6.2348633 1.2642803 8.485291 3.514719c2.2504272 2.2504349 3.5147095 5.302685 3.5147095 8.485283l0 0c0 6.6274147 -5.3725586 12.0 -12.0 12.0l0 0c-6.6274414 0 -12.0 -5.3725853 -12.0 -12.0z" fill-rule="evenodd"/><path stroke="#000000" stroke-width="1.0" stroke-linejoin="round" stroke-linecap="butt" d="m647.99475 43.35915l0 0c0 -6.6274185 5.3725586 -12.000002 12.0 -12.000002l0 0c3.1826172 0 6.2348633 1.2642803 8.485291 3.514719c2.2504272 2.2504349 3.5147095 5.302685 3.5147095 8.485283l0 0c0 6.6274147 -5.3725586 12.0 -12.0 12.0l0 0c-6.6274414 0 -12.0 -5.3725853 -12.0 -12.0z" fill-rule="evenodd"/><path fill="#000000" d="m634.2522 58.140957l5.291382 5.291336l-10.582703 0z" fill-rule="evenodd"/><path stroke="#000000" stroke-width="1.0" stroke-linejoin="round" stroke-linecap="butt" d="m634.2522 58.140957l5.291382 5.291336l-10.582703 0z" fill-rule="evenodd"/><path fill="#000000" d="m721.4522 147.93034l-7.2755737 -1.7637787l9.039368 -5.5118103z" fill-rule="evenodd"/><path stroke="#000000" stroke-width="1.0" stroke-linejoin="round" stroke-linecap="butt" d="m721.4522 147.93034l-7.2755737 -1.7637787l9.039368 -5.5118103z" fill-rule="evenodd"/><path fill="#000000" d="m705.40405 260.5305l5.165344 -5.417328l0.25201416 10.582672z" fill-rule="evenodd"/><path stroke="#000000" stroke-width="1.0" stroke-linejoin="round" stroke-linecap="butt" d="m705.40405 260.5305l5.165344 -5.417328l0.25201416 10.582672z" fill-rule="evenodd"/><path fill="#000000" fill-opacity="0.0" d="m322.9987 31.5l-50.015747 -1.5118103" fill-rule="evenodd"/><path stroke="#000000" stroke-width="2.0" stroke-linejoin="round" stroke-linecap="butt" stroke-dasharray="2.0,6.0" d="m322.9987 31.5l-50.015747 -1.5118103" fill-rule="evenodd"/><path fill="#000000" fill-opacity="0.0" d="m450.7467 31.5l61.259888 0" fill-rule="evenodd"/><path stroke="#000000" stroke-width="2.0" stroke-linejoin="round" stroke-linecap="butt" stroke-dasharray="2.0,6.0" d="m450.7467 31.5l61.259888 0" fill-rule="evenodd"/><path fill="#000000" fill-opacity="0.0" d="m322.9987 247.64174l127.74802 0l0 31.716537l-127.74802 0z" fill-rule="evenodd"/><path fill="#000000" d="m337.88834 269.36l0 -11.421875l1.328125 0l0 10.21875l5.03125 0l0 1.203125l-6.359375 0zm15.4921875 -4.296875q0 2.09375 -1.0625 3.28125q-1.046875 1.171875 -2.90625 1.171875q-1.140625 0 -2.03125 -0.53125q-0.890625 -0.546875 -1.375 -1.546875q-0.484375 -1.015625 -0.484375 -2.375q0 -2.09375 1.046875 -3.25q1.046875 -1.171875 2.90625 -1.171875q1.796875 0 2.84375 1.203125q1.0625 1.1875 1.0625 3.21875zm-6.515625 0q0 1.640625 0.65625 2.5q0.65625 0.859375 1.921875 0.859375q1.28125 0 1.9375 -0.84375q0.65625 -0.859375 0.65625 -2.515625q0 -1.625 -0.65625 -2.46875q-0.65625 -0.859375 -1.953125 -0.859375q-1.265625 0 -1.921875 0.84375q-0.640625 0.828125 -0.640625 2.484375zm15.7890625 4.296875l-1.578125 -5.03125q-0.140625 -0.453125 -0.546875 -2.09375l-0.0625 0q-0.3125 1.375 -0.546875 2.109375l-1.625 5.015625l-1.5 0l-2.328125 -8.5625l1.359375 0q0.828125 3.21875 1.25 4.90625q0.4375 1.6875 0.5 2.28125l0.0625 0q0.09375 -0.453125 0.28125 -1.15625q0.1875 -0.703125 0.328125 -1.125l1.578125 -4.90625l1.40625 0l1.53125 4.90625q0.4375 1.34375 0.59375 2.265625l0.0625 0q0.03125 -0.28125 0.15625 -0.859375q0.140625 -0.59375 1.640625 -6.3125l1.34375 0l-2.375 8.5625l-1.53125 0zm13.5859375 0.15625q-0.828125 0 -1.53125 -0.3125q-0.6875 -0.3125 -1.15625 -0.953125l-0.09375 0q0.09375 0.75 0.09375 1.4375l0 3.515625l-1.296875 0l0 -12.40625l1.0625 0l0.171875 1.171875l0.0625 0q0.5 -0.703125 1.15625 -1.015625q0.671875 -0.3125 1.53125 -0.3125q1.703125 0 2.625 1.171875q0.9375 1.15625 0.9375 3.25q0 2.109375 -0.953125 3.28125q-0.9375 1.171875 -2.609375 1.171875zm-0.1875 -7.78125q-1.3125 0 -1.90625 0.734375q-0.578125 0.71875 -0.59375 2.3125l0 0.28125q0 1.8125 0.59375 2.59375q0.609375 0.765625 1.9375 0.765625q1.109375 0 1.734375 -0.890625q0.640625 -0.90625 0.640625 -2.484375q0 -1.59375 -0.640625 -2.453125q-0.625 -0.859375 -1.765625 -0.859375zm13.3984375 3.328125q0 2.09375 -1.0625 3.28125q-1.046875 1.171875 -2.90625 1.171875q-1.140625 0 -2.03125 -0.53125q-0.890625 -0.546875 -1.375 -1.546875q-0.484375 -1.015625 -0.484375 -2.375q0 -2.09375 1.046875 -3.25q1.046875 -1.171875 2.90625 -1.171875q1.796875 0 2.84375 1.203125q1.0625 1.1875 1.0625 3.21875zm-6.515625 0q0 1.640625 0.65625 2.5q0.65625 0.859375 1.921875 0.859375q1.28125 0 1.9375 -0.84375q0.65625 -0.859375 0.65625 -2.515625q0 -1.625 -0.65625 -2.46875q-0.65625 -0.859375 -1.953125 -0.859375q-1.265625 0 -1.921875 0.84375q-0.640625 0.828125 -0.640625 2.484375zm11.5546875 3.375q0.34375 0 0.65625 -0.046875q0.328125 -0.046875 0.515625 -0.109375l0 1.0q-0.203125 0.109375 -0.625 0.171875q-0.40625 0.0625 -0.734375 0.0625q-2.484375 0 -2.484375 -2.625l0 -5.09375l-1.21875 0l0 -0.625l1.21875 -0.53125l0.546875 -1.828125l0.75 0l0 1.984375l2.484375 0l0 1.0l-2.484375 0l0 5.046875q0 0.765625 0.359375 1.1875q0.375 0.40625 1.015625 0.40625zm6.5078125 1.078125q-1.90625 0 -3.0 -1.15625q-1.09375 -1.15625 -1.09375 -3.21875q0 -2.0625 1.015625 -3.28125q1.015625 -1.21875 2.734375 -1.21875q1.609375 0 2.546875 1.0625q0.9375 1.046875 0.9375 2.78125l0 0.828125l-5.890625 0q0.03125 1.5 0.75 2.28125q0.734375 0.78125 2.046875 0.78125q1.375 0 2.734375 -0.578125l0 1.15625q-0.6875 0.296875 -1.3125 0.421875q-0.609375 0.140625 -1.46875 0.140625zm-0.359375 -7.796875q-1.03125 0 -1.640625 0.671875q-0.609375 0.671875 -0.71875 1.859375l4.46875 0q0 -1.21875 -0.546875 -1.875q-0.546875 -0.65625 -1.5625 -0.65625zm11.5703125 7.640625l0 -5.546875q0 -1.046875 -0.484375 -1.5625q-0.46875 -0.515625 -1.484375 -0.515625q-1.34375 0 -1.96875 0.734375q-0.625 0.71875 -0.625 2.390625l0 4.5l-1.296875 0l0 -8.5625l1.0625 0l0.203125 1.171875l0.0625 0q0.40625 -0.640625 1.125 -0.984375q0.71875 -0.34375 1.59375 -0.34375q1.546875 0 2.328125 0.75q0.78125 0.734375 0.78125 2.375l0 5.59375l-1.296875 0zm6.7265625 -0.921875q0.34375 0 0.65625 -0.046875q0.328125 -0.046875 0.515625 -0.109375l0 1.0q-0.203125 0.109375 -0.625 0.171875q-0.40625 0.0625 -0.734375 0.0625q-2.484375 0 -2.484375 -2.625l0 -5.09375l-1.21875 0l0 -0.625l1.21875 -0.53125l0.546875 -1.828125l0.75 0l0 1.984375l2.484375 0l0 1.0l-2.484375 0l0 5.046875q0 0.765625 0.359375 1.1875q0.375 0.40625 1.015625 0.40625zm4.1796875 0.921875l-1.296875 0l0 -8.5625l1.296875 0l0 8.5625zm-1.40625 -10.890625q0 -0.4375 0.21875 -0.640625q0.21875 -0.21875 0.546875 -0.21875q0.3125 0 0.53125 0.21875q0.234375 0.203125 0.234375 0.640625q0 0.4375 -0.234375 0.65625q-0.21875 0.21875 -0.53125 0.21875q-0.328125 0 -0.546875 -0.21875q-0.21875 -0.21875 -0.21875 -0.65625zm9.421875 10.890625l-0.25 -1.21875l-0.0625 0q-0.640625 0.796875 -1.28125 1.09375q-0.640625 0.28125 -1.59375 0.28125q-1.265625 0 -2.0 -0.65625q-0.71875 -0.65625 -0.71875 -1.875q0 -2.59375 4.15625 -2.71875l1.453125 -0.046875l0 -0.53125q0 -1.0 -0.4375 -1.484375q-0.4375 -0.484375 -1.390625 -0.484375q-1.0625 0 -2.421875 0.65625l-0.390625 -0.984375q0.625 -0.34375 1.375 -0.53125q0.765625 -0.203125 1.515625 -0.203125q1.53125 0 2.265625 0.6875q0.75 0.671875 0.75 2.171875l0 5.84375l-0.96875 0zm-2.921875 -0.921875q1.203125 0 1.890625 -0.65625q0.703125 -0.671875 0.703125 -1.859375l0 -0.78125l-1.296875 0.0625q-1.546875 0.046875 -2.234375 0.484375q-0.6875 0.421875 -0.6875 1.3125q0 0.703125 0.421875 1.078125q0.4375 0.359375 1.203125 0.359375zm7.8515625 0.921875l-1.296875 0l0 -12.15625l1.296875 0l0 12.15625z" fill-rule="nonzero"/><path fill="#000000" fill-opacity="0.0" d="m322.9987 263.5l-50.015747 -1.5118103" fill-rule="evenodd"/><path stroke="#000000" stroke-width="2.0" stroke-linejoin="round" stroke-linecap="butt" stroke-dasharray="2.0,6.0" d="m322.9987 263.5l-50.015747 -1.5118103" fill-rule="evenodd"/><path fill="#000000" fill-opacity="0.0" d="m450.7467 263.5l61.259888 0" fill-rule="evenodd"/><path stroke="#000000" stroke-width="2.0" stroke-linejoin="round" stroke-linecap="butt" stroke-dasharray="2.0,6.0" d="m450.7467 263.5l61.259888 0" fill-rule="evenodd"/><path fill="#000000" fill-opacity="0.0" d="m718.9869 43.35915l-46.992126 0" fill-rule="evenodd"/><path stroke="#000000" stroke-width="1.0" stroke-linejoin="round" stroke-linecap="butt" d="m718.9869 43.35915l-40.992126 0" fill-rule="evenodd"/><path fill="#000000" stroke="#000000" stroke-width="1.0" stroke-linecap="butt" d="m677.99475 41.707417l-4.538086 1.6517334l4.538086 1.6517334z" fill-rule="evenodd"/><path fill="#000000" fill-opacity="0.0" d="m713.0 24.0l259.46454 0l0 30.267715l-259.46454 0z" fill-rule="evenodd"/><path fill="#000000" d="m729.9375 48.36l-6.359375 0l0 -11.421875l6.359375 0l0 1.171875l-5.03125 0l0 3.6875l4.734375 0l0 1.171875l-4.734375 0l0 4.203125l5.03125 0l0 1.1875zm3.6328125 0l-1.296875 0l0 -12.15625l1.296875 0l0 12.15625zm6.375 0.15625q-1.90625 0 -3.0 -1.15625q-1.09375 -1.15625 -1.09375 -3.21875q0 -2.0625 1.015625 -3.28125q1.015625 -1.21875 2.734375 -1.21875q1.609375 0 2.546875 1.0625q0.9375 1.046875 0.9375 2.78125l0 0.828125l-5.890625 0q0.03125 1.5 0.75 2.28125q0.734375 0.78125 2.046875 0.78125q1.375 0 2.734375 -0.578125l0 1.15625q-0.6875 0.296875 -1.3125 0.421875q-0.609375 0.140625 -1.46875 0.140625zm-0.359375 -7.796875q-1.03125 0 -1.640625 0.671875q-0.609375 0.671875 -0.71875 1.859375l4.46875 0q0 -1.21875 -0.546875 -1.875q-0.546875 -0.65625 -1.5625 -0.65625zm9.1328125 7.796875q-1.859375 0 -2.875 -1.140625q-1.015625 -1.15625 -1.015625 -3.25q0 -2.140625 1.03125 -3.3125q1.03125 -1.171875 2.953125 -1.171875q0.609375 0 1.21875 0.140625q0.625 0.125 0.984375 0.296875l-0.40625 1.109375q-0.421875 -0.171875 -0.9375 -0.28125q-0.5 -0.125 -0.890625 -0.125q-2.609375 0 -2.609375 3.328125q0 1.578125 0.625 2.421875q0.640625 0.84375 1.890625 0.84375q1.078125 0 2.203125 -0.453125l0 1.140625q-0.859375 0.453125 -2.171875 0.453125zm6.9609375 -1.078125q0.34375 0 0.65625 -0.046875q0.328125 -0.046875 0.515625 -0.109375l0 1.0q-0.203125 0.109375 -0.625 0.171875q-0.40625 0.0625 -0.734375 0.0625q-2.484375 0 -2.484375 -2.625l0 -5.09375l-1.21875 0l0 -0.625l1.21875 -0.53125l0.546875 -1.828125l0.75 0l0 1.984375l2.484375 0l0 1.0l-2.484375 0l0 5.046875q0 0.765625 0.359375 1.1875q0.375 0.40625 1.015625 0.40625zm6.7890625 -7.796875q0.578125 0 1.03125 0.09375l-0.1875 1.203125q-0.53125 -0.125 -0.9375 -0.125q-1.03125 0 -1.78125 0.84375q-0.734375 0.84375 -0.734375 2.109375l0 4.59375l-1.296875 0l0 -8.5625l1.078125 0l0.140625 1.578125l0.0625 0q0.484375 -0.828125 1.15625 -1.28125q0.671875 -0.453125 1.46875 -0.453125zm10.015625 4.421875q0 2.09375 -1.0625 3.28125q-1.046875 1.171875 -2.90625 1.171875q-1.140625 0 -2.03125 -0.53125q-0.890625 -0.546875 -1.375 -1.546875q-0.484375 -1.015625 -0.484375 -2.375q0 -2.09375 1.046875 -3.25q1.046875 -1.171875 2.90625 -1.171875q1.796875 0 2.84375 1.203125q1.0625 1.1875 1.0625 3.21875zm-6.515625 0q0 1.640625 0.65625 2.5q0.65625 0.859375 1.921875 0.859375q1.28125 0 1.9375 -0.84375q0.65625 -0.859375 0.65625 -2.515625q0 -1.625 -0.65625 -2.46875q-0.65625 -0.859375 -1.953125 -0.859375q-1.265625 0 -1.921875 0.84375q-0.640625 0.828125 -0.640625 2.484375zm14.6484375 4.296875l0 -5.546875q0 -1.046875 -0.484375 -1.5625q-0.46875 -0.515625 -1.484375 -0.515625q-1.34375 0 -1.96875 0.734375q-0.625 0.71875 -0.625 2.390625l0 4.5l-1.296875 0l0 -8.5625l1.0625 0l0.203125 1.171875l0.0625 0q0.40625 -0.640625 1.125 -0.984375q0.71875 -0.34375 1.59375 -0.34375q1.546875 0 2.328125 0.75q0.78125 0.734375 0.78125 2.375l0 5.59375l-1.296875 0z" fill-rule="nonzero"/></g></svg>