<svg version="1.1" viewBox="0.0 0.0 607.0 332.0" fill="none" stroke="none" stroke-linecap="square" stroke-miterlimit="10" xmlns:xlink="http://www.w3.org/1999/xlink" xmlns="http://www.w3.org/2000/svg"><clipPath id="p.0"><path d="m0 0l607.0 0l0 332.0l-607.0 0l0 -332.0z" clip-rule="nonzero"/></clipPath><g clip-path="url(#p.0)"><path fill="#000000" fill-opacity="0.0" d="m0 0l607.0 0l0 332.0l-607.0 0z" fill-rule="evenodd"/><path fill="#434343" d="m86.24213 28.03412l378.01575 0l0 18.929132l-378.01575 0z" fill-rule="evenodd"/><path fill="#434343" d="m86.24213 122.855644l378.01575 0l0 18.92913l-378.01575 0z" fill-rule="evenodd"/><path fill="#cfe2f3" d="m86.000656 51.85302l0 66.0l387.75067 0l0 23.750648l47.24936 -56.75065l-47.24936 -56.750656l0 23.750658z" fill-rule="evenodd"/><path fill="#000000" fill-opacity="0.0" d="m210.9941 70.05905l137.00789 0l0 29.70079l-137.00789 0z" fill-rule="evenodd"/><path fill="#000000" d="m225.90038 90.76945l0 -11.421875l1.328125 0l0 10.21875l5.03125 0l0 1.203125l-6.359375 0zm15.4921875 -4.296875q0 2.09375 -1.0625 3.28125q-1.046875 1.171875 -2.90625 1.171875q-1.140625 0 -2.03125 -0.53125q-0.890625 -0.546875 -1.375 -1.546875q-0.484375 -1.015625 -0.484375 -2.375q0 -2.09375 1.046875 -3.25q1.046875 -1.171875 2.90625 -1.171875q1.796875 0 2.84375 1.203125q1.0625 1.1875 1.0625 3.21875zm-6.515625 0q0 1.640625 0.65625 2.5q0.65625 0.859375 1.921875 0.859375q1.28125 0 1.9375 -0.84375q0.65625 -0.859375 0.65625 -2.515625q0 -1.625 -0.65625 -2.46875q-0.65625 -0.859375 -1.953125 -0.859375q-1.265625 0 -1.921875 0.84375q-0.640625 0.828125 -0.640625 2.484375zm15.7890625 4.296875l-1.578125 -5.03125q-0.140625 -0.453125 -0.546875 -2.09375l-0.0625 0q-0.3125 1.375 -0.546875 2.109375l-1.625 5.015625l-1.5 0l-2.328125 -8.5625l1.359375 0q0.828125 3.21875 1.25 4.90625q0.4375 1.6875 0.5 2.28125l0.0625 0q0.09375 -0.453125 0.28125 -1.15625q0.1875 -0.703125 0.328125 -1.125l1.578125 -4.90625l1.40625 0l1.53125 4.90625q0.4375 1.34375 0.59375 2.265625l0.0625 0q0.03125 -0.28125 0.15625 -0.859375q0.140625 -0.59375 1.640625 -6.3125l1.34375 0l-2.375 8.5625l-1.53125 0zm13.507797 -8.71875q0.578125 0 1.03125 0.09375l-0.1875 1.203125q-0.53125 -0.125 -0.9375 -0.125q-1.03125 0 -1.78125 0.84375q-0.734375 0.84375 -0.734375 2.109375l0 4.59375l-1.296875 0l0 -8.5625l1.078125 0l0.140625 1.578125l0.0625 0q0.484375 -0.828125 1.15625 -1.28125q0.671875 -0.453125 1.46875 -0.453125zm6.25 8.875q-1.90625 0 -3.0 -1.15625q-1.09375 -1.15625 -1.09375 -3.21875q0 -2.0625 1.015625 -3.28125q1.015625 -1.21875 2.734375 -1.21875q1.609375 0 2.546875 1.0625q0.9375 1.046875 0.9375 2.78125l0 0.828125l-5.890625 0q0.03125 1.5 0.75 2.28125q0.734375 0.78125 2.046875 0.78125q1.375 0 2.734375 -0.578125l0 1.15625q-0.6875 0.296875 -1.3125 0.421875q-0.609375 0.140625 -1.46875 0.140625zm-0.359375 -7.796875q-1.03125 0 -1.640625 0.671875q-0.609375 0.671875 -0.71875 1.859375l4.46875 0q0 -1.21875 -0.546875 -1.875q-0.546875 -0.65625 -1.5625 -0.65625zm11.2421875 5.296875q0 1.203125 -0.890625 1.859375q-0.890625 0.640625 -2.5 0.640625q-1.703125 0 -2.65625 -0.546875l0 -1.203125q0.609375 0.3125 1.3125 0.5q0.71875 0.171875 1.375 0.171875q1.015625 0 1.5625 -0.3125q0.546875 -0.328125 0.546875 -1.0q0 -0.5 -0.4375 -0.84375q-0.4375 -0.359375 -1.6875 -0.84375q-1.203125 -0.453125 -1.703125 -0.78125q-0.5 -0.328125 -0.75 -0.75q-0.25 -0.421875 -0.25 -1.015625q0 -1.046875 0.84375 -1.640625q0.859375 -0.609375 2.34375 -0.609375q1.390625 0 2.703125 0.5625l-0.453125 1.046875q-1.296875 -0.53125 -2.34375 -0.53125q-0.921875 0 -1.390625 0.296875q-0.46875 0.28125 -0.46875 0.796875q0 0.34375 0.171875 0.59375q0.1875 0.234375 0.578125 0.453125q0.390625 0.21875 1.5 0.625q1.515625 0.5625 2.046875 1.125q0.546875 0.5625 0.546875 1.40625zm3.3984375 2.34375l-1.296875 0l0 -8.5625l1.296875 0l0 8.5625zm-1.40625 -10.890625q0 -0.4375 0.21875 -0.640625q0.21875 -0.21875 0.546875 -0.21875q0.3125 0 0.53125 0.21875q0.234375 0.203125 0.234375 0.640625q0 0.4375 -0.234375 0.65625q-0.21875 0.21875 -0.53125 0.21875q-0.328125 0 -0.546875 -0.21875q-0.21875 -0.21875 -0.21875 -0.65625zm9.6875 8.546875q0 1.203125 -0.890625 1.859375q-0.890625 0.640625 -2.5 0.640625q-1.703125 0 -2.65625 -0.546875l0 -1.203125q0.609375 0.3125 1.3125 0.5q0.71875 0.171875 1.375 0.171875q1.015625 0 1.5625 -0.3125q0.546875 -0.328125 0.546875 -1.0q0 -0.5 -0.4375 -0.84375q-0.4375 -0.359375 -1.6875 -0.84375q-1.203125 -0.453125 -1.703125 -0.78125q-0.5 -0.328125 -0.75 -0.75q-0.25 -0.421875 -0.25 -1.015625q0 -1.046875 0.84375 -1.640625q0.859375 -0.609375 2.34375 -0.609375q1.390625 0 2.703125 0.5625l-0.453125 1.046875q-1.296875 -0.53125 -2.34375 -0.53125q-0.921875 0 -1.390625 0.296875q-0.46875 0.28125 -0.46875 0.796875q0 0.34375 0.171875 0.59375q0.1875 0.234375 0.578125 0.453125q0.390625 0.21875 1.5 0.625q1.515625 0.5625 2.046875 1.125q0.546875 0.5625 0.546875 1.40625zm4.8671875 1.421875q0.34375 0 0.65625 -0.046875q0.328125 -0.046875 0.515625 -0.109375l0 1.0q-0.203125 0.109375 -0.625 0.171875q-0.40625 0.0625 -0.734375 0.0625q-2.484375 0 -2.484375 -2.625l0 -5.09375l-1.21875 0l0 -0.625l1.21875 -0.53125l0.546875 -1.828125l0.75 0l0 1.984375l2.484375 0l0 1.0l-2.484375 0l0 5.046875q0 0.765625 0.359375 1.1875q0.375 0.40625 1.015625 0.40625zm8.1484375 0.921875l-0.25 -1.21875l-0.0625 0q-0.640625 0.796875 -1.28125 1.09375q-0.640625 0.28125 -1.59375 0.28125q-1.265625 0 -2.0 -0.65625q-0.71875 -0.65625 -0.71875 -1.875q0 -2.59375 4.15625 -2.71875l1.453125 -0.046875l0 -0.53125q0 -1.0 -0.4375 -1.484375q-0.4375 -0.484375 -1.390625 -0.484375q-1.0625 0 -2.421875 0.65625l-0.390625 -0.984375q0.625 -0.34375 1.375 -0.53125q0.765625 -0.203125 1.515625 -0.203125q1.53125 0 2.265625 0.6875q0.75 0.671875 0.75 2.171875l0 5.84375l-0.96875 0zm-2.921875 -0.921875q1.203125 0 1.890625 -0.65625q0.703125 -0.671875 0.703125 -1.859375l0 -0.78125l-1.296875 0.0625q-1.546875 0.046875 -2.234375 0.484375q-0.6875 0.421875 -0.6875 1.3125q0 0.703125 0.421875 1.078125q0.4375 0.359375 1.203125 0.359375zm12.4140625 0.921875l0 -5.546875q0 -1.046875 -0.484375 -1.5625q-0.46875 -0.515625 -1.484375 -0.515625q-1.34375 0 -1.96875 0.734375q-0.625 0.71875 -0.625 2.390625l0 4.5l-1.296875 0l0 -8.5625l1.0625 0l0.203125 1.171875l0.0625 0q0.40625 -0.640625 1.125 -0.984375q0.71875 -0.34375 1.59375 -0.34375q1.546875 0 2.328125 0.75q0.78125 0.734375 0.78125 2.375l0 5.59375l-1.296875 0zm7.3828125 0.15625q-1.859375 0 -2.875 -1.140625q-1.015625 -1.15625 -1.015625 -3.25q0 -2.140625 1.03125 -3.3125q1.03125 -1.171875 2.953125 -1.171875q0.609375 0 1.21875 0.140625q0.625 0.125 0.984375 0.296875l-0.40625 1.109375q-0.421875 -0.171875 -0.9375 -0.28125q-0.5 -0.125 -0.890625 -0.125q-2.609375 0 -2.609375 3.328125q0 1.578125 0.625 2.421875q0.640625 0.84375 1.890625 0.84375q1.078125 0 2.203125 -0.453125l0 1.140625q-0.859375 0.453125 -2.171875 0.453125zm7.8203125 0q-1.90625 0 -3.0 -1.15625q-1.09375 -1.15625 -1.09375 -3.21875q0 -2.0625 1.015625 -3.28125q1.015625 -1.21875 2.734375 -1.21875q1.609375 0 2.546875 1.0625q0.9375 1.046875 0.9375 2.78125l0 0.828125l-5.890625 0q0.03125 1.5 0.75 2.28125q0.734375 0.78125 2.046875 0.78125q1.375 0 2.734375 -0.578125l0 1.15625q-0.6875 0.296875 -1.3125 0.421875q-0.609375 0.140625 -1.46875 0.140625zm-0.359375 -7.796875q-1.03125 0 -1.640625 0.671875q-0.609375 0.671875 -0.71875 1.859375l4.46875 0q0 -1.21875 -0.546875 -1.875q-0.546875 -0.65625 -1.5625 -0.65625z" fill-rule="nonzero"/><path fill="#434343" d="m86.24869 190.21523l0 19.0l94.50131 0l94.49869 19.0l94.50131 -19.0l94.49869 0l0 -19.0l-94.49869 0l-94.50131 19.0l-94.49869 -19.0z" fill-rule="evenodd"/><path fill="#434343" d="m86.24869 303.8058l0 -19.0l94.50131 0l94.49869 -19.0l94.50131 19.0l94.49869 0l0 19.0l-94.49869 0l-94.50131 -19.0l-94.49869 19.0z" fill-rule="evenodd"/><path fill="#cfe2f3" d="m85.999344 213.71654l94.750656 0l94.49869 19.249344l94.50131 -19.0l104.0 0l0 -24.0l47.24933 57.0l-47.24933 57.0l0 -23.750671l-104.25198 0l-94.49869 -19.0l-94.5013 19.0l-94.49869 0z" fill-rule="evenodd"/><path fill="#000000" fill-opacity="0.0" d="m210.9941 232.11417l137.00789 0l0 29.700806l-137.00789 0z" fill-rule="evenodd"/><path fill="#000000" d="m232.56053 252.82457l-1.328125 0l0 -5.375l-6.015625 0l0 5.375l-1.328125 0l0 -11.421875l1.328125 0l0 4.859375l6.015625 0l0 -4.859375l1.328125 0l0 11.421875zm4.2265625 0l-1.296875 0l0 -8.5625l1.296875 0l0 8.5625zm-1.40625 -10.890625q0 -0.4375 0.21875 -0.640625q0.21875 -0.21875 0.546875 -0.21875q0.3125 0 0.53125 0.21875q0.234375 0.203125 0.234375 0.640625q0 0.4375 -0.234375 0.65625q-0.21875 0.21875 -0.53125 0.21875q-0.328125 0 -0.546875 -0.21875q-0.21875 -0.21875 -0.21875 -0.65625zm11.171875 2.328125l0 0.8125l-1.59375 0.1875q0.21875 0.28125 0.390625 0.71875q0.171875 0.4375 0.171875 1.0q0 1.25 -0.859375 2.0q-0.859375 0.75 -2.359375 0.75q-0.375 0 -0.71875 -0.0625q-0.828125 0.4375 -0.828125 1.109375q0 0.34375 0.28125 0.515625q0.296875 0.171875 1.0 0.171875l1.515625 0q1.390625 0 2.140625 0.59375q0.75 0.578125 0.75 1.703125q0 1.421875 -1.140625 2.15625q-1.140625 0.74998474 -3.328125 0.74998474q-1.6875 0 -2.59375 -0.625q-0.90625 -0.62498474 -0.90625 -1.7656097q0 -0.78125 0.5 -1.359375q0.5 -0.5625 1.40625 -0.765625q-0.328125 -0.15625 -0.5625 -0.46875q-0.21875 -0.3125 -0.21875 -0.71875q0 -0.46875 0.25 -0.8125q0.25 -0.359375 0.796875 -0.6875q-0.671875 -0.28125 -1.09375 -0.9375q-0.40625 -0.65625 -0.40625 -1.5q0 -1.40625 0.84375 -2.15625q0.84375 -0.765625 2.390625 -0.765625q0.671875 0 1.203125 0.15625l2.96875 0zm-6.828125 10.0q0 0.703125 0.578125 1.0625q0.59375 0.359375 1.6875 0.359375q1.625 0 2.40625 -0.5q0.796875 -0.484375 0.796875 -1.3125q0 -0.703125 -0.4375 -0.984375q-0.421875 -0.265625 -1.609375 -0.265625l-1.5625 0q-0.875 0 -1.375 0.421875q-0.484375 0.4375 -0.484375 1.21875zm0.703125 -7.265625q0 0.90625 0.5 1.375q0.515625 0.453125 1.421875 0.453125q1.890625 0 1.890625 -1.84375q0 -1.9375 -1.921875 -1.9375q-0.90625 0 -1.40625 0.5q-0.484375 0.484375 -0.484375 1.453125zm13.734375 5.828125l0 -5.546875q0 -1.046875 -0.484375 -1.5625q-0.46875 -0.515625 -1.484375 -0.515625q-1.34375 0 -1.96875 0.734375q-0.625 0.734375 -0.625 2.40625l0 4.484375l-1.296875 0l0 -12.15625l1.296875 0l0 3.671875q0 0.671875 -0.0625 1.109375l0.078125 0q0.390625 -0.625 1.09375 -0.96875q0.703125 -0.359375 1.609375 -0.359375q1.578125 0 2.359375 0.75q0.78125 0.734375 0.78125 2.359375l0 5.59375l-1.296875 0zm12.023422 -8.71875q0.578125 0 1.03125 0.09375l-0.1875 1.203125q-0.53125 -0.125 -0.9375 -0.125q-1.03125 0 -1.78125 0.84375q-0.734375 0.84375 -0.734375 2.109375l0 4.59375l-1.296875 0l0 -8.5625l1.078125 0l0.140625 1.578125l0.0625 0q0.484375 -0.828125 1.15625 -1.28125q0.671875 -0.453125 1.46875 -0.453125zm6.25 8.875q-1.90625 0 -3.0 -1.15625q-1.09375 -1.15625 -1.09375 -3.21875q0 -2.0625 1.015625 -3.28125q1.015625 -1.21875 2.734375 -1.21875q1.609375 0 2.546875 1.0625q0.9375 1.046875 0.9375 2.78125l0 0.828125l-5.890625 0q0.03125 1.5 0.75 2.28125q0.734375 0.78125 2.046875 0.78125q1.375 0 2.734375 -0.578125l0 1.15625q-0.6875 0.296875 -1.3125 0.421875q-0.609375 0.140625 -1.46875 0.140625zm-0.359375 -7.796875q-1.03125 0 -1.640625 0.671875q-0.609375 0.671875 -0.71875 1.859375l4.46875 0q0 -1.21875 -0.546875 -1.875q-0.546875 -0.65625 -1.5625 -0.65625zm11.2421875 5.296875q0 1.203125 -0.890625 1.859375q-0.890625 0.640625 -2.5 0.640625q-1.703125 0 -2.65625 -0.546875l0 -1.203125q0.609375 0.3125 1.3125 0.5q0.71875 0.171875 1.375 0.171875q1.015625 0 1.5625 -0.3125q0.546875 -0.328125 0.546875 -1.0q0 -0.5 -0.4375 -0.84375q-0.4375 -0.359375 -1.6875 -0.84375q-1.203125 -0.453125 -1.703125 -0.78125q-0.5 -0.328125 -0.75 -0.75q-0.25 -0.421875 -0.25 -1.015625q0 -1.046875 0.84375 -1.640625q0.859375 -0.609375 2.34375 -0.609375q1.390625 0 2.703125 0.5625l-0.453125 1.046875q-1.296875 -0.53125 -2.34375 -0.53125q-0.921875 0 -1.390625 0.296875q-0.46875 0.28125 -0.46875 0.796875q0 0.34375 0.171875 0.59375q0.1875 0.234375 0.578125 0.453125q0.390625 0.21875 1.5 0.625q1.515625 0.5625 2.046875 1.125q0.546875 0.5625 0.546875 1.40625zm3.3984375 2.34375l-1.296875 0l0 -8.5625l1.296875 0l0 8.5625zm-1.40625 -10.890625q0 -0.4375 0.21875 -0.640625q0.21875 -0.21875 0.546875 -0.21875q0.3125 0 0.53125 0.21875q0.234375 0.203125 0.234375 0.640625q0 0.4375 -0.234375 0.65625q-0.21875 0.21875 -0.53125 0.21875q-0.328125 0 -0.546875 -0.21875q-0.21875 -0.21875 -0.21875 -0.65625zm9.6875 8.546875q0 1.203125 -0.890625 1.859375q-0.890625 0.640625 -2.5 0.640625q-1.703125 0 -2.65625 -0.546875l0 -1.203125q0.609375 0.3125 1.3125 0.5q0.71875 0.171875 1.375 0.171875q1.015625 0 1.5625 -0.3125q0.546875 -0.328125 0.546875 -1.0q0 -0.5 -0.4375 -0.84375q-0.4375 -0.359375 -1.6875 -0.84375q-1.203125 -0.453125 -1.703125 -0.78125q-0.5 -0.328125 -0.75 -0.75q-0.25 -0.421875 -0.25 -1.015625q0 -1.046875 0.84375 -1.640625q0.859375 -0.609375 2.34375 -0.609375q1.390625 0 2.703125 0.5625l-0.453125 1.046875q-1.296875 -0.53125 -2.34375 -0.53125q-0.921875 0 -1.390625 0.296875q-0.46875 0.28125 -0.46875 0.796875q0 0.34375 0.171875 0.59375q0.1875 0.234375 0.578125 0.453125q0.390625 0.21875 1.5 0.625q1.515625 0.5625 2.046875 1.125q0.546875 0.5625 0.546875 1.40625zm4.8671875 1.421875q0.34375 0 0.65625 -0.046875q0.328125 -0.046875 0.515625 -0.109375l0 1.0q-0.203125 0.109375 -0.625 0.171875q-0.40625 0.0625 -0.734375 0.0625q-2.484375 0 -2.484375 -2.625l0 -5.09375l-1.21875 0l0 -0.625l1.21875 -0.53125l0.546875 -1.828125l0.75 0l0 1.984375l2.484375 0l0 1.0l-2.484375 0l0 5.046875q0 0.765625 0.359375 1.1875q0.375 0.40625 1.015625 0.40625zm8.1484375 0.921875l-0.25 -1.21875l-0.0625 0q-0.640625 0.796875 -1.28125 1.09375q-0.640625 0.28125 -1.59375 0.28125q-1.265625 0 -2.0 -0.65625q-0.71875 -0.65625 -0.71875 -1.875q0 -2.59375 4.15625 -2.71875l1.453125 -0.046875l0 -0.53125q0 -1.0 -0.4375 -1.484375q-0.4375 -0.484375 -1.390625 -0.484375q-1.0625 0 -2.421875 0.65625l-0.390625 -0.984375q0.625 -0.34375 1.375 -0.53125q0.765625 -0.203125 1.515625 -0.203125q1.53125 0 2.265625 0.6875q0.75 0.671875 0.75 2.171875l0 5.84375l-0.96875 0zm-2.921875 -0.921875q1.203125 0 1.890625 -0.65625q0.703125 -0.671875 0.703125 -1.859375l0 -0.78125l-1.296875 0.0625q-1.546875 0.046875 -2.234375 0.484375q-0.6875 0.421875 -0.6875 1.3125q0 0.703125 0.421875 1.078125q0.4375 0.359375 1.203125 0.359375zm12.4140625 0.921875l0 -5.546875q0 -1.046875 -0.484375 -1.5625q-0.46875 -0.515625 -1.484375 -0.515625q-1.34375 0 -1.96875 0.734375q-0.625 0.71875 -0.625 2.390625l0 4.5l-1.296875 0l0 -8.5625l1.0625 0l0.203125 1.171875l0.0625 0q0.40625 -0.640625 1.125 -0.984375q0.71875 -0.34375 1.59375 -0.34375q1.546875 0 2.328125 0.75q0.78125 0.734375 0.78125 2.375l0 5.59375l-1.296875 0zm7.3828125 0.15625q-1.859375 0 -2.875 -1.140625q-1.015625 -1.15625 -1.015625 -3.25q0 -2.140625 1.03125 -3.3125q1.03125 -1.171875 2.953125 -1.171875q0.609375 0 1.21875 0.140625q0.625 0.125 0.984375 0.296875l-0.40625 1.109375q-0.421875 -0.171875 -0.9375 -0.28125q-0.5 -0.125 -0.890625 -0.125q-2.609375 0 -2.609375 3.328125q0 1.578125 0.625 2.421875q0.640625 0.84375 1.890625 0.84375q1.078125 0 2.203125 -0.453125l0 1.140625q-0.859375 0.453125 -2.171875 0.453125zm7.8203125 0q-1.90625 0 -3.0 -1.15625q-1.09375 -1.15625 -1.09375 -3.21875q0 -2.0625 1.015625 -3.28125q1.015625 -1.21875 2.734375 -1.21875q1.609375 0 2.546875 1.0625q0.9375 1.046875 0.9375 2.78125l0 0.828125l-5.890625 0q0.03125 1.5 0.75 2.28125q0.734375 0.78125 2.046875 0.78125q1.375 0 2.734375 -0.578125l0 1.15625q-0.6875 0.296875 -1.3125 0.421875q-0.609375 0.140625 -1.46875 0.140625zm-0.359375 -7.796875q-1.03125 0 -1.640625 0.671875q-0.609375 0.671875 -0.71875 1.859375l4.46875 0q0 -1.21875 -0.546875 -1.875q-0.546875 -0.65625 -1.5625 -0.65625z" fill-rule="nonzero"/></g></svg>