<svg version="1.1" viewBox="0.0 0.0 958.1259842519685 331.46456692913387" fill="none" stroke="none" stroke-linecap="square" stroke-miterlimit="10" xmlns:xlink="http://www.w3.org/1999/xlink" xmlns="http://www.w3.org/2000/svg"><clipPath id="p.0"><path d="m0 0l958.126 0l0 331.46457l-958.126 0l0 -331.46457z" clip-rule="nonzero"/></clipPath><g clip-path="url(#p.0)"><path fill="#000000" fill-opacity="0.0" d="m0 0l958.126 0l0 331.46457l-958.126 0z" fill-rule="evenodd"/><defs><linearGradient id="p.1" gradientUnits="userSpaceOnUse" gradientTransform="matrix(0.0 11.659392651911038 -11.659392651911038 0.0 0.0 0.0)" spreadMethod="pad" x1="20.044373108673675" y1="-66.4892617131095" x2="8.384980457068236" y2="-66.48934613019689"><stop offset="0.0" stop-color="#b87333"/><stop offset="1.0" stop-color="#fad25c"/></linearGradient></defs><path fill="url(#p.1)" d="m758.2323 97.76378l0 0c-9.3845215 0 -16.992126 30.430542 -16.992126 67.968506c0 37.537964 7.607605 67.968506 16.992126 67.968506l-577.2599 0c-9.384491 0 -16.992126 -30.430542 -16.992126 -67.968506c0 -37.537964 7.6076355 -67.968506 16.992126 -67.968506z" fill-rule="evenodd"/><defs><linearGradient id="p.2" gradientUnits="userSpaceOnUse" gradientTransform="matrix(0.0 11.659392651911038 -11.659392651911038 0.0 0.0 0.0)" spreadMethod="pad" x1="20.044373108673675" y1="-66.4892617131095" x2="8.384980457068236" y2="-66.48934613019689"><stop offset="0.0" stop-color="#b87333"/><stop offset="1.0" stop-color="#fad25c"/></linearGradient></defs><path fill="url(#p.2)" d="m758.2323 97.76378l0 0c9.38446 0 16.992126 30.430542 16.992126 67.968506c0 37.537964 -7.607666 67.968506 -16.992126 67.968506l0 0c-9.3845215 0 -16.992126 -30.430542 -16.992126 -67.968506c0 -37.537964 7.607605 -67.968506 16.992126 -67.968506z" fill-rule="evenodd"/><path fill="#000000" fill-opacity="0.0" d="m758.2323 233.70079l0 0c-9.3845215 0 -16.992126 -30.430542 -16.992126 -67.968506c0 -37.537964 7.607605 -67.968506 16.992126 -67.968506l0 0c9.38446 0 16.992126 30.430542 16.992126 67.968506c0 37.537964 -7.607666 67.968506 -16.992126 67.968506l-577.2599 0c-9.384491 0 -16.992126 -30.430542 -16.992126 -67.968506c0 -37.537964 7.6076355 -67.968506 16.992126 -67.968506l577.2599 0" fill-rule="evenodd"/><path fill="#ffffff" fill-opacity="0.4" d="m758.2323 97.76378l0 0c9.38446 0 16.992126 30.430542 16.992126 67.968506c0 37.537964 -7.607666 67.968506 -16.992126 67.968506l0 0c-9.3845215 0 -16.992126 -30.430542 -16.992126 -67.968506c0 -37.537964 7.607605 -67.968506 16.992126 -67.968506z" fill-rule="evenodd"/><path fill="#000000" fill-opacity="0.0" d="m206.20905 192.84042l0 0c-16.50766 -4.4269714 -26.364456 -21.18634 -22.015747 -37.433075l0 0c2.0883179 -7.801956 7.2401886 -14.43985 14.322266 -18.45343c7.0820923 -4.013565 15.514252 -5.074051 23.441513 -2.9481354l0 0c16.50766 4.4269714 26.36444 21.186325 22.015747 37.43306l0 0c-4.348709 16.24675 -21.256119 25.828552 -37.76378 21.40158z" fill-rule="evenodd"/><path stroke="#666666" stroke-width="1.0" stroke-linejoin="round" stroke-linecap="butt" d="m206.20905 192.84042l0 0c-16.50766 -4.4269714 -26.364456 -21.18634 -22.015747 -37.433075l0 0c2.0883179 -7.801956 7.2401886 -14.43985 14.322266 -18.45343c7.0820923 -4.013565 15.514252 -5.074051 23.441513 -2.9481354l0 0c16.50766 4.4269714 26.36444 21.186325 22.015747 37.43306l0 0c-4.348709 16.24675 -21.256119 25.828552 -37.76378 21.40158z" fill-rule="evenodd"/><defs><radialGradient id="p.3" gradientUnits="userSpaceOnUse" gradientTransform="matrix(1.151370208789972 -4.291470778494108 4.291470778494108 1.151370208789972 0.0 0.0)" spreadMethod="pad" cx="-23.036963868326968" cy="56.07023198055535" fx="-23.036963868326968" fy="56.07023198055535" r="4.291471004486084"><stop offset="0.0" stop-color="#ffffff"/><stop offset="1.0" stop-color="#b3b3b3"/></radialGradient></defs><path fill="url(#p.3)" d="m210.63512 176.33344l0 0c-7.2536316 -1.9395142 -11.582718 -9.293335 -9.669281 -16.425201l0 0c0.91885376 -3.4248352 3.1838226 -6.3394165 6.296631 -8.102554c3.1128082 -1.7631378 6.818466 -2.2304077 10.301788 -1.2990112l0 0c7.2536316 1.9395142 11.582718 9.293335 9.669296 16.425201l0 0c-1.9134369 7.1318665 -9.344803 11.341095 -16.598434 9.401566z" fill-rule="evenodd"/><path fill="#000000" fill-opacity="0.0" d="m293.71738 136.2841l0 0c14.8029785 -8.549538 33.818542 -3.3250122 42.472443 11.669296l0 0c4.1557617 7.2005157 5.3174133 15.737091 3.2294006 23.73175c-2.0880127 7.9946594 -7.2546387 14.7925415 -14.363251 18.898163l0 0c-14.8029785 8.549545 -33.818542 3.3250275 -42.472443 -11.669281l0 0c-8.653931 -14.994324 -3.6691284 -34.080383 11.13385 -42.62993z" fill-rule="evenodd"/><path stroke="#666666" stroke-width="1.0" stroke-linejoin="round" stroke-linecap="butt" d="m293.71738 136.2841l0 0c14.8029785 -8.549538 33.818542 -3.3250122 42.472443 11.669296l0 0c4.1557617 7.2005157 5.3174133 15.737091 3.2294006 23.73175c-2.0880127 7.9946594 -7.2546387 14.7925415 -14.363251 18.898163l0 0c-14.8029785 8.549545 -33.818542 3.3250275 -42.472443 -11.669281l0 0c-8.653931 -14.994324 -3.6691284 -34.080383 11.13385 -42.62993z" fill-rule="evenodd"/><defs><radialGradient id="p.4" gradientUnits="userSpaceOnUse" gradientTransform="matrix(2.3627508928816914 4.0929117303362 -4.0929117303362 2.3627508928816914 0.0 0.0)" spreadMethod="pad" cx="62.67975407341399" cy="-39.409931608066344" fx="62.67975407341399" fy="-39.409931608066344" r="4.092911720275879"><stop offset="0.0" stop-color="#ffffff"/><stop offset="1.0" stop-color="#b3b3b3"/></radialGradient></defs><path fill="url(#p.4)" d="m302.5161 151.50558l0 0c6.4969788 -3.7572632 14.84491 -1.4658203 18.64569 5.1181183l0 0c1.8251953 3.1617126 2.3362122 6.9106903 1.4206848 10.422195c-0.91552734 3.5115051 -3.1826477 6.4979095 -6.302582 8.302216l0 0c-6.4969482 3.7572784 -14.84491 1.4658203 -18.64566 -5.1181183l0 0c-3.8007812 -6.5839233 -1.6150818 -14.967133 4.8818665 -18.724411z" fill-rule="evenodd"/><defs><radialGradient id="p.5" gradientUnits="userSpaceOnUse" gradientTransform="matrix(1.456841346841755 2.5187558223747613 -2.5187558223747613 1.456841346841755 0.0 0.0)" spreadMethod="pad" cx="108.06083013773176" cy="-72.45343519619188" fx="108.06083013773176" fy="-72.45343519619188" r="2.5187559127807617"><stop offset="0.0" stop-color="#db0000"/><stop offset="1.0" stop-color="#540303"/></radialGradient></defs><path fill="url(#p.5)" d="m337.30582 162.106l0 0c2.4613647 -1.4176788 5.6271057 -0.543396 7.070862 1.9527588l0 0c0.69332886 1.1986847 0.8887024 2.6187286 0.5431824 3.9477234c-0.34555054 1.32901 -1.2037048 2.4580994 -2.3856812 3.1388855l0 0c-2.4613647 1.4176788 -5.6271057 0.543396 -7.070862 -1.9527588l0 0c-1.4437866 -2.4961548 -0.61886597 -5.66893 1.8424988 -7.086609z" fill-rule="evenodd"/><path fill="#000000" fill-opacity="0.0" d="m432.69086 147.74005l0 0c8.54953 14.802963 3.3250122 33.818527 -11.669312 42.472443l0 0c-7.200531 4.1557465 -15.737091 5.317398 -23.73175 3.2294006c-7.9946594 -2.0879974 -14.7925415 -7.2546234 -18.898163 -14.363266l0 0c-8.54953 -14.802963 -3.3250122 -33.818527 11.669281 -42.472443l0 0c14.994324 -8.653908 34.080383 -3.6691132 42.629944 11.133865z" fill-rule="evenodd"/><path stroke="#666666" stroke-width="1.0" stroke-linejoin="round" stroke-linecap="butt" d="m432.69086 147.74005l0 0c8.54953 14.802963 3.3250122 33.818527 -11.669312 42.472443l0 0c-7.200531 4.1557465 -15.737091 5.317398 -23.73175 3.2294006c-7.9946594 -2.0879974 -14.7925415 -7.2546234 -18.898163 -14.363266l0 0c-8.54953 -14.802963 -3.3250122 -33.818527 11.669281 -42.472443l0 0c14.994324 -8.653908 34.080383 -3.6691132 42.629944 11.133865z" fill-rule="evenodd"/><defs><radialGradient id="p.6" gradientUnits="userSpaceOnUse" gradientTransform="matrix(-4.092911730152703 2.3627508936233506 -2.3627508936233506 -4.092911730152703 0.0 0.0)" spreadMethod="pad" cx="-57.03056458366472" cy="-72.85026657504451" fx="-57.03056458366472" fy="-72.85026657504451" r="4.092911720275879"><stop offset="0.0" stop-color="#ffffff"/><stop offset="1.0" stop-color="#b3b3b3"/></radialGradient></defs><path fill="url(#p.6)" d="m417.46936 156.5388l0 0c3.7572632 6.4969635 1.4658203 14.84491 -5.118103 18.645676l0 0c-3.1617126 1.82518 -6.9107056 2.3362274 -10.422211 1.4207001c-3.5115051 -0.9155426 -6.4978943 -3.1826477 -8.302216 -6.302597l0 0c-3.7572632 -6.4969482 -1.4658203 -14.84491 5.1181335 -18.645676l0 0c6.5839233 -3.8007507 14.967133 -1.6150513 18.724396 4.881897z" fill-rule="evenodd"/><defs><radialGradient id="p.7" gradientUnits="userSpaceOnUse" gradientTransform="matrix(-2.5187558222947257 1.4568413471647947 -1.4568413471647947 -2.5187558222947257 0.0 0.0)" spreadMethod="pad" cx="-86.32543848144832" cy="-126.92978780836121" fx="-86.32543848144832" fy="-126.92978780836121" r="2.5187559127807617"><stop offset="0.0" stop-color="#db0000"/><stop offset="1.0" stop-color="#540303"/></radialGradient></defs><path fill="url(#p.7)" d="m406.86896 191.3285l0 0c1.4176636 2.4613647 0.543396 5.6270905 -1.9527588 7.070862l0 0c-1.1987 0.6933136 -2.618744 0.8887024 -3.947754 0.5431671c-1.3289795 -0.34555054 -2.4580688 -1.2037048 -3.138855 -2.3856812l0 0c-1.4176941 -2.4613647 -0.543396 -5.6271057 1.9527588 -7.070877l0 0c2.4961243 -1.4437714 5.668915 -0.61883545 7.086609 1.8425293z" fill-rule="evenodd"/><path fill="#000000" fill-opacity="0.0" d="m474.58752 147.74554l0 0c8.549561 -14.8029785 27.63562 -19.787773 42.629944 -11.133865l0 0c7.2005005 4.1557617 12.475159 10.965195 14.663574 18.930328c2.1884155 7.9651337 1.1113281 16.433472 -2.9943237 23.542114l0 0c-8.5494995 14.8029785 -27.63559 19.787766 -42.629883 11.133865l0 0c-14.994324 -8.653915 -20.218842 -27.66948 -11.669312 -42.472443z" fill-rule="evenodd"/><path stroke="#666666" stroke-width="1.0" stroke-linejoin="round" stroke-linecap="butt" d="m474.58752 147.74554l0 0c8.549561 -14.8029785 27.63562 -19.787773 42.629944 -11.133865l0 0c7.2005005 4.1557617 12.475159 10.965195 14.663574 18.930328c2.1884155 7.9651337 1.1113281 16.433472 -2.9943237 23.542114l0 0c-8.5494995 14.8029785 -27.63559 19.787766 -42.629883 11.133865l0 0c-14.994324 -8.653915 -20.218842 -27.66948 -11.669312 -42.472443z" fill-rule="evenodd"/><defs><radialGradient id="p.8" gradientUnits="userSpaceOnUse" gradientTransform="matrix(4.092911730152703 2.3627508936233546 -2.3627508936233546 4.092911730152703 0.0 0.0)" spreadMethod="pad" cx="109.23107294750378" cy="-23.132839680922547" fx="109.23107294750378" fy="-23.132839680922547" r="4.092911720275879"><stop offset="0.0" stop-color="#ffffff"/><stop offset="1.0" stop-color="#b3b3b3"/></radialGradient></defs><path fill="url(#p.8)" d="m489.80902 156.52325l0 0c3.7572632 -6.4969482 12.140472 -8.682648 18.724396 -4.881897l0 0c3.1617126 1.8251953 5.4772034 4.815033 6.437042 8.311768c0.95977783 3.4967499 0.4854126 7.2139587 -1.3189087 10.333908l0 0c-3.7572937 6.4969635 -12.140503 8.682648 -18.724426 4.881897l0 0c-6.5839233 -3.800766 -8.875397 -12.148712 -5.118103 -18.645676z" fill-rule="evenodd"/><defs><radialGradient id="p.9" gradientUnits="userSpaceOnUse" gradientTransform="matrix(2.5187558222947257 1.4568413471647972 -1.4568413471647972 2.5187558222947257 0.0 0.0)" spreadMethod="pad" cx="183.58079850566213" cy="-46.25685203885032" fx="183.58079850566213" fy="-46.25685203885032" r="2.5187559127807617"><stop offset="0.0" stop-color="#db0000"/><stop offset="1.0" stop-color="#540303"/></radialGradient></defs><path fill="url(#p.9)" d="m525.2644 148.3242l0 0c1.4176636 -2.4613647 4.590454 -3.2862854 7.086609 -1.842514l0 0c1.1987305 0.69332886 2.0778809 1.8277893 2.4440918 3.153839c0.36621094 1.3260345 0.18945312 2.7350311 -0.491333 3.9170227l0 0c-1.4176636 2.4613647 -4.590454 3.2862854 -7.086609 1.8425293l0 0c-2.4961548 -1.4437714 -3.3704224 -4.6095123 -1.9527588 -7.070877z" fill-rule="evenodd"/><path fill="#000000" fill-opacity="0.0" d="m628.1888 171.54538l0 0c-4.427002 16.507675 -21.567078 26.258698 -38.283447 21.779541l0 0c-8.027527 -2.1509705 -14.881714 -7.3629303 -19.054749 -14.489319c-4.1730957 -7.1263885 -5.32312 -15.583435 -3.1972046 -23.510681l0 0c4.426941 -16.50766 21.567017 -26.258698 38.283447 -21.779541l0 0c16.71637 4.4791718 26.678955 21.49234 22.251953 38.0z" fill-rule="evenodd"/><path stroke="#666666" stroke-width="1.0" stroke-linejoin="round" stroke-linecap="butt" d="m628.1888 171.54538l0 0c-4.427002 16.507675 -21.567078 26.258698 -38.283447 21.779541l0 0c-8.027527 -2.1509705 -14.881714 -7.3629303 -19.054749 -14.489319c-4.1730957 -7.1263885 -5.32312 -15.583435 -3.1972046 -23.510681l0 0c4.426941 -16.50766 21.567017 -26.258698 38.283447 -21.779541l0 0c16.71637 4.4791718 26.678955 21.49234 22.251953 38.0z" fill-rule="evenodd"/><defs><radialGradient id="p.10" gradientUnits="userSpaceOnUse" gradientTransform="matrix(-4.322600737329518 -1.1574736570815733 1.1574736570815733 -4.322600737329518 0.0 0.0)" spreadMethod="pad" cx="-138.51351079705884" cy="-0.7184052353807112" fx="-138.51351079705884" fy="-0.7184052353807112" r="4.322600841522217"><stop offset="0.0" stop-color="#ffffff"/><stop offset="1.0" stop-color="#b3b3b3"/></radialGradient></defs><path fill="url(#p.10)" d="m611.1984 166.99017l0 0c-1.9395142 7.2536316 -9.462585 11.540421 -16.803162 9.574799l0 0c-3.5250854 -0.9439087 -6.5358276 -3.2329102 -8.369812 -6.363449c-1.8340454 -3.1305237 -2.3411255 -6.8461456 -1.409729 -10.3294525l0 0c1.9395142 -7.2536316 9.462524 -11.540421 16.803162 -9.574814l0 0c7.340576 1.965622 11.719055 9.439285 9.779541 16.692917z" fill-rule="evenodd"/><defs><radialGradient id="p.11" gradientUnits="userSpaceOnUse" gradientTransform="matrix(-2.6613063957300946 -0.7152260937919512 0.7152260937919512 -2.6613063957300946 0.0 0.0)" spreadMethod="pad" cx="-218.38664707899622" cy="-9.972571108988351" fx="-218.38664707899622" fy="-9.972571108988351" r="2.661306381225586"><stop offset="0.0" stop-color="#db0000"/><stop offset="1.0" stop-color="#540303"/></radialGradient></defs><path fill="url(#p.11)" d="m579.1005 184.09023l0 0c-0.73931885 2.7483826 -3.5947876 4.3700256 -6.3779907 3.622055l0 0c-1.3364868 -0.3591919 -2.477234 -1.2279663 -3.1712646 -2.415207c-0.69403076 -1.1872406 -0.8845215 -2.5956879 -0.52948 -3.915512l0 0c0.7392578 -2.7483673 3.5947876 -4.3700256 6.3779297 -3.6220398l0 0c2.783142 0.7479706 4.4400635 3.5823212 3.7008057 6.3307037z" fill-rule="evenodd"/><path fill="#000000" fill-opacity="0.0" d="m663.79474 155.53355l0 0c4.427002 -16.507675 21.18634 -26.364456 37.433105 -22.015762l0 0c7.801941 2.0883331 14.439819 7.240204 18.45343 14.322281c4.01355 7.0820923 5.0740356 15.514252 2.94812 23.441513l0 0c-4.426941 16.50766 -21.18634 26.36444 -37.433044 22.015747l0 0c-16.246765 -4.348709 -25.828552 -21.256119 -21.401611 -37.76378z" fill-rule="evenodd"/><path stroke="#666666" stroke-width="1.0" stroke-linejoin="round" stroke-linecap="butt" d="m663.79474 155.53355l0 0c4.427002 -16.507675 21.18634 -26.364456 37.433105 -22.015762l0 0c7.801941 2.0883331 14.439819 7.240204 18.45343 14.322281c4.01355 7.0820923 5.0740356 15.514252 2.94812 23.441513l0 0c-4.426941 16.50766 -21.18634 26.36444 -37.433044 22.015747l0 0c-16.246765 -4.348709 -25.828552 -21.256119 -21.401611 -37.76378z" fill-rule="evenodd"/><defs><radialGradient id="p.12" gradientUnits="userSpaceOnUse" gradientTransform="matrix(4.291470778494108 1.1513702087899729 -1.1513702087899729 4.291470778494108 0.0 0.0)" spreadMethod="pad" cx="160.21776085302858" cy="-4.903925341571577" fx="160.21776085302858" fy="-4.903925341571577" r="4.291471004486084"><stop offset="0.0" stop-color="#ffffff"/><stop offset="1.0" stop-color="#b3b3b3"/></radialGradient></defs><path fill="url(#p.12)" d="m680.3027 159.96034l0 0c1.9395142 -7.2536316 9.293335 -11.582718 16.425232 -9.669296l0 0c3.4248047 0.91885376 6.3394165 3.1838226 8.102539 6.296631c1.7631226 3.1128082 2.2304077 6.8184814 1.2990112 10.301788l0 0c-1.9395142 7.2536316 -9.293335 11.582718 -16.42517 9.669296l0 0c-7.131897 -1.9134216 -11.3411255 -9.344788 -9.401611 -16.59842z" fill-rule="evenodd"/><defs><radialGradient id="p.13" gradientUnits="userSpaceOnUse" gradientTransform="matrix(2.642739860046121 0.7052971326812933 -0.7052971326812933 2.642739860046121 0.0 0.0)" spreadMethod="pad" cx="266.6902002678483" cy="-16.69583396862317" fx="266.6902002678483" fy="-16.69583396862317" r="2.642739772796631"><stop offset="0.0" stop-color="#db0000"/><stop offset="1.0" stop-color="#540303"/></radialGradient></defs><path fill="url(#p.13)" d="m711.6707 142.666l0 0c0.7392578 -2.7483826 3.531311 -4.3911743 6.236206 -3.6692963l0 0c1.2989502 0.34666443 2.4036255 1.2034302 3.071106 2.3818054c0.66741943 1.1783752 0.84295654 2.5818481 0.48797607 3.9016724l0 0c-0.73931885 2.7483673 -3.531372 4.3911743 -6.236267 3.669281l0 0c-2.704834 -0.72187805 -4.298279 -3.53508 -3.559021 -6.2834625z" fill-rule="evenodd"/><defs><radialGradient id="p.14" gradientUnits="userSpaceOnUse" gradientTransform="matrix(2.6883414180210523 0.0 0.0 2.6883414180210523 0.0 0.0)" spreadMethod="pad" cx="130.49540489374075" cy="78.45410404683318" fx="130.49540489374075" fy="78.45410404683318" r="2.6883413791656494"><stop offset="0.0" stop-color="#db0000"/><stop offset="1.0" stop-color="#540303"/></radialGradient></defs><path fill="url(#p.14)" d="m345.74533 210.91142l0 0c0 -2.8440552 2.2702942 -5.1496124 5.070862 -5.1496124l0 0c1.3448792 0 2.634674 0.5425415 3.5856628 1.5082855c0.95095825 0.965744 1.485199 2.2755585 1.485199 3.641327l0 0c0 2.84404 -2.2702942 5.149597 -5.070862 5.149597l0 0c-2.8005676 0 -5.070862 -2.3055573 -5.070862 -5.149597z" fill-rule="evenodd"/><defs><radialGradient id="p.15" gradientUnits="userSpaceOnUse" gradientTransform="matrix(2.6883414180210523 0.0 0.0 2.6883414180210523 0.0 0.0)" spreadMethod="pad" cx="169.1809674130121" cy="63.575041539421115" fx="169.1809674130121" fy="63.575041539421115" r="2.6883413791656494"><stop offset="0.0" stop-color="#db0000"/><stop offset="1.0" stop-color="#540303"/></radialGradient></defs><path fill="url(#p.15)" d="m449.74533 170.91142l0 0c0 -2.8440552 2.2702942 -5.1496124 5.070862 -5.1496124l0 0c1.3448792 0 2.634674 0.5425415 3.5856628 1.5082855c0.95095825 0.965744 1.485199 2.2755585 1.485199 3.641327l0 0c0 2.84404 -2.2702942 5.149597 -5.070862 5.149597l0 0c-2.8005676 0 -5.070862 -2.3055573 -5.070862 -5.149597z" fill-rule="evenodd"/><defs><radialGradient id="p.16" gradientUnits="userSpaceOnUse" gradientTransform="matrix(2.6883414180210523 0.0 0.0 2.6883414180210523 0.0 0.0)" spreadMethod="pad" cx="136.44702989670557" cy="48.695979032009056" fx="136.44702989670557" fy="48.695979032009056" r="2.6883413791656494"><stop offset="0.0" stop-color="#db0000"/><stop offset="1.0" stop-color="#540303"/></radialGradient></defs><path fill="url(#p.16)" d="m361.74533 130.91142l0 0c0 -2.8440552 2.2702942 -5.1496124 5.070862 -5.1496124l0 0c1.3448792 0 2.634674 0.54254913 3.5856628 1.5082855c0.95095825 0.965744 1.485199 2.2755585 1.485199 3.641327l0 0c0 2.84404 -2.2702942 5.149597 -5.070862 5.149597l0 0c-2.8005676 0 -5.070862 -2.3055573 -5.070862 -5.149597z" fill-rule="evenodd"/><defs><radialGradient id="p.17" gradientUnits="userSpaceOnUse" gradientTransform="matrix(2.6883414180210523 0.0 0.0 2.6883414180210523 0.0 0.0)" spreadMethod="pad" cx="269.89386583916684" cy="42.74435402904424" fx="269.89386583916684" fy="42.74435402904424" r="2.6883413791656494"><stop offset="0.0" stop-color="#db0000"/><stop offset="1.0" stop-color="#540303"/></radialGradient></defs><path fill="url(#p.17)" d="m720.496 114.911415l0 0c0 -2.8440475 2.2703247 -5.149605 5.070862 -5.149605l0 0c1.3449097 0 2.6347046 0.54254913 3.5856934 1.5082855c0.95092773 0.9657364 1.4851685 2.2755585 1.4851685 3.6413193l0 0c0 2.8440475 -2.2702637 5.149605 -5.070862 5.149605l0 0c-2.800537 0 -5.070862 -2.3055573 -5.070862 -5.149605z" fill-rule="evenodd"/><defs><radialGradient id="p.18" gradientUnits="userSpaceOnUse" gradientTransform="matrix(2.6883414180210523 0.0 0.0 2.6883414180210523 0.0 0.0)" spreadMethod="pad" cx="240.13574082434272" cy="60.599229037938706" fx="240.13574082434272" fy="60.599229037938706" r="2.6883413791656494"><stop offset="0.0" stop-color="#db0000"/><stop offset="1.0" stop-color="#540303"/></radialGradient></defs><path fill="url(#p.18)" d="m640.496 162.91142l0 0c0 -2.8440552 2.2703247 -5.1496124 5.070862 -5.1496124l0 0c1.3449097 0 2.6347046 0.5425415 3.5856934 1.5082855c0.95092773 0.965744 1.4851685 2.2755585 1.4851685 3.641327l0 0c0 2.84404 -2.2702637 5.149597 -5.070862 5.149597l0 0c-2.800537 0 -5.070862 -2.3055573 -5.070862 -5.149597z" fill-rule="evenodd"/><defs><radialGradient id="p.19" gradientUnits="userSpaceOnUse" gradientTransform="matrix(2.6883414180210523 0.0 0.0 2.6883414180210523 0.0 0.0)" spreadMethod="pad" cx="201.45017830507138" cy="78.45410404683318" fx="201.45017830507138" fy="78.45410404683318" r="2.6883413791656494"><stop offset="0.0" stop-color="#db0000"/><stop offset="1.0" stop-color="#540303"/></radialGradient></defs><path fill="url(#p.19)" d="m536.496 210.91142l0 0c0 -2.8440552 2.2703247 -5.1496124 5.070862 -5.1496124l0 0c1.3449097 0 2.6347046 0.5425415 3.5856934 1.5082855c0.95092773 0.965744 1.4851685 2.2755585 1.4851685 3.641327l0 0c0 2.84404 -2.2702637 5.149597 -5.070862 5.149597l0 0c-2.800537 0 -5.070862 -2.3055573 -5.070862 -5.149597z" fill-rule="evenodd"/><defs><radialGradient id="p.20" gradientUnits="userSpaceOnUse" gradientTransform="matrix(2.6883414180210523 0.0 0.0 2.6883414180210523 0.0 0.0)" spreadMethod="pad" cx="88.36930324873973" cy="75.47829154535076" fx="88.36930324873973" fy="75.47829154535076" r="2.6883413791656494"><stop offset="0.0" stop-color="#db0000"/><stop offset="1.0" stop-color="#540303"/></radialGradient></defs><path fill="url(#p.20)" d="m232.49599 202.91142l0 0c0 -2.8440552 2.2703094 -5.1496124 5.070877 -5.1496124l0 0c1.3448639 0 2.6346588 0.5425415 3.5856323 1.5082855c0.9509735 0.965744 1.4852295 2.2755585 1.4852295 3.641327l0 0c0 2.84404 -2.2703094 5.149597 -5.070862 5.149597l0 0c-2.8005676 0 -5.070877 -2.3055573 -5.070877 -5.149597z" fill-rule="evenodd"/><path fill="#000000" fill-opacity="0.0" d="m174.44379 138.04918l35.960922 -6.0859528l29.002579 -18.260307" fill-rule="evenodd"/><path stroke="#434343" stroke-width="1.0" stroke-linejoin="round" stroke-linecap="butt" stroke-dasharray="1.0,3.0" d="m174.44379 138.04918l35.960922 -6.0859528l29.002579 -18.260307" fill-rule="evenodd"/><defs><radialGradient id="p.21" gradientUnits="userSpaceOnUse" gradientTransform="matrix(2.6883414180210523 0.0 0.0 2.6883414180210523 0.0 0.0)" spreadMethod="pad" cx="249.06317832878995" cy="75.47829154535076" fx="249.06317832878995" fy="75.47829154535076" r="2.6883413791656494"><stop offset="0.0" stop-color="#db0000"/><stop offset="1.0" stop-color="#540303"/></radialGradient></defs><path fill="url(#p.21)" d="m664.496 202.91142l0 0c0 -2.8440552 2.2703247 -5.1496124 5.070862 -5.1496124l0 0c1.3449097 0 2.6347046 0.5425415 3.5856934 1.5082855c0.95092773 0.965744 1.4851685 2.2755585 1.4851685 3.641327l0 0c0 2.84404 -2.2702637 5.149597 -5.070862 5.149597l0 0c-2.800537 0 -5.070862 -2.3055573 -5.070862 -5.149597z" fill-rule="evenodd"/><defs><radialGradient id="p.22" gradientUnits="userSpaceOnUse" gradientTransform="matrix(2.6883414180210523 0.0 0.0 2.6883414180210523 0.0 0.0)" spreadMethod="pad" cx="231.2083033198955" cy="45.72016653052665" fx="231.2083033198955" fy="45.72016653052665" r="2.6883413791656494"><stop offset="0.0" stop-color="#db0000"/><stop offset="1.0" stop-color="#540303"/></radialGradient></defs><path fill="url(#p.22)" d="m616.496 122.911415l0 0c0 -2.8440475 2.2703247 -5.149605 5.070862 -5.149605l0 0c1.3449097 0 2.6347046 0.54254913 3.5856934 1.5082855c0.95092773 0.9657364 1.4851685 2.2755585 1.4851685 3.6413193l0 0c0 2.8440475 -2.2702637 5.149605 -5.070862 5.149605l0 0c-2.800537 0 -5.070862 -2.3055573 -5.070862 -5.149605z" fill-rule="evenodd"/><defs><radialGradient id="p.23" gradientUnits="userSpaceOnUse" gradientTransform="matrix(0.7052971331598549 -2.6427398599844576 2.6427398599844576 0.7052971331598549 0.0 0.0)" spreadMethod="pad" cx="-32.131087563570595" cy="75.18110097487937" fx="-32.131087563570595" fy="75.18110097487937" r="2.642739772796631"><stop offset="0.0" stop-color="#db0000"/><stop offset="1.0" stop-color="#540303"/></radialGradient></defs><path fill="url(#p.23)" d="m174.71504 142.83676l0 0c-2.7483826 -0.73928833 -4.3911743 -3.5313263 -3.6692963 -6.2362213l0 0c0.34666443 -1.2989349 1.2034302 -2.4036407 2.3818054 -3.0710907c1.1783752 -0.66744995 2.5818481 -0.84298706 3.901657 -0.48796082l0 0c2.7483826 0.7392731 4.3911743 3.5313263 3.6692963 6.2362213l0 0c-0.72187805 2.7048798 -3.53508 4.2983246 -6.2834625 3.5590515z" fill-rule="evenodd"/><defs><radialGradient id="p.24" gradientUnits="userSpaceOnUse" gradientTransform="matrix(2.6883414180210523 0.0 0.0 2.6883414180210523 0.0 0.0)" spreadMethod="pad" cx="90.74687785314755" cy="42.0468979740093" fx="90.74687785314755" fy="42.0468979740093" r="2.6883413791656494"><stop offset="0.0" stop-color="#db0000"/><stop offset="1.0" stop-color="#540303"/></radialGradient></defs><path fill="url(#p.24)" d="m238.88773 113.036415l0 0c0 -2.8440475 2.2703094 -5.149605 5.070862 -5.149605l0 0c1.3448792 0 2.634674 0.54254913 3.5856476 1.5082855c0.9509735 0.9657364 1.4852142 2.2755585 1.4852142 3.6413193l0 0c0 2.8440475 -2.2702942 5.149605 -5.070862 5.149605l0 0c-2.8005524 0 -5.070862 -2.3055573 -5.070862 -5.149605z" fill-rule="evenodd"/><defs><radialGradient id="p.25" gradientUnits="userSpaceOnUse" gradientTransform="matrix(0.7052971333193772 -2.642739859963903 2.642739859963903 0.7052971333193772 0.0 0.0)" spreadMethod="pad" cx="-48.198985342178396" cy="64.33351124957068" fx="-48.198985342178396" fy="64.33351124957068" r="2.642739772796631"><stop offset="0.0" stop-color="#db0000"/><stop offset="1.0" stop-color="#540303"/></radialGradient></defs><path fill="url(#p.25)" d="m134.71504 177.64926l0 0c-2.7483826 -0.73928833 -4.3911743 -3.5313263 -3.6692963 -6.2362213l0 0c0.34666443 -1.2989349 1.2034302 -2.4036407 2.3818054 -3.0710907c1.1783752 -0.66744995 2.5818481 -0.84298706 3.901657 -0.48796082l0 0c2.7483826 0.7392731 4.3911743 3.5313263 3.6692963 6.2362213l0 0c-0.72187805 2.7048798 -3.53508 4.2983246 -6.2834625 3.5590515z" fill-rule="evenodd"/><defs><radialGradient id="p.26" gradientUnits="userSpaceOnUse" gradientTransform="matrix(0.7052971333193772 -2.642739859963903 2.642739859963903 0.7052971333193772 0.0 0.0)" spreadMethod="pad" cx="-55.168293230025554" cy="72.24781003901126" fx="-55.168293230025554" fy="72.24781003901126" r="2.642739772796631"><stop offset="0.0" stop-color="#db0000"/><stop offset="1.0" stop-color="#540303"/></radialGradient></defs><path fill="url(#p.26)" d="m150.71504 201.64926l0 0c-2.7483826 -0.73928833 -4.3911743 -3.5313263 -3.6692963 -6.2362213l0 0c0.34666443 -1.2989349 1.2034302 -2.4036407 2.3818054 -3.0710907c1.1783752 -0.66744995 2.5818481 -0.84298706 3.901657 -0.48796082l0 0c2.7483826 0.7392731 4.3911743 3.5313263 3.6692963 6.2362213l0 0c-0.72187805 2.7048798 -3.53508 4.2983246 -6.2834625 3.5590515z" fill-rule="evenodd"/><defs><radialGradient id="p.27" gradientUnits="userSpaceOnUse" gradientTransform="matrix(0.7052971333193772 -2.642739859963903 2.642739859963903 0.7052971333193772 0.0 0.0)" spreadMethod="pad" cx="-63.082592019466155" cy="65.2785021511641" fx="-63.082592019466155" fy="65.2785021511641" r="2.642739772796631"><stop offset="0.0" stop-color="#db0000"/><stop offset="1.0" stop-color="#540303"/></radialGradient></defs><path fill="url(#p.27)" d="m126.71504 217.64926l0 0c-2.748375 -0.73928833 -4.3911743 -3.5313263 -3.6692886 -6.2362213l0 0c0.3466568 -1.2989349 1.2034149 -2.4036407 2.3817978 -3.0710907c1.1783752 -0.66744995 2.5818481 -0.84298706 3.901657 -0.48796082l0 0c2.7483826 0.7392731 4.3911743 3.5313263 3.6692963 6.2362213l0 0c-0.72187805 2.7048798 -3.53508 4.2983246 -6.2834625 3.5590515z" fill-rule="evenodd"/><defs><radialGradient id="p.28" gradientUnits="userSpaceOnUse" gradientTransform="matrix(0.7052971331598549 -2.6427398599844576 2.6427398599844576 0.7052971331598549 0.0 0.0)" spreadMethod="pad" cx="-26.909430739835084" cy="64.70605573592495" fx="-26.909430739835084" fy="64.70605573592495" r="2.642739772796631"><stop offset="0.0" stop-color="#db0000"/><stop offset="1.0" stop-color="#540303"/></radialGradient></defs><path fill="url(#p.28)" d="m150.71504 121.64926l0 0c-2.7483826 -0.7392807 -4.3911743 -3.531334 -3.6692963 -6.2362213l0 0c0.34666443 -1.2989349 1.2034302 -2.4036407 2.3818054 -3.0710907c1.1783752 -0.6674576 2.5818481 -0.84297943 3.901657 -0.48796844l0 0c2.7483826 0.7392807 4.3911743 3.531334 3.6692963 6.2362213l0 0c-0.72187805 2.704895 -3.53508 4.298332 -6.2834625 3.5590591z" fill-rule="evenodd"/><defs><radialGradient id="p.29" gradientUnits="userSpaceOnUse" gradientTransform="matrix(0.7052971331598549 -2.6427398599844576 2.6427398599844576 0.7052971331598549 0.0 0.0)" spreadMethod="pad" cx="-35.577904958974294" cy="54.91086159807921" fx="-35.577904958974294" fy="54.91086159807921" r="2.642739772796631"><stop offset="0.0" stop-color="#db0000"/><stop offset="1.0" stop-color="#540303"/></radialGradient></defs><path fill="url(#p.29)" d="m118.71504 137.64926l0 0c-2.748375 -0.73928833 -4.3911743 -3.5313263 -3.6692886 -6.2362213l0 0c0.3466568 -1.2989349 1.2034149 -2.4036407 2.3817978 -3.0710907c1.1783752 -0.6674576 2.5818481 -0.84297943 3.9016647 -0.48796844l0 0c2.748375 0.7392807 4.3911743 3.531334 3.6692886 6.236229l0 0c-0.7218857 2.7048798 -3.5350876 4.2983246 -6.2834625 3.5590515z" fill-rule="evenodd"/><defs><radialGradient id="p.30" gradientUnits="userSpaceOnUse" gradientTransform="matrix(0.7052971331598549 -2.6427398599844576 2.6427398599844576 0.7052971331598549 0.0 0.0)" spreadMethod="pad" cx="-26.346070780481817" cy="55.47422155743248" fx="-26.346070780481817" fy="55.47422155743248" r="2.642739772796631"><stop offset="0.0" stop-color="#db0000"/><stop offset="1.0" stop-color="#540303"/></radialGradient></defs><path fill="url(#p.30)" d="m126.71504 113.64926l0 0c-2.748375 -0.7392807 -4.3911743 -3.531334 -3.6692886 -6.2362213l0 0c0.3466568 -1.2989349 1.2034149 -2.4036407 2.3817978 -3.0710907c1.1783752 -0.6674576 2.5818481 -0.84297943 3.901657 -0.48796844l0 0c2.7483826 0.7392807 4.3911743 3.531334 3.6692963 6.2362213l0 0c-0.72187805 2.704895 -3.53508 4.298332 -6.2834625 3.5590591z" fill-rule="evenodd"/><defs><radialGradient id="p.31" gradientUnits="userSpaceOnUse" gradientTransform="matrix(0.7052971331598549 -2.6427398599844576 2.6427398599844576 0.7052971331598549 0.0 0.0)" spreadMethod="pad" cx="-48.389800816993095" cy="52.27579081928615" fx="-48.389800816993095" fy="52.27579081928615" r="2.642739772796631"><stop offset="0.0" stop-color="#db0000"/><stop offset="1.0" stop-color="#540303"/></radialGradient></defs><path fill="url(#p.31)" d="m102.71504 169.64926l0 0c-2.748375 -0.73928833 -4.3911743 -3.5313263 -3.6692886 -6.2362213l0 0c0.3466568 -1.2989349 1.2034149 -2.4036407 2.3817978 -3.0710907c1.1783752 -0.66744995 2.5818481 -0.84298706 3.9016647 -0.48796082l0 0c2.748375 0.7392731 4.3911743 3.5313263 3.6692886 6.2362213l0 0c-0.7218857 2.7048798 -3.5350876 4.2983246 -6.2834625 3.5590515z" fill-rule="evenodd"/><defs><radialGradient id="p.32" gradientUnits="userSpaceOnUse" gradientTransform="matrix(0.7052971319644065 -2.6427398601384935 2.6427398601384935 0.7052971319644065 0.0 0.0)" spreadMethod="pad" cx="27.209471075191193" cy="301.5171407626085" fx="27.209471075191193" fy="301.5171407626085" r="2.642739772796631"><stop offset="0.0" stop-color="#db0000"/><stop offset="1.0" stop-color="#540303"/></radialGradient></defs><path fill="url(#p.32)" d="m814.715 145.64926l0 0c-2.748352 -0.73928833 -4.3911743 -3.5313263 -3.6692505 -6.2362213l0 0c0.34661865 -1.2989349 1.2033691 -2.4036407 2.381775 -3.0710907c1.1783447 -0.66744995 2.5818481 -0.84298706 3.9016724 -0.48796082l0 0c2.748352 0.7392731 4.3911743 3.5313263 3.6693115 6.2362213l0 0c-0.7219238 2.7048798 -3.5350952 4.2983246 -6.2835083 3.5590515z" fill-rule="evenodd"/><defs><radialGradient id="p.33" gradientUnits="userSpaceOnUse" gradientTransform="matrix(0.7052971321239286 -2.642739860117939 2.642739860117939 0.7052971321239286 0.0 0.0)" spreadMethod="pad" cx="15.151750663897218" cy="301.7079562248132" fx="15.151750663897218" fy="301.7079562248132" r="2.642739772796631"><stop offset="0.0" stop-color="#db0000"/><stop offset="1.0" stop-color="#540303"/></radialGradient></defs><path fill="url(#p.33)" d="m806.715 177.64926l0 0c-2.748352 -0.73928833 -4.3911743 -3.5313263 -3.6692505 -6.2362213l0 0c0.34661865 -1.2989349 1.2033691 -2.4036407 2.381775 -3.0710907c1.1783447 -0.66744995 2.5818481 -0.84298706 3.9016724 -0.48796082l0 0c2.748352 0.7392731 4.3911743 3.5313263 3.6693115 6.2362213l0 0c-0.7219238 2.7048798 -3.5350952 4.2983246 -6.2835083 3.5590515z" fill-rule="evenodd"/><defs><radialGradient id="p.34" gradientUnits="userSpaceOnUse" gradientTransform="matrix(0.7052971321239286 -2.642739860117939 2.642739860117939 0.7052971321239286 0.0 0.0)" spreadMethod="pad" cx="8.182442772186905" cy="309.62225501167086" fx="8.182442772186905" fy="309.62225501167086" r="2.642739772796631"><stop offset="0.0" stop-color="#db0000"/><stop offset="1.0" stop-color="#540303"/></radialGradient></defs><path fill="url(#p.34)" d="m822.715 201.64926l0 0c-2.748352 -0.73928833 -4.3911743 -3.5313263 -3.6692505 -6.2362213l0 0c0.34661865 -1.2989349 1.2033691 -2.4036407 2.381775 -3.0710907c1.1783447 -0.66744995 2.5818481 -0.84298706 3.9016724 -0.48796082l0 0c2.748352 0.7392731 4.3911743 3.5313263 3.6693115 6.2362213l0 0c-0.7219238 2.7048798 -3.5350952 4.2983246 -6.2835083 3.5590515z" fill-rule="evenodd"/><defs><radialGradient id="p.35" gradientUnits="userSpaceOnUse" gradientTransform="matrix(0.7052971321239286 -2.642739860117939 2.642739860117939 0.7052971321239286 0.0 0.0)" spreadMethod="pad" cx="0.2681439853291859" cy="302.6529471199605" fx="0.2681439853291859" fy="302.6529471199605" r="2.642739772796631"><stop offset="0.0" stop-color="#db0000"/><stop offset="1.0" stop-color="#540303"/></radialGradient></defs><path fill="url(#p.35)" d="m798.715 217.64926l0 0c-2.748352 -0.73928833 -4.3911743 -3.5313263 -3.6692505 -6.2362213l0 0c0.34661865 -1.2989349 1.2033691 -2.4036407 2.381775 -3.0710907c1.1783447 -0.66744995 2.5818481 -0.84298706 3.9016724 -0.48796082l0 0c2.748352 0.7392731 4.3911743 3.5313263 3.6693115 6.2362213l0 0c-0.7219238 2.7048798 -3.5350952 4.2983246 -6.2835083 3.5590515z" fill-rule="evenodd"/><defs><radialGradient id="p.36" gradientUnits="userSpaceOnUse" gradientTransform="matrix(0.7052971319644065 -2.6427398601384935 2.6427398601384935 0.7052971319644065 0.0 0.0)" spreadMethod="pad" cx="36.44130525397566" cy="302.0805007260271" fx="36.44130525397566" fy="302.0805007260271" r="2.642739772796631"><stop offset="0.0" stop-color="#db0000"/><stop offset="1.0" stop-color="#540303"/></radialGradient></defs><path fill="url(#p.36)" d="m822.715 121.64926l0 0c-2.748352 -0.7392807 -4.3911743 -3.531334 -3.6692505 -6.2362213l0 0c0.34661865 -1.2989349 1.2033691 -2.4036407 2.381775 -3.0710907c1.1783447 -0.6674576 2.5818481 -0.84297943 3.9016724 -0.48796844l0 0c2.748352 0.7392807 4.3911743 3.531334 3.6693115 6.2362213l0 0c-0.7219238 2.704895 -3.5350952 4.298332 -6.2835083 3.5590591z" fill-rule="evenodd"/><defs><radialGradient id="p.37" gradientUnits="userSpaceOnUse" gradientTransform="matrix(0.7052971319644065 -2.6427398601384935 2.6427398601384935 0.7052971319644065 0.0 0.0)" spreadMethod="pad" cx="27.772831038609723" cy="292.2853065838241" fx="27.772831038609723" fy="292.2853065838241" r="2.642739772796631"><stop offset="0.0" stop-color="#db0000"/><stop offset="1.0" stop-color="#540303"/></radialGradient></defs><path fill="url(#p.37)" d="m790.715 137.64926l0 0c-2.748352 -0.73928833 -4.3911743 -3.5313263 -3.6692505 -6.2362213l0 0c0.34661865 -1.2989349 1.2033691 -2.4036407 2.381775 -3.0710907c1.1783447 -0.6674576 2.5818481 -0.84297943 3.9016724 -0.48796844l0 0c2.748352 0.7392807 4.3911743 3.531334 3.6693115 6.236229l0 0c-0.7219238 2.7048798 -3.5350952 4.2983246 -6.2835083 3.5590515z" fill-rule="evenodd"/><defs><radialGradient id="p.38" gradientUnits="userSpaceOnUse" gradientTransform="matrix(0.7052971319644065 -2.6427398601384935 2.6427398601384935 0.7052971319644065 0.0 0.0)" spreadMethod="pad" cx="37.004665217394205" cy="292.84866654724266" fx="37.004665217394205" fy="292.84866654724266" r="2.642739772796631"><stop offset="0.0" stop-color="#db0000"/><stop offset="1.0" stop-color="#540303"/></radialGradient></defs><path fill="url(#p.38)" d="m798.715 113.64926l0 0c-2.748352 -0.7392807 -4.3911743 -3.531334 -3.6692505 -6.2362213l0 0c0.34661865 -1.2989349 1.2033691 -2.4036407 2.381775 -3.0710907c1.1783447 -0.6674576 2.5818481 -0.84297943 3.9016724 -0.48796844l0 0c2.748352 0.7392807 4.3911743 3.531334 3.6693115 6.2362213l0 0c-0.7219238 2.704895 -3.5350952 4.298332 -6.2835083 3.5590591z" fill-rule="evenodd"/><defs><radialGradient id="p.39" gradientUnits="userSpaceOnUse" gradientTransform="matrix(0.7052971321239286 -2.642739860117939 2.642739860117939 0.7052971321239286 0.0 0.0)" spreadMethod="pad" cx="12.135048947850292" cy="290.40441122516813" fx="12.135048947850292" fy="290.40441122516813" r="2.642739772796631"><stop offset="0.0" stop-color="#db0000"/><stop offset="1.0" stop-color="#540303"/></radialGradient></defs><path fill="url(#p.39)" d="m774.715 177.64926l0 0c-2.748352 -0.73928833 -4.3911743 -3.5313263 -3.6692505 -6.2362213l0 0c0.34661865 -1.2989349 1.2033691 -2.4036407 2.381775 -3.0710907c1.1783447 -0.66744995 2.5818481 -0.84298706 3.9016724 -0.48796082l0 0c2.748352 0.7392731 4.3911743 3.5313263 3.6693115 6.2362213l0 0c-0.7219238 2.7048798 -3.5350952 4.2983246 -6.2835083 3.5590515z" fill-rule="evenodd"/><defs><linearGradient id="p.40" gradientUnits="userSpaceOnUse" gradientTransform="matrix(6.477578149885183 0.0 0.0 6.477578149885183 0.0 0.0)" spreadMethod="pad" x1="43.25995105928381" y1="22.37662667453284" x2="47.84034905746768" y2="17.796345802566236"><stop offset="0.0" stop-color="#d4e5f5"/><stop offset="1.0" stop-color="#70a4d5"/></linearGradient></defs><path fill="url(#p.40)" d="m256.78723 112.15896l40.629913 0l0 -3.1181107l6.2362366 6.2362213l-6.2362366 6.2362213l0 -3.1181107l-40.629913 0z" fill-rule="evenodd"/><defs><linearGradient id="p.41" gradientUnits="userSpaceOnUse" gradientTransform="matrix(6.47758038828324 0.0 0.0 6.47758038828324 0.0 0.0)" spreadMethod="pad" x1="59.31531068861037" y1="37.196969211458104" x2="63.895710269560446" y2="32.616686756684814"><stop offset="0.0" stop-color="#d4e5f5"/><stop offset="1.0" stop-color="#70a4d5"/></linearGradient></defs><path fill="url(#p.41)" d="m360.78723 208.15895l40.629913 0l0 -3.118103l6.2362366 6.2362213l-6.2362366 6.2362213l0 -3.1181183l-40.629913 0z" fill-rule="evenodd"/><defs><linearGradient id="p.42" gradientUnits="userSpaceOnUse" gradientTransform="matrix(6.477577030671747 0.0 0.0 6.477577030671747 0.0 0.0)" spreadMethod="pad" x1="88.95606050279768" y1="37.19698849227418" x2="93.53645612682124" y2="32.61670682891415"><stop offset="0.0" stop-color="#d4e5f5"/><stop offset="1.0" stop-color="#70a4d5"/></linearGradient></defs><path fill="url(#p.42)" d="m552.78723 208.15895l40.629944 0l0 -3.118103l6.236206 6.2362213l-6.236206 6.2362213l0 -3.1181183l-40.629944 0z" fill-rule="evenodd"/><defs><linearGradient id="p.43" gradientUnits="userSpaceOnUse" gradientTransform="matrix(6.477582067118259 0.0 0.0 6.477582067118259 0.0 0.0)" spreadMethod="pad" x1="117.361639629396" y1="22.37661472534614" x2="121.94204435435861" y2="17.796335040458754"><stop offset="0.0" stop-color="#d4e5f5"/><stop offset="1.0" stop-color="#70a4d5"/></linearGradient></defs><path fill="url(#p.43)" d="m736.78723 112.15896l40.629944 0l0 -3.1181107l6.236206 6.2362213l-6.236206 6.2362213l0 -3.1181107l-40.629944 0z" fill-rule="evenodd"/><defs><linearGradient id="p.44" gradientUnits="userSpaceOnUse" gradientTransform="matrix(6.477578149885183 0.0 0.0 6.477578149885183 0.0 0.0)" spreadMethod="pad" x1="11.16539221138406" y1="26.024989633272614" x2="15.745790209567927" y2="21.44470876130601"><stop offset="0.0" stop-color="#d4e5f5"/><stop offset="1.0" stop-color="#70a4d5"/></linearGradient></defs><path fill="url(#p.44)" d="m48.892223 135.7915l40.629925 0l0 -3.1181183l6.2362213 6.2362213l-6.2362213 6.2362213l0 -3.118103l-40.629925 0z" fill-rule="evenodd"/><defs><linearGradient id="p.45" gradientUnits="userSpaceOnUse" gradientTransform="matrix(6.477578989280979 0.0 0.0 6.477578989280979 0.0 0.0)" spreadMethod="pad" x1="11.165389973125652" y1="28.49504490874045" x2="15.745788169152805" y2="23.914763047522126"><stop offset="0.0" stop-color="#d4e5f5"/><stop offset="1.0" stop-color="#70a4d5"/></linearGradient></defs><path fill="url(#p.45)" d="m48.892223 151.7915l40.629925 0l0 -3.1181183l6.2362213 6.2362213l-6.2362213 6.2362213l0 -3.118103l-40.629925 0z" fill-rule="evenodd"/><defs><linearGradient id="p.46" gradientUnits="userSpaceOnUse" gradientTransform="matrix(6.477579269084309 0.0 0.0 6.477579269084309 0.0 0.0)" spreadMethod="pad" x1="11.16538869943601" y1="30.965102219093268" x2="15.745787489003051" y2="26.384820555723252"><stop offset="0.0" stop-color="#d4e5f5"/><stop offset="1.0" stop-color="#70a4d5"/></linearGradient></defs><path fill="url(#p.46)" d="m48.892223 167.7915l40.629925 0l0 -3.1181183l6.2362213 6.2362213l-6.2362213 6.2362213l0 -3.118103l-40.629925 0z" fill-rule="evenodd"/><defs><linearGradient id="p.47" gradientUnits="userSpaceOnUse" gradientTransform="matrix(6.477578149885183 0.0 0.0 6.477578149885183 0.0 0.0)" spreadMethod="pad" x1="11.16539221138406" y1="33.43516653725189" x2="15.745790209567927" y2="28.854885665285288"><stop offset="0.0" stop-color="#d4e5f5"/><stop offset="1.0" stop-color="#70a4d5"/></linearGradient></defs><path fill="url(#p.47)" d="m48.892223 183.7915l40.629925 0l0 -3.1181183l6.2362213 6.2362213l-6.2362213 6.2362213l0 -3.118103l-40.629925 0z" fill-rule="evenodd"/><defs><linearGradient id="p.48" gradientUnits="userSpaceOnUse" gradientTransform="matrix(6.477575911486351 0.0 0.0 6.477575911486351 0.0 0.0)" spreadMethod="pad" x1="133.43336040199029" y1="26.0249970437117" x2="138.0137568174074" y2="21.44471775455233"><stop offset="0.0" stop-color="#d4e5f5"/><stop offset="1.0" stop-color="#70a4d5"/></linearGradient></defs><path fill="url(#p.48)" d="m840.8922 135.7915l40.629944 0l0 -3.1181183l6.236206 6.2362213l-6.236206 6.2362213l0 -3.118103l-40.629944 0z" fill-rule="evenodd"/><defs><linearGradient id="p.49" gradientUnits="userSpaceOnUse" gradientTransform="matrix(6.477575911486351 0.0 0.0 6.477575911486351 0.0 0.0)" spreadMethod="pad" x1="133.43336040199029" y1="28.495052116899508" x2="138.0137568174074" y2="23.914772827740133"><stop offset="0.0" stop-color="#d4e5f5"/><stop offset="1.0" stop-color="#70a4d5"/></linearGradient></defs><path fill="url(#p.49)" d="m840.8922 151.7915l40.629944 0l0 -3.1181183l6.236206 6.2362213l-6.236206 6.2362213l0 -3.118103l-40.629944 0z" fill-rule="evenodd"/><defs><linearGradient id="p.50" gradientUnits="userSpaceOnUse" gradientTransform="matrix(6.477576471079024 0.0 0.0 6.477576471079024 0.0 0.0)" spreadMethod="pad" x1="133.43334887478852" y1="30.96511559454627" x2="138.01374489450885" y2="26.384835118286446"><stop offset="0.0" stop-color="#d4e5f5"/><stop offset="1.0" stop-color="#70a4d5"/></linearGradient></defs><path fill="url(#p.50)" d="m840.8922 167.7915l40.629944 0l0 -3.1181183l6.236206 6.2362213l-6.236206 6.2362213l0 -3.118103l-40.629944 0z" fill-rule="evenodd"/><defs><linearGradient id="p.51" gradientUnits="userSpaceOnUse" gradientTransform="matrix(6.477571434632219 0.0 0.0 6.477571434632219 0.0 0.0)" spreadMethod="pad" x1="133.43345262199847" y1="33.43519486810155" x2="138.01383954076525" y2="28.854912413366545"><stop offset="0.0" stop-color="#d4e5f5"/><stop offset="1.0" stop-color="#70a4d5"/></linearGradient></defs><path fill="url(#p.51)" d="m840.8922 183.7915l40.629944 0l0 -3.1181183l6.236206 6.2362213l-6.236206 6.2362213l0 -3.118103l-40.629944 0z" fill-rule="evenodd"/><path fill="#000000" fill-opacity="0.0" d="m504.27847 263.26678l1.0708618 -86.677155" fill-rule="evenodd"/><path stroke="#434343" stroke-width="1.0" stroke-linejoin="round" stroke-linecap="butt" d="m504.27847 263.26678l0.9967346 -80.67761" fill-rule="evenodd"/><path fill="#434343" stroke="#434343" stroke-width="1.0" stroke-linecap="butt" d="m506.92682 182.60957l-1.5955505 -4.5581512l-1.7076721 4.5173492z" fill-rule="evenodd"/><path fill="#000000" fill-opacity="0.0" d="m553.03546 70.16798l0 41.259842" fill-rule="evenodd"/><path stroke="#434343" stroke-width="1.0" stroke-linejoin="round" stroke-linecap="butt" d="m553.03546 70.16798l0 35.259842" fill-rule="evenodd"/><path fill="#434343" stroke="#434343" stroke-width="1.0" stroke-linecap="butt" d="m551.3837 105.42782l1.6517334 4.538101l1.6517334 -4.538101z" fill-rule="evenodd"/><path fill="#000000" fill-opacity="0.0" d="m243.41043 63.10548l0 41.25984" fill-rule="evenodd"/><path stroke="#434343" stroke-width="1.0" stroke-linejoin="round" stroke-linecap="butt" d="m243.41043 63.10548l0 35.25984" fill-rule="evenodd"/><path fill="#434343" stroke="#434343" stroke-width="1.0" stroke-linecap="butt" d="m241.7587 98.36532l1.6517334 4.538101l1.6517334 -4.538101z" fill-rule="evenodd"/><path fill="#000000" fill-opacity="0.0" d="m17.86483 241.72966l151.87402 0l0 37.291336l-151.87402 0z" fill-rule="evenodd"/><path fill="#000000" d="m38.102615 266.08966l-1.515625 0l-6.25 -9.59375l-0.0625 0q0.125 1.6875 0.125 3.09375l0 6.5l-1.21875 0l0 -11.421875l1.5 0l6.21875 9.546875l0.0625 0q-0.015625 -0.21875 -0.078125 -1.359375q-0.046875 -1.140625 -0.03125 -1.640625l0 -6.546875l1.25 0l0 11.421875zm6.5625 0.15625q-1.90625 0 -3.0 -1.15625q-1.09375 -1.15625 -1.09375 -3.21875q0 -2.0625 1.015625 -3.28125q1.015625 -1.21875 2.734375 -1.21875q1.609375 0 2.546875 1.0625q0.9375 1.046875 0.9375 2.78125l0 0.828125l-5.890625 0q0.03125 1.5 0.75 2.28125q0.734375 0.78125 2.046875 0.78125q1.375 0 2.734375 -0.578125l0 1.15625q-0.6875 0.296875 -1.3125 0.421875q-0.609375 0.140625 -1.46875 0.140625zm-0.359375 -7.796875q-1.03125 0 -1.640625 0.671875q-0.609375 0.671875 -0.71875 1.859375l4.46875 0q0 -1.21875 -0.546875 -1.875q-0.546875 -0.65625 -1.5625 -0.65625zm12.7265625 -0.921875l0 0.8125l-1.59375 0.1875q0.21875 0.28125 0.390625 0.71875q0.171875 0.4375 0.171875 1.0q0 1.25 -0.859375 2.0q-0.859375 0.75 -2.359375 0.75q-0.375 0 -0.71875 -0.0625q-0.828125 0.4375 -0.828125 1.109375q0 0.34375 0.28125 0.515625q0.296875 0.171875 1.0 0.171875l1.515625 0q1.390625 0 2.140625 0.59375q0.75 0.578125 0.75 1.703125q0 1.421875 -1.140625 2.15625q-1.140625 0.75 -3.328125 0.75q-1.6875 0 -2.59375 -0.625q-0.90625 -0.625 -0.90625 -1.765625q0 -0.78125 0.5 -1.359375q0.5 -0.5625 1.40625 -0.765625q-0.328125 -0.15625 -0.5625 -0.46875q-0.21875 -0.3125 -0.21875 -0.71875q0 -0.46875 0.25 -0.8125q0.25 -0.359375 0.796875 -0.6875q-0.671875 -0.28125 -1.09375 -0.9375q-0.40625 -0.65625 -0.40625 -1.5q0 -1.40625 0.84375 -2.15625q0.84375 -0.765625 2.390625 -0.765625q0.671875 0 1.203125 0.15625l2.96875 0zm-6.828125 10.0q0 0.703125 0.578125 1.0625q0.59375 0.359375 1.6875 0.359375q1.625 0 2.40625 -0.5q0.796875 -0.484375 0.796875 -1.3125q0 -0.703125 -0.4375 -0.984375q-0.421875 -0.265625 -1.609375 -0.265625l-1.5625 0q-0.875 0 -1.375 0.421875q-0.484375 0.4375 -0.484375 1.21875zm0.703125 -7.265625q0 0.90625 0.5 1.375q0.515625 0.453125 1.421875 0.453125q1.890625 0 1.890625 -1.84375q0 -1.9375 -1.921875 -1.9375q-0.90625 0 -1.40625 0.5q-0.484375 0.484375 -0.484375 1.453125zm13.140625 5.828125l-0.25 -1.21875l-0.0625 0q-0.640625 0.796875 -1.28125 1.09375q-0.640625 0.28125 -1.59375 0.28125q-1.265625 0 -2.0 -0.65625q-0.71875 -0.65625 -0.71875 -1.875q0 -2.59375 4.15625 -2.71875l1.453125 -0.046875l0 -0.53125q0 -1.0 -0.4375 -1.484375q-0.4375 -0.484375 -1.390625 -0.484375q-1.0625 0 -2.421875 0.65625l-0.390625 -0.984375q0.625 -0.34375 1.375 -0.53125q0.765625 -0.203125 1.515625 -0.203125q1.53125 0 2.265625 0.6875q0.75 0.671875 0.75 2.171875l0 5.84375l-0.96875 0zm-2.921875 -0.921875q1.203125 0 1.890625 -0.65625q0.703125 -0.671875 0.703125 -1.859375l0 -0.78125l-1.296875 0.0625q-1.546875 0.046875 -2.234375 0.484375q-0.6875 0.421875 -0.6875 1.3125q0 0.703125 0.421875 1.078125q0.4375 0.359375 1.203125 0.359375zm9.3203125 0q0.34375 0 0.65625 -0.046875q0.328125 -0.046875 0.515625 -0.109375l0 1.0q-0.203125 0.109375 -0.625 0.171875q-0.40625 0.0625 -0.734375 0.0625q-2.484375 0 -2.484375 -2.625l0 -5.09375l-1.21875 0l0 -0.625l1.21875 -0.53125l0.546875 -1.828125l0.75 0l0 1.984375l2.484375 0l0 1.0l-2.484375 0l0 5.046875q0 0.765625 0.359375 1.1875q0.375 0.40625 1.015625 0.40625zm4.1796875 0.921875l-1.296875 0l0 -8.5625l1.296875 0l0 8.5625zm-1.40625 -10.890625q0 -0.4375 0.21875 -0.640625q0.21875 -0.21875 0.546875 -0.21875q0.3125 0 0.53125 0.21875q0.234375 0.203125 0.234375 0.640625q0 0.4375 -0.234375 0.65625q-0.21875 0.21875 -0.53125 0.21875q-0.328125 0 -0.546875 -0.21875q-0.21875 -0.21875 -0.21875 -0.65625zm6.03125 10.890625l-3.25 -8.5625l1.390625 0l1.84375 5.078125q0.625 1.78125 0.734375 2.3125l0.0625 0q0.09375 -0.421875 0.546875 -1.71875q0.453125 -1.296875 2.046875 -5.671875l1.390625 0l-3.25 8.5625l-1.515625 0zm9.765625 0.15625q-1.90625 0 -3.0 -1.15625q-1.09375 -1.15625 -1.09375 -3.21875q0 -2.0625 1.015625 -3.28125q1.015625 -1.21875 2.734375 -1.21875q1.609375 0 2.546875 1.0625q0.9375 1.046875 0.9375 2.78125l0 0.828125l-5.890625 0q0.03125 1.5 0.75 2.28125q0.734375 0.78125 2.046875 0.78125q1.375 0 2.734375 -0.578125l0 1.15625q-0.6875 0.296875 -1.3125 0.421875q-0.609375 0.140625 -1.46875 0.140625zm-0.359375 -7.796875q-1.03125 0 -1.640625 0.671875q-0.609375 0.671875 -0.71875 1.859375l4.46875 0q0 -1.21875 -0.546875 -1.875q-0.546875 -0.65625 -1.5625 -0.65625zm12.6328125 6.71875q0.34375 0 0.65625 -0.046875q0.328125 -0.046875 0.515625 -0.109375l0 1.0q-0.203125 0.109375 -0.625 0.171875q-0.40625 0.0625 -0.734375 0.0625q-2.484375 0 -2.484375 -2.625l0 -5.09375l-1.21875 0l0 -0.625l1.21875 -0.53125l0.546875 -1.828125l0.75 0l0 1.984375l2.484375 0l0 1.0l-2.484375 0l0 5.046875q0 0.765625 0.359375 1.1875q0.375 0.40625 1.015625 0.40625zm6.5078125 1.078125q-1.90625 0 -3.0 -1.15625q-1.09375 -1.15625 -1.09375 -3.21875q0 -2.0625 1.015625 -3.28125q1.015625 -1.21875 2.734375 -1.21875q1.609375 0 2.546875 1.0625q0.9375 1.046875 0.9375 2.78125l0 0.828125l-5.890625 0q0.03125 1.5 0.75 2.28125q0.734375 0.78125 2.046875 0.78125q1.375 0 2.734375 -0.578125l0 1.15625q-0.6875 0.296875 -1.3125 0.421875q-0.609375 0.140625 -1.46875 0.140625zm-0.359375 -7.796875q-1.03125 0 -1.640625 0.671875q-0.609375 0.671875 -0.71875 1.859375l4.46875 0q0 -1.21875 -0.546875 -1.875q-0.546875 -0.65625 -1.5625 -0.65625zm9.6171875 -1.078125q0.578125 0 1.03125 0.09375l-0.1875 1.203125q-0.53125 -0.125 -0.9375 -0.125q-1.03125 0 -1.78125 0.84375q-0.734375 0.84375 -0.734375 2.109375l0 4.59375l-1.296875 0l0 -8.5625l1.078125 0l0.140625 1.578125l0.0625 0q0.484375 -0.828125 1.15625 -1.28125q0.671875 -0.453125 1.46875 -0.453125zm13.546875 8.71875l0 -5.578125q0 -1.015625 -0.4375 -1.53125q-0.4375 -0.515625 -1.359375 -0.515625q-1.21875 0 -1.796875 0.703125q-0.578125 0.6875 -0.578125 2.140625l0 4.78125l-1.296875 0l0 -5.578125q0 -1.015625 -0.4375 -1.53125q-0.4375 -0.515625 -1.359375 -0.515625q-1.21875 0 -1.796875 0.734375q-0.5625 0.734375 -0.5625 2.390625l0 4.5l-1.296875 0l0 -8.5625l1.0625 0l0.203125 1.171875l0.0625 0q0.375 -0.625 1.03125 -0.96875q0.671875 -0.359375 1.5 -0.359375q2.015625 0 2.625 1.453125l0.0625 0q0.390625 -0.671875 1.109375 -1.0625q0.734375 -0.390625 1.65625 -0.390625q1.453125 0 2.171875 0.75q0.734375 0.734375 0.734375 2.375l0 5.59375l-1.296875 0zm5.2578125 0l-1.296875 0l0 -8.5625l1.296875 0l0 8.5625zm-1.40625 -10.890625q0 -0.4375 0.21875 -0.640625q0.21875 -0.21875 0.546875 -0.21875q0.3125 0 0.53125 0.21875q0.234375 0.203125 0.234375 0.640625q0 0.4375 -0.234375 0.65625q-0.21875 0.21875 -0.53125 0.21875q-0.328125 0 -0.546875 -0.21875q-0.21875 -0.21875 -0.21875 -0.65625zm10.015625 10.890625l0 -5.546875q0 -1.046875 -0.484375 -1.5625q-0.46875 -0.515625 -1.484375 -0.515625q-1.34375 0 -1.96875 0.734375q-0.625 0.71875 -0.625 2.390625l0 4.5l-1.296875 0l0 -8.5625l1.0625 0l0.203125 1.171875l0.0625 0q0.40625 -0.640625 1.125 -0.984375q0.71875 -0.34375 1.59375 -0.34375q1.546875 0 2.328125 0.75q0.78125 0.734375 0.78125 2.375l0 5.59375l-1.296875 0zm9.2265625 0l-0.25 -1.21875l-0.0625 0q-0.640625 0.796875 -1.28125 1.09375q-0.640625 0.28125 -1.59375 0.28125q-1.265625 0 -2.0 -0.65625q-0.71875 -0.65625 -0.71875 -1.875q0 -2.59375 4.15625 -2.71875l1.453125 -0.046875l0 -0.53125q0 -1.0 -0.4375 -1.484375q-0.4375 -0.484375 -1.390625 -0.484375q-1.0625 0 -2.421875 0.65625l-0.390625 -0.984375q0.625 -0.34375 1.375 -0.53125q0.765625 -0.203125 1.515625 -0.203125q1.53125 0 2.265625 0.6875q0.75 0.671875 0.75 2.171875l0 5.84375l-0.96875 0zm-2.921875 -0.921875q1.203125 0 1.890625 -0.65625q0.703125 -0.671875 0.703125 -1.859375l0 -0.78125l-1.296875 0.0625q-1.546875 0.046875 -2.234375 0.484375q-0.6875 0.421875 -0.6875 1.3125q0 0.703125 0.421875 1.078125q0.4375 0.359375 1.203125 0.359375zm7.8515625 0.921875l-1.296875 0l0 -12.15625l1.296875 0l0 12.15625z" fill-rule="nonzero"/><path fill="#000000" fill-opacity="0.0" d="m788.38715 241.72966l151.87402 0l0 37.291336l-151.87402 0z" fill-rule="evenodd"/><path fill="#000000" d="m810.8007 257.9959q0 1.734375 -1.1875 2.671875q-1.171875 0.921875 -3.375 0.921875l-1.34375 0l0 4.5l-1.328125 0l0 -11.421875l2.953125 0q4.28125 0 4.28125 3.328125zm-5.90625 2.453125l1.1875 0q1.765625 0 2.546875 -0.5625q0.796875 -0.578125 0.796875 -1.828125q0 -1.140625 -0.75 -1.6875q-0.734375 -0.5625 -2.296875 -0.5625l-1.484375 0l0 4.640625zm15.4921875 1.34375q0 2.09375 -1.0625 3.28125q-1.046875 1.171875 -2.90625 1.171875q-1.140625 0 -2.03125 -0.53125q-0.890625 -0.546875 -1.375 -1.546875q-0.484375 -1.015625 -0.484375 -2.375q0 -2.09375 1.046875 -3.25q1.046875 -1.171875 2.90625 -1.171875q1.796875 0 2.84375 1.203125q1.0625 1.1875 1.0625 3.21875zm-6.515625 0q0 1.640625 0.65625 2.5q0.65625 0.859375 1.921875 0.859375q1.28125 0 1.9375 -0.84375q0.65625 -0.859375 0.65625 -2.515625q0 -1.625 -0.65625 -2.46875q-0.65625 -0.859375 -1.953125 -0.859375q-1.265625 0 -1.921875 0.84375q-0.640625 0.828125 -0.640625 2.484375zm14.3203125 1.953125q0 1.203125 -0.890625 1.859375q-0.890625 0.640625 -2.5 0.640625q-1.703125 0 -2.65625 -0.546875l0 -1.203125q0.609375 0.3125 1.3125 0.5q0.71875 0.171875 1.375 0.171875q1.015625 0 1.5625 -0.3125q0.546875 -0.328125 0.546875 -1.0q0 -0.5 -0.4375 -0.84375q-0.4375 -0.359375 -1.6875 -0.84375q-1.203125 -0.453125 -1.703125 -0.78125q-0.5 -0.328125 -0.75 -0.75q-0.25 -0.421875 -0.25 -1.015625q0 -1.046875 0.84375 -1.640625q0.859375 -0.609375 2.34375 -0.609375q1.390625 0 2.703125 0.5625l-0.453125 1.046875q-1.296875 -0.53125 -2.34375 -0.53125q-0.921875 0 -1.390625 0.296875q-0.46875 0.28125 -0.46875 0.796875q0 0.34375 0.171875 0.59375q0.1875 0.234375 0.578125 0.453125q0.390625 0.21875 1.5 0.625q1.515625 0.5625 2.046875 1.125q0.546875 0.5625 0.546875 1.40625zm3.3984375 2.34375l-1.296875 0l0 -8.5625l1.296875 0l0 8.5625zm-1.40625 -10.890625q0 -0.4375 0.21875 -0.640625q0.21875 -0.21875 0.546875 -0.21875q0.3125 0 0.53125 0.21875q0.234375 0.203125 0.234375 0.640625q0 0.4375 -0.234375 0.65625q-0.21875 0.21875 -0.53125 0.21875q-0.328125 0 -0.546875 -0.21875q-0.21875 -0.21875 -0.21875 -0.65625zm6.921875 9.96875q0.34375 0 0.65625 -0.046875q0.328125 -0.046875 0.515625 -0.109375l0 1.0q-0.203125 0.109375 -0.625 0.171875q-0.40625 0.0625 -0.734375 0.0625q-2.484375 0 -2.484375 -2.625l0 -5.09375l-1.21875 0l0 -0.625l1.21875 -0.53125l0.546875 -1.828125l0.75 0l0 1.984375l2.484375 0l0 1.0l-2.484375 0l0 5.046875q0 0.765625 0.359375 1.1875q0.375 0.40625 1.015625 0.40625zm4.1796875 0.921875l-1.296875 0l0 -8.5625l1.296875 0l0 8.5625zm-1.40625 -10.890625q0 -0.4375 0.21875 -0.640625q0.21875 -0.21875 0.546875 -0.21875q0.3125 0 0.53125 0.21875q0.234375 0.203125 0.234375 0.640625q0 0.4375 -0.234375 0.65625q-0.21875 0.21875 -0.53125 0.21875q-0.328125 0 -0.546875 -0.21875q-0.21875 -0.21875 -0.21875 -0.65625zm6.03125 10.890625l-3.25 -8.5625l1.390625 0l1.84375 5.078125q0.625 1.78125 0.734375 2.3125l0.0625 0q0.09375 -0.421875 0.546875 -1.71875q0.453125 -1.296875 2.046875 -5.671875l1.390625 0l-3.25 8.5625l-1.515625 0zm9.765625 0.15625q-1.90625 0 -3.0 -1.15625q-1.09375 -1.15625 -1.09375 -3.21875q0 -2.0625 1.015625 -3.28125q1.015625 -1.21875 2.734375 -1.21875q1.609375 0 2.546875 1.0625q0.9375 1.046875 0.9375 2.78125l0 0.828125l-5.890625 0q0.03125 1.5 0.75 2.28125q0.734375 0.78125 2.046875 0.78125q1.375 0 2.734375 -0.578125l0 1.15625q-0.6875 0.296875 -1.3125 0.421875q-0.609375 0.140625 -1.46875 0.140625zm-0.359375 -7.796875q-1.03125 0 -1.640625 0.671875q-0.609375 0.671875 -0.71875 1.859375l4.46875 0q0 -1.21875 -0.546875 -1.875q-0.546875 -0.65625 -1.5625 -0.65625zm12.6328125 6.71875q0.34375 0 0.65625 -0.046875q0.328125 -0.046875 0.515625 -0.109375l0 1.0q-0.203125 0.109375 -0.625 0.171875q-0.40625 0.0625 -0.734375 0.0625q-2.484375 0 -2.484375 -2.625l0 -5.09375l-1.21875 0l0 -0.625l1.21875 -0.53125l0.546875 -1.828125l0.75 0l0 1.984375l2.484375 0l0 1.0l-2.484375 0l0 5.046875q0 0.765625 0.359375 1.1875q0.375 0.40625 1.015625 0.40625zm6.5078125 1.078125q-1.90625 0 -3.0 -1.15625q-1.09375 -1.15625 -1.09375 -3.21875q0 -2.0625 1.015625 -3.28125q1.015625 -1.21875 2.734375 -1.21875q1.609375 0 2.546875 1.0625q0.9375 1.046875 0.9375 2.78125l0 0.828125l-5.890625 0q0.03125 1.5 0.75 2.28125q0.734375 0.78125 2.046875 0.78125q1.375 0 2.734375 -0.578125l0 1.15625q-0.6875 0.296875 -1.3125 0.421875q-0.609375 0.140625 -1.46875 0.140625zm-0.359375 -7.796875q-1.03125 0 -1.640625 0.671875q-0.609375 0.671875 -0.71875 1.859375l4.46875 0q0 -1.21875 -0.546875 -1.875q-0.546875 -0.65625 -1.5625 -0.65625zm9.6171875 -1.078125q0.578125 0 1.03125 0.09375l-0.1875 1.203125q-0.53125 -0.125 -0.9375 -0.125q-1.03125 0 -1.78125 0.84375q-0.734375 0.84375 -0.734375 2.109375l0 4.59375l-1.296875 0l0 -8.5625l1.078125 0l0.140625 1.578125l0.0625 0q0.484375 -0.828125 1.15625 -1.28125q0.671875 -0.453125 1.46875 -0.453125zm13.546875 8.71875l0 -5.578125q0 -1.015625 -0.4375 -1.53125q-0.4375 -0.515625 -1.359375 -0.515625q-1.21875 0 -1.796875 0.703125q-0.578125 0.6875 -0.578125 2.140625l0 4.78125l-1.296875 0l0 -5.578125q0 -1.015625 -0.4375 -1.53125q-0.4375 -0.515625 -1.359375 -0.515625q-1.21875 0 -1.796875 0.734375q-0.5625 0.734375 -0.5625 2.390625l0 4.5l-1.296875 0l0 -8.5625l1.0625 0l0.203125 1.171875l0.0625 0q0.375 -0.625 1.03125 -0.96875q0.671875 -0.359375 1.5 -0.359375q2.015625 0 2.625 1.453125l0.0625 0q0.390625 -0.671875 1.109375 -1.0625q0.734375 -0.390625 1.65625 -0.390625q1.453125 0 2.171875 0.75q0.734375 0.734375 0.734375 2.375l0 5.59375l-1.296875 0zm5.2578125 0l-1.296875 0l0 -8.5625l1.296875 0l0 8.5625zm-1.40625 -10.890625q0 -0.4375 0.21875 -0.640625q0.21875 -0.21875 0.546875 -0.21875q0.3125 0 0.53125 0.21875q0.234375 0.203125 0.234375 0.640625q0 0.4375 -0.234375 0.65625q-0.21875 0.21875 -0.53125 0.21875q-0.328125 0 -0.546875 -0.21875q-0.21875 -0.21875 -0.21875 -0.65625zm10.015625 10.890625l0 -5.546875q0 -1.046875 -0.484375 -1.5625q-0.46875 -0.515625 -1.484375 -0.515625q-1.34375 0 -1.96875 0.734375q-0.625 0.71875 -0.625 2.390625l0 4.5l-1.296875 0l0 -8.5625l1.0625 0l0.203125 1.171875l0.0625 0q0.40625 -0.640625 1.125 -0.984375q0.71875 -0.34375 1.59375 -0.34375q1.546875 0 2.328125 0.75q0.78125 0.734375 0.78125 2.375l0 5.59375l-1.296875 0zm9.2265625 0l-0.25 -1.21875l-0.0625 0q-0.640625 0.796875 -1.28125 1.09375q-0.640625 0.28125 -1.59375 0.28125q-1.265625 0 -2.0 -0.65625q-0.71875 -0.65625 -0.71875 -1.875q0 -2.59375 4.15625 -2.71875l1.453125 -0.046875l0 -0.53125q0 -1.0 -0.4375 -1.484375q-0.4375 -0.484375 -1.390625 -0.484375q-1.0625 0 -2.421875 0.65625l-0.390625 -0.984375q0.625 -0.34375 1.375 -0.53125q0.765625 -0.203125 1.515625 -0.203125q1.53125 0 2.265625 0.6875q0.75 0.671875 0.75 2.171875l0 5.84375l-0.96875 0zm-2.921875 -0.921875q1.203125 0 1.890625 -0.65625q0.703125 -0.671875 0.703125 -1.859375l0 -0.78125l-1.296875 0.0625q-1.546875 0.046875 -2.234375 0.484375q-0.6875 0.421875 -0.6875 1.3125q0 0.703125 0.421875 1.078125q0.4375 0.359375 1.203125 0.359375zm7.8515625 0.921875l-1.296875 0l0 -12.15625l1.296875 0l0 12.15625z" fill-rule="nonzero"/><path fill="#000000" fill-opacity="0.0" d="m428.88846 263.8189l151.874 0l0 37.29132l-151.874 0z" fill-rule="evenodd"/><path fill="#000000" d="m462.23172 277.77264q-1.890625 0 -2.984375 1.265625q-1.078125 1.25 -1.078125 3.421875q0 2.25 1.046875 3.46875q1.046875 1.21875 3.0 1.21875q1.1875 0 2.71875 -0.421875l0 1.15625q-1.1875 0.453125 -2.921875 0.453125q-2.53125 0 -3.90625 -1.53125q-1.359375 -1.53125 -1.359375 -4.359375q0 -1.765625 0.65625 -3.09375q0.65625 -1.328125 1.90625 -2.046875q1.25 -0.71875 2.9375 -0.71875q1.796875 0 3.140625 0.65625l-0.5625 1.140625q-1.296875 -0.609375 -2.59375 -0.609375zm12.390625 6.109375q0 2.09375 -1.0625 3.28125q-1.046875 1.171875 -2.90625 1.171875q-1.140625 0 -2.03125 -0.53125q-0.890625 -0.546875 -1.375 -1.546875q-0.484375 -1.015625 -0.484375 -2.375q0 -2.09375 1.046875 -3.25q1.046875 -1.171875 2.90625 -1.171875q1.796875 0 2.84375 1.203125q1.0625 1.1875 1.0625 3.21875zm-6.515625 0q0 1.640625 0.65625 2.5q0.65625 0.859375 1.921875 0.859375q1.28125 0 1.9375 -0.84375q0.65625 -0.859375 0.65625 -2.515625q0 -1.625 -0.65625 -2.46875q-0.65625 -0.859375 -1.953125 -0.859375q-1.265625 0 -1.921875 0.84375q-0.640625 0.828125 -0.640625 2.484375zm12.7734375 4.453125q-0.828125 0 -1.53125 -0.3125q-0.6875 -0.3125 -1.15625 -0.953125l-0.09375 0q0.09375 0.75 0.09375 1.4375l0 3.515625l-1.296875 0l0 -12.40625l1.0625 0l0.171875 1.171875l0.0625 0q0.5 -0.703125 1.15625 -1.015625q0.671875 -0.3125 1.53125 -0.3125q1.703125 0 2.625 1.171875q0.9375 1.15625 0.9375 3.25q0 2.109375 -0.953125 3.28125q-0.9375 1.171875 -2.609375 1.171875zm-0.1875 -7.78125q-1.3125 0 -1.90625 0.734375q-0.578125 0.71875 -0.59375 2.3125l0 0.28125q0 1.8125 0.59375 2.59375q0.609375 0.765625 1.9375 0.765625q1.109375 0 1.734375 -0.890625q0.640625 -0.90625 0.640625 -2.484375q0 -1.59375 -0.640625 -2.453125q-0.625 -0.859375 -1.765625 -0.859375zm9.9921875 7.78125q-0.828125 0 -1.53125 -0.3125q-0.6875 -0.3125 -1.15625 -0.953125l-0.09375 0q0.09375 0.75 0.09375 1.4375l0 3.515625l-1.296875 0l0 -12.40625l1.0625 0l0.171875 1.171875l0.0625 0q0.5 -0.703125 1.15625 -1.015625q0.671875 -0.3125 1.53125 -0.3125q1.703125 0 2.625 1.171875q0.9375 1.15625 0.9375 3.25q0 2.109375 -0.953125 3.28125q-0.9375 1.171875 -2.609375 1.171875zm-0.1875 -7.78125q-1.3125 0 -1.90625 0.734375q-0.578125 0.71875 -0.59375 2.3125l0 0.28125q0 1.8125 0.59375 2.59375q0.609375 0.765625 1.9375 0.765625q1.109375 0 1.734375 -0.890625q0.640625 -0.90625 0.640625 -2.484375q0 -1.59375 -0.640625 -2.453125q-0.625 -0.859375 -1.765625 -0.859375zm9.6328125 7.78125q-1.90625 0 -3.0 -1.15625q-1.09375 -1.15625 -1.09375 -3.21875q0 -2.0625 1.015625 -3.28125q1.015625 -1.21875 2.734375 -1.21875q1.609375 0 2.546875 1.0625q0.9375 1.046875 0.9375 2.78125l0 0.828125l-5.890625 0q0.03125 1.5 0.75 2.28125q0.734375 0.78125 2.046875 0.78125q1.375 0 2.734375 -0.578125l0 1.15625q-0.6875 0.296875 -1.3125 0.421875q-0.609375 0.140625 -1.46875 0.140625zm-0.359375 -7.796875q-1.03125 0 -1.640625 0.671875q-0.609375 0.671875 -0.71875 1.859375l4.46875 0q0 -1.21875 -0.546875 -1.875q-0.546875 -0.65625 -1.5625 -0.65625zm9.6171875 -1.078125q0.578125 0 1.03125 0.09375l-0.1875 1.203125q-0.53125 -0.125 -0.9375 -0.125q-1.03125 0 -1.78125 0.84375q-0.734375 0.84375 -0.734375 2.109375l0 4.59375l-1.296875 0l0 -8.5625l1.078125 0l0.140625 1.578125l0.0625 0q0.484375 -0.828125 1.15625 -1.28125q0.671875 -0.453125 1.46875 -0.453125zm12.0468445 8.71875l-0.25 -1.21875l-0.0625 0q-0.640625 0.796875 -1.28125 1.09375q-0.640625 0.28125 -1.59375 0.28125q-1.265625 0 -2.0 -0.65625q-0.71875 -0.65625 -0.71875 -1.875q0 -2.59375 4.15625 -2.71875l1.453125 -0.046875l0 -0.53125q0 -1.0 -0.4375 -1.484375q-0.4375 -0.484375 -1.390625 -0.484375q-1.0625 0 -2.421875 0.65625l-0.390625 -0.984375q0.625 -0.34375 1.375 -0.53125q0.765625 -0.203125 1.515625 -0.203125q1.53125 0 2.265625 0.6875q0.75 0.671875 0.75 2.171875l0 5.84375l-0.96875 0zm-2.921875 -0.921875q1.203125 0 1.890625 -0.65625q0.703125 -0.671875 0.703125 -1.859375l0 -0.78125l-1.296875 0.0625q-1.546875 0.046875 -2.234375 0.484375q-0.6875 0.421875 -0.6875 1.3125q0 0.703125 0.421875 1.078125q0.4375 0.359375 1.203125 0.359375zm9.3203125 0q0.34375 0 0.65625 -0.046875q0.328125 -0.046875 0.515625 -0.109375l0 1.0q-0.203125 0.109375 -0.625 0.171875q-0.40625 0.0625 -0.734375 0.0625q-2.484375 0 -2.484375 -2.625l0 -5.09375l-1.21875 0l0 -0.625l1.21875 -0.53125l0.546875 -1.828125l0.75 0l0 1.984375l2.484375 0l0 1.0l-2.484375 0l0 5.046875q0 0.765625 0.359375 1.1875q0.375 0.40625 1.015625 0.40625zm10.2734375 -3.375q0 2.09375 -1.0625 3.28125q-1.046875 1.171875 -2.90625 1.171875q-1.140625 0 -2.03125 -0.53125q-0.890625 -0.546875 -1.375 -1.546875q-0.484375 -1.015625 -0.484375 -2.375q0 -2.09375 1.046875 -3.25q1.046875 -1.171875 2.90625 -1.171875q1.796875 0 2.84375 1.203125q1.0625 1.1875 1.0625 3.21875zm-6.515625 0q0 1.640625 0.65625 2.5q0.65625 0.859375 1.921875 0.859375q1.28125 0 1.9375 -0.84375q0.65625 -0.859375 0.65625 -2.515625q0 -1.625 -0.65625 -2.46875q-0.65625 -0.859375 -1.953125 -0.859375q-1.265625 0 -1.921875 0.84375q-0.640625 0.828125 -0.640625 2.484375zm19.710938 4.296875l0 -5.578125q0 -1.015625 -0.4375 -1.53125q-0.4375 -0.515625 -1.359375 -0.515625q-1.21875 0 -1.796875 0.703125q-0.578125 0.6875 -0.578125 2.140625l0 4.78125l-1.296875 0l0 -5.578125q0 -1.015625 -0.4375 -1.53125q-0.4375 -0.515625 -1.359375 -0.515625q-1.21875 0 -1.796875 0.734375q-0.5625 0.734375 -0.5625 2.390625l0 4.5l-1.296875 0l0 -8.5625l1.0625 0l0.203125 1.171875l0.0625 0q0.375 -0.625 1.03125 -0.96875q0.671875 -0.359375 1.5 -0.359375q2.015625 0 2.625 1.453125l0.0625 0q0.390625 -0.671875 1.109375 -1.0625q0.734375 -0.390625 1.65625 -0.390625q1.453125 0 2.171875 0.75q0.734375 0.734375 0.734375 2.375l0 5.59375l-1.296875 0z" fill-rule="nonzero"/><path fill="#000000" fill-opacity="0.0" d="m483.0223 30.35433l151.874 0l0 37.291336l-151.874 0z" fill-rule="evenodd"/><path fill="#000000" d="m519.9124 44.308083q-1.890625 0 -2.984375 1.265625q-1.078125 1.25 -1.078125 3.421875q0 2.25 1.046875 3.46875q1.046875 1.21875 3.0 1.21875q1.1875 0 2.71875 -0.421875l0 1.15625q-1.1875 0.453125 -2.921875 0.453125q-2.53125 0 -3.90625 -1.53125q-1.359375 -1.53125 -1.359375 -4.359375q0 -1.765625 0.65625 -3.09375q0.65625 -1.328125 1.90625 -2.046875q1.25 -0.71875 2.9375 -0.71875q1.796875 0 3.140625 0.65625l-0.5625 1.140625q-1.296875 -0.609375 -2.59375 -0.609375zm12.390625 6.109375q0 2.09375 -1.0625 3.28125q-1.046875 1.171875 -2.90625 1.171875q-1.140625 0 -2.03125 -0.53125q-0.890625 -0.546875 -1.375 -1.546875q-0.484375 -1.015625 -0.484375 -2.375q0 -2.09375 1.046875 -3.25q1.046875 -1.171875 2.90625 -1.171875q1.796875 0 2.84375 1.203125q1.0625 1.1875 1.0625 3.21875zm-6.515625 0q0 1.640625 0.65625 2.5q0.65625 0.859375 1.921875 0.859375q1.28125 0 1.9375 -0.84375q0.65625 -0.859375 0.65625 -2.515625q0 -1.625 -0.65625 -2.46875q-0.65625 -0.859375 -1.953125 -0.859375q-1.265625 0 -1.921875 0.84375q-0.640625 0.828125 -0.640625 2.484375zm12.7734375 4.453125q-0.828125 0 -1.53125 -0.3125q-0.6875 -0.3125 -1.15625 -0.953125l-0.09375 0q0.09375 0.75 0.09375 1.4375l0 3.515625l-1.296875 0l0 -12.40625l1.0625 0l0.171875 1.171875l0.0625 0q0.5 -0.703125 1.15625 -1.015625q0.671875 -0.3125 1.53125 -0.3125q1.703125 0 2.625 1.171875q0.9375 1.15625 0.9375 3.25q0 2.109375 -0.953125 3.28125q-0.9375 1.171875 -2.609375 1.171875zm-0.1875 -7.78125q-1.3125 0 -1.90625 0.734375q-0.578125 0.71875 -0.59375 2.3125l0 0.28125q0 1.8125 0.59375 2.59375q0.609375 0.765625 1.9375 0.765625q1.109375 0 1.734375 -0.890625q0.640625 -0.90625 0.640625 -2.484375q0 -1.59375 -0.640625 -2.453125q-0.625 -0.859375 -1.765625 -0.859375zm9.9921875 7.78125q-0.828125 0 -1.53125 -0.3125q-0.6875 -0.3125 -1.15625 -0.953125l-0.09375 0q0.09375 0.75 0.09375 1.4375l0 3.515625l-1.296875 0l0 -12.40625l1.0625 0l0.171875 1.171875l0.0625 0q0.5 -0.703125 1.15625 -1.015625q0.671875 -0.3125 1.53125 -0.3125q1.703125 0 2.625 1.171875q0.9375 1.15625 0.9375 3.25q0 2.109375 -0.953125 3.28125q-0.9375 1.171875 -2.609375 1.171875zm-0.1875 -7.78125q-1.3125 0 -1.90625 0.734375q-0.578125 0.71875 -0.59375 2.3125l0 0.28125q0 1.8125 0.59375 2.59375q0.609375 0.765625 1.9375 0.765625q1.109375 0 1.734375 -0.890625q0.640625 -0.90625 0.640625 -2.484375q0 -1.59375 -0.640625 -2.453125q-0.625 -0.859375 -1.765625 -0.859375zm9.6328125 7.78125q-1.90625 0 -3.0 -1.15625q-1.09375 -1.15625 -1.09375 -3.21875q0 -2.0625 1.015625 -3.28125q1.015625 -1.21875 2.734375 -1.21875q1.609375 0 2.546875 1.0625q0.9375 1.046875 0.9375 2.78125l0 0.828125l-5.890625 0q0.03125 1.5 0.75 2.28125q0.734375 0.78125 2.046875 0.78125q1.375 0 2.734375 -0.578125l0 1.15625q-0.6875 0.296875 -1.3125 0.421875q-0.609375 0.140625 -1.46875 0.140625zm-0.359375 -7.796875q-1.03125 0 -1.640625 0.671875q-0.609375 0.671875 -0.71875 1.859375l4.46875 0q0 -1.21875 -0.546875 -1.875q-0.546875 -0.65625 -1.5625 -0.65625zm9.6171875 -1.078125q0.578125 0 1.03125 0.09375l-0.1875 1.203125q-0.53125 -0.125 -0.9375 -0.125q-1.03125 0 -1.78125 0.84375q-0.734375 0.84375 -0.734375 2.109375l0 4.59375l-1.296875 0l0 -8.5625l1.078125 0l0.140625 1.578125l0.0625 0q0.484375 -0.828125 1.15625 -1.28125q0.671875 -0.453125 1.46875 -0.453125zm13.78125 8.71875l-1.578125 -5.03125q-0.140625 -0.453125 -0.546875 -2.09375l-0.0625 0q-0.3125 1.375 -0.546875 2.109375l-1.625 5.015625l-1.5 0l-2.328125 -8.5625l1.359375 0q0.828125 3.21875 1.25 4.90625q0.4375 1.6875 0.5 2.28125l0.0625 0q0.09375 -0.453125 0.28125 -1.15625q0.1875 -0.703125 0.328125 -1.125l1.578125 -4.90625l1.40625 0l1.53125 4.90625q0.4375 1.34375 0.59375 2.265625l0.0625 0q0.03125 -0.28125 0.15625 -0.859375q0.140625 -0.59375 1.640625 -6.3125l1.34375 0l-2.375 8.5625l-1.53125 0zm6.7421875 0l-1.296875 0l0 -8.5625l1.296875 0l0 8.5625zm-1.40625 -10.890625q0 -0.4375 0.21875 -0.640625q0.21875 -0.21875 0.546875 -0.21875q0.3125 0 0.53125 0.21875q0.234375 0.203125 0.234375 0.640625q0 0.4375 -0.234375 0.65625q-0.21875 0.21875 -0.53125 0.21875q-0.328125 0 -0.546875 -0.21875q-0.21875 -0.21875 -0.21875 -0.65625zm8.0625 2.171875q0.578125 0 1.03125 0.09375l-0.1875 1.203125q-0.53125 -0.125 -0.9375 -0.125q-1.03125 0 -1.78125 0.84375q-0.734375 0.84375 -0.734375 2.109375l0 4.59375l-1.296875 0l0 -8.5625l1.078125 0l0.140625 1.578125l0.0625 0q0.484375 -0.828125 1.15625 -1.28125q0.671875 -0.453125 1.46875 -0.453125zm6.25 8.875q-1.90625 0 -3.0 -1.15625q-1.09375 -1.15625 -1.09375 -3.21875q0 -2.0625 1.015625 -3.28125q1.015625 -1.21875 2.734375 -1.21875q1.609375 0 2.546875 1.0625q0.9375 1.046875 0.9375 2.78125l0 0.828125l-5.890625 0q0.03125 1.5 0.75 2.28125q0.734375 0.78125 2.046875 0.78125q1.375 0 2.734375 -0.578125l0 1.15625q-0.6875 0.296875 -1.3125 0.421875q-0.609375 0.140625 -1.46875 0.140625zm-0.359375 -7.796875q-1.03125 0 -1.640625 0.671875q-0.609375 0.671875 -0.71875 1.859375l4.46875 0q0 -1.21875 -0.546875 -1.875q-0.546875 -0.65625 -1.5625 -0.65625z" fill-rule="nonzero"/><path fill="#000000" fill-opacity="0.0" d="m167.47375 30.35433l151.87402 0l0 37.291336l-151.87402 0z" fill-rule="evenodd"/><path fill="#000000" d="m191.64513 54.714333l-6.359375 0l0 -11.421875l6.359375 0l0 1.171875l-5.03125 0l0 3.6875l4.734375 0l0 1.171875l-4.734375 0l0 4.203125l5.03125 0l0 1.1875zm1.3046875 3.84375q-0.75 0 -1.21875 -0.1875l0 -1.0625q0.546875 0.15625 1.078125 0.15625q0.609375 0 0.890625 -0.328125q0.28125 -0.328125 0.28125 -1.015625l0 -9.96875l1.296875 0l0 9.875q0 2.53125 -2.328125 2.53125zm0.921875 -14.734375q0 -0.4375 0.21875 -0.640625q0.21875 -0.21875 0.546875 -0.21875q0.3125 0 0.53125 0.21875q0.234375 0.203125 0.234375 0.640625q0 0.4375 -0.234375 0.65625q-0.21875 0.21875 -0.53125 0.21875q-0.328125 0 -0.546875 -0.21875q-0.21875 -0.21875 -0.21875 -0.65625zm7.78125 11.046875q-1.90625 0 -3.0 -1.15625q-1.09375 -1.15625 -1.09375 -3.21875q0 -2.0625 1.015625 -3.28125q1.015625 -1.21875 2.734375 -1.21875q1.609375 0 2.546875 1.0625q0.9375 1.046875 0.9375 2.78125l0 0.828125l-5.890625 0q0.03125 1.5 0.75 2.28125q0.734375 0.78125 2.046875 0.78125q1.375 0 2.734375 -0.578125l0 1.15625q-0.6875 0.296875 -1.3125 0.421875q-0.609375 0.140625 -1.46875 0.140625zm-0.359375 -7.796875q-1.03125 0 -1.640625 0.671875q-0.609375 0.671875 -0.71875 1.859375l4.46875 0q0 -1.21875 -0.546875 -1.875q-0.546875 -0.65625 -1.5625 -0.65625zm9.1328125 7.796875q-1.859375 0 -2.875 -1.140625q-1.015625 -1.15625 -1.015625 -3.25q0 -2.140625 1.03125 -3.3125q1.03125 -1.171875 2.953125 -1.171875q0.609375 0 1.21875 0.140625q0.625 0.125 0.984375 0.296875l-0.40625 1.109375q-0.421875 -0.171875 -0.9375 -0.28125q-0.5 -0.125 -0.890625 -0.125q-2.609375 0 -2.609375 3.328125q0 1.578125 0.625 2.421875q0.640625 0.84375 1.890625 0.84375q1.078125 0 2.203125 -0.453125l0 1.140625q-0.859375 0.453125 -2.171875 0.453125zm6.9609375 -1.078125q0.34375 0 0.65625 -0.046875q0.328125 -0.046875 0.515625 -0.109375l0 1.0q-0.203125 0.109375 -0.625 0.171875q-0.40625 0.0625 -0.734375 0.0625q-2.484375 0 -2.484375 -2.625l0 -5.09375l-1.21875 0l0 -0.625l1.21875 -0.53125l0.546875 -1.828125l0.75 0l0 1.984375l2.484375 0l0 1.0l-2.484375 0l0 5.046875q0 0.765625 0.359375 1.1875q0.375 0.40625 1.015625 0.40625zm6.5078125 1.078125q-1.90625 0 -3.0 -1.15625q-1.09375 -1.15625 -1.09375 -3.21875q0 -2.0625 1.015625 -3.28125q1.015625 -1.21875 2.734375 -1.21875q1.609375 0 2.546875 1.0625q0.9375 1.046875 0.9375 2.78125l0 0.828125l-5.890625 0q0.03125 1.5 0.75 2.28125q0.734375 0.78125 2.046875 0.78125q1.375 0 2.734375 -0.578125l0 1.15625q-0.6875 0.296875 -1.3125 0.421875q-0.609375 0.140625 -1.46875 0.140625zm-0.359375 -7.796875q-1.03125 0 -1.640625 0.671875q-0.609375 0.671875 -0.71875 1.859375l4.46875 0q0 -1.21875 -0.546875 -1.875q-0.546875 -0.65625 -1.5625 -0.65625zm11.5390625 6.484375l-0.0625 0q-0.90625 1.3125 -2.6875 1.3125q-1.6875 0 -2.625 -1.140625q-0.921875 -1.15625 -0.921875 -3.28125q0 -2.109375 0.9375 -3.28125q0.9375 -1.171875 2.609375 -1.171875q1.734375 0 2.671875 1.265625l0.09375 0l-0.046875 -0.625l-0.03125 -0.59375l0 -3.484375l1.296875 0l0 12.15625l-1.0625 0l-0.171875 -1.15625zm-2.59375 0.21875q1.328125 0 1.921875 -0.71875q0.609375 -0.71875 0.609375 -2.328125l0 -0.28125q0 -1.8125 -0.609375 -2.59375q-0.609375 -0.78125 -1.9375 -0.78125q-1.140625 0 -1.75 0.890625q-0.59375 0.890625 -0.59375 2.5q0 1.640625 0.59375 2.484375q0.609375 0.828125 1.765625 0.828125zm14.3515625 1.09375q-1.90625 0 -3.0 -1.15625q-1.09375 -1.15625 -1.09375 -3.21875q0 -2.0625 1.015625 -3.28125q1.015625 -1.21875 2.734375 -1.21875q1.609375 0 2.546875 1.0625q0.9375 1.046875 0.9375 2.78125l0 0.828125l-5.890625 0q0.03125 1.5 0.75 2.28125q0.734375 0.78125 2.046875 0.78125q1.375 0 2.734375 -0.578125l0 1.15625q-0.6875 0.296875 -1.3125 0.421875q-0.609375 0.140625 -1.46875 0.140625zm-0.359375 -7.796875q-1.03125 0 -1.640625 0.671875q-0.609375 0.671875 -0.71875 1.859375l4.46875 0q0 -1.21875 -0.546875 -1.875q-0.546875 -0.65625 -1.5625 -0.65625zm7.0078125 7.640625l-1.296875 0l0 -12.15625l1.296875 0l0 12.15625zm6.3750153 0.15625q-1.90625 0 -3.0 -1.15625q-1.0937653 -1.15625 -1.0937653 -3.21875q0 -2.0625 1.0156403 -3.28125q1.015625 -1.21875 2.734375 -1.21875q1.609375 0 2.546875 1.0625q0.9375 1.046875 0.9375 2.78125l0 0.828125l-5.890625 0q0.03125 1.5 0.75 2.28125q0.734375 0.78125 2.046875 0.78125q1.375 0 2.734375 -0.578125l0 1.15625q-0.6875 0.296875 -1.3125 0.421875q-0.609375 0.140625 -1.46875 0.140625zm-0.359375 -7.796875q-1.03125 0 -1.640625 0.671875q-0.609375 0.671875 -0.71875 1.859375l4.46875 0q0 -1.21875 -0.546875 -1.875q-0.546875 -0.65625 -1.5625 -0.65625zm9.1328125 7.796875q-1.859375 0 -2.875 -1.140625q-1.015625 -1.15625 -1.015625 -3.25q0 -2.140625 1.03125 -3.3125q1.03125 -1.171875 2.953125 -1.171875q0.609375 0 1.21875 0.140625q0.625 0.125 0.984375 0.296875l-0.40625 1.109375q-0.421875 -0.171875 -0.9375 -0.28125q-0.5 -0.125 -0.890625 -0.125q-2.609375 0 -2.609375 3.328125q0 1.578125 0.625 2.421875q0.640625 0.84375 1.890625 0.84375q1.078125 0 2.203125 -0.453125l0 1.140625q-0.859375 0.453125 -2.171875 0.453125zm6.9609375 -1.078125q0.34375 0 0.65625 -0.046875q0.328125 -0.046875 0.515625 -0.109375l0 1.0q-0.203125 0.109375 -0.625 0.171875q-0.40625 0.0625 -0.734375 0.0625q-2.484375 0 -2.484375 -2.625l0 -5.09375l-1.21875 0l0 -0.625l1.21875 -0.53125l0.546875 -1.828125l0.75 0l0 1.984375l2.484375 0l0 1.0l-2.484375 0l0 5.046875q0 0.765625 0.359375 1.1875q0.375 0.40625 1.015625 0.40625zm6.7890625 -7.796875q0.578125 0 1.03125 0.09375l-0.1875 1.203125q-0.53125 -0.125 -0.9375 -0.125q-1.03125 0 -1.78125 0.84375q-0.734375 0.84375 -0.734375 2.109375l0 4.59375l-1.296875 0l0 -8.5625l1.078125 0l0.140625 1.578125l0.0625 0q0.484375 -0.828125 1.15625 -1.28125q0.671875 -0.453125 1.46875 -0.453125zm10.015625 4.421875q0 2.09375 -1.0625 3.28125q-1.046875 1.171875 -2.90625 1.171875q-1.140625 0 -2.03125 -0.53125q-0.890625 -0.546875 -1.375 -1.546875q-0.484375 -1.015625 -0.484375 -2.375q0 -2.09375 1.046875 -3.25q1.046875 -1.171875 2.90625 -1.171875q1.796875 0 2.84375 1.203125q1.0625 1.1875 1.0625 3.21875zm-6.515625 0q0 1.640625 0.65625 2.5q0.65625 0.859375 1.921875 0.859375q1.28125 0 1.9375 -0.84375q0.65625 -0.859375 0.65625 -2.515625q0 -1.625 -0.65625 -2.46875q-0.65625 -0.859375 -1.953125 -0.859375q-1.265625 0 -1.921875 0.84375q-0.640625 0.828125 -0.640625 2.484375zm14.6484375 4.296875l0 -5.546875q0 -1.046875 -0.484375 -1.5625q-0.46875 -0.515625 -1.484375 -0.515625q-1.34375 0 -1.96875 0.734375q-0.625 0.71875 -0.625 2.390625l0 4.5l-1.296875 0l0 -8.5625l1.0625 0l0.203125 1.171875l0.0625 0q0.40625 -0.640625 1.125 -0.984375q0.71875 -0.34375 1.59375 -0.34375q1.546875 0 2.328125 0.75q0.78125 0.734375 0.78125 2.375l0 5.59375l-1.296875 0z" fill-rule="nonzero"/></g></svg>