<svg version="1.1" viewBox="0.0 0.0 454.0 238.0" fill="none" stroke="none" stroke-linecap="square" stroke-miterlimit="10" xmlns:xlink="http://www.w3.org/1999/xlink" xmlns="http://www.w3.org/2000/svg"><clipPath id="p.0"><path d="m0 0l454.0 0l0 238.0l-454.0 0l0 -238.0z" clip-rule="nonzero"/></clipPath><g clip-path="url(#p.0)"><path fill="#000000" fill-opacity="0.0" d="m0 0l454.0 0l0 238.0l-454.0 0z" fill-rule="evenodd"/><path fill="#000000" fill-opacity="0.0" d="m69.434784 59.450317l305.13385 0l0 96.944885l-305.13385 0z" fill-rule="evenodd"/><path stroke="#000000" stroke-width="2.0" stroke-linejoin="round" stroke-linecap="butt" d="m69.434784 59.450317l305.13385 0l0 96.944885l-305.13385 0z" fill-rule="evenodd"/><path fill="#cfe2f3" d="m138.39833 188.41873l0 0c-5.7357025 0 -10.3854065 -4.649704 -10.3854065 -10.3854065l0 -41.54039l0 0c0 -2.7543793 1.0941772 -5.3959503 3.0418243 -7.343582c1.9476318 -1.9476471 4.589203 -3.0418167 7.343582 -3.0418167l184.16838 0c5.735718 0 10.3854065 4.6496964 10.3854065 10.385399l0 41.54039c0 5.7357025 -4.6496887 10.3854065 -10.3854065 10.3854065z" fill-rule="evenodd"/><path stroke="#000000" stroke-width="1.0" stroke-linejoin="round" stroke-linecap="butt" d="m138.39833 188.41873l0 0c-5.7357025 0 -10.3854065 -4.649704 -10.3854065 -10.3854065l0 -41.54039l0 0c0 -2.7543793 1.0941772 -5.3959503 3.0418243 -7.343582c1.9476318 -1.9476471 4.589203 -3.0418167 7.343582 -3.0418167l184.16838 0c5.735718 0 10.3854065 4.6496964 10.3854065 10.385399l0 41.54039c0 5.7357025 -4.6496887 10.3854065 -10.3854065 10.3854065z" fill-rule="evenodd"/><path fill="#cfe2f3" d="m117.97996 176.72348l0 -40.042145c0 -0.4434967 0.17617798 -0.86883545 0.4897766 -1.1824341c0.31359863 -0.31358337 0.7389221 -0.48976135 1.1824188 -0.48976135l8.360771 0c1.9836426E-4 0 3.6621094E-4 1.5258789E-4 3.6621094E-4 3.5095215E-4l-3.6621094E-4 43.386185l0 0c0 1.9836426E-4 -1.5258789E-4 3.5095215E-4 -3.5095215E-4 3.5095215E-4l-8.36042 -3.5095215E-4l0 0c-0.9235306 0 -1.6721954 -0.7486725 -1.6721954 -1.6721954z" fill-rule="evenodd"/><path stroke="#000000" stroke-width="1.0" stroke-linejoin="round" stroke-linecap="butt" d="m117.97996 176.72348l0 -40.042145c0 -0.4434967 0.17617798 -0.86883545 0.4897766 -1.1824341c0.31359863 -0.31358337 0.7389221 -0.48976135 1.1824188 -0.48976135l8.360771 0c1.9836426E-4 0 3.6621094E-4 1.5258789E-4 3.6621094E-4 3.5095215E-4l-3.6621094E-4 43.386185l0 0c0 1.9836426E-4 -1.5258789E-4 3.5095215E-4 -3.5095215E-4 3.5095215E-4l-8.36042 -3.5095215E-4l0 0c-0.9235306 0 -1.6721954 -0.7486725 -1.6721954 -1.6721954z" fill-rule="evenodd"/><path fill="#cfe2f3" d="m310.67612 170.61554l0 0c-2.4605408 0 -4.4552 -1.992691 -4.4552 -4.4508057l0 0c0 -1.1804199 0.46939087 -2.3125 1.3049011 -3.1471863c0.83551025 -0.8346863 1.9687195 -1.3036194 3.150299 -1.3036194l0 0c2.4605408 0 4.4552 1.992691 4.4552 4.4508057l0 0c0 2.4581146 -1.9946594 4.4508057 -4.4552 4.4508057z" fill-rule="evenodd"/><path stroke="#000000" stroke-width="1.0" stroke-linejoin="round" stroke-linecap="butt" d="m310.67612 170.61554l0 0c-2.4605408 0 -4.4552 -1.992691 -4.4552 -4.4508057l0 0c0 -1.1804199 0.46939087 -2.3125 1.3049011 -3.1471863c0.83551025 -0.8346863 1.9687195 -1.3036194 3.150299 -1.3036194l0 0c2.4605408 0 4.4552 1.992691 4.4552 4.4508057l0 0c0 2.4581146 -1.9946594 4.4508057 -4.4552 4.4508057z" fill-rule="evenodd"/><path fill="#000000" fill-opacity="0.0" d="m310.67612 168.31334l0 -4.4507904" fill-rule="evenodd"/><path stroke="#000000" stroke-width="1.0" stroke-linejoin="round" stroke-linecap="butt" d="m310.67612 168.31334l0 -4.4507904" fill-rule="evenodd"/><path fill="#cfe2f3" d="m310.67612 152.81233l0 0c-2.4605408 0 -4.4552 -1.992691 -4.4552 -4.4508057l0 0c0 -1.1804199 0.46939087 -2.3125 1.3049011 -3.1471863c0.83551025 -0.8346863 1.9687195 -1.3036041 3.150299 -1.3036041l0 0c2.4605408 0 4.4552 1.992691 4.4552 4.4507904l0 0c0 2.4581146 -1.9946594 4.4508057 -4.4552 4.4508057z" fill-rule="evenodd"/><path stroke="#000000" stroke-width="1.0" stroke-linejoin="round" stroke-linecap="butt" d="m310.67612 152.81233l0 0c-2.4605408 0 -4.4552 -1.992691 -4.4552 -4.4508057l0 0c0 -1.1804199 0.46939087 -2.3125 1.3049011 -3.1471863c0.83551025 -0.8346863 1.9687195 -1.3036041 3.150299 -1.3036041l0 0c2.4605408 0 4.4552 1.992691 4.4552 4.4507904l0 0c0 2.4581146 -1.9946594 4.4508057 -4.4552 4.4508057z" fill-rule="evenodd"/><path fill="#000000" fill-opacity="0.0" d="m310.67612 150.51015l0 -4.4508057" fill-rule="evenodd"/><path stroke="#000000" stroke-width="1.0" stroke-linejoin="round" stroke-linecap="butt" d="m310.67612 150.51015l0 -4.4508057" fill-rule="evenodd"/><path fill="#cfe2f3" d="m301.76572 143.91074l0 0c-2.4605408 0 -4.4552 -1.992691 -4.4552 -4.4508057l0 0c0 -1.1804199 0.46939087 -2.3125 1.3049011 -3.1471863c0.83551025 -0.8346863 1.9687195 -1.3036041 3.150299 -1.3036041l0 0c2.4605408 0 4.4552 1.992691 4.4552 4.4507904l0 0c0 2.4581146 -1.9946594 4.4508057 -4.4552 4.4508057z" fill-rule="evenodd"/><path stroke="#000000" stroke-width="1.0" stroke-linejoin="round" stroke-linecap="butt" d="m301.76572 143.91074l0 0c-2.4605408 0 -4.4552 -1.992691 -4.4552 -4.4508057l0 0c0 -1.1804199 0.46939087 -2.3125 1.3049011 -3.1471863c0.83551025 -0.8346863 1.9687195 -1.3036041 3.150299 -1.3036041l0 0c2.4605408 0 4.4552 1.992691 4.4552 4.4507904l0 0c0 2.4581146 -1.9946594 4.4508057 -4.4552 4.4508057z" fill-rule="evenodd"/><path fill="#000000" fill-opacity="0.0" d="m301.76572 141.60855l0 -4.4508057" fill-rule="evenodd"/><path stroke="#000000" stroke-width="1.0" stroke-linejoin="round" stroke-linecap="butt" d="m301.76572 141.60855l0 -4.4508057" fill-rule="evenodd"/><path fill="#cfe2f3" d="m319.58652 179.51714l0 0c-2.4605408 0 -4.4552 -1.992691 -4.4552 -4.4508057l0 0c0 -1.1804199 0.46939087 -2.3125 1.3049011 -3.1471863c0.83551025 -0.8346863 1.9687195 -1.3036041 3.150299 -1.3036041l0 0c2.4605408 0 4.4552 1.992691 4.4552 4.4507904l0 0c0 2.4581146 -1.9946594 4.4508057 -4.4552 4.4508057z" fill-rule="evenodd"/><path stroke="#000000" stroke-width="1.0" stroke-linejoin="round" stroke-linecap="butt" d="m319.58652 179.51714l0 0c-2.4605408 0 -4.4552 -1.992691 -4.4552 -4.4508057l0 0c0 -1.1804199 0.46939087 -2.3125 1.3049011 -3.1471863c0.83551025 -0.8346863 1.9687195 -1.3036041 3.150299 -1.3036041l0 0c2.4605408 0 4.4552 1.992691 4.4552 4.4507904l0 0c0 2.4581146 -1.9946594 4.4508057 -4.4552 4.4508057z" fill-rule="evenodd"/><path fill="#000000" fill-opacity="0.0" d="m319.58652 177.21495l0 -4.4508057" fill-rule="evenodd"/><path stroke="#000000" stroke-width="1.0" stroke-linejoin="round" stroke-linecap="butt" d="m319.58652 177.21495l0 -4.4508057" fill-rule="evenodd"/><path fill="#cfe2f3" d="m319.58652 161.71393l0 0c-2.4605408 0 -4.4552 -1.992691 -4.4552 -4.4507904l0 0c0 -1.1804352 0.46939087 -2.3125153 1.3049011 -3.1472015c0.83551025 -0.8346863 1.9687195 -1.3036041 3.150299 -1.3036041l0 0c2.4605408 0 4.4552 1.992691 4.4552 4.4508057l0 0c0 2.4580994 -1.9946594 4.4507904 -4.4552 4.4507904z" fill-rule="evenodd"/><path stroke="#000000" stroke-width="1.0" stroke-linejoin="round" stroke-linecap="butt" d="m319.58652 161.71393l0 0c-2.4605408 0 -4.4552 -1.992691 -4.4552 -4.4507904l0 0c0 -1.1804352 0.46939087 -2.3125153 1.3049011 -3.1472015c0.83551025 -0.8346863 1.9687195 -1.3036041 3.150299 -1.3036041l0 0c2.4605408 0 4.4552 1.992691 4.4552 4.4508057l0 0c0 2.4580994 -1.9946594 4.4507904 -4.4552 4.4507904z" fill-rule="evenodd"/><path fill="#000000" fill-opacity="0.0" d="m319.58652 159.41174l0 -4.4508057" fill-rule="evenodd"/><path stroke="#000000" stroke-width="1.0" stroke-linejoin="round" stroke-linecap="butt" d="m319.58652 159.41174l0 -4.4508057" fill-rule="evenodd"/><path fill="#cfe2f3" d="m319.58652 143.91074l0 0c-2.4605408 0 -4.4552 -1.992691 -4.4552 -4.4508057l0 0c0 -1.1804199 0.46939087 -2.3125 1.3049011 -3.1471863c0.83551025 -0.8346863 1.9687195 -1.3036041 3.150299 -1.3036041l0 0c2.4605408 0 4.4552 1.992691 4.4552 4.4507904l0 0c0 2.4581146 -1.9946594 4.4508057 -4.4552 4.4508057z" fill-rule="evenodd"/><path stroke="#000000" stroke-width="1.0" stroke-linejoin="round" stroke-linecap="butt" d="m319.58652 143.91074l0 0c-2.4605408 0 -4.4552 -1.992691 -4.4552 -4.4508057l0 0c0 -1.1804199 0.46939087 -2.3125 1.3049011 -3.1471863c0.83551025 -0.8346863 1.9687195 -1.3036041 3.150299 -1.3036041l0 0c2.4605408 0 4.4552 1.992691 4.4552 4.4507904l0 0c0 2.4581146 -1.9946594 4.4508057 -4.4552 4.4508057z" fill-rule="evenodd"/><path fill="#000000" fill-opacity="0.0" d="m319.58652 141.60855l0 -4.4508057" fill-rule="evenodd"/><path stroke="#000000" stroke-width="1.0" stroke-linejoin="round" stroke-linecap="butt" d="m319.58652 141.60855l0 -4.4508057" fill-rule="evenodd"/><path fill="#cfe2f3" d="m301.76572 161.71393l0 0c-2.4605408 0 -4.4552 -1.992691 -4.4552 -4.4507904l0 0c0 -1.1804352 0.46939087 -2.3125153 1.3049011 -3.1472015c0.83551025 -0.8346863 1.9687195 -1.3036041 3.150299 -1.3036041l0 0c2.4605408 0 4.4552 1.992691 4.4552 4.4508057l0 0c0 2.4580994 -1.9946594 4.4507904 -4.4552 4.4507904z" fill-rule="evenodd"/><path stroke="#000000" stroke-width="1.0" stroke-linejoin="round" stroke-linecap="butt" d="m301.76572 161.71393l0 0c-2.4605408 0 -4.4552 -1.992691 -4.4552 -4.4507904l0 0c0 -1.1804352 0.46939087 -2.3125153 1.3049011 -3.1472015c0.83551025 -0.8346863 1.9687195 -1.3036041 3.150299 -1.3036041l0 0c2.4605408 0 4.4552 1.992691 4.4552 4.4508057l0 0c0 2.4580994 -1.9946594 4.4507904 -4.4552 4.4507904z" fill-rule="evenodd"/><path fill="#000000" fill-opacity="0.0" d="m301.76572 159.41174l0 -4.4508057" fill-rule="evenodd"/><path stroke="#000000" stroke-width="1.0" stroke-linejoin="round" stroke-linecap="butt" d="m301.76572 159.41174l0 -4.4508057" fill-rule="evenodd"/><path fill="#cfe2f3" d="m301.76572 179.51714l0 0c-2.4605408 0 -4.4552 -1.992691 -4.4552 -4.4508057l0 0c0 -1.1804199 0.46939087 -2.3125 1.3049011 -3.1471863c0.83551025 -0.8346863 1.9687195 -1.3036041 3.150299 -1.3036041l0 0c2.4605408 0 4.4552 1.992691 4.4552 4.4507904l0 0c0 2.4581146 -1.9946594 4.4508057 -4.4552 4.4508057z" fill-rule="evenodd"/><path stroke="#000000" stroke-width="1.0" stroke-linejoin="round" stroke-linecap="butt" d="m301.76572 179.51714l0 0c-2.4605408 0 -4.4552 -1.992691 -4.4552 -4.4508057l0 0c0 -1.1804199 0.46939087 -2.3125 1.3049011 -3.1471863c0.83551025 -0.8346863 1.9687195 -1.3036041 3.150299 -1.3036041l0 0c2.4605408 0 4.4552 1.992691 4.4552 4.4507904l0 0c0 2.4581146 -1.9946594 4.4508057 -4.4552 4.4508057z" fill-rule="evenodd"/><path fill="#000000" fill-opacity="0.0" d="m301.76572 177.21495l0 -4.4508057" fill-rule="evenodd"/><path stroke="#000000" stroke-width="1.0" stroke-linejoin="round" stroke-linecap="butt" d="m301.76572 177.21495l0 -4.4508057" fill-rule="evenodd"/><path fill="#cfe2f3" d="m141.37852 179.51714l0 0c-2.4605408 0 -4.4552 -1.992691 -4.4552 -4.4508057l0 0c0 -1.1804199 0.46939087 -2.3125 1.3049011 -3.1471863c0.83551025 -0.8346863 1.9687042 -1.3036041 3.150299 -1.3036041l0 0c2.4605408 0 4.4552 1.992691 4.4552 4.4507904l0 0c0 2.4581146 -1.9946594 4.4508057 -4.4552 4.4508057z" fill-rule="evenodd"/><path stroke="#000000" stroke-width="1.0" stroke-linejoin="round" stroke-linecap="butt" d="m141.37852 179.51714l0 0c-2.4605408 0 -4.4552 -1.992691 -4.4552 -4.4508057l0 0c0 -1.1804199 0.46939087 -2.3125 1.3049011 -3.1471863c0.83551025 -0.8346863 1.9687042 -1.3036041 3.150299 -1.3036041l0 0c2.4605408 0 4.4552 1.992691 4.4552 4.4507904l0 0c0 2.4581146 -1.9946594 4.4508057 -4.4552 4.4508057z" fill-rule="evenodd"/><path fill="#000000" fill-opacity="0.0" d="m141.37852 177.21495l0 -4.4508057" fill-rule="evenodd"/><path stroke="#000000" stroke-width="1.0" stroke-linejoin="round" stroke-linecap="butt" d="m141.37852 177.21495l0 -4.4508057" fill-rule="evenodd"/><path fill="#000000" fill-opacity="0.0" d="m143.60612 175.06633l-4.4552 0" fill-rule="evenodd"/><path stroke="#000000" stroke-width="1.0" stroke-linejoin="round" stroke-linecap="butt" d="m143.60612 175.06633l-4.4552 0" fill-rule="evenodd"/><path fill="#cfe2f3" d="m141.37852 143.91074l0 0c-2.4605408 0 -4.4552 -1.992691 -4.4552 -4.4508057l0 0c0 -1.1804199 0.46939087 -2.3125 1.3049011 -3.1471863c0.83551025 -0.8346863 1.9687042 -1.3036041 3.150299 -1.3036041l0 0c2.4605408 0 4.4552 1.992691 4.4552 4.4507904l0 0c0 2.4581146 -1.9946594 4.4508057 -4.4552 4.4508057z" fill-rule="evenodd"/><path stroke="#000000" stroke-width="1.0" stroke-linejoin="round" stroke-linecap="butt" d="m141.37852 143.91074l0 0c-2.4605408 0 -4.4552 -1.992691 -4.4552 -4.4508057l0 0c0 -1.1804199 0.46939087 -2.3125 1.3049011 -3.1471863c0.83551025 -0.8346863 1.9687042 -1.3036041 3.150299 -1.3036041l0 0c2.4605408 0 4.4552 1.992691 4.4552 4.4507904l0 0c0 2.4581146 -1.9946594 4.4508057 -4.4552 4.4508057z" fill-rule="evenodd"/><path fill="#000000" fill-opacity="0.0" d="m141.37852 141.60855l0 -4.4508057" fill-rule="evenodd"/><path stroke="#000000" stroke-width="1.0" stroke-linejoin="round" stroke-linecap="butt" d="m141.37852 141.60855l0 -4.4508057" fill-rule="evenodd"/><path fill="#000000" fill-opacity="0.0" d="m143.60612 139.45993l-4.4552 0" fill-rule="evenodd"/><path stroke="#000000" stroke-width="1.0" stroke-linejoin="round" stroke-linecap="butt" d="m143.60612 139.45993l-4.4552 0" fill-rule="evenodd"/><path fill="#cfe2f3" d="m141.37852 161.71393l0 0c-2.4605408 0 -4.4552 -1.992691 -4.4552 -4.4507904l0 0c0 -1.1804352 0.46939087 -2.3125153 1.3049011 -3.1472015c0.83551025 -0.8346863 1.9687042 -1.3036041 3.150299 -1.3036041l0 0c2.4605408 0 4.4552 1.992691 4.4552 4.4508057l0 0c0 2.4580994 -1.9946594 4.4507904 -4.4552 4.4507904z" fill-rule="evenodd"/><path stroke="#000000" stroke-width="1.0" stroke-linejoin="round" stroke-linecap="butt" d="m141.37852 161.71393l0 0c-2.4605408 0 -4.4552 -1.992691 -4.4552 -4.4507904l0 0c0 -1.1804352 0.46939087 -2.3125153 1.3049011 -3.1472015c0.83551025 -0.8346863 1.9687042 -1.3036041 3.150299 -1.3036041l0 0c2.4605408 0 4.4552 1.992691 4.4552 4.4508057l0 0c0 2.4580994 -1.9946594 4.4507904 -4.4552 4.4507904z" fill-rule="evenodd"/><path fill="#000000" fill-opacity="0.0" d="m141.37852 159.41174l0 -4.4508057" fill-rule="evenodd"/><path stroke="#000000" stroke-width="1.0" stroke-linejoin="round" stroke-linecap="butt" d="m141.37852 159.41174l0 -4.4508057" fill-rule="evenodd"/><path fill="#000000" fill-opacity="0.0" d="m143.60612 157.26314l-4.4552 0" fill-rule="evenodd"/><path stroke="#000000" stroke-width="1.0" stroke-linejoin="round" stroke-linecap="butt" d="m143.60612 157.26314l-4.4552 0" fill-rule="evenodd"/><path fill="#cfe2f3" d="m150.28893 170.61554l0 0c-2.4605408 0 -4.4552 -1.992691 -4.4552 -4.4508057l0 0c0 -1.1804199 0.46939087 -2.3125 1.3049011 -3.1471863c0.83551025 -0.8346863 1.9687042 -1.3036194 3.150299 -1.3036194l0 0c2.4605408 0 4.4552 1.992691 4.4552 4.4508057l0 0c0 2.4581146 -1.9946594 4.4508057 -4.4552 4.4508057z" fill-rule="evenodd"/><path stroke="#000000" stroke-width="1.0" stroke-linejoin="round" stroke-linecap="butt" d="m150.28893 170.61554l0 0c-2.4605408 0 -4.4552 -1.992691 -4.4552 -4.4508057l0 0c0 -1.1804199 0.46939087 -2.3125 1.3049011 -3.1471863c0.83551025 -0.8346863 1.9687042 -1.3036194 3.150299 -1.3036194l0 0c2.4605408 0 4.4552 1.992691 4.4552 4.4508057l0 0c0 2.4581146 -1.9946594 4.4508057 -4.4552 4.4508057z" fill-rule="evenodd"/><path fill="#000000" fill-opacity="0.0" d="m150.28893 168.31334l0 -4.4507904" fill-rule="evenodd"/><path stroke="#000000" stroke-width="1.0" stroke-linejoin="round" stroke-linecap="butt" d="m150.28893 168.31334l0 -4.4507904" fill-rule="evenodd"/><path fill="#000000" fill-opacity="0.0" d="m152.51653 166.16473l-4.4552 0" fill-rule="evenodd"/><path stroke="#000000" stroke-width="1.0" stroke-linejoin="round" stroke-linecap="butt" d="m152.51653 166.16473l-4.4552 0" fill-rule="evenodd"/><path fill="#cfe2f3" d="m150.28893 152.81233l0 0c-2.4605408 0 -4.4552 -1.992691 -4.4552 -4.4508057l0 0c0 -1.1804199 0.46939087 -2.3125 1.3049011 -3.1471863c0.83551025 -0.8346863 1.9687042 -1.3036041 3.150299 -1.3036041l0 0c2.4605408 0 4.4552 1.992691 4.4552 4.4507904l0 0c0 2.4581146 -1.9946594 4.4508057 -4.4552 4.4508057z" fill-rule="evenodd"/><path stroke="#000000" stroke-width="1.0" stroke-linejoin="round" stroke-linecap="butt" d="m150.28893 152.81233l0 0c-2.4605408 0 -4.4552 -1.992691 -4.4552 -4.4508057l0 0c0 -1.1804199 0.46939087 -2.3125 1.3049011 -3.1471863c0.83551025 -0.8346863 1.9687042 -1.3036041 3.150299 -1.3036041l0 0c2.4605408 0 4.4552 1.992691 4.4552 4.4507904l0 0c0 2.4581146 -1.9946594 4.4508057 -4.4552 4.4508057z" fill-rule="evenodd"/><path fill="#000000" fill-opacity="0.0" d="m150.28893 150.51015l0 -4.4508057" fill-rule="evenodd"/><path stroke="#000000" stroke-width="1.0" stroke-linejoin="round" stroke-linecap="butt" d="m150.28893 150.51015l0 -4.4508057" fill-rule="evenodd"/><path fill="#000000" fill-opacity="0.0" d="m152.51653 148.36153l-4.4552 0" fill-rule="evenodd"/><path stroke="#000000" stroke-width="1.0" stroke-linejoin="round" stroke-linecap="butt" d="m152.51653 148.36153l-4.4552 0" fill-rule="evenodd"/><path fill="#cfe2f3" d="m159.19933 179.51714l0 0c-2.4605408 0 -4.4552 -1.992691 -4.4552 -4.4508057l0 0c0 -1.1804199 0.46939087 -2.3125 1.3049011 -3.1471863c0.83551025 -0.8346863 1.9687042 -1.3036041 3.150299 -1.3036041l0 0c2.4605408 0 4.4552 1.992691 4.4552 4.4507904l0 0c0 2.4581146 -1.9946594 4.4508057 -4.4552 4.4508057z" fill-rule="evenodd"/><path stroke="#000000" stroke-width="1.0" stroke-linejoin="round" stroke-linecap="butt" d="m159.19933 179.51714l0 0c-2.4605408 0 -4.4552 -1.992691 -4.4552 -4.4508057l0 0c0 -1.1804199 0.46939087 -2.3125 1.3049011 -3.1471863c0.83551025 -0.8346863 1.9687042 -1.3036041 3.150299 -1.3036041l0 0c2.4605408 0 4.4552 1.992691 4.4552 4.4507904l0 0c0 2.4581146 -1.9946594 4.4508057 -4.4552 4.4508057z" fill-rule="evenodd"/><path fill="#000000" fill-opacity="0.0" d="m159.19933 177.21495l0 -4.4508057" fill-rule="evenodd"/><path stroke="#000000" stroke-width="1.0" stroke-linejoin="round" stroke-linecap="butt" d="m159.19933 177.21495l0 -4.4508057" fill-rule="evenodd"/><path fill="#000000" fill-opacity="0.0" d="m161.42693 175.06633l-4.4552 0" fill-rule="evenodd"/><path stroke="#000000" stroke-width="1.0" stroke-linejoin="round" stroke-linecap="butt" d="m161.42693 175.06633l-4.4552 0" fill-rule="evenodd"/><path fill="#cfe2f3" d="m159.19933 161.71393l0 0c-2.4605408 0 -4.4552 -1.992691 -4.4552 -4.4507904l0 0c0 -1.1804352 0.46939087 -2.3125153 1.3049011 -3.1472015c0.83551025 -0.8346863 1.9687042 -1.3036041 3.150299 -1.3036041l0 0c2.4605408 0 4.4552 1.992691 4.4552 4.4508057l0 0c0 2.4580994 -1.9946594 4.4507904 -4.4552 4.4507904z" fill-rule="evenodd"/><path stroke="#000000" stroke-width="1.0" stroke-linejoin="round" stroke-linecap="butt" d="m159.19933 161.71393l0 0c-2.4605408 0 -4.4552 -1.992691 -4.4552 -4.4507904l0 0c0 -1.1804352 0.46939087 -2.3125153 1.3049011 -3.1472015c0.83551025 -0.8346863 1.9687042 -1.3036041 3.150299 -1.3036041l0 0c2.4605408 0 4.4552 1.992691 4.4552 4.4508057l0 0c0 2.4580994 -1.9946594 4.4507904 -4.4552 4.4507904z" fill-rule="evenodd"/><path fill="#000000" fill-opacity="0.0" d="m159.19933 159.41174l0 -4.4508057" fill-rule="evenodd"/><path stroke="#000000" stroke-width="1.0" stroke-linejoin="round" stroke-linecap="butt" d="m159.19933 159.41174l0 -4.4508057" fill-rule="evenodd"/><path fill="#000000" fill-opacity="0.0" d="m161.42693 157.26314l-4.4552 0" fill-rule="evenodd"/><path stroke="#000000" stroke-width="1.0" stroke-linejoin="round" stroke-linecap="butt" d="m161.42693 157.26314l-4.4552 0" fill-rule="evenodd"/><path fill="#cfe2f3" d="m159.19933 143.91074l0 0c-2.4605408 0 -4.4552 -1.992691 -4.4552 -4.4508057l0 0c0 -1.1804199 0.46939087 -2.3125 1.3049011 -3.1471863c0.83551025 -0.8346863 1.9687042 -1.3036041 3.150299 -1.3036041l0 0c2.4605408 0 4.4552 1.992691 4.4552 4.4507904l0 0c0 2.4581146 -1.9946594 4.4508057 -4.4552 4.4508057z" fill-rule="evenodd"/><path stroke="#000000" stroke-width="1.0" stroke-linejoin="round" stroke-linecap="butt" d="m159.19933 143.91074l0 0c-2.4605408 0 -4.4552 -1.992691 -4.4552 -4.4508057l0 0c0 -1.1804199 0.46939087 -2.3125 1.3049011 -3.1471863c0.83551025 -0.8346863 1.9687042 -1.3036041 3.150299 -1.3036041l0 0c2.4605408 0 4.4552 1.992691 4.4552 4.4507904l0 0c0 2.4581146 -1.9946594 4.4508057 -4.4552 4.4508057z" fill-rule="evenodd"/><path fill="#000000" fill-opacity="0.0" d="m159.19933 141.60855l0 -4.4508057" fill-rule="evenodd"/><path stroke="#000000" stroke-width="1.0" stroke-linejoin="round" stroke-linecap="butt" d="m159.19933 141.60855l0 -4.4508057" fill-rule="evenodd"/><path fill="#000000" fill-opacity="0.0" d="m161.42693 139.45993l-4.4552 0" fill-rule="evenodd"/><path stroke="#000000" stroke-width="1.0" stroke-linejoin="round" stroke-linecap="butt" d="m161.42693 139.45993l-4.4552 0" fill-rule="evenodd"/><path fill="#000000" d="m346.83737 149.46584l13.858276 6.929123l-13.858276 6.929138z" fill-rule="evenodd"/><path stroke="#000000" stroke-width="1.0" stroke-linejoin="round" stroke-linecap="butt" d="m346.83737 149.46584l13.858276 6.929123l-13.858276 6.929138z" fill-rule="evenodd"/><path fill="#000000" d="m367.63043 105.333336l6.929138 -13.858269l6.929138 13.858269z" fill-rule="evenodd"/><path stroke="#000000" stroke-width="1.0" stroke-linejoin="round" stroke-linecap="butt" d="m367.63043 105.333336l6.929138 -13.858269l6.929138 13.858269z" fill-rule="evenodd"/><path fill="#000000" d="m228.9235 66.37459l-13.858276 -6.9291344l13.858276 -6.9291344z" fill-rule="evenodd"/><path stroke="#000000" stroke-width="1.0" stroke-linejoin="round" stroke-linecap="butt" d="m228.9235 66.37459l-13.858276 -6.9291344l13.858276 -6.9291344z" fill-rule="evenodd"/><path fill="#000000" d="m76.36957 91.46534l-6.929138 13.858269l-6.9291306 -13.858269z" fill-rule="evenodd"/><path stroke="#000000" stroke-width="1.0" stroke-linejoin="round" stroke-linecap="butt" d="m76.36957 91.46534l-6.929138 13.858269l-6.9291306 -13.858269z" fill-rule="evenodd"/><path fill="#000000" d="m90.25043 149.46584l13.858269 6.929123l-13.858269 6.929138z" fill-rule="evenodd"/><path stroke="#000000" stroke-width="1.0" stroke-linejoin="round" stroke-linecap="butt" d="m90.25043 149.46584l13.858269 6.929123l-13.858269 6.929138z" fill-rule="evenodd"/><path fill="#000000" fill-opacity="0.0" d="m187.0 138.56348l76.28348 0l0 34.362213l-76.28348 0z" fill-rule="evenodd"/><path fill="#000000" d="m199.65346 151.5016l3.21875 0q2.28125 0 3.296875 0.6875q1.015625 0.671875 1.015625 2.140625q0 1.015625 -0.578125 1.671875q-0.5625 0.65625 -1.640625 0.859375l0 0.078125q2.59375 0.4375 2.59375 2.734375q0 1.53125 -1.03125 2.390625q-1.03125 0.859375 -2.890625 0.859375l-3.984375 0l0 -11.421875zm1.328125 4.890625l2.1875 0q1.40625 0 2.015625 -0.4375q0.625 -0.453125 0.625 -1.5q0 -0.953125 -0.6875 -1.375q-0.6875 -0.4375 -2.1875 -0.4375l-1.953125 0l0 3.75zm0 1.125l0 4.265625l2.375 0q1.390625 0 2.078125 -0.53125q0.703125 -0.53125 0.703125 -1.671875q0 -1.0625 -0.71875 -1.5625q-0.703125 -0.5 -2.171875 -0.5l-2.265625 0zm14.1015625 5.40625l-0.25 -1.21875l-0.0625 0q-0.640625 0.796875 -1.28125 1.09375q-0.640625 0.28125 -1.59375 0.28125q-1.265625 0 -2.0 -0.65625q-0.71875 -0.65625 -0.71875 -1.875q0 -2.59375 4.15625 -2.71875l1.453125 -0.046875l0 -0.53125q0 -1.0 -0.4375 -1.484375q-0.4375 -0.484375 -1.390625 -0.484375q-1.0625 0 -2.421875 0.65625l-0.390625 -0.984375q0.625 -0.34375 1.375 -0.53125q0.765625 -0.203125 1.515625 -0.203125q1.53125 0 2.265625 0.6875q0.75 0.671875 0.75 2.171875l0 5.84375l-0.96875 0zm-2.921875 -0.921875q1.203125 0 1.890625 -0.65625q0.703125 -0.671875 0.703125 -1.859375l0 -0.78125l-1.296875 0.0625q-1.546875 0.046875 -2.234375 0.484375q-0.6875 0.421875 -0.6875 1.3125q0 0.703125 0.421875 1.078125q0.4375 0.359375 1.203125 0.359375zm9.320297 0q0.34375 0 0.65625 -0.046875q0.328125 -0.046875 0.515625 -0.109375l0 1.0q-0.203125 0.109375 -0.625 0.171875q-0.40625 0.0625 -0.734375 0.0625q-2.4843597 0 -2.4843597 -2.625l0 -5.09375l-1.21875 0l0 -0.625l1.21875 -0.53125l0.54685974 -1.828125l0.75 0l0 1.984375l2.484375 0l0 1.0l-2.484375 0l0 5.046875q0 0.765625 0.359375 1.1875q0.375 0.40625 1.015625 0.40625zm5.6484375 0q0.34375 0 0.65625 -0.046875q0.328125 -0.046875 0.515625 -0.109375l0 1.0q-0.203125 0.109375 -0.625 0.171875q-0.40625 0.0625 -0.734375 0.0625q-2.484375 0 -2.484375 -2.625l0 -5.09375l-1.21875 0l0 -0.625l1.21875 -0.53125l0.546875 -1.828125l0.75 0l0 1.984375l2.484375 0l0 1.0l-2.484375 0l0 5.046875q0 0.765625 0.359375 1.1875q0.375 0.40625 1.015625 0.40625zm6.5078125 1.078125q-1.90625 0 -3.0 -1.15625q-1.09375 -1.15625 -1.09375 -3.21875q0 -2.0625 1.015625 -3.28125q1.015625 -1.21875 2.734375 -1.21875q1.609375 0 2.546875 1.0625q0.9375 1.046875 0.9375 2.78125l0 0.828125l-5.890625 0q0.03125 1.5 0.75 2.28125q0.734375 0.78125 2.046875 0.78125q1.375 0 2.734375 -0.578125l0 1.15625q-0.6875 0.296875 -1.3125 0.421875q-0.609375 0.140625 -1.46875 0.140625zm-0.359375 -7.796875q-1.03125 0 -1.640625 0.671875q-0.609375 0.671875 -0.71875 1.859375l4.46875 0q0 -1.21875 -0.546875 -1.875q-0.546875 -0.65625 -1.5625 -0.65625zm9.6171875 -1.078125q0.578125 0 1.03125 0.09375l-0.1875 1.203125q-0.53125 -0.125 -0.9375 -0.125q-1.03125 0 -1.78125 0.84375q-0.734375 0.84375 -0.734375 2.109375l0 4.59375l-1.296875 0l0 -8.5625l1.078125 0l0.140625 1.578125l0.0625 0q0.484375 -0.828125 1.15625 -1.28125q0.671875 -0.453125 1.46875 -0.453125zm1.265625 0.15625l1.390625 0l1.875 4.875q0.625 1.671875 0.765625 2.421875l0.0625 0q0.109375 -0.40625 0.421875 -1.359375q0.328125 -0.96875 2.125 -5.9375l1.390625 0l-3.671875 9.75q-0.546875 1.453125 -1.28125 2.046875q-0.734375 0.609375 -1.796875 0.609375q-0.59375 0 -1.171875 -0.125l0 -1.046875q0.4375 0.09375 0.96875 0.09375q1.328125 0 1.90625 -1.5l0.46875 -1.21875l-3.453125 -8.609375z" fill-rule="nonzero"/><path fill="#000000" fill-opacity="0.0" d="m138.78261 25.074316l173.35432 0l0 34.614174l-173.35432 0z" fill-rule="evenodd"/><path fill="#000000" d="m165.00275 49.434315l-1.328125 0l0 -11.421875l6.359375 0l0 1.171875l-5.03125 0l0 4.1875l4.734375 0l0 1.171875l-4.734375 0l0 4.890625zm8.0234375 0l-1.296875 0l0 -12.15625l1.296875 0l0 12.15625zm10.140625 -4.296875q0 2.09375 -1.0625 3.28125q-1.046875 1.171875 -2.90625 1.171875q-1.140625 0 -2.03125 -0.53125q-0.890625 -0.546875 -1.375 -1.546875q-0.484375 -1.015625 -0.484375 -2.375q0 -2.09375 1.046875 -3.25q1.046875 -1.171875 2.90625 -1.171875q1.796875 0 2.84375 1.203125q1.0625 1.1875 1.0625 3.21875zm-6.515625 0q0 1.640625 0.65625 2.5q0.65625 0.859375 1.921875 0.859375q1.28125 0 1.9375 -0.84375q0.65625 -0.859375 0.65625 -2.515625q0 -1.625 -0.65625 -2.46875q-0.65625 -0.859375 -1.953125 -0.859375q-1.265625 0 -1.921875 0.84375q-0.640625 0.828125 -0.640625 2.484375zm15.7890625 4.296875l-1.578125 -5.03125q-0.140625 -0.453125 -0.546875 -2.09375l-0.0625 0q-0.3125 1.375 -0.546875 2.109375l-1.625 5.015625l-1.5 0l-2.328125 -8.5625l1.359375 0q0.828125 3.21875 1.25 4.90625q0.4375 1.6875 0.5 2.28125l0.0625 0q0.09375 -0.453125 0.28125 -1.15625q0.1875 -0.703125 0.328125 -1.125l1.578125 -4.90625l1.40625 0l1.53125 4.90625q0.4375 1.34375 0.59375 2.265625l0.0625 0q0.03125 -0.28125 0.15625 -0.859375q0.140625 -0.59375 1.640625 -6.3125l1.34375 0l-2.375 8.5625l-1.53125 0zm16.992188 -4.296875q0 2.09375 -1.0625 3.28125q-1.046875 1.171875 -2.90625 1.171875q-1.140625 0 -2.03125 -0.53125q-0.890625 -0.546875 -1.375 -1.546875q-0.484375 -1.015625 -0.484375 -2.375q0 -2.09375 1.046875 -3.25q1.046875 -1.171875 2.90625 -1.171875q1.796875 0 2.84375 1.203125q1.0625 1.1875 1.0625 3.21875zm-6.515625 0q0 1.640625 0.65625 2.5q0.65625 0.859375 1.921875 0.859375q1.28125 0 1.9375 -0.84375q0.65625 -0.859375 0.65625 -2.515625q0 -1.625 -0.65625 -2.46875q-0.65625 -0.859375 -1.953125 -0.859375q-1.265625 0 -1.921875 0.84375q-0.640625 0.828125 -0.640625 2.484375zm12.6484375 -3.265625l-2.171875 0l0 7.5625l-1.296875 0l0 -7.5625l-1.53125 0l0 -0.578125l1.53125 -0.46875l0 -0.484375q0 -3.15625 2.75 -3.15625q0.6875 0 1.59375 0.28125l-0.328125 1.03125q-0.75 -0.234375 -1.28125 -0.234375q-0.734375 0 -1.09375 0.484375q-0.34375 0.484375 -0.34375 1.5625l0 0.5625l2.171875 0l0 1.0zm9.34375 7.71875q-1.90625 0 -3.0 -1.15625q-1.09375 -1.15625 -1.09375 -3.21875q0 -2.0625 1.015625 -3.28125q1.015625 -1.21875 2.734375 -1.21875q1.609375 0 2.546875 1.0625q0.9375 1.046875 0.9375 2.78125l0 0.828125l-5.890625 0q0.03125 1.5 0.75 2.28125q0.734375 0.78125 2.046875 0.78125q1.375 0 2.734375 -0.578125l0 1.15625q-0.6875 0.296875 -1.3125 0.421875q-0.609375 0.140625 -1.46875 0.140625zm-0.359375 -7.796875q-1.03125 0 -1.640625 0.671875q-0.609375 0.671875 -0.71875 1.859375l4.46875 0q0 -1.21875 -0.546875 -1.875q-0.546875 -0.65625 -1.5625 -0.65625zm7.0078125 7.640625l-1.296875 0l0 -12.15625l1.296875 0l0 12.15625zm6.375 0.15625q-1.90625 0 -3.0 -1.15625q-1.09375 -1.15625 -1.09375 -3.21875q0 -2.0625 1.015625 -3.28125q1.015625 -1.21875 2.734375 -1.21875q1.609375 0 2.546875 1.0625q0.9375 1.046875 0.9375 2.78125l0 0.828125l-5.890625 0q0.03125 1.5 0.75 2.28125q0.734375 0.78125 2.046875 0.78125q1.375 0 2.734375 -0.578125l0 1.15625q-0.6875 0.296875 -1.3125 0.421875q-0.609375 0.140625 -1.46875 0.140625zm-0.359375 -7.796875q-1.03125 0 -1.640625 0.671875q-0.609375 0.671875 -0.71875 1.859375l4.46875 0q0 -1.21875 -0.546875 -1.875q-0.546875 -0.65625 -1.5625 -0.65625zm9.1328125 7.796875q-1.859375 0 -2.875 -1.140625q-1.015625 -1.15625 -1.015625 -3.25q0 -2.140625 1.03125 -3.3125q1.03125 -1.171875 2.953125 -1.171875q0.609375 0 1.21875 0.140625q0.625 0.125 0.984375 0.296875l-0.40625 1.109375q-0.421875 -0.171875 -0.9375 -0.28125q-0.5 -0.125 -0.890625 -0.125q-2.609375 0 -2.609375 3.328125q0 1.578125 0.625 2.421875q0.640625 0.84375 1.890625 0.84375q1.078125 0 2.203125 -0.453125l0 1.140625q-0.859375 0.453125 -2.171875 0.453125zm6.9609375 -1.078125q0.34375 0 0.65625 -0.046875q0.328125 -0.046875 0.515625 -0.109375l0 1.0q-0.203125 0.109375 -0.625 0.171875q-0.40625 0.0625 -0.734375 0.0625q-2.484375 0 -2.484375 -2.625l0 -5.09375l-1.21875 0l0 -0.625l1.21875 -0.53125l0.546875 -1.828125l0.75 0l0 1.984375l2.484375 0l0 1.0l-2.484375 0l0 5.046875q0 0.765625 0.359375 1.1875q0.375 0.40625 1.015625 0.40625zm6.7890625 -7.796875q0.578125 0 1.03125 0.09375l-0.1875 1.203125q-0.53125 -0.125 -0.9375 -0.125q-1.03125 0 -1.78125 0.84375q-0.734375 0.84375 -0.734375 2.109375l0 4.59375l-1.296875 0l0 -8.5625l1.078125 0l0.140625 1.578125l0.0625 0q0.484375 -0.828125 1.15625 -1.28125q0.671875 -0.453125 1.46875 -0.453125zm10.015625 4.421875q0 2.09375 -1.0625 3.28125q-1.046875 1.171875 -2.90625 1.171875q-1.140625 0 -2.03125 -0.53125q-0.890625 -0.546875 -1.375 -1.546875q-0.484375 -1.015625 -0.484375 -2.375q0 -2.09375 1.046875 -3.25q1.046875 -1.171875 2.90625 -1.171875q1.796875 0 2.84375 1.203125q1.0625 1.1875 1.0625 3.21875zm-6.515625 0q0 1.640625 0.65625 2.5q0.65625 0.859375 1.921875 0.859375q1.28125 0 1.9375 -0.84375q0.65625 -0.859375 0.65625 -2.515625q0 -1.625 -0.65625 -2.46875q-0.65625 -0.859375 -1.953125 -0.859375q-1.265625 0 -1.921875 0.84375q-0.640625 0.828125 -0.640625 2.484375zm14.6484375 4.296875l0 -5.546875q0 -1.046875 -0.484375 -1.5625q-0.46875 -0.515625 -1.484375 -0.515625q-1.34375 0 -1.96875 0.734375q-0.625 0.71875 -0.625 2.390625l0 4.5l-1.296875 0l0 -8.5625l1.0625 0l0.203125 1.171875l0.0625 0q0.40625 -0.640625 1.125 -0.984375q0.71875 -0.34375 1.59375 -0.34375q1.546875 0 2.328125 0.75q0.78125 0.734375 0.78125 2.375l0 5.59375l-1.296875 0zm9.4921875 -2.34375q0 1.203125 -0.890625 1.859375q-0.890625 0.640625 -2.5 0.640625q-1.703125 0 -2.65625 -0.546875l0 -1.203125q0.609375 0.3125 1.3125 0.5q0.71875 0.171875 1.375 0.171875q1.015625 0 1.5625 -0.3125q0.546875 -0.328125 0.546875 -1.0q0 -0.5 -0.4375 -0.84375q-0.4375 -0.359375 -1.6875 -0.84375q-1.203125 -0.453125 -1.703125 -0.78125q-0.5 -0.328125 -0.75 -0.75q-0.25 -0.421875 -0.25 -1.015625q0 -1.046875 0.84375 -1.640625q0.859375 -0.609375 2.34375 -0.609375q1.390625 0 2.703125 0.5625l-0.453125 1.046875q-1.296875 -0.53125 -2.34375 -0.53125q-0.921875 0 -1.390625 0.296875q-0.46875 0.28125 -0.46875 0.796875q0 0.34375 0.171875 0.59375q0.1875 0.234375 0.578125 0.453125q0.390625 0.21875 1.5 0.625q1.515625 0.5625 2.046875 1.125q0.546875 0.5625 0.546875 1.40625z" fill-rule="nonzero"/><path fill="#cfe2f3" d="m339.0 182.92569l84.0 0l0 -10.0l20.0 20.0l-20.0 20.0l0 -10.0l-84.0 0z" fill-rule="evenodd"/><path stroke="#000000" stroke-width="1.0" stroke-linejoin="round" stroke-linecap="butt" d="m339.0 182.92569l84.0 0l0 -10.0l20.0 20.0l-20.0 20.0l0 -10.0l-84.0 0z" fill-rule="evenodd"/><path fill="#000000" d="m376.35938 190.69194q0 1.734375 -1.1875 2.671875q-1.171875 0.921875 -3.375 0.921875l-1.34375 0l0 4.5l-1.328125 0l0 -11.421875l2.953125 0q4.28125 0 4.28125 3.328125zm-5.90625 2.453125l1.1875 0q1.765625 0 2.546875 -0.5625q0.796875 -0.578125 0.796875 -1.828125q0 -1.140625 -0.75 -1.6875q-0.734375 -0.5625 -2.296875 -0.5625l-1.484375 0l0 4.640625zm9.3203125 -2.921875l0 5.546875q0 1.046875 0.46875 1.5625q0.484375 0.515625 1.5 0.515625q1.34375 0 1.96875 -0.734375q0.625 -0.734375 0.625 -2.390625l0 -4.5l1.296875 0l0 8.5625l-1.078125 0l-0.1875 -1.15625l-0.0625 0q-0.40625 0.640625 -1.109375 0.984375q-0.703125 0.328125 -1.609375 0.328125q-1.5625 0 -2.34375 -0.734375q-0.78125 -0.75 -0.78125 -2.390625l0 -5.59375l1.3125 0zm14.1328125 6.21875q0 1.203125 -0.890625 1.859375q-0.890625 0.640625 -2.5 0.640625q-1.703125 0 -2.65625 -0.546875l0 -1.203125q0.609375 0.3125 1.3125 0.5q0.71875 0.171875 1.375 0.171875q1.015625 0 1.5625 -0.3125q0.546875 -0.328125 0.546875 -1.0q0 -0.5 -0.4375 -0.84375q-0.4375 -0.359375 -1.6875 -0.84375q-1.203125 -0.453125 -1.703125 -0.78125q-0.5 -0.328125 -0.75 -0.75q-0.25 -0.421875 -0.25 -1.015625q0 -1.046875 0.84375 -1.640625q0.859375 -0.609375 2.34375 -0.609375q1.390625 0 2.703125 0.5625l-0.453125 1.046875q-1.296875 -0.53125 -2.34375 -0.53125q-0.921875 0 -1.390625 0.296875q-0.46875 0.28125 -0.46875 0.796875q0 0.34375 0.171875 0.59375q0.1875 0.234375 0.578125 0.453125q0.390625 0.21875 1.5 0.625q1.515625 0.5625 2.046875 1.125q0.546875 0.5625 0.546875 1.40625zm7.9609375 2.34375l0 -5.546875q0 -1.046875 -0.484375 -1.5625q-0.46875 -0.515625 -1.484375 -0.515625q-1.34375 0 -1.96875 0.734375q-0.625 0.734375 -0.625 2.40625l0 4.484375l-1.296875 0l0 -12.15625l1.296875 0l0 3.671875q0 0.671875 -0.0625 1.109375l0.078125 0q0.390625 -0.625 1.09375 -0.96875q0.703125 -0.359375 1.609375 -0.359375q1.578125 0 2.359375 0.75q0.78125 0.734375 0.78125 2.359375l0 5.59375l-1.296875 0z" fill-rule="nonzero"/><path fill="#cfe2f3" d="m11.0 182.92569l84.0 0l0 -10.0l20.0 20.0l-20.0 20.0l0 -10.0l-84.0 0z" fill-rule="evenodd"/><path stroke="#000000" stroke-width="1.0" stroke-linejoin="round" stroke-linecap="butt" d="m11.0 182.92569l84.0 0l0 -10.0l20.0 20.0l-20.0 20.0l0 -10.0l-84.0 0z" fill-rule="evenodd"/><path fill="#000000" d="m53.039062 190.69194q0 1.734375 -1.1875 2.671875q-1.171875 0.921875 -3.375 0.921875l-1.34375 0l0 4.5l-1.328125 0l0 -11.421875l2.953125 0q4.28125 0 4.28125 3.328125zm-5.90625 2.453125l1.1875 0q1.765625 0 2.546875 -0.5625q0.796875 -0.578125 0.796875 -1.828125q0 -1.140625 -0.75 -1.6875q-0.734375 -0.5625 -2.296875 -0.5625l-1.484375 0l0 4.640625zm9.3203125 -2.921875l0 5.546875q0 1.046875 0.46875 1.5625q0.484375 0.515625 1.5 0.515625q1.34375 0 1.96875 -0.734375q0.625 -0.734375 0.625 -2.390625l0 -4.5l1.296875 0l0 8.5625l-1.078125 0l-0.1875 -1.15625l-0.0625 0q-0.40625 0.640625 -1.109375 0.984375q-0.703125 0.328125 -1.609375 0.328125q-1.5625 0 -2.34375 -0.734375q-0.78125 -0.75 -0.78125 -2.390625l0 -5.59375l1.3125 0zm9.8984375 8.5625l-1.296875 0l0 -12.15625l1.296875 0l0 12.15625zm4.046875 0l-1.296875 0l0 -12.15625l1.296875 0l0 12.15625z" fill-rule="nonzero"/></g></svg>